<?xml version="1.0" encoding="UTF-8" standalone="no"?>
<!DOCTYPE svg PUBLIC "-//W3C//DTD SVG 1.1//EN" "http://www.w3.org/Graphics/SVG/1.1/DTD/svg11.dtd">
<!-- Created with Vectornator (http://vectornator.io/) -->
<svg height="100%" stroke-miterlimit="10" style="fill-rule:nonzero;clip-rule:evenodd;stroke-linecap:round;stroke-linejoin:round;" version="1.1" viewBox="0 0 95 196" width="100%" xml:space="preserve" xmlns="http://www.w3.org/2000/svg" xmlns:vectornator="http://vectornator.io" xmlns:xlink="http://www.w3.org/1999/xlink">
<defs/>
<g id="名称未設定" vectornator:layerName="名称未設定">
<g opacity="1" vectornator:layerName="g">
<path d="M44.96 19C44.6467 19.0333 44.4233 19.2 44.29 19.5" fill="none" opacity="1" stroke="#ffefbe" stroke-linecap="butt" stroke-linejoin="miter" stroke-width="2" vectornator:layerName="path"/>
<path d="M44.29 19.5C43.5367 14.26 41.12 10.3967 37.04 7.91C34.6733 6.47667 32.1967 5.86667 29.61 6.08C26.2167 6.36667 23.92 7.95333 22.72 10.84C21.7733 13.1 21.6267 16.4033 22.28 20.75C22.88 24.73 23.8867 28.6133 25.3 32.4C25.62 33.2667 25.46 33.3667 24.82 32.7C22.1933 29.9667 19.1433 27.85 15.67 26.35C13.53 25.4233 11.3067 25.13 9 25.47C6.78 25.79 5.47 26.8167 5.07 28.55C4.85667 29.4833 5.05 30.9233 5.65 32.87C9.58333 45.63 13.6167 57.59 17.75 68.75C18.83 71.6567 20.3033 74.58 22.17 77.52C22.2383 77.625 22.2576 77.7547 22.2235 77.8781C22.1893 78.0014 22.1047 78.1072 21.99 78.17C20.0233 79.2233 18.63 80.4367 17.81 81.81C14.59 87.23 13.16 93.4633 13.52 100.51C13.9933 109.65 15.4033 118.647 17.75 127.5C20.0367 136.133 24.36 150.47 30.72 170.51C31.9333 174.35 33.3533 178.11 34.98 181.79C36.14 184.423 37.66 186.773 39.54 188.84C41.7933 191.327 44.0567 192.843 46.33 193.39C48.5567 193.923 50.6967 193.577 52.75 192.35C54.1633 191.503 55.63 190.06 57.15 188.02C58.9967 185.54 60.5133 182.847 61.7 179.94C68.06 164.367 73.5633 148.49 78.21 132.31C81.6833 120.21 83.31 107.857 83.09 95.25C83.0433 92.4567 82.6867 89.7033 82.02 86.99C81.1467 83.43 79.16 80.44 76.06 78.02C75.9479 77.9335 75.883 77.7991 75.885 77.6575C75.8869 77.5159 75.9555 77.3834 76.07 77.3C77.7833 76.0867 78.96 74.47 79.6 72.45C83.4667 60.19 87.0367 47.84 90.31 35.4C90.9033 33.1267 91.06 31.3333 90.78 30.02C90.32 27.8667 89.15 26.3333 87.27 25.42C85.31 24.4667 82.9233 24.2467 80.11 24.76C76.19 25.48 73.0467 27.6267 70.68 31.2C70.2133 31.9 69.99 31.83 70.01 30.99C70.03 29.91 70.15 28.7533 70.37 27.52C70.9833 24.1733 71.0467 20.8633 70.56 17.59C69.98 13.7567 68.65 10.8467 66.57 8.86C64.29 6.68667 61.4933 5.84 58.18 6.32C55.58 6.7 53.17 7.93667 50.95 10.03C48.3167 12.5233 46.32 15.5133 44.96 19" fill="none" opacity="1" stroke="#978482" stroke-linecap="butt" stroke-linejoin="miter" stroke-width="2" vectornator:layerName="path"/>
<path d="M44.29 19.5L45.04 22.5" fill="none" opacity="1" stroke="#967440" stroke-linecap="butt" stroke-linejoin="miter" stroke-width="2" vectornator:layerName="path"/>
<path d="M45.04 22.5C45.2867 23.8333 45.69 26.75 46.25 31.25C46.29 31.5767 46.44 31.75 46.7 31.77C46.9627 31.7954 47.2204 31.5505 47.3 31.2C48.7067 25.24 50.6 19.5067 52.98 14C53.54 12.7067 53.32 12.5567 52.32 13.55C50.5933 15.2767 49.2367 17.26 48.25 19.5C47.4633 21.2933 47.0933 22.7733 47.14 23.94C47.16 24.3467 47.0767 24.3767 46.89 24.03L45.54 21.5" fill="none" opacity="1" stroke="#6a6536" stroke-linecap="butt" stroke-linejoin="miter" stroke-width="2" vectornator:layerName="path"/>
<path d="M45.54 21.5L44.96 19" fill="none" opacity="1" stroke="#967440" stroke-linecap="butt" stroke-linejoin="miter" stroke-width="2" vectornator:layerName="path"/>
<path d="M45.04 22.5L45.54 21.5" fill="none" opacity="1" stroke="#d2d172" stroke-linecap="butt" stroke-linejoin="miter" stroke-width="2" vectornator:layerName="path"/>
<path d="M47.11 42.24C45.73 37.1667 43.8733 32.3367 41.54 27.75" fill="none" opacity="1" stroke="#5e7c4d" stroke-linecap="butt" stroke-linejoin="miter" stroke-width="2" vectornator:layerName="path"/>
<path d="M41.54 27.75C40.2 23.75 38.7967 19.77 37.33 15.81C35.91 11.9767 33.2367 10.3567 29.31 10.95C27.5633 11.2167 26.7833 12.23 26.97 13.99C27.71 20.8433 28.9567 27.5133 30.71 34" fill="none" opacity="1" stroke="#698155" stroke-linecap="butt" stroke-linejoin="miter" stroke-width="2" vectornator:layerName="path"/>
<path d="M30.71 34L35.25 46.29" fill="none" opacity="1" stroke="#5e7c4d" stroke-linecap="butt" stroke-linejoin="miter" stroke-width="2" vectornator:layerName="path"/>
<path d="M35.25 46.29L46.76 72.73" fill="none" opacity="1" stroke="#567844" stroke-linecap="butt" stroke-linejoin="miter" stroke-width="2" vectornator:layerName="path"/>
<path d="M46.76 72.73C40.8867 67.3367 36.4533 60.9267 33.46 53.5" fill="none" opacity="1" stroke="#698155" stroke-linecap="butt" stroke-linejoin="miter" stroke-width="2" vectornator:layerName="path"/>
<path d="M33.46 53.5C31.0467 48.46 29.29 44.98 28.19 43.06C24.33 36.3267 18.75 31.8267 11.45 29.56C11.2663 29.5021 11.0657 29.5464 10.9235 29.6762C10.7813 29.8061 10.719 30.0018 10.76 30.19C13.0133 40.77 16.2967 50.93 20.61 60.67C22.71 65.41 24.6433 70.0333 26.41 74.54" fill="none" opacity="1" stroke="#587a45" stroke-linecap="butt" stroke-linejoin="miter" stroke-width="2" vectornator:layerName="path"/>
<path d="M26.41 74.54C26.55 74.9467 26.7133 75.2467 26.9 75.44C27.0733 75.62 27.37 75.6733 27.79 75.6C35.3167 74.2867 43.38 73.77 51.98 74.05C52.5997 74.0676 53.1717 73.7189 53.44 73.16C54.94 70.0667 56.1967 66.7933 57.21 63.34C58.69 58.3 59.6967 54.95 60.23 53.29C61.1633 50.3567 62.15 46.9067 63.19 42.94C65.3767 34.5733 66.1333 26.51 65.46 18.75" fill="none" opacity="1" stroke="#698155" stroke-linecap="butt" stroke-linejoin="miter" stroke-width="2" vectornator:layerName="path"/>
<path d="M65.46 18.75C65.3133 16.5967 64.6167 14.6533 63.37 12.92C62.0033 11.0133 60.3033 10.1867 58.27 10.44C57.2787 10.5572 56.4305 11.2097 56.06 12.14C54.1067 17.0067 52.3267 21.8633 50.72 26.71C49.92 29.1167 49.24 31.6867 48.68 34.42C48.1333 37.0533 47.61 39.66 47.11 42.24" fill="none" opacity="1" stroke="#567844" stroke-linecap="butt" stroke-linejoin="miter" stroke-width="2" vectornator:layerName="path"/>
<path d="M65.46 18.75C63.3533 18.3167 62.45 19.2333 62.75 21.5C63.8433 29.7733 63.3267 37.63 61.2 45.07C59.84 49.8033 59.13 52.2833 59.07 52.51C58.17 55.77 57.1267 58.58 55.94 60.94C54.3267 64.1333 53.42 67.2167 53.22 70.19C53.1942 70.5385 53.0664 70.8473 52.86 71.06C51.4133 72.6 49.38 73.1567 46.76 72.73" fill="none" opacity="1" stroke="#91f194" stroke-linecap="butt" stroke-linejoin="miter" stroke-width="2" vectornator:layerName="path"/>
<path d="M35.25 46.29C38.69 43.4967 42.6433 42.1467 47.11 42.24" fill="none" opacity="1" stroke="#86ec8c" stroke-linecap="butt" stroke-linejoin="miter" stroke-width="2" vectornator:layerName="path"/>
<path d="M26.41 74.54C31.6767 73.3467 37.17 72.77 42.89 72.81C43.1637 72.8126 43.4204 72.6766 43.5704 72.4495C43.7204 72.2225 43.7429 71.9359 43.63 71.69C43.23 70.7967 42.54 70.13 41.56 69.69C40.66 69.2833 39.86 68.3033 39.16 66.75C38.4733 65.2167 37.9067 64.1133 37.46 63.44C35.9467 61.1533 34.44 58.86 32.94 56.56C32.1 55.2733 32.2733 54.2533 33.46 53.5" fill="none" opacity="1" stroke="#92f396" stroke-linecap="butt" stroke-linejoin="miter" stroke-width="2" vectornator:layerName="path"/>
<path d="M41.54 27.75C39.9467 28.63 38.42 29.6133 36.96 30.7C36.6333 30.9467 36.39 30.97 36.23 30.77C36.0965 30.5984 36.1408 30.2521 36.34 29.91C36.82 29.0767 36.6267 28.3933 35.76 27.86C35.5806 27.7474 35.3121 27.7512 35.05 27.87L31.54 29.44C31.2814 29.565 31.1332 29.8161 31.18 30.05C31.4667 31.4033 31.31 32.72 30.71 34" fill="none" opacity="1" stroke="#98f59d" stroke-linecap="butt" stroke-linejoin="miter" stroke-width="2" vectornator:layerName="path"/>
<path d="M56.79 70.5L54.97 73.32C54.7767 73.6133 54.86 73.7567 55.22 73.75C61.32 73.7167 66.8667 73.9967 71.86 74.59C72.6293 74.6771 73.3547 74.2143 73.6 73.48C75.12 68.84 76.45 64.3667 77.59 60.06C79.17 54.06 80.4167 49.5633 81.33 46.57C82.9567 41.23 84.5133 35.8733 86 30.5C86.1133 30.0867 85.7567 29.7467 84.93 29.48" fill="none" opacity="1" stroke="#698155" stroke-linecap="butt" stroke-linejoin="miter" stroke-width="2" vectornator:layerName="path"/>
<path d="M84.93 29.48C82.2433 29.5333 80.1833 29.9567 78.75 30.75C76.1833 32.1767 73.8667 34.3 71.8 37.12C70.5067 38.88 69.0867 41.63 67.54 45.37C64.06 53.79 60.4767 62.1667 56.79 70.5" fill="none" opacity="1" stroke="#4f7440" stroke-linecap="butt" stroke-linejoin="miter" stroke-width="2" vectornator:layerName="path"/>
<path d="M84.93 29.48C84.51 30.7933 84.0867 32.0767 83.66 33.33C83.2333 34.5833 82.89 35.89 82.63 37.25C82.1567 39.6833 81.6167 42.1 81.01 44.5C80.85 45.1133 80.66 45.3333 80.44 45.16C80.3791 45.108 80.2977 45.0852 80.2233 45.0993C80.1489 45.1134 80.0913 45.1625 80.07 45.23L72.94 71.53C72.7143 72.3619 71.9563 72.9396 71.09 72.94C67.53 72.9333 63.77 72.85 59.81 72.69C58.5767 72.6367 57.9467 72.0133 57.92 70.82C57.9151 70.6666 57.8562 70.5199 57.7605 70.4222C57.6648 70.3245 57.5429 70.2868 57.43 70.32L56.79 70.5" fill="none" opacity="1" stroke="#89ed91" stroke-linecap="butt" stroke-linejoin="miter" stroke-width="2" vectornator:layerName="path"/>
<path d="M66.24 42.9C66.8467 42.0133 67.16 41.1067 67.18 40.18C67.1867 39.7733 67.0567 39.7233 66.79 40.03C65.5767 41.45 65.1667 42.44 65.56 43C65.6291 43.1017 65.7515 43.1506 65.8873 43.1306C66.0232 43.1106 66.1551 43.0244 66.24 42.9" fill="none" opacity="1" stroke="#2e0804" stroke-linecap="butt" stroke-linejoin="miter" stroke-width="2" vectornator:layerName="path"/>
<path d="M19.04 95C18.08 96.1133 18.3167 96.7667 19.75 96.96" fill="none" opacity="1" stroke="#2e0804" stroke-linecap="butt" stroke-linejoin="miter" stroke-width="2" vectornator:layerName="path"/>
<path d="M19.75 96.96C24.5833 97.4467 29.4033 97.3767 34.21 96.75" fill="none" opacity="1" stroke="#93332b" stroke-linecap="butt" stroke-linejoin="miter" stroke-width="2" vectornator:layerName="path"/>
<path d="M34.21 96.75C34.9767 98.49 34.49 99.3567 32.75 99.35C28.4967 99.3367 24.24 99.22 19.98 99C19.7902 98.989 19.6042 99.0568 19.466 99.1874C19.3278 99.318 19.2497 99.4999 19.25 99.69C19.2567 105.817 19.9367 111.753 21.29 117.5" fill="none" opacity="1" stroke="#967440" stroke-linecap="butt" stroke-linejoin="miter" stroke-width="2" vectornator:layerName="path"/>
<path d="M21.29 117.5L24.79 130.25" fill="none" opacity="1" stroke="#93332b" stroke-linecap="butt" stroke-linejoin="miter" stroke-width="2" vectornator:layerName="path"/>
<path d="M24.79 130.25L28.42 142.47C28.4556 142.593 28.5413 142.697 28.6578 142.757C28.7743 142.817 28.912 142.829 29.04 142.79C33.14 141.497 36.9867 139.68 40.58 137.34C49.7333 131.373 57.2667 123.797 63.18 114.61" fill="none" opacity="1" stroke="#967440" stroke-linecap="butt" stroke-linejoin="miter" stroke-width="2" vectornator:layerName="path"/>
<path d="M63.18 114.61C67.4 109.45 71.4033 104.123 75.19 98.63C76.53 96.6767 76.69 94.5967 75.67 92.39C75.3433 91.6967 75.96 91.28 77.52 91.14C77.7017 91.1243 77.8664 91.0268 77.9676 90.875C78.0687 90.7233 78.0954 90.5338 78.04 90.36C76.0867 84.3333 71.9933 80.8533 65.76 79.92C63.08 79.52 60.2833 79.4 57.37 79.56" fill="none" opacity="1" stroke="#915d25" stroke-linecap="butt" stroke-linejoin="miter" stroke-width="2" vectornator:layerName="path"/>
<path d="M57.37 79.56C48.8033 78.9067 40.1767 79.0167 31.49 79.89C28.9767 80.1433 26.9533 80.7933 25.42 81.84C21.0867 84.8067 18.96 89.1933 19.04 95" fill="none" opacity="1" stroke="#967440" stroke-linecap="butt" stroke-linejoin="miter" stroke-width="2" vectornator:layerName="path"/>
<path d="M57.37 79.56C59.9367 89.7 61.5467 99.9767 62.2 110.39C62.2 110.437 62.15 111 62.05 112.08C61.9633 112.987 62.34 113.83 63.18 114.61" fill="none" opacity="1" stroke="#f9c861" stroke-linecap="butt" stroke-linejoin="miter" stroke-width="2" vectornator:layerName="path"/>
<path d="M24.79 130.25L32.37 131.03C32.6138 131.055 32.857 130.98 33.0411 130.823C33.2252 130.665 33.3335 130.439 33.34 130.2L33.58 118.19C33.5851 117.92 33.3524 117.696 33.06 117.69L21.29 117.5" fill="none" opacity="1" stroke="#fb9e67" stroke-linecap="butt" stroke-linejoin="miter" stroke-width="2" vectornator:layerName="path"/>
<path d="M34.21 96.75C34.4367 96.45 34.5433 96.1333 34.53 95.8C34.5254 95.5188 34.2887 95.2696 33.96 95.2C31.9933 94.76 30.1533 94.8467 28.44 95.46" fill="none" opacity="1" stroke="#fb9e67" stroke-linecap="butt" stroke-linejoin="miter" stroke-width="2" vectornator:layerName="path"/>
<path d="M28.44 95.46L19.04 95" fill="none" opacity="1" stroke="#967440" stroke-linecap="butt" stroke-linejoin="miter" stroke-width="2" vectornator:layerName="path"/>
<path d="M28.44 95.46L19.75 96.96" fill="none" opacity="1" stroke="#93332b" stroke-linecap="butt" stroke-linejoin="miter" stroke-width="2" vectornator:layerName="path"/>
<path d="M65.81 115.99C68.11 118.07 70.5833 119.453 73.23 120.14C73.8989 120.312 74.5796 119.914 74.75 119.25C76.43 112.85 77.3233 106.34 77.43 99.72C77.4332 99.6665 77.4192 99.6142 77.391 99.5747C77.3628 99.5353 77.3228 99.5119 77.28 99.51L77.12 99.49C76.9691 99.473 76.7852 99.6089 76.66 99.83C73.6533 105.057 70.0167 110.093 65.75 114.94C65.4776 115.251 65.5044 115.72 65.81 115.99" fill="none" opacity="1" stroke="#915d25" stroke-linecap="butt" stroke-linejoin="miter" stroke-width="2" vectornator:layerName="path"/>
<path d="M59.5 125.21C56.9067 127.93 54.18 130.5 51.32 132.92C47.42 136.227 44.48 138.547 42.5 139.88C38.5467 142.547 34.1267 144.55 29.24 145.89C29.1347 145.919 29.0462 145.991 28.9952 146.089C28.9442 146.188 28.9351 146.304 28.97 146.41L35.72 165.66C35.9909 166.429 36.7359 166.914 37.52 166.83C46.5133 165.883 54.92 163.513 62.74 159.72" fill="none" opacity="1" stroke="#967237" stroke-linecap="butt" stroke-linejoin="miter" stroke-width="2" vectornator:layerName="path"/>
<path d="M62.74 159.72C67.8 148.013 71.65 135.967 74.29 123.58C74.3498 123.285 74.1896 122.99 73.91 122.88C70.4433 121.487 67.4467 119.953 64.92 118.28C64.6837 118.123 64.3679 118.181 64.21 118.41L59.5 125.21" fill="none" opacity="1" stroke="#915d25" stroke-linecap="butt" stroke-linejoin="miter" stroke-width="2" vectornator:layerName="path"/>
<path d="M62.74 159.72C62.1133 159.46 61.6233 159.177 61.27 158.87C60.93 158.577 60.75 158.097 60.73 157.43C60.45 148.003 60.01 138.097 59.41 127.71C59.384 127.248 59.5029 126.79 59.75 126.4C60.1167 125.833 60.0333 125.437 59.5 125.21" fill="none" opacity="1" stroke="#f9c658" stroke-linecap="butt" stroke-linejoin="miter" stroke-width="2" vectornator:layerName="path"/>
<path d="M52.27 171.39C53.5833 172.49 53.4167 172.803 51.77 172.33C46.89 170.923 41.99 170.25 37.07 170.31C36.9554 170.308 36.8479 170.365 36.7821 170.46C36.7163 170.556 36.7006 170.679 36.74 170.79C38.1133 174.503 39.7367 178.107 41.61 181.6C42.8967 184 44.5667 186.09 46.62 187.87C48.34 189.363 49.86 189.133 51.18 187.18C55.3867 180.953 58.5433 173.943 60.65 166.15C60.7833 165.657 60.6133 165.487 60.14 165.64L50.77 168.62C50.6529 168.66 50.5623 168.755 50.5235 168.877C50.4846 168.999 50.5017 169.136 50.57 169.25C51.17 170.23 51.7367 170.943 52.27 171.39" fill="none" opacity="1" stroke="#956829" stroke-linecap="butt" stroke-linejoin="miter" stroke-width="2" vectornator:layerName="path"/>
</g>
<path d="M44.29 19.5L45.04 22.5C45.2867 23.8333 45.69 26.75 46.25 31.25C46.29 31.5767 46.44 31.75 46.7 31.77C46.9627 31.7954 47.2204 31.5505 47.3 31.2C48.7067 25.24 50.6 19.5067 52.98 14C53.54 12.7067 53.32 12.5567 52.32 13.55C50.5933 15.2767 49.2367 17.26 48.25 19.5C47.4633 21.2933 47.0933 22.7733 47.14 23.94C47.16 24.3467 47.0767 24.3767 46.89 24.03L45.54 21.5L44.96 19C46.32 15.5133 48.3167 12.5233 50.95 10.03C53.17 7.93667 55.58 6.7 58.18 6.32C61.4933 5.84 64.29 6.68667 66.57 8.86C68.65 10.8467 69.98 13.7567 70.56 17.59C71.0467 20.8633 70.9833 24.1733 70.37 27.52C70.15 28.7533 70.03 29.91 70.01 30.99C69.99 31.83 70.2133 31.9 70.68 31.2C73.0467 27.6267 76.19 25.48 80.11 24.76C82.9233 24.2467 85.31 24.4667 87.27 25.42C89.15 26.3333 90.32 27.8667 90.78 30.02C91.06 31.3333 90.9033 33.1267 90.31 35.4C87.0367 47.84 83.4667 60.19 79.6 72.45C78.96 74.47 77.7833 76.0867 76.07 77.3C75.9555 77.3834 75.8869 77.5159 75.885 77.6575C75.883 77.7991 75.9479 77.9335 76.06 78.02C79.16 80.44 81.1467 83.43 82.02 86.99C82.6867 89.7033 83.0433 92.4567 83.09 95.25C83.31 107.857 81.6833 120.21 78.21 132.31C73.5633 148.49 68.06 164.367 61.7 179.94C60.5133 182.847 58.9967 185.54 57.15 188.02C55.63 190.06 54.1633 191.503 52.75 192.35C50.6967 193.577 48.5567 193.923 46.33 193.39C44.0567 192.843 41.7933 191.327 39.54 188.84C37.66 186.773 36.14 184.423 34.98 181.79C33.3533 178.11 31.9333 174.35 30.72 170.51C24.36 150.47 20.0367 136.133 17.75 127.5C15.4033 118.647 13.9933 109.65 13.52 100.51C13.16 93.4633 14.59 87.23 17.81 81.81C18.63 80.4367 20.0233 79.2233 21.99 78.17C22.1047 78.1072 22.1893 78.0014 22.2235 77.8781C22.2576 77.7547 22.2383 77.625 22.17 77.52C20.3033 74.58 18.83 71.6567 17.75 68.75C13.6167 57.59 9.58333 45.63 5.65 32.87C5.05 30.9233 4.85667 29.4833 5.07 28.55C5.47 26.8167 6.78 25.79 9 25.47C11.3067 25.13 13.53 25.4233 15.67 26.35C19.1433 27.85 22.1933 29.9667 24.82 32.7C25.46 33.3667 25.62 33.2667 25.3 32.4C23.8867 28.6133 22.88 24.73 22.28 20.75C21.6267 16.4033 21.7733 13.1 22.72 10.84C23.92 7.95333 26.2167 6.36667 29.61 6.08C32.1967 5.86667 34.6733 6.47667 37.04 7.91C41.12 10.3967 43.5367 14.26 44.29 19.5ZM47.11 42.24C45.73 37.1667 43.8733 32.3367 41.54 27.75C40.2 23.75 38.7967 19.77 37.33 15.81C35.91 11.9767 33.2367 10.3567 29.31 10.95C27.5633 11.2167 26.7833 12.23 26.97 13.99C27.71 20.8433 28.9567 27.5133 30.71 34L35.25 46.29L46.76 72.73C40.8867 67.3367 36.4533 60.9267 33.46 53.5C31.0467 48.46 29.29 44.98 28.19 43.06C24.33 36.3267 18.75 31.8267 11.45 29.56C11.2663 29.5021 11.0657 29.5464 10.9235 29.6762C10.7813 29.8061 10.719 30.0018 10.76 30.19C13.0133 40.77 16.2967 50.93 20.61 60.67C22.71 65.41 24.6433 70.0333 26.41 74.54C26.55 74.9467 26.7133 75.2467 26.9 75.44C27.0733 75.62 27.37 75.6733 27.79 75.6C35.3167 74.2867 43.38 73.77 51.98 74.05C52.5997 74.0676 53.1717 73.7189 53.44 73.16C54.94 70.0667 56.1967 66.7933 57.21 63.34C58.69 58.3 59.6967 54.95 60.23 53.29C61.1633 50.3567 62.15 46.9067 63.19 42.94C65.3767 34.5733 66.1333 26.51 65.46 18.75C65.3133 16.5967 64.6167 14.6533 63.37 12.92C62.0033 11.0133 60.3033 10.1867 58.27 10.44C57.2787 10.5572 56.4305 11.2097 56.06 12.14C54.1067 17.0067 52.3267 21.8633 50.72 26.71C49.92 29.1167 49.24 31.6867 48.68 34.42C48.1333 37.0533 47.61 39.66 47.11 42.24ZM56.79 70.5L54.97 73.32C54.7767 73.6133 54.86 73.7567 55.22 73.75C61.32 73.7167 66.8667 73.9967 71.86 74.59C72.6293 74.6771 73.3547 74.2143 73.6 73.48C75.12 68.84 76.45 64.3667 77.59 60.06C79.17 54.06 80.4167 49.5633 81.33 46.57C82.9567 41.23 84.5133 35.8733 86 30.5C86.1133 30.0867 85.7567 29.7467 84.93 29.48C82.2433 29.5333 80.1833 29.9567 78.75 30.75C76.1833 32.1767 73.8667 34.3 71.8 37.12C70.5067 38.88 69.0867 41.63 67.54 45.37C64.06 53.79 60.4767 62.1667 56.79 70.5ZM66.24 42.9C66.8467 42.0133 67.16 41.1067 67.18 40.18C67.1867 39.7733 67.0567 39.7233 66.79 40.03C65.5767 41.45 65.1667 42.44 65.56 43C65.6291 43.1017 65.7515 43.1506 65.8873 43.1306C66.0232 43.1106 66.1551 43.0244 66.24 42.9ZM19.04 95C18.08 96.1133 18.3167 96.7667 19.75 96.96C24.5833 97.4467 29.4033 97.3767 34.21 96.75C34.9767 98.49 34.49 99.3567 32.75 99.35C28.4967 99.3367 24.24 99.22 19.98 99C19.7902 98.989 19.6042 99.0568 19.466 99.1874C19.3278 99.318 19.2497 99.4999 19.25 99.69C19.2567 105.817 19.9367 111.753 21.29 117.5L24.79 130.25L28.42 142.47C28.4556 142.593 28.5413 142.697 28.6578 142.757C28.7743 142.817 28.912 142.829 29.04 142.79C33.14 141.497 36.9867 139.68 40.58 137.34C49.7333 131.373 57.2667 123.797 63.18 114.61C67.4 109.45 71.4033 104.123 75.19 98.63C76.53 96.6767 76.69 94.5967 75.67 92.39C75.3433 91.6967 75.96 91.28 77.52 91.14C77.7017 91.1243 77.8664 91.0268 77.9676 90.875C78.0687 90.7233 78.0954 90.5338 78.04 90.36C76.0867 84.3333 71.9933 80.8533 65.76 79.92C63.08 79.52 60.2833 79.4 57.37 79.56C48.8033 78.9067 40.1767 79.0167 31.49 79.89C28.9767 80.1433 26.9533 80.7933 25.42 81.84C21.0867 84.8067 18.96 89.1933 19.04 95ZM65.81 115.99C68.11 118.07 70.5833 119.453 73.23 120.14C73.8989 120.312 74.5796 119.914 74.75 119.25C76.43 112.85 77.3233 106.34 77.43 99.72C77.4332 99.6665 77.4192 99.6142 77.391 99.5747C77.3628 99.5353 77.3228 99.5119 77.28 99.51L77.12 99.49C76.9691 99.473 76.7852 99.6089 76.66 99.83C73.6533 105.057 70.0167 110.093 65.75 114.94C65.4776 115.251 65.5044 115.72 65.81 115.99ZM59.5 125.21C56.9067 127.93 54.18 130.5 51.32 132.92C47.42 136.227 44.48 138.547 42.5 139.88C38.5467 142.547 34.1267 144.55 29.24 145.89C29.1347 145.919 29.0462 145.991 28.9952 146.089C28.9442 146.188 28.9351 146.304 28.97 146.41L35.72 165.66C35.9909 166.429 36.7359 166.914 37.52 166.83C46.5133 165.883 54.92 163.513 62.74 159.72C67.8 148.013 71.65 135.967 74.29 123.58C74.3498 123.285 74.1896 122.99 73.91 122.88C70.4433 121.487 67.4467 119.953 64.92 118.28C64.6837 118.123 64.3679 118.181 64.21 118.41L59.5 125.21ZM52.27 171.39C53.5833 172.49 53.4167 172.803 51.77 172.33C46.89 170.923 41.99 170.25 37.07 170.31C36.9554 170.308 36.8479 170.365 36.7821 170.46C36.7163 170.556 36.7006 170.679 36.74 170.79C38.1133 174.503 39.7367 178.107 41.61 181.6C42.8967 184 44.5667 186.09 46.62 187.87C48.34 189.363 49.86 189.133 51.18 187.18C55.3867 180.953 58.5433 173.943 60.65 166.15C60.7833 165.657 60.6133 165.487 60.14 165.64L50.77 168.62C50.6529 168.66 50.5623 168.755 50.5235 168.877C50.4846 168.999 50.5017 169.136 50.57 169.25C51.17 170.23 51.7367 170.943 52.27 171.39Z" fill="#2e0804" fill-rule="nonzero" opacity="1" stroke="none" vectornator:layerName="path"/>
<path d="M65.46 18.75C63.3533 18.3167 62.45 19.2333 62.75 21.5C63.8433 29.7733 63.3267 37.63 61.2 45.07C59.84 49.8033 59.13 52.2833 59.07 52.51C58.17 55.77 57.1267 58.58 55.94 60.94C54.3267 64.1333 53.42 67.2167 53.22 70.19C53.1942 70.5385 53.0664 70.8473 52.86 71.06C51.4133 72.6 49.38 73.1567 46.76 72.73L35.25 46.29C38.69 43.4967 42.6433 42.1467 47.11 42.24C47.61 39.66 48.1333 37.0533 48.68 34.42C49.24 31.6867 49.92 29.1167 50.72 26.71C52.3267 21.8633 54.1067 17.0067 56.06 12.14C56.4305 11.2097 57.2787 10.5572 58.27 10.44C60.3033 10.1867 62.0033 11.0133 63.37 12.92C64.6167 14.6533 65.3133 16.5967 65.46 18.75Z" fill="#7ee883" fill-rule="nonzero" opacity="1" stroke="none" vectornator:layerName="path"/>
<path d="M41.54 27.75C39.9467 28.63 38.42 29.6133 36.96 30.7C36.6333 30.9467 36.39 30.97 36.23 30.77C36.0965 30.5984 36.1408 30.2521 36.34 29.91C36.82 29.0767 36.6267 28.3933 35.76 27.86C35.5806 27.7474 35.3121 27.7512 35.05 27.87L31.54 29.44C31.2814 29.565 31.1332 29.8161 31.18 30.05C31.4667 31.4033 31.31 32.72 30.71 34C28.9567 27.5133 27.71 20.8433 26.97 13.99C26.7833 12.23 27.5633 11.2167 29.31 10.95C33.2367 10.3567 35.91 11.9767 37.33 15.81C38.7967 19.77 40.2 23.75 41.54 27.75Z" fill="#a3f9a5" fill-rule="nonzero" opacity="1" stroke="none" vectornator:layerName="path"/>
<path d="M45.04 22.5L45.54 21.5L46.89 24.03C47.0767 24.3767 47.16 24.3467 47.14 23.94C47.0933 22.7733 47.4633 21.2933 48.25 19.5C49.2367 17.26 50.5933 15.2767 52.32 13.55C53.32 12.5567 53.54 12.7067 52.98 14C50.6 19.5067 48.7067 25.24 47.3 31.2C47.2204 31.5505 46.9627 31.7954 46.7 31.77C46.44 31.75 46.29 31.5767 46.25 31.25C45.69 26.75 45.2867 23.8333 45.04 22.5Z" fill="#a5c268" fill-rule="nonzero" opacity="1" stroke="none" vectornator:layerName="path"/>
<path d="M65.46 18.75C66.1333 26.51 65.3767 34.5733 63.19 42.94C62.15 46.9067 61.1633 50.3567 60.23 53.29C59.6967 54.95 58.69 58.3 57.21 63.34C56.1967 66.7933 54.94 70.0667 53.44 73.16C53.1717 73.7189 52.5997 74.0676 51.98 74.05C43.38 73.77 35.3167 74.2867 27.79 75.6C27.37 75.6733 27.0733 75.62 26.9 75.44C26.7133 75.2467 26.55 74.9467 26.41 74.54C31.6767 73.3467 37.17 72.77 42.89 72.81C43.1637 72.8126 43.4204 72.6766 43.5704 72.4495C43.7204 72.2225 43.7429 71.9359 43.63 71.69C43.23 70.7967 42.54 70.13 41.56 69.69C40.66 69.2833 39.86 68.3033 39.16 66.75C38.4733 65.2167 37.9067 64.1133 37.46 63.44C35.9467 61.1533 34.44 58.86 32.94 56.56C32.1 55.2733 32.2733 54.2533 33.46 53.5C36.4533 60.9267 40.8867 67.3367 46.76 72.73C49.38 73.1567 51.4133 72.6 52.86 71.06C53.0664 70.8473 53.1942 70.5385 53.22 70.19C53.42 67.2167 54.3267 64.1333 55.94 60.94C57.1267 58.58 58.17 55.77 59.07 52.51C59.13 52.2833 59.84 49.8033 61.2 45.07C63.3267 37.63 63.8433 29.7733 62.75 21.5C62.45 19.2333 63.3533 18.3167 65.46 18.75Z" fill="#a3f9a5" fill-rule="nonzero" opacity="1" stroke="none" vectornator:layerName="path"/>
<path d="M44.96 19L45.54 21.5L45.04 22.5L44.29 19.5C44.4233 19.2 44.6467 19.0333 44.96 19Z" fill="#fedf7c" fill-rule="nonzero" opacity="1" stroke="none" vectornator:layerName="path"/>
<path d="M41.54 27.75C43.8733 32.3367 45.73 37.1667 47.11 42.24C42.6433 42.1467 38.69 43.4967 35.25 46.29L30.71 34C31.31 32.72 31.4667 31.4033 31.18 30.05C31.1332 29.8161 31.2814 29.565 31.54 29.44L35.05 27.87C35.3121 27.7512 35.5806 27.7474 35.76 27.86C36.6267 28.3933 36.82 29.0767 36.34 29.91C36.1408 30.2521 36.0965 30.5984 36.23 30.77C36.39 30.97 36.6333 30.9467 36.96 30.7C38.42 29.6133 39.9467 28.63 41.54 27.75Z" fill="#8df095" fill-rule="nonzero" opacity="1" stroke="none" vectornator:layerName="path"/>
<path d="M33.46 53.5C32.2733 54.2533 32.1 55.2733 32.94 56.56C34.44 58.86 35.9467 61.1533 37.46 63.44C37.9067 64.1133 38.4733 65.2167 39.16 66.75C39.86 68.3033 40.66 69.2833 41.56 69.69C42.54 70.13 43.23 70.7967 43.63 71.69C43.7429 71.9359 43.7204 72.2225 43.5704 72.4495C43.4204 72.6766 43.1637 72.8126 42.89 72.81C37.17 72.77 31.6767 73.3467 26.41 74.54C24.6433 70.0333 22.71 65.41 20.61 60.67C16.2967 50.93 13.0133 40.77 10.76 30.19C10.719 30.0018 10.7813 29.8061 10.9235 29.6762C11.0657 29.5464 11.2663 29.5021 11.45 29.56C18.75 31.8267 24.33 36.3267 28.19 43.06C29.29 44.98 31.0467 48.46 33.46 53.5Z" fill="#81ec86" fill-rule="nonzero" opacity="1" stroke="none" vectornator:layerName="path"/>
<path d="M84.93 29.48C84.51 30.7933 84.0867 32.0767 83.66 33.33C83.2333 34.5833 82.89 35.89 82.63 37.25C82.1567 39.6833 81.6167 42.1 81.01 44.5C80.85 45.1133 80.66 45.3333 80.44 45.16C80.3791 45.108 80.2977 45.0852 80.2233 45.0993C80.1489 45.1134 80.0913 45.1625 80.07 45.23L72.94 71.53C72.7143 72.3619 71.9563 72.9396 71.09 72.94C67.53 72.9333 63.77 72.85 59.81 72.69C58.5767 72.6367 57.9467 72.0133 57.92 70.82C57.9151 70.6666 57.8562 70.5199 57.7605 70.4222C57.6648 70.3245 57.5429 70.2868 57.43 70.32L56.79 70.5C60.4767 62.1667 64.06 53.79 67.54 45.37C69.0867 41.63 70.5067 38.88 71.8 37.12C73.8667 34.3 76.1833 32.1767 78.75 30.75C80.1833 29.9567 82.2433 29.5333 84.93 29.48Z" fill="#6fe07c" fill-rule="nonzero" opacity="1" stroke="none" vectornator:layerName="path"/>
<path d="M84.93 29.48C85.7567 29.7467 86.1133 30.0867 86 30.5C84.5133 35.8733 82.9567 41.23 81.33 46.57C80.4167 49.5633 79.17 54.06 77.59 60.06C76.45 64.3667 75.12 68.84 73.6 73.48C73.3547 74.2143 72.6293 74.6771 71.86 74.59C66.8667 73.9967 61.32 73.7167 55.22 73.75C54.86 73.7567 54.7767 73.6133 54.97 73.32L56.79 70.5L57.43 70.32C57.5429 70.2868 57.6648 70.3245 57.7605 70.4222C57.8562 70.5199 57.9151 70.6666 57.92 70.82C57.9467 72.0133 58.5767 72.6367 59.81 72.69C63.77 72.85 67.53 72.9333 71.09 72.94C71.9563 72.9396 72.7143 72.3619 72.94 71.53L80.07 45.23C80.0913 45.1625 80.1489 45.1134 80.2233 45.0993C80.2977 45.0852 80.3791 45.108 80.44 45.16C80.66 45.3333 80.85 45.1133 81.01 44.5C81.6167 42.1 82.1567 39.6833 82.63 37.25C82.89 35.89 83.2333 34.5833 83.66 33.33C84.0867 32.0767 84.51 30.7933 84.93 29.48Z" fill="#a3f9a5" fill-rule="nonzero" opacity="1" stroke="none" vectornator:layerName="path"/>
<path d="M65.56 43C65.1667 42.44 65.5767 41.45 66.79 40.03C67.0567 39.7233 67.1867 39.7733 67.18 40.18C67.16 41.1067 66.8467 42.0133 66.24 42.9C66.1551 43.0244 66.0232 43.1106 65.8873 43.1306C65.7515 43.1506 65.6291 43.1017 65.56 43Z" fill="#2e0804" fill-rule="nonzero" opacity="1" stroke="none" vectornator:layerName="path"/>
<path d="M57.37 79.56C59.9367 89.7 61.5467 99.9767 62.2 110.39C62.2 110.437 62.15 111 62.05 112.08C61.9633 112.987 62.34 113.83 63.18 114.61C57.2667 123.797 49.7333 131.373 40.58 137.34C36.9867 139.68 33.14 141.497 29.04 142.79C28.912 142.829 28.7743 142.817 28.6578 142.757C28.5413 142.697 28.4556 142.593 28.42 142.47L24.79 130.25L32.37 131.03C32.6138 131.055 32.857 130.98 33.0411 130.823C33.2252 130.665 33.3335 130.439 33.34 130.2L33.58 118.19C33.5851 117.92 33.3524 117.696 33.06 117.69L21.29 117.5C19.9367 111.753 19.2567 105.817 19.25 99.69C19.2497 99.4999 19.3278 99.318 19.466 99.1874C19.6042 99.0568 19.7902 98.989 19.98 99C24.24 99.22 28.4967 99.3367 32.75 99.35C34.49 99.3567 34.9767 98.49 34.21 96.75C34.4367 96.45 34.5433 96.1333 34.53 95.8C34.5254 95.5188 34.2887 95.2696 33.96 95.2C31.9933 94.76 30.1533 94.8467 28.44 95.46L19.04 95C18.96 89.1933 21.0867 84.8067 25.42 81.84C26.9533 80.7933 28.9767 80.1433 31.49 79.89C40.1767 79.0167 48.8033 78.9067 57.37 79.56Z" fill="#fedf7c" fill-rule="nonzero" opacity="1" stroke="none" vectornator:layerName="path"/>
<path d="M57.37 79.56C60.2833 79.4 63.08 79.52 65.76 79.92C71.9933 80.8533 76.0867 84.3333 78.04 90.36C78.0954 90.5338 78.0687 90.7233 77.9676 90.875C77.8664 91.0268 77.7017 91.1243 77.52 91.14C75.96 91.28 75.3433 91.6967 75.67 92.39C76.69 94.5967 76.53 96.6767 75.19 98.63C71.4033 104.123 67.4 109.45 63.18 114.61C62.34 113.83 61.9633 112.987 62.05 112.08C62.15 111 62.2 110.437 62.2 110.39C61.5467 99.9767 59.9367 89.7 57.37 79.56Z" fill="#f3b146" fill-rule="nonzero" opacity="1" stroke="none" vectornator:layerName="path"/>
<path d="M19.04 95L28.44 95.46L19.75 96.96C18.3167 96.7667 18.08 96.1133 19.04 95Z" fill="#2e0804" fill-rule="nonzero" opacity="1" stroke="none" vectornator:layerName="path"/>
<path d="M34.21 96.75C29.4033 97.3767 24.5833 97.4467 19.75 96.96L28.44 95.46C30.1533 94.8467 31.9933 94.76 33.96 95.2C34.2887 95.2696 34.5254 95.5188 34.53 95.8C34.5433 96.1333 34.4367 96.45 34.21 96.75Z" fill="#f75d51" fill-rule="nonzero" opacity="1" stroke="none" vectornator:layerName="path"/>
<path d="M65.81 115.99C65.5044 115.72 65.4776 115.251 65.75 114.94C70.0167 110.093 73.6533 105.057 76.66 99.83C76.7852 99.6089 76.9691 99.473 77.12 99.49L77.28 99.51C77.3228 99.5119 77.3628 99.5353 77.391 99.5747C77.4192 99.6142 77.4332 99.6665 77.43 99.72C77.3233 106.34 76.43 112.85 74.75 119.25C74.5796 119.914 73.8989 120.312 73.23 120.14C70.5833 119.453 68.11 118.07 65.81 115.99Z" fill="#f3b146" fill-rule="nonzero" opacity="1" stroke="none" vectornator:layerName="path"/>
<path d="M21.29 117.5L33.06 117.69C33.3524 117.696 33.5851 117.92 33.58 118.19L33.34 130.2C33.3335 130.439 33.2252 130.665 33.0411 130.823C32.857 130.98 32.6138 131.055 32.37 131.03L24.79 130.25L21.29 117.5Z" fill="#f75d51" fill-rule="nonzero" opacity="1" stroke="none" vectornator:layerName="path"/>
<path d="M62.74 159.72C62.1133 159.46 61.6233 159.177 61.27 158.87C60.93 158.577 60.75 158.097 60.73 157.43C60.45 148.003 60.01 138.097 59.41 127.71C59.384 127.248 59.5029 126.79 59.75 126.4C60.1167 125.833 60.0333 125.437 59.5 125.21L64.21 118.41C64.3679 118.181 64.6837 118.123 64.92 118.28C67.4467 119.953 70.4433 121.487 73.91 122.88C74.1896 122.99 74.3498 123.285 74.29 123.58C71.65 135.967 67.8 148.013 62.74 159.72Z" fill="#f3b146" fill-rule="nonzero" opacity="1" stroke="none" vectornator:layerName="path"/>
<path d="M59.5 125.21C60.0333 125.437 60.1167 125.833 59.75 126.4C59.5029 126.79 59.384 127.248 59.41 127.71C60.01 138.097 60.45 148.003 60.73 157.43C60.75 158.097 60.93 158.577 61.27 158.87C61.6233 159.177 62.1133 159.46 62.74 159.72C54.92 163.513 46.5133 165.883 37.52 166.83C36.7359 166.914 35.9909 166.429 35.72 165.66L28.97 146.41C28.9351 146.304 28.9442 146.188 28.9952 146.089C29.0462 145.991 29.1347 145.919 29.24 145.89C34.1267 144.55 38.5467 142.547 42.5 139.88C44.48 138.547 47.42 136.227 51.32 132.92C54.18 130.5 56.9067 127.93 59.5 125.21Z" fill="#fedb6a" fill-rule="nonzero" opacity="1" stroke="none" vectornator:layerName="path"/>
<path d="M52.27 171.39C51.7367 170.943 51.17 170.23 50.57 169.25C50.5017 169.136 50.4846 168.999 50.5235 168.877C50.5623 168.755 50.6529 168.66 50.77 168.62L60.14 165.64C60.6133 165.487 60.7833 165.657 60.65 166.15C58.5433 173.943 55.3867 180.953 51.18 187.18C49.86 189.133 48.34 189.363 46.62 187.87C44.5667 186.09 42.8967 184 41.61 181.6C39.7367 178.107 38.1133 174.503 36.74 170.79C36.7006 170.679 36.7163 170.556 36.7821 170.46C36.8479 170.365 36.9554 170.308 37.07 170.31C41.99 170.25 46.89 170.923 51.77 172.33C53.4167 172.803 53.5833 172.49 52.27 171.39Z" fill="#fcc74d" fill-rule="nonzero" opacity="1" stroke="none" vectornator:layerName="path"/>
</g>
</svg>
