<?xml version="1.0" encoding="UTF-8" standalone="no"?>
<!DOCTYPE svg PUBLIC "-//W3C//DTD SVG 1.1//EN" "http://www.w3.org/Graphics/SVG/1.1/DTD/svg11.dtd">
<!-- Created with Vectornator (http://vectornator.io/) -->
<svg height="100%" stroke-miterlimit="10" style="fill-rule:nonzero;clip-rule:evenodd;stroke-linecap:round;stroke-linejoin:round;" version="1.1" viewBox="0 0 131 216" width="100%" xml:space="preserve" xmlns="http://www.w3.org/2000/svg" xmlns:vectornator="http://vectornator.io" xmlns:xlink="http://www.w3.org/1999/xlink">
<defs/>
<g id="名称未設定" vectornator:layerName="名称未設定">
<g opacity="1" vectornator:layerName="g">
<path d="M94.05 46.51C98.5033 45.9633 101.32 43.71 102.5 39.75C103.66 35.8567 104.373 30.9933 104.64 25.16C104.827 21.0467 104.793 18.4467 104.54 17.36C103.867 14.5333 101.997 12.4367 98.93 11.07C93.3767 8.60333 87.5667 7.08667 81.5 6.52C73.8933 5.81333 66.2767 5.55667 58.65 5.75C52.7767 5.91 48.8467 6.14333 46.86 6.45C43.08 7.03667 39.2733 8.2 35.44 9.94C32.8067 11.1333 30.7067 12.6933 29.14 14.62C28.2467 15.72 27.7567 17.15 27.67 18.91C27.37 24.9833 27.6667 31.0233 28.56 37.03C28.9333 39.5633 29.4767 41.29 30.19 42.21C31.3367 43.6967 33.1233 44.5633 35.55 44.81C36.1396 44.8666 36.6534 45.2282 36.9 45.76C37.6333 47.3533 37.64 48.8533 36.92 50.26C36.4733 51.14 35.4633 52.0567 33.89 53.01C28.3033 56.3767 22.91 60.0267 17.71 63.96C15.8833 65.3467 14.5733 67.03 13.78 69.01C13.24 70.3567 13.07 72.3833 13.27 75.09C13.4567 77.5433 13.5333 79.68 13.5 81.5C12.9133 111.413 12.7267 141.33 12.94 171.25C12.9867 177.517 13.5033 182.127 14.49 185.08C16.01 189.607 18.5267 193.653 22.04 197.22C24.4333 199.653 27.7333 202.35 31.94 205.31C36.34 208.417 41.0233 209.803 45.99 209.47C47.07 209.403 48.3867 209.157 49.94 208.73C51.2467 208.377 52.5467 208.01 53.84 207.63C56.34 206.897 58.3133 206.48 59.76 206.38C63.4933 206.12 67.1633 206.643 70.77 207.95C77.5233 210.397 84.3467 210.613 91.24 208.6C97.6533 206.733 103.54 203.917 108.9 200.15C112.78 197.417 115.66 194.333 117.54 190.9C119.92 186.533 121.213 181.737 121.42 176.51C121.62 171.443 121.647 167.19 121.5 163.75C121.273 158.443 121.19 153.497 121.25 148.91C121.383 139.67 121.447 134.727 121.44 134.08C121.247 111.693 121.02 89.5633 120.76 67.69C120.747 66.4433 120.267 65.4133 119.32 64.6C112.473 58.6667 105.037 54.4533 97.01 51.96C94.6233 51.2133 93.4633 49.58 93.53 47.06C93.5433 46.7765 93.7633 46.5438 94.05 46.51" fill="none" opacity="1" stroke="#998282" stroke-linecap="butt" stroke-linejoin="miter" stroke-width="2" vectornator:layerName="path"/>
<path d="M85.5 37.96C88.1733 37.8667 90.84 37.7133 93.5 37.5C94.6467 37.4067 95.0767 36.7533 94.79 35.54" fill="none" opacity="1" stroke="#5a5e62" stroke-linecap="butt" stroke-linejoin="miter" stroke-width="2" vectornator:layerName="path"/>
<path d="M94.79 35.54C95.8833 29.5533 96 23.55 95.14 17.53" fill="none" opacity="1" stroke="#454042" stroke-linecap="butt" stroke-linejoin="miter" stroke-width="2" vectornator:layerName="path"/>
<path d="M95.14 17.53C90.8667 15.9833 86.57 15.2367 82.25 15.29" fill="none" opacity="1" stroke="#5a5e62" stroke-linecap="butt" stroke-linejoin="miter" stroke-width="2" vectornator:layerName="path"/>
<path d="M82.25 15.29C72.6567 14.29 63.0433 13.9 53.41 14.12C50.2433 14.1933 47.4833 14.48 45.13 14.98C42.4033 15.56 39.73 16.3333 37.11 17.3C36.6087 17.48 36.2678 17.9476 36.25 18.48L35.58 36.94C35.5731 37.2297 35.7709 37.4822 36.05 37.54C39.6367 38.24 42.37 38.56 44.25 38.5C57.9967 38.0467 71.7467 37.8667 85.5 37.96" fill="none" opacity="1" stroke="#797c7e" stroke-linecap="butt" stroke-linejoin="miter" stroke-width="2" vectornator:layerName="path"/>
<path d="M82.25 15.29C84.0433 15.2433 84.96 15.98 85 17.5C85.18 24.32 85.3467 31.14 85.5 37.96" fill="none" opacity="1" stroke="#a0d6db" stroke-linecap="butt" stroke-linejoin="miter" stroke-width="2" vectornator:layerName="path"/>
<path d="M95.14 17.53C94.38 23.4967 94.2633 29.5 94.79 35.54" fill="none" opacity="1" stroke="#6b9a9f" stroke-linecap="butt" stroke-linejoin="miter" stroke-width="2" vectornator:layerName="path"/>
<path d="M86.5645 47.0575C86.5628 46.5604 86.1585 46.1589 85.6614 46.1606L45.9016 46.2994C45.4046 46.3012 45.0031 46.7055 45.0048 47.2025L45.0155 50.2825C45.0172 50.7796 45.4215 51.1811 45.9186 51.1794L85.6784 51.0406C86.1754 51.0388 86.5769 50.6345 86.5752 50.1375L86.5645 47.0575" fill="none" opacity="1" stroke="#998180" stroke-linecap="butt" stroke-linejoin="miter" stroke-width="2" vectornator:layerName="path"/>
<path d="M21.79 123.5L21.09 171.76" fill="none" opacity="1" stroke="#67686e" stroke-linecap="butt" stroke-linejoin="miter" stroke-width="2" vectornator:layerName="path"/>
<path d="M21.09 171.76C20.8633 172.487 20.9167 173.163 21.25 173.79" fill="none" opacity="1" stroke="#787777" stroke-linecap="butt" stroke-linejoin="miter" stroke-width="2" vectornator:layerName="path"/>
<path d="M21.25 173.79L21.73 181.02" fill="none" opacity="1" stroke="#3b0a08" stroke-linecap="butt" stroke-linejoin="miter" stroke-width="2" vectornator:layerName="path"/>
<path d="M21.73 181.02C22.1567 182.673 22.9133 184.583 24 186.75C25.4933 189.73 27.5767 191.993 30.25 193.54" fill="none" opacity="1" stroke="#746c55" stroke-linecap="butt" stroke-linejoin="miter" stroke-width="2" vectornator:layerName="path"/>
<path d="M30.25 193.54C30.47 193.833 30.8367 193.987 31.35 194" fill="none" opacity="1" stroke="#3e2c1a" stroke-linecap="butt" stroke-linejoin="miter" stroke-width="2" vectornator:layerName="path"/>
<path d="M31.35 194C34.27 196.273 37.98 198.557 42.48 200.85C43.1826 201.207 44.0008 201.258 44.74 200.99C47.86 199.87 51.12 198.937 54.52 198.19C58.0067 197.43 61.3567 197.21 64.57 197.53C69.8167 198.057 74.9133 199.317 79.86 201.31C82.36 202.317 84.6367 202.277 86.69 201.19C91.9833 198.383 96.4833 196.297 100.19 194.93C101.137 194.583 101.92 194.023 102.54 193.25" fill="none" opacity="1" stroke="#746c55" stroke-linecap="butt" stroke-linejoin="miter" stroke-width="2" vectornator:layerName="path"/>
<path d="M102.54 193.25C103.18 193.337 103.597 193.087 103.79 192.5" fill="none" opacity="1" stroke="#3e2c1a" stroke-linecap="butt" stroke-linejoin="miter" stroke-width="2" vectornator:layerName="path"/>
<path d="M103.79 192.5C105.65 191.933 107.143 190.853 108.27 189.26C109.93 186.913 110.817 184.327 110.93 181.5" fill="none" opacity="1" stroke="#746c55" stroke-linecap="butt" stroke-linejoin="miter" stroke-width="2" vectornator:layerName="path"/>
<path d="M110.93 181.5C112.643 179.36 112.623 177.467 110.87 175.82C110.605 175.573 110.457 175.271 110.47 175C110.51 174.073 111.103 173.49 112.25 173.25" fill="none" opacity="1" stroke="#3b0a08" stroke-linecap="butt" stroke-linejoin="miter" stroke-width="2" vectornator:layerName="path"/>
<path d="M112.25 173.25C112.117 146.337 111.96 119.427 111.78 92.52C111.78 92.48 111.693 89.1367 111.52 82.49C111.4 77.8967 111.517 73.17 111.87 68.31C111.893 67.9476 111.66 67.6183 111.31 67.52C108.597 66.74 106.09 65.5667 103.79 64" fill="none" opacity="1" stroke="#5d5461" stroke-linecap="butt" stroke-linejoin="miter" stroke-width="2" vectornator:layerName="path"/>
<path d="M103.79 64C98.3567 59.2267 91.9333 57.4867 84.52 58.78" fill="none" opacity="1" stroke="#5f6364" stroke-linecap="butt" stroke-linejoin="miter" stroke-width="2" vectornator:layerName="path"/>
<path d="M84.52 58.78C72.3867 58.1133 60.2633 57.9867 48.15 58.4C44.9033 58.5133 43.1367 58.5867 42.85 58.62C40.87 58.88 39.19 59.5267 37.81 60.56C33.2367 63.9933 28.6467 67.4 24.04 70.78C22.52 71.8933 21.7567 73.7167 21.75 76.25C21.73 92.0033 21.7433 107.753 21.79 123.5" fill="none" opacity="1" stroke="#787777" stroke-linecap="butt" stroke-linejoin="miter" stroke-width="2" vectornator:layerName="path"/>
<path d="M84.52 58.78C82.3533 58.58 81.9867 58.7767 83.42 59.37C83.6467 59.4633 83.85 59.58 84.03 59.72C88.91 63.5667 93.94 67.19 99.12 70.59" fill="none" opacity="1" stroke="#a3d5d7" stroke-linecap="butt" stroke-linejoin="miter" stroke-width="2" vectornator:layerName="path"/>
<path d="M99.12 70.59C100 73.0233 100.48 75.41 100.56 77.75C100.953 89.5833 101.433 101.417 102 113.25C102.353 120.61 102.167 130.68 101.44 143.46" fill="none" opacity="1" stroke="#a1c7d4" stroke-linecap="butt" stroke-linejoin="miter" stroke-width="2" vectornator:layerName="path"/>
<path d="M101.44 143.46C99.4 146.687 97.5467 150.003 95.88 153.41C95.1467 154.91 94.21 156.51 93.07 158.21C92.03 159.763 91.08 161.37 90.22 163.03C89.0867 165.223 88.1267 166.94 87.34 168.18C86.2867 169.84 85.2567 171.517 84.25 173.21" fill="none" opacity="1" stroke="#b5dfde" stroke-linecap="butt" stroke-linejoin="miter" stroke-width="2" vectornator:layerName="path"/>
<path d="M84.25 173.21C71.05 173.623 56.8833 173.637 41.75 173.25C35.4767 173.09 28.6433 173.27 21.25 173.79" fill="none" opacity="1" stroke="#807c7b" stroke-linecap="butt" stroke-linejoin="miter" stroke-width="2" vectornator:layerName="path"/>
<path d="M21.09 171.76C23.99 171.753 25.5433 170.333 25.75 167.5C26.0967 162.647 26.4167 159.48 26.71 158" fill="none" opacity="1" stroke="#abdae1" stroke-linecap="butt" stroke-linejoin="miter" stroke-width="2" vectornator:layerName="path"/>
<path d="M26.71 158C26.7167 158.627 26.9767 158.9 27.49 158.82C27.73 158.78 27.9967 158.63 28.29 158.37C30.1567 156.657 32.1567 155.117 34.29 153.75" fill="none" opacity="1" stroke="#def4f5" stroke-linecap="butt" stroke-linejoin="miter" stroke-width="2" vectornator:layerName="path"/>
<path d="M34.29 153.75L35.95 153.74" fill="none" opacity="1" stroke="#d1f1f1" stroke-linecap="butt" stroke-linejoin="miter" stroke-width="2" vectornator:layerName="path"/>
<path d="M35.95 153.74C36.4033 158.253 36.92 160.923 37.5 161.75C38.7 163.463 40.42 164.497 42.66 164.85C42.9306 164.89 43.2054 164.815 43.4168 164.644C43.6282 164.472 43.7564 164.22 43.77 163.95L44.79 141.25" fill="none" opacity="1" stroke="#def4f5" stroke-linecap="butt" stroke-linejoin="miter" stroke-width="2" vectornator:layerName="path"/>
<path d="M44.79 141.25C49.19 143.11 53.7433 144.443 58.45 145.25C68.0433 146.903 76.58 144.757 84.06 138.81C87.4333 136.13 89.95 133.023 91.61 129.49C93.07 126.383 93.7333 122.58 93.6 118.08C93.2 104.173 86.8167 94.8967 74.45 90.25C69.6967 88.4633 64.97 87.8367 60.27 88.37C55.3767 88.93 50.7167 90.4733 46.29 93" fill="none" opacity="1" stroke="#acd2bd" stroke-linecap="butt" stroke-linejoin="miter" stroke-width="2" vectornator:layerName="path"/>
<path d="M46.29 93C45.3433 86.9467 45.2267 80.2167 45.94 72.81C46.0933 71.2033 45.4033 70.1367 43.87 69.61C42.0833 69.0033 40.1833 68.91 38.17 69.33C36.77 69.6233 35.9967 70.48 35.85 71.9C35.1033 79.1733 35.28 86.58 36.38 94.12C36.4048 94.2867 36.3422 94.4544 36.2142 94.5641C36.0863 94.6738 35.9109 94.71 35.75 94.66C34.3767 94.22 33.11 93.7333 31.95 93.2C30.33 92.46 29.0967 92.2433 28.25 92.55C26.8233 93.0633 26.0733 94.38 26 96.5C25.5667 109.547 25.47 119.38 25.71 126" fill="none" opacity="1" stroke="#def4f5" stroke-linecap="butt" stroke-linejoin="miter" stroke-width="2" vectornator:layerName="path"/>
<path d="M25.71 126C23.6433 126.573 22.3367 125.74 21.79 123.5" fill="none" opacity="1" stroke="#abdae1" stroke-linecap="butt" stroke-linejoin="miter" stroke-width="2" vectornator:layerName="path"/>
<path d="M109.3 173.07L84.25 173.21" fill="none" opacity="1" stroke="#79726e" stroke-linecap="butt" stroke-linejoin="miter" stroke-width="2" vectornator:layerName="path"/>
<path d="M110.93 181.5L108.94 181.84" fill="none" opacity="1" stroke="#7c7258" stroke-linecap="butt" stroke-linejoin="miter" stroke-width="2" vectornator:layerName="path"/>
<path d="M108.94 181.84L104.5 181.79" fill="none" opacity="1" stroke="#70654d" stroke-linecap="butt" stroke-linejoin="miter" stroke-width="2" vectornator:layerName="path"/>
<path d="M104.5 181.79L103.5 181.79" fill="none" opacity="1" stroke="#46311e" stroke-linecap="butt" stroke-linejoin="miter" stroke-width="2" vectornator:layerName="path"/>
<path d="M103.5 181.79C82.0867 182.623 60.67 182.847 39.25 182.46" fill="none" opacity="1" stroke="#796e50" stroke-linecap="butt" stroke-linejoin="miter" stroke-width="2" vectornator:layerName="path"/>
<path d="M39.25 182.46C35.9567 181.687 32.6233 181.38 29.25 181.54" fill="none" opacity="1" stroke="#7c7258" stroke-linecap="butt" stroke-linejoin="miter" stroke-width="2" vectornator:layerName="path"/>
<path d="M29.25 181.54C28.49 181.087 27.74 181.087 27 181.54" fill="none" opacity="1" stroke="#46311e" stroke-linecap="butt" stroke-linejoin="miter" stroke-width="2" vectornator:layerName="path"/>
<path d="M27 181.54L21.73 181.02" fill="none" opacity="1" stroke="#7c7258" stroke-linecap="butt" stroke-linejoin="miter" stroke-width="2" vectornator:layerName="path"/>
<path d="M103.79 64C103.623 65.2733 103.173 66.2533 102.44 66.94C100.793 68.4733 99.6867 69.69 99.12 70.59" fill="none" opacity="1" stroke="#88b3c1" stroke-linecap="butt" stroke-linejoin="miter" stroke-width="2" vectornator:layerName="path"/>
<path d="M46.29 93L42.75 95.46" fill="none" opacity="1" stroke="#ceddc7" stroke-linecap="butt" stroke-linejoin="miter" stroke-width="2" vectornator:layerName="path"/>
<path d="M42.75 95.46C37.95 99.9733 34.97 104.923 33.81 110.31C32.99 114.137 32.9 119.033 33.54 125" fill="none" opacity="1" stroke="#c7dcc4" stroke-linecap="butt" stroke-linejoin="miter" stroke-width="2" vectornator:layerName="path"/>
<path d="M33.54 125C33.9267 128.58 35.3 131.613 37.66 134.1C39.2133 135.733 40.0167 136.58 40.07 136.64C41.5233 138.293 43.0967 139.83 44.79 141.25" fill="none" opacity="1" stroke="#ceddc7" stroke-linecap="butt" stroke-linejoin="miter" stroke-width="2" vectornator:layerName="path"/>
<path d="M35.95 153.74C35.3367 148.947 35.9567 144.35 37.81 139.95C37.9382 139.642 37.949 139.312 37.84 139.03C37.3067 137.637 36.3667 136.593 35.02 135.9C34.7267 135.753 34.4767 135.543 34.27 135.27C33.55 134.343 32.9733 134.267 32.54 135.04C32.3467 135.38 32.2467 135.87 32.24 136.51C32.1933 141.577 31.9467 144.573 31.5 145.5C30.6 147.387 31.0433 148.65 32.83 149.29C33.1955 149.42 33.4557 149.657 33.51 149.91L34.29 153.75" fill="none" opacity="1" stroke="#f2fcfb" stroke-linecap="butt" stroke-linejoin="miter" stroke-width="2" vectornator:layerName="path"/>
<path d="M26.71 158L25.71 126" fill="none" opacity="1" stroke="#cde5ec" stroke-linecap="butt" stroke-linejoin="miter" stroke-width="2" vectornator:layerName="path"/>
<path d="M33.54 125C34.08 125.24 34.36 125.597 34.38 126.07C34.3924 126.473 34.4942 126.797 34.65 126.93C35.1567 127.37 35.7567 127.403 36.45 127.03C36.8123 126.835 37.239 126.8 37.6267 126.933C38.0144 127.066 38.3275 127.355 38.49 127.73C39.9433 131.07 41.59 131.307 43.43 128.44" fill="none" opacity="1" stroke="#95ba8c" stroke-linecap="butt" stroke-linejoin="miter" stroke-width="2" vectornator:layerName="path"/>
<path d="M43.43 128.44C50.67 137.307 59.84 140.39 70.94 137.69C75.06 136.683 78.42 134.537 81.02 131.25C82.7867 129.01 84.0267 126.293 84.74 123.1C85.4067 120.14 85.6233 117.11 85.39 114.01C85.15 110.797 84.0833 108.063 82.19 105.81C76.65 99.2367 69.5933 96.2233 61.02 96.77C58.9667 96.9033 57.4533 97.0667 56.48 97.26C54.9733 97.56 53.5367 98.11 52.17 98.91C46.9833 101.93 43.08 106.127 40.46 111.5" fill="none" opacity="1" stroke="#cddcc5" stroke-linecap="butt" stroke-linejoin="miter" stroke-width="2" vectornator:layerName="path"/>
<path d="M40.46 111.5C39.2133 111.487 38.2367 111.04 37.53 110.16C37.3453 109.918 37.2761 109.59 37.34 109.26C38.2 104.7 40.2967 100.813 43.63 97.6C43.8976 97.3389 44.0502 97.0301 44.05 96.75C44.0433 95.9633 43.61 95.5333 42.75 95.46" fill="none" opacity="1" stroke="#95ba8c" stroke-linecap="butt" stroke-linejoin="miter" stroke-width="2" vectornator:layerName="path"/>
<path d="M112.25 173.25L109.3 173.07" fill="none" opacity="1" stroke="#655a64" stroke-linecap="butt" stroke-linejoin="miter" stroke-width="2" vectornator:layerName="path"/>
<path d="M109.3 173.07C107.087 172.097 104.847 171.803 102.58 172.19C101.187 172.43 100.513 171.827 100.56 170.38L101.44 143.46" fill="none" opacity="1" stroke="#9abcc7" stroke-linecap="butt" stroke-linejoin="miter" stroke-width="2" vectornator:layerName="path"/>
<path d="M27 181.54C27.7333 182.2 28.22 183.02 28.46 184" fill="none" opacity="1" stroke="#7e946b" stroke-linecap="butt" stroke-linejoin="miter" stroke-width="2" vectornator:layerName="path"/>
<path d="M28.46 184L30.25 193.54" fill="none" opacity="1" stroke="#7e946b" stroke-linecap="butt" stroke-linejoin="miter" stroke-width="2" vectornator:layerName="path"/>
<path d="M103.5 181.79L102.79 189.25" fill="none" opacity="1" stroke="#7b9063" stroke-linecap="butt" stroke-linejoin="miter" stroke-width="2" vectornator:layerName="path"/>
<path d="M29.25 181.54C29.11 182.1 29.0967 182.67 29.21 183.25" fill="none" opacity="1" stroke="#7e946b" stroke-linecap="butt" stroke-linejoin="miter" stroke-width="2" vectornator:layerName="path"/>
<path d="M29.21 183.25C28.8233 183.33 28.5733 183.58 28.46 184" fill="none" opacity="1" stroke="#485330" stroke-linecap="butt" stroke-linejoin="miter" stroke-width="2" vectornator:layerName="path"/>
<path d="M104.5 181.79L104.04 189.75" fill="none" opacity="1" stroke="#728760" stroke-linecap="butt" stroke-linejoin="miter" stroke-width="2" vectornator:layerName="path"/>
<path d="M103.79 192.5L104.04 189.75" fill="none" opacity="1" stroke="#7e946b" stroke-linecap="butt" stroke-linejoin="miter" stroke-width="2" vectornator:layerName="path"/>
<path d="M104.04 189.75C107.533 188.177 109.167 185.54 108.94 181.84" fill="none" opacity="1" stroke="#a8c89a" stroke-linecap="butt" stroke-linejoin="miter" stroke-width="2" vectornator:layerName="path"/>
<path d="M39.25 182.46C38.2567 182.5 38.0267 182.583 38.56 182.71C38.6933 182.743 38.8067 182.797 38.9 182.87C41.5267 185.003 43.8933 187.397 46 190.05C46.2073 190.303 46.4878 190.482 46.8 190.56C51.1867 191.64 55.63 192.39 60.13 192.81C60.21 192.817 61.24 192.753 63.22 192.62C64.7933 192.52 66.0633 193.2 67.03 194.66C67.0845 194.744 67.0993 194.848 67.0706 194.946C67.042 195.043 66.9726 195.125 66.88 195.17C66.08 195.563 66.12 195.76 67 195.76C67.1867 195.753 67.35 195.763 67.49 195.79C71.5833 196.483 76.2067 197.9 81.36 200.04C81.8291 200.235 82.345 200.284 82.84 200.18C85.9533 199.553 88.8533 198.303 91.54 196.43C92.3933 195.837 93.5633 195.137 95.05 194.33C96.27 193.663 97.3833 192.84 98.39 191.86C98.609 191.647 98.7474 191.342 98.78 191C98.9467 189.187 99.8067 187.863 101.36 187.03C101.647 186.881 101.983 186.922 102.19 187.13C102.723 187.67 102.923 188.377 102.79 189.25" fill="none" opacity="1" stroke="#b1d19d" stroke-linecap="butt" stroke-linejoin="miter" stroke-width="2" vectornator:layerName="path"/>
<path d="M102.79 189.25L102.54 193.25" fill="none" opacity="1" stroke="#7e946b" stroke-linecap="butt" stroke-linejoin="miter" stroke-width="2" vectornator:layerName="path"/>
<path d="M31.35 194L29.21 183.25" fill="none" opacity="1" stroke="#7e946b" stroke-linecap="butt" stroke-linejoin="miter" stroke-width="2" vectornator:layerName="path"/>
<path d="M40.46 111.5C38.48 117.747 39.47 123.393 43.43 128.44" fill="none" opacity="1" stroke="#c6dbc2" stroke-linecap="butt" stroke-linejoin="miter" stroke-width="2" vectornator:layerName="path"/>
<path d="M53.3107 25.7321C53.2049 24.4164 52.0525 23.4356 50.7368 23.5414L48.6236 23.7115C47.3079 23.8174 46.3272 24.9697 46.433 26.2854L46.8693 31.7079C46.9751 33.0236 48.1275 34.0044 49.4432 33.8986L51.5564 33.7285C52.8721 33.6226 53.8528 32.4703 53.747 31.1546L53.3107 25.7321" fill="none" opacity="1" stroke="#dff9f9" stroke-linecap="butt" stroke-linejoin="miter" stroke-width="2" vectornator:layerName="path"/>
<path d="M56.68 105.86C57.5933 107.653 58.0933 109.513 58.18 111.44C58.1926 111.791 58.0839 112.11 57.88 112.32C57.1733 113.067 56.2133 113.197 55 112.71" fill="none" opacity="1" stroke="#eaa9a8" stroke-linecap="butt" stroke-linejoin="miter" stroke-width="2" vectornator:layerName="path"/>
<path d="M55 112.71C54.4533 112.463 53.4633 112.463 52.03 112.71C51.7167 112.768 51.4895 113.041 51.49 113.36C51.51 115.307 51.83 116.933 52.45 118.24C52.5967 118.54 52.71 118.523 52.79 118.19C52.9633 117.483 53.03 118.127 52.99 120.12" fill="none" opacity="1" stroke="#d9e9d0" stroke-linecap="butt" stroke-linejoin="miter" stroke-width="2" vectornator:layerName="path"/>
<path d="M52.99 120.12C53.45 121.78 54.5167 122.133 56.19 121.18C57.4367 120.467 58.2833 120.793 58.73 122.16C59.29 123.9 59.42 125.297 59.12 126.35C58.8484 127.323 59.2466 128.359 60.1 128.9C61.5267 129.807 63.0067 130.4 64.54 130.68C65.9 130.933 66.5533 130.293 66.5 128.76L66.3 122.95C66.2267 120.837 67.0867 120.33 68.88 121.43L72.27 123.51C72.66 123.75 73.1453 123.781 73.5541 123.592C73.9628 123.403 74.2372 123.02 74.28 122.58L75.3 111.79C75.3197 111.589 75.237 111.392 75.0799 111.265C74.9228 111.138 74.7123 111.098 74.52 111.16L68 113.29" fill="none" opacity="1" stroke="#eaa9a8" stroke-linecap="butt" stroke-linejoin="miter" stroke-width="2" vectornator:layerName="path"/>
<path d="M68 113.29C66.88 112.463 66.3967 111.287 66.55 109.76C66.8967 106.387 65.7533 104.73 63.12 104.79C61.8733 104.817 60.79 104.877 59.87 104.97C58.8833 105.063 57.82 105.36 56.68 105.86" fill="none" opacity="1" stroke="#dba09e" stroke-linecap="butt" stroke-linejoin="miter" stroke-width="2" vectornator:layerName="path"/>
<path d="M68 113.29C66.4667 113.857 65.8167 113.25 66.05 111.47C66.2767 109.81 66.2067 109.567 65.84 110.74C65.7861 110.902 65.667 111.034 65.5124 111.102C65.3578 111.171 65.1824 111.17 65.03 111.1C62.9167 110.16 61.23 108.723 59.97 106.79C59.8054 106.54 59.4856 106.443 59.21 106.56C57.91 107.1 57.0667 106.867 56.68 105.86" fill="none" opacity="1" stroke="#c74c4b" stroke-linecap="butt" stroke-linejoin="miter" stroke-width="2" vectornator:layerName="path"/>
<path d="M52.99 120.12C53.43 118.28 53.1167 116.27 52.05 114.09C51.9285 113.835 51.9634 113.535 52.1435 113.289C52.3235 113.043 52.6253 112.883 52.95 112.86L55 112.71" fill="none" opacity="1" stroke="#c5957d" stroke-linecap="butt" stroke-linejoin="miter" stroke-width="2" vectornator:layerName="path"/>
</g>
<path d="M93.53 47.06C93.4633 49.58 94.6233 51.2133 97.01 51.96C105.037 54.4533 112.473 58.6667 119.32 64.6C120.267 65.4133 120.747 66.4433 120.76 67.69C121.02 89.5633 121.247 111.693 121.44 134.08C121.447 134.727 121.383 139.67 121.25 148.91C121.19 153.497 121.273 158.443 121.5 163.75C121.647 167.19 121.62 171.443 121.42 176.51C121.213 181.737 119.92 186.533 117.54 190.9C115.66 194.333 112.78 197.417 108.9 200.15C103.54 203.917 97.6533 206.733 91.24 208.6C84.3467 210.613 77.5233 210.397 70.77 207.95C67.1633 206.643 63.4933 206.12 59.76 206.38C58.3133 206.48 56.34 206.897 53.84 207.63C52.5467 208.01 51.2467 208.377 49.94 208.73C48.3867 209.157 47.07 209.403 45.99 209.47C41.0233 209.803 36.34 208.417 31.94 205.31C27.7333 202.35 24.4333 199.653 22.04 197.22C18.5267 193.653 16.01 189.607 14.49 185.08C13.5033 182.127 12.9867 177.517 12.94 171.25C12.7267 141.33 12.9133 111.413 13.5 81.5C13.5333 79.68 13.4567 77.5433 13.27 75.09C13.07 72.3833 13.24 70.3567 13.78 69.01C14.5733 67.03 15.8833 65.3467 17.71 63.96C22.91 60.0267 28.3033 56.3767 33.89 53.01C35.4633 52.0567 36.4733 51.14 36.92 50.26C37.64 48.8533 37.6333 47.3533 36.9 45.76C36.6534 45.2282 36.1396 44.8666 35.55 44.81C33.1233 44.5633 31.3367 43.6967 30.19 42.21C29.4767 41.29 28.9333 39.5633 28.56 37.03C27.6667 31.0233 27.37 24.9833 27.67 18.91C27.7567 17.15 28.2467 15.72 29.14 14.62C30.7067 12.6933 32.8067 11.1333 35.44 9.94C39.2733 8.2 43.08 7.03667 46.86 6.45C48.8467 6.14333 52.7767 5.91 58.65 5.75C66.2767 5.55667 73.8933 5.81333 81.5 6.52C87.5667 7.08667 93.3767 8.60333 98.93 11.07C101.997 12.4367 103.867 14.5333 104.54 17.36C104.793 18.4467 104.827 21.0467 104.64 25.16C104.373 30.9933 103.66 35.8567 102.5 39.75C101.32 43.71 98.5033 45.9633 94.05 46.51C93.7633 46.5438 93.5433 46.7765 93.53 47.06ZM85.5 37.96C88.1733 37.8667 90.84 37.7133 93.5 37.5C94.6467 37.4067 95.0767 36.7533 94.79 35.54C95.8833 29.5533 96 23.55 95.14 17.53C90.8667 15.9833 86.57 15.2367 82.25 15.29C72.6567 14.29 63.0433 13.9 53.41 14.12C50.2433 14.1933 47.4833 14.48 45.13 14.98C42.4033 15.56 39.73 16.3333 37.11 17.3C36.6087 17.48 36.2678 17.9476 36.25 18.48L35.58 36.94C35.5731 37.2297 35.7709 37.4822 36.05 37.54C39.6367 38.24 42.37 38.56 44.25 38.5C57.9967 38.0467 71.7467 37.8667 85.5 37.96ZM86.5645 47.0575C86.5628 46.5604 86.1585 46.1589 85.6614 46.1606L45.9016 46.2994C45.4046 46.3012 45.0031 46.7055 45.0048 47.2025L45.0155 50.2825C45.0172 50.7796 45.4215 51.1811 45.9186 51.1794L85.6784 51.0406C86.1754 51.0388 86.5769 50.6345 86.5752 50.1375L86.5645 47.0575ZM21.79 123.5L21.09 171.76C20.8633 172.487 20.9167 173.163 21.25 173.79L21.73 181.02C22.1567 182.673 22.9133 184.583 24 186.75C25.4933 189.73 27.5767 191.993 30.25 193.54C30.47 193.833 30.8367 193.987 31.35 194C34.27 196.273 37.98 198.557 42.48 200.85C43.1826 201.207 44.0008 201.258 44.74 200.99C47.86 199.87 51.12 198.937 54.52 198.19C58.0067 197.43 61.3567 197.21 64.57 197.53C69.8167 198.057 74.9133 199.317 79.86 201.31C82.36 202.317 84.6367 202.277 86.69 201.19C91.9833 198.383 96.4833 196.297 100.19 194.93C101.137 194.583 101.92 194.023 102.54 193.25C103.18 193.337 103.597 193.087 103.79 192.5C105.65 191.933 107.143 190.853 108.27 189.26C109.93 186.913 110.817 184.327 110.93 181.5C112.643 179.36 112.623 177.467 110.87 175.82C110.605 175.573 110.457 175.271 110.47 175C110.51 174.073 111.103 173.49 112.25 173.25C112.117 146.337 111.96 119.427 111.78 92.52C111.78 92.48 111.693 89.1367 111.52 82.49C111.4 77.8967 111.517 73.17 111.87 68.31C111.893 67.9476 111.66 67.6183 111.31 67.52C108.597 66.74 106.09 65.5667 103.79 64C98.3567 59.2267 91.9333 57.4867 84.52 58.78C72.3867 58.1133 60.2633 57.9867 48.15 58.4C44.9033 58.5133 43.1367 58.5867 42.85 58.62C40.87 58.88 39.19 59.5267 37.81 60.56C33.2367 63.9933 28.6467 67.4 24.04 70.78C22.52 71.8933 21.7567 73.7167 21.75 76.25C21.73 92.0033 21.7433 107.753 21.79 123.5Z" fill="#330404" fill-rule="nonzero" opacity="1" stroke="none" vectornator:layerName="path"/>
<path d="M82.25 15.29C84.0433 15.2433 84.96 15.98 85 17.5C85.18 24.32 85.3467 31.14 85.5 37.96C71.7467 37.8667 57.9967 38.0467 44.25 38.5C42.37 38.56 39.6367 38.24 36.05 37.54C35.7709 37.4822 35.5731 37.2297 35.58 36.94L36.25 18.48C36.2678 17.9476 36.6087 17.48 37.11 17.3C39.73 16.3333 42.4033 15.56 45.13 14.98C47.4833 14.48 50.2433 14.1933 53.41 14.12C63.0433 13.9 72.6567 14.29 82.25 15.29ZM53.3107 25.7321C53.2049 24.4164 52.0525 23.4356 50.7368 23.5414L48.6236 23.7115C47.3079 23.8174 46.3272 24.9697 46.433 26.2854L46.8693 31.7079C46.9751 33.0236 48.1275 34.0044 49.4432 33.8986L51.5564 33.7285C52.8721 33.6226 53.8528 32.4703 53.747 31.1546L53.3107 25.7321Z" fill="#bff4f7" fill-rule="nonzero" opacity="1" stroke="none" vectornator:layerName="path"/>
<path d="M82.25 15.29C86.57 15.2367 90.8667 15.9833 95.14 17.53C94.38 23.4967 94.2633 29.5 94.79 35.54C95.0767 36.7533 94.6467 37.4067 93.5 37.5C90.84 37.7133 88.1733 37.8667 85.5 37.96C85.3467 31.14 85.18 24.32 85 17.5C84.96 15.98 84.0433 15.2433 82.25 15.29Z" fill="#80b8bf" fill-rule="nonzero" opacity="1" stroke="none" vectornator:layerName="path"/>
<path d="M95.14 17.53C96 23.55 95.8833 29.5533 94.79 35.54C94.2633 29.5 94.38 23.4967 95.14 17.53Z" fill="#567c7f" fill-rule="nonzero" opacity="1" stroke="none" vectornator:layerName="path"/>
<path d="M48.6236 23.7115L50.7368 23.5414C52.0525 23.4356 53.2049 24.4164 53.3107 25.7321L53.747 31.1546C53.8529 32.4703 52.8721 33.6227 51.5564 33.7285L49.4432 33.8986C48.1275 34.0044 46.9751 33.0236 46.8693 31.7079L46.433 26.2854C46.3271 24.9697 47.3079 23.8173 48.6236 23.7115Z" fill="#fefdfb" fill-rule="nonzero" opacity="1" stroke="none" vectornator:layerName="rect"/>
<path d="M45.9016 46.2994L85.6614 46.1606C86.1584 46.1589 86.5628 46.5604 86.5645 47.0575L86.5753 50.1375C86.577 50.6345 86.1755 51.0389 85.6784 51.0406L45.9186 51.1794C45.4216 51.1811 45.0172 50.7796 45.0155 50.2825L45.0048 47.2025C45.003 46.7055 45.4046 46.3011 45.9016 46.2994Z" fill="#fefdfb" fill-rule="nonzero" opacity="1" stroke="none" vectornator:layerName="rect"/>
<path d="M84.52 58.78C82.3533 58.58 81.9867 58.7767 83.42 59.37C83.6467 59.4633 83.85 59.58 84.03 59.72C88.91 63.5667 93.94 67.19 99.12 70.59C100 73.0233 100.48 75.41 100.56 77.75C100.953 89.5833 101.433 101.417 102 113.25C102.353 120.61 102.167 130.68 101.44 143.46C99.4 146.687 97.5467 150.003 95.88 153.41C95.1467 154.91 94.21 156.51 93.07 158.21C92.03 159.763 91.08 161.37 90.22 163.03C89.0867 165.223 88.1267 166.94 87.34 168.18C86.2867 169.84 85.2567 171.517 84.25 173.21C71.05 173.623 56.8833 173.637 41.75 173.25C35.4767 173.09 28.6433 173.27 21.25 173.79C20.9167 173.163 20.8633 172.487 21.09 171.76C23.99 171.753 25.5433 170.333 25.75 167.5C26.0967 162.647 26.4167 159.48 26.71 158C26.7167 158.627 26.9767 158.9 27.49 158.82C27.73 158.78 27.9967 158.63 28.29 158.37C30.1567 156.657 32.1567 155.117 34.29 153.75L35.95 153.74C36.4033 158.253 36.92 160.923 37.5 161.75C38.7 163.463 40.42 164.497 42.66 164.85C42.9306 164.89 43.2054 164.815 43.4168 164.644C43.6282 164.472 43.7564 164.22 43.77 163.95L44.79 141.25C49.19 143.11 53.7433 144.443 58.45 145.25C68.0433 146.903 76.58 144.757 84.06 138.81C87.4333 136.13 89.95 133.023 91.61 129.49C93.07 126.383 93.7333 122.58 93.6 118.08C93.2 104.173 86.8167 94.8967 74.45 90.25C69.6967 88.4633 64.97 87.8367 60.27 88.37C55.3767 88.93 50.7167 90.4733 46.29 93C45.3433 86.9467 45.2267 80.2167 45.94 72.81C46.0933 71.2033 45.4033 70.1367 43.87 69.61C42.0833 69.0033 40.1833 68.91 38.17 69.33C36.77 69.6233 35.9967 70.48 35.85 71.9C35.1033 79.1733 35.28 86.58 36.38 94.12C36.4048 94.2867 36.3422 94.4544 36.2142 94.5641C36.0863 94.6738 35.9109 94.71 35.75 94.66C34.3767 94.22 33.11 93.7333 31.95 93.2C30.33 92.46 29.0967 92.2433 28.25 92.55C26.8233 93.0633 26.0733 94.38 26 96.5C25.5667 109.547 25.47 119.38 25.71 126C23.6433 126.573 22.3367 125.74 21.79 123.5C21.7433 107.753 21.73 92.0033 21.75 76.25C21.7567 73.7167 22.52 71.8933 24.04 70.78C28.6467 67.4 33.2367 63.9933 37.81 60.56C39.19 59.5267 40.87 58.88 42.85 58.62C43.1367 58.5867 44.9033 58.5133 48.15 58.4C60.2633 57.9867 72.3867 58.1133 84.52 58.78Z" fill="#bce9ea" fill-rule="nonzero" opacity="1" stroke="none" vectornator:layerName="path"/>
<path d="M84.52 58.78C91.9333 57.4867 98.3567 59.2267 103.79 64C103.623 65.2733 103.173 66.2533 102.44 66.94C100.793 68.4733 99.6867 69.69 99.12 70.59C93.94 67.19 88.91 63.5667 84.03 59.72C83.85 59.58 83.6467 59.4633 83.42 59.37C81.9867 58.7767 82.3533 58.58 84.52 58.78Z" fill="#8ac1c4" fill-rule="nonzero" opacity="1" stroke="none" vectornator:layerName="path"/>
<path d="M103.79 64C106.09 65.5667 108.597 66.74 111.31 67.52C111.66 67.6183 111.893 67.9476 111.87 68.31C111.517 73.17 111.4 77.8967 111.52 82.49C111.693 89.1367 111.78 92.48 111.78 92.52C111.96 119.427 112.117 146.337 112.25 173.25L109.3 173.07C107.087 172.097 104.847 171.803 102.58 172.19C101.187 172.43 100.513 171.827 100.56 170.38L101.44 143.46C102.167 130.68 102.353 120.61 102 113.25C101.433 101.417 100.953 89.5833 100.56 77.75C100.48 75.41 100 73.0233 99.12 70.59C99.6867 69.69 100.793 68.4733 102.44 66.94C103.173 66.2533 103.623 65.2733 103.79 64Z" fill="#86a4bd" fill-rule="nonzero" opacity="1" stroke="none" vectornator:layerName="path"/>
<path d="M46.29 93L42.75 95.46C37.95 99.9733 34.97 104.923 33.81 110.31C32.99 114.137 32.9 119.033 33.54 125C33.9267 128.58 35.3 131.613 37.66 134.1C39.2133 135.733 40.0167 136.58 40.07 136.64C41.5233 138.293 43.0967 139.83 44.79 141.25L43.77 163.95C43.7564 164.22 43.6282 164.472 43.4168 164.644C43.2054 164.815 42.9306 164.89 42.66 164.85C40.42 164.497 38.7 163.463 37.5 161.75C36.92 160.923 36.4033 158.253 35.95 153.74C35.3367 148.947 35.9567 144.35 37.81 139.95C37.9382 139.642 37.949 139.312 37.84 139.03C37.3067 137.637 36.3667 136.593 35.02 135.9C34.7267 135.753 34.4767 135.543 34.27 135.27C33.55 134.343 32.9733 134.267 32.54 135.04C32.3467 135.38 32.2467 135.87 32.24 136.51C32.1933 141.577 31.9467 144.573 31.5 145.5C30.6 147.387 31.0433 148.65 32.83 149.29C33.1955 149.42 33.4557 149.657 33.51 149.91L34.29 153.75C32.1567 155.117 30.1567 156.657 28.29 158.37C27.9967 158.63 27.73 158.78 27.49 158.82C26.9767 158.9 26.7167 158.627 26.71 158L25.71 126C25.47 119.38 25.5667 109.547 26 96.5C26.0733 94.38 26.8233 93.0633 28.25 92.55C29.0967 92.2433 30.33 92.46 31.95 93.2C33.11 93.7333 34.3767 94.22 35.75 94.66C35.9109 94.71 36.0863 94.6738 36.2142 94.5641C36.3422 94.4544 36.4048 94.2867 36.38 94.12C35.28 86.58 35.1033 79.1733 35.85 71.9C35.9967 70.48 36.77 69.6233 38.17 69.33C40.1833 68.91 42.0833 69.0033 43.87 69.61C45.4033 70.1367 46.0933 71.2033 45.94 72.81C45.2267 80.2167 45.3433 86.9467 46.29 93Z" fill="#ffffff" fill-rule="nonzero" opacity="1" stroke="none" vectornator:layerName="path"/>
<path d="M44.79 141.25C43.0967 139.83 41.5233 138.293 40.07 136.64C40.0167 136.58 39.2133 135.733 37.66 134.1C35.3 131.613 33.9267 128.58 33.54 125C34.08 125.24 34.36 125.597 34.38 126.07C34.3924 126.473 34.4942 126.797 34.65 126.93C35.1567 127.37 35.7567 127.403 36.45 127.03C36.8123 126.835 37.239 126.8 37.6267 126.933C38.0144 127.066 38.3275 127.355 38.49 127.73C39.9433 131.07 41.59 131.307 43.43 128.44C50.67 137.307 59.84 140.39 70.94 137.69C75.06 136.683 78.42 134.537 81.02 131.25C82.7867 129.01 84.0267 126.293 84.74 123.1C85.4067 120.14 85.6233 117.11 85.39 114.01C85.15 110.797 84.0833 108.063 82.19 105.81C76.65 99.2367 69.5933 96.2233 61.02 96.77C58.9667 96.9033 57.4533 97.0667 56.48 97.26C54.9733 97.56 53.5367 98.11 52.17 98.91C46.9833 101.93 43.08 106.127 40.46 111.5C39.2133 111.487 38.2367 111.04 37.53 110.16C37.3453 109.918 37.2761 109.59 37.34 109.26C38.2 104.7 40.2967 100.813 43.63 97.6C43.8976 97.3389 44.0502 97.0301 44.05 96.75C44.0433 95.9633 43.61 95.5333 42.75 95.46L46.29 93C50.7167 90.4733 55.3767 88.93 60.27 88.37C64.97 87.8367 69.6967 88.4633 74.45 90.25C86.8167 94.8967 93.2 104.173 93.6 118.08C93.7333 122.58 93.07 126.383 91.61 129.49C89.95 133.023 87.4333 136.13 84.06 138.81C76.58 144.757 68.0433 146.903 58.45 145.25C53.7433 144.443 49.19 143.11 44.79 141.25Z" fill="#9cbb8f" fill-rule="nonzero" opacity="1" stroke="none" vectornator:layerName="path"/>
<path d="M42.75 95.46C43.61 95.5333 44.0433 95.9633 44.05 96.75C44.0502 97.0301 43.8976 97.3389 43.63 97.6C40.2967 100.813 38.2 104.7 37.34 109.26C37.2761 109.59 37.3453 109.918 37.53 110.16C38.2367 111.04 39.2133 111.487 40.46 111.5C38.48 117.747 39.47 123.393 43.43 128.44C41.59 131.307 39.9433 131.07 38.49 127.73C38.3275 127.355 38.0144 127.066 37.6267 126.933C37.239 126.8 36.8123 126.835 36.45 127.03C35.7567 127.403 35.1567 127.37 34.65 126.93C34.4942 126.797 34.3924 126.473 34.38 126.07C34.36 125.597 34.08 125.24 33.54 125C32.9 119.033 32.99 114.137 33.81 110.31C34.97 104.923 37.95 99.9733 42.75 95.46Z" fill="#8eb888" fill-rule="nonzero" opacity="1" stroke="none" vectornator:layerName="path"/>
<path d="M43.43 128.44C39.47 123.393 38.48 117.747 40.46 111.5C43.08 106.127 46.9833 101.93 52.17 98.91C53.5367 98.11 54.9733 97.56 56.48 97.26C57.4533 97.0667 58.9667 96.9033 61.02 96.77C69.5933 96.2233 76.65 99.2367 82.19 105.81C84.0833 108.063 85.15 110.797 85.39 114.01C85.6233 117.11 85.4067 120.14 84.74 123.1C84.0267 126.293 82.7867 129.01 81.02 131.25C78.42 134.537 75.06 136.683 70.94 137.69C59.84 140.39 50.67 137.307 43.43 128.44ZM56.68 105.86C57.5933 107.653 58.0933 109.513 58.18 111.44C58.1926 111.791 58.0839 112.11 57.88 112.32C57.1733 113.067 56.2133 113.197 55 112.71C54.4533 112.463 53.4633 112.463 52.03 112.71C51.7167 112.768 51.4895 113.041 51.49 113.36C51.51 115.307 51.83 116.933 52.45 118.24C52.5967 118.54 52.71 118.523 52.79 118.19C52.9633 117.483 53.03 118.127 52.99 120.12C53.45 121.78 54.5167 122.133 56.19 121.18C57.4367 120.467 58.2833 120.793 58.73 122.16C59.29 123.9 59.42 125.297 59.12 126.35C58.8484 127.323 59.2466 128.359 60.1 128.9C61.5267 129.807 63.0067 130.4 64.54 130.68C65.9 130.933 66.5533 130.293 66.5 128.76L66.3 122.95C66.2267 120.837 67.0867 120.33 68.88 121.43L72.27 123.51C72.66 123.75 73.1453 123.781 73.5541 123.592C73.9628 123.403 74.2372 123.02 74.28 122.58L75.3 111.79C75.3197 111.589 75.237 111.392 75.0799 111.265C74.9228 111.138 74.7123 111.098 74.52 111.16L68 113.29C66.88 112.463 66.3967 111.287 66.55 109.76C66.8967 106.387 65.7533 104.73 63.12 104.79C61.8733 104.817 60.79 104.877 59.87 104.97C58.8833 105.063 57.82 105.36 56.68 105.86Z" fill="#fefdfb" fill-rule="nonzero" opacity="1" stroke="none" vectornator:layerName="path"/>
<path d="M68 113.29C66.4667 113.857 65.8167 113.25 66.05 111.47C66.2767 109.81 66.2067 109.567 65.84 110.74C65.7861 110.902 65.667 111.034 65.5124 111.102C65.3578 111.171 65.1824 111.17 65.03 111.1C62.9167 110.16 61.23 108.723 59.97 106.79C59.8054 106.54 59.4856 106.443 59.21 106.56C57.91 107.1 57.0667 106.867 56.68 105.86C57.82 105.36 58.8833 105.063 59.87 104.97C60.79 104.877 61.8733 104.817 63.12 104.79C65.7533 104.73 66.8967 106.387 66.55 109.76C66.3967 111.287 66.88 112.463 68 113.29Z" fill="#b84240" fill-rule="nonzero" opacity="1" stroke="none" vectornator:layerName="path"/>
<path d="M56.68 105.86C57.0667 106.867 57.91 107.1 59.21 106.56C59.4856 106.443 59.8054 106.54 59.97 106.79C61.23 108.723 62.9167 110.16 65.03 111.1C65.1824 111.17 65.3578 111.171 65.5124 111.102C65.667 111.034 65.7861 110.902 65.84 110.74C66.2067 109.567 66.2767 109.81 66.05 111.47C65.8167 113.25 66.4667 113.857 68 113.29L74.52 111.16C74.7123 111.098 74.9228 111.138 75.0799 111.265C75.237 111.392 75.3197 111.589 75.3 111.79L74.28 122.58C74.2372 123.02 73.9628 123.403 73.5541 123.592C73.1453 123.781 72.66 123.75 72.27 123.51L68.88 121.43C67.0867 120.33 66.2267 120.837 66.3 122.95L66.5 128.76C66.5533 130.293 65.9 130.933 64.54 130.68C63.0067 130.4 61.5267 129.807 60.1 128.9C59.2466 128.359 58.8484 127.323 59.12 126.35C59.42 125.297 59.29 123.9 58.73 122.16C58.2833 120.793 57.4367 120.467 56.19 121.18C54.5167 122.133 53.45 121.78 52.99 120.12C53.43 118.28 53.1167 116.27 52.05 114.09C51.9285 113.835 51.9634 113.535 52.1435 113.289C52.3235 113.043 52.6253 112.883 52.95 112.86L55 112.71C56.2133 113.197 57.1733 113.067 57.88 112.32C58.0839 112.11 58.1926 111.791 58.18 111.44C58.0933 109.513 57.5933 107.653 56.68 105.86Z" fill="#d55555" fill-rule="nonzero" opacity="1" stroke="none" vectornator:layerName="path"/>
<path d="M55 112.71L52.95 112.86C52.6253 112.883 52.3235 113.043 52.1435 113.289C51.9634 113.535 51.9285 113.835 52.05 114.09C53.1167 116.27 53.43 118.28 52.99 120.12C53.03 118.127 52.9633 117.483 52.79 118.19C52.71 118.523 52.5967 118.54 52.45 118.24C51.83 116.933 51.51 115.307 51.49 113.36C51.4895 113.041 51.7167 112.768 52.03 112.71C53.4633 112.463 54.4533 112.463 55 112.71Z" fill="#b4d4a5" fill-rule="nonzero" opacity="1" stroke="none" vectornator:layerName="path"/>
<path d="M21.79 123.5C22.3367 125.74 23.6433 126.573 25.71 126L26.71 158C26.4167 159.48 26.0967 162.647 25.75 167.5C25.5433 170.333 23.99 171.753 21.09 171.76L21.79 123.5Z" fill="#9acbd8" fill-rule="nonzero" opacity="1" stroke="none" vectornator:layerName="path"/>
<path d="M35.95 153.74L34.29 153.75L33.51 149.91C33.4557 149.657 33.1955 149.42 32.83 149.29C31.0433 148.65 30.6 147.387 31.5 145.5C31.9467 144.573 32.1933 141.577 32.24 136.51C32.2467 135.87 32.3467 135.38 32.54 135.04C32.9733 134.267 33.55 134.343 34.27 135.27C34.4767 135.543 34.7267 135.753 35.02 135.9C36.3667 136.593 37.3067 137.637 37.84 139.03C37.949 139.312 37.9382 139.642 37.81 139.95C35.9567 144.35 35.3367 148.947 35.95 153.74Z" fill="#e5f9f7" fill-rule="nonzero" opacity="1" stroke="none" vectornator:layerName="path"/>
<path d="M101.44 143.46L100.56 170.38C100.513 171.827 101.187 172.43 102.58 172.19C104.847 171.803 107.087 172.097 109.3 173.07L84.25 173.21C85.2567 171.517 86.2867 169.84 87.34 168.18C88.1267 166.94 89.0867 165.223 90.22 163.03C91.08 161.37 92.03 159.763 93.07 158.21C94.21 156.51 95.1467 154.91 95.88 153.41C97.5467 150.003 99.4 146.687 101.44 143.46Z" fill="#aed4d1" fill-rule="nonzero" opacity="1" stroke="none" vectornator:layerName="path"/>
<path d="M84.25 173.21L109.3 173.07L112.25 173.25C111.103 173.49 110.51 174.073 110.47 175C110.457 175.271 110.605 175.573 110.87 175.82C112.623 177.467 112.643 179.36 110.93 181.5L108.94 181.84L104.5 181.79L103.5 181.79C82.0867 182.623 60.67 182.847 39.25 182.46C35.9567 181.687 32.6233 181.38 29.25 181.54C28.49 181.087 27.74 181.087 27 181.54L21.73 181.02L21.25 173.79C28.6433 173.27 35.4767 173.09 41.75 173.25C56.8833 173.637 71.05 173.623 84.25 173.21Z" fill="#430f0b" fill-rule="nonzero" opacity="1" stroke="none" vectornator:layerName="path"/>
<path d="M21.73 181.02L27 181.54C27.7333 182.2 28.22 183.02 28.46 184L30.25 193.54C27.5767 191.993 25.4933 189.73 24 186.75C22.9133 184.583 22.1567 182.673 21.73 181.02Z" fill="#b4d4a5" fill-rule="nonzero" opacity="1" stroke="none" vectornator:layerName="path"/>
<path d="M29.25 181.54C29.11 182.1 29.0967 182.67 29.21 183.25C28.8233 183.33 28.5733 183.58 28.46 184C28.22 183.02 27.7333 182.2 27 181.54C27.74 181.087 28.49 181.087 29.25 181.54Z" fill="#485330" fill-rule="nonzero" opacity="1" stroke="none" vectornator:layerName="path"/>
<path d="M29.25 181.54C32.6233 181.38 35.9567 181.687 39.25 182.46C38.2567 182.5 38.0267 182.583 38.56 182.71C38.6933 182.743 38.8067 182.797 38.9 182.87C41.5267 185.003 43.8933 187.397 46 190.05C46.2073 190.303 46.4878 190.482 46.8 190.56C51.1867 191.64 55.63 192.39 60.13 192.81C60.21 192.817 61.24 192.753 63.22 192.62C64.7933 192.52 66.0633 193.2 67.03 194.66C67.0845 194.744 67.0993 194.848 67.0706 194.946C67.042 195.043 66.9726 195.125 66.88 195.17C66.08 195.563 66.12 195.76 67 195.76C67.1867 195.753 67.35 195.763 67.49 195.79C71.5833 196.483 76.2067 197.9 81.36 200.04C81.8291 200.235 82.345 200.284 82.84 200.18C85.9533 199.553 88.8533 198.303 91.54 196.43C92.3933 195.837 93.5633 195.137 95.05 194.33C96.27 193.663 97.3833 192.84 98.39 191.86C98.609 191.647 98.7474 191.342 98.78 191C98.9467 189.187 99.8067 187.863 101.36 187.03C101.647 186.881 101.983 186.922 102.19 187.13C102.723 187.67 102.923 188.377 102.79 189.25L102.54 193.25C101.92 194.023 101.137 194.583 100.19 194.93C96.4833 196.297 91.9833 198.383 86.69 201.19C84.6367 202.277 82.36 202.317 79.86 201.31C74.9133 199.317 69.8167 198.057 64.57 197.53C61.3567 197.21 58.0067 197.43 54.52 198.19C51.12 198.937 47.86 199.87 44.74 200.99C44.0008 201.258 43.1826 201.207 42.48 200.85C37.98 198.557 34.27 196.273 31.35 194L29.21 183.25C29.0967 182.67 29.11 182.1 29.25 181.54Z" fill="#b4d4a5" fill-rule="nonzero" opacity="1" stroke="none" vectornator:layerName="path"/>
<path d="M110.93 181.5C110.817 184.327 109.93 186.913 108.27 189.26C107.143 190.853 105.65 191.933 103.79 192.5L104.04 189.75C107.533 188.177 109.167 185.54 108.94 181.84L110.93 181.5Z" fill="#b4d4a5" fill-rule="nonzero" opacity="1" stroke="none" vectornator:layerName="path"/>
<path d="M103.5 181.79L102.79 189.25C102.923 188.377 102.723 187.67 102.19 187.13C101.983 186.922 101.647 186.881 101.36 187.03C99.8067 187.863 98.9467 189.187 98.78 191C98.7474 191.342 98.609 191.647 98.39 191.86C97.3833 192.84 96.27 193.663 95.05 194.33C93.5633 195.137 92.3933 195.837 91.54 196.43C88.8533 198.303 85.9533 199.553 82.84 200.18C82.345 200.284 81.8291 200.235 81.36 200.04C76.2067 197.9 71.5833 196.483 67.49 195.79C67.35 195.763 67.1867 195.753 67 195.76C66.12 195.76 66.08 195.563 66.88 195.17C66.9726 195.125 67.042 195.043 67.0706 194.946C67.0993 194.848 67.0845 194.744 67.03 194.66C66.0633 193.2 64.7933 192.52 63.22 192.62C61.24 192.753 60.21 192.817 60.13 192.81C55.63 192.39 51.1867 191.64 46.8 190.56C46.4878 190.482 46.2073 190.303 46 190.05C43.8933 187.397 41.5267 185.003 38.9 182.87C38.8067 182.797 38.6933 182.743 38.56 182.71C38.0267 182.583 38.2567 182.5 39.25 182.46C60.67 182.847 82.0867 182.623 103.5 181.79Z" fill="#aecd95" fill-rule="nonzero" opacity="1" stroke="none" vectornator:layerName="path"/>
<path d="M103.5 181.79L104.5 181.79L104.04 189.75L103.79 192.5C103.597 193.087 103.18 193.337 102.54 193.25L102.79 189.25L103.5 181.79Z" fill="#485330" fill-rule="nonzero" opacity="1" stroke="none" vectornator:layerName="path"/>
<path d="M104.5 181.79L108.94 181.84C109.167 185.54 107.533 188.177 104.04 189.75L104.5 181.79Z" fill="#9cbb8f" fill-rule="nonzero" opacity="1" stroke="none" vectornator:layerName="path"/>
<path d="M29.21 183.25L31.35 194C30.8367 193.987 30.47 193.833 30.25 193.54L28.46 184C28.5733 183.58 28.8233 183.33 29.21 183.25Z" fill="#485330" fill-rule="nonzero" opacity="1" stroke="none" vectornator:layerName="path"/>
</g>
</svg>
