<?xml version="1.0" encoding="UTF-8" standalone="no"?>
<!DOCTYPE svg PUBLIC "-//W3C//DTD SVG 1.1//EN" "http://www.w3.org/Graphics/SVG/1.1/DTD/svg11.dtd">
<!-- Created with Vectornator (http://vectornator.io/) -->
<svg height="100%" stroke-miterlimit="10" style="fill-rule:nonzero;clip-rule:evenodd;stroke-linecap:round;stroke-linejoin:round;" version="1.1" viewBox="0 0 149 187" width="100%" xml:space="preserve" xmlns="http://www.w3.org/2000/svg" xmlns:vectornator="http://vectornator.io" xmlns:xlink="http://www.w3.org/1999/xlink">
<defs/>
<g id="名称未設定" vectornator:layerName="名称未設定">
<g opacity="1" vectornator:layerName="g">
<path d="M27.46 44.75C26.64 45.7833 25.6533 46.6033 24.5 47.21" fill="none" opacity="1" stroke="#aead9d" stroke-linecap="butt" stroke-linejoin="miter" stroke-width="2" vectornator:layerName="path"/>
<path d="M24.5 47.21C17.0267 48.9767 11.18 53.0733 6.96 59.5" fill="none" opacity="1" stroke="#9b8181" stroke-linecap="butt" stroke-linejoin="miter" stroke-width="2" vectornator:layerName="path"/>
<path d="M6.96 59.5C5.61333 61.4733 5 63.63 5.12 65.97C5.2 67.6367 5.24 68.4933 5.24 68.54C5.23333 70.1133 5.25 71.6833 5.29 73.25" fill="none" opacity="1" stroke="#aead9d" stroke-linecap="butt" stroke-linejoin="miter" stroke-width="2" vectornator:layerName="path"/>
<path d="M5.29 73.25C5.05 99.63 4.82667 126.01 4.62 152.39C4.56667 159.19 5.03667 164 6.03 166.82C7.77 171.767 10.9633 175.867 15.61 179.12C18.47 181.127 21.5167 182.253 24.75 182.5C28.45 182.787 33.2 182.907 39 182.86C60.7467 182.7 82.4967 182.727 104.25 182.94C109.723 182.993 113.533 182.763 115.68 182.25C119.407 181.363 122.93 179.697 126.25 177.25C132.27 172.823 137.39 167.85 141.61 162.33C142.73 160.87 143.423 159.283 143.69 157.57C144.043 155.303 144.23 152.863 144.25 150.25C144.497 119.983 144.587 94.07 144.52 72.51C144.5 67.1033 144.417 63.93 144.27 62.99C143.75 59.77 142.48 56.7867 140.46 54.04C138.14 50.8733 135.433 48.08 132.34 45.66C127.833 42.1333 123.003 38.5567 117.85 34.93C116.93 34.2833 116.373 33.4067 116.18 32.3C115.48 28.1467 115.097 23.9633 115.03 19.75C114.963 15.71 114.703 13.0433 114.25 11.75C113.517 9.65667 112.413 8.09333 110.94 7.06C109.2 5.84667 107.203 4.94667 104.95 4.36C103.423 3.96 101.27 3.73667 98.49 3.69C89.5833 3.55667 76.42 3.49333 59 3.5C55.9267 3.5 53.0767 3.67 50.45 4.01C47.0567 4.45667 44.41 5.39 42.51 6.81C40.13 8.59667 38.5967 10.9733 37.91 13.94C37.6567 15.0467 37.46 17.7633 37.32 22.09C37.2067 25.4767 37.19 29.04 37.27 32.78C37.288 33.7337 36.8487 34.6348 36.09 35.2C32.69 37.7133 29.8133 40.8967 27.46 44.75" fill="none" opacity="1" stroke="#9b8181" stroke-linecap="butt" stroke-linejoin="miter" stroke-width="2" vectornator:layerName="path"/>
<path d="M5.29 73.25L6.96 59.5" fill="none" opacity="1" stroke="#4a2f1e" stroke-linecap="butt" stroke-linejoin="miter" stroke-width="2" vectornator:layerName="path"/>
<path d="M24.5 47.21C26.26 47.3833 27.2467 46.5633 27.46 44.75" fill="none" opacity="1" stroke="#4a2f1e" stroke-linecap="butt" stroke-linejoin="miter" stroke-width="2" vectornator:layerName="path"/>
<path d="M101.29 28.25L102.16 13.72C102.185 13.3452 102.05 12.9767 101.787 12.7007C101.524 12.4247 101.157 12.2653 100.77 12.26L77.25 11.79" fill="none" opacity="1" stroke="#6e3b35" stroke-linecap="butt" stroke-linejoin="miter" stroke-width="2" vectornator:layerName="path"/>
<path d="M77.25 11.79L53.25 11.54" fill="none" opacity="1" stroke="#74463b" stroke-linecap="butt" stroke-linejoin="miter" stroke-width="2" vectornator:layerName="path"/>
<path d="M53.25 11.54C47.65 11.62 45.15 14.43 45.75 19.97C46.2567 24.71 46.2567 28.8033 45.75 32.25C45.4433 34.3167 45.4967 36.0567 45.91 37.47C45.9913 37.7476 46.2577 37.9362 46.56 37.93C61.38 37.5433 76.2033 37.39 91.03 37.47C94.3767 37.49 96.7533 37.0333 98.16 36.1C100.567 34.5 101.61 31.8833 101.29 28.25" fill="none" opacity="1" stroke="#77504a" stroke-linecap="butt" stroke-linejoin="miter" stroke-width="2" vectornator:layerName="path"/>
<path d="M53.25 11.54C53.6567 15.9267 53.77 20.3133 53.59 24.7C53.5433 25.7867 53.7 26.9567 54.06 28.21C54.3933 29.37 54.6367 30.55 54.79 31.75" fill="none" opacity="1" stroke="#b39383" stroke-linecap="butt" stroke-linejoin="miter" stroke-width="2" vectornator:layerName="path"/>
<path d="M54.79 31.75C54.6633 32.15 54.7433 32.6167 55.03 33.15" fill="none" opacity="1" stroke="#77504a" stroke-linecap="butt" stroke-linejoin="miter" stroke-width="2" vectornator:layerName="path"/>
<path d="M55.03 33.15C59.43 33.6233 63.8433 34.0267 68.27 34.36C68.31 34.36 69.6233 34.5167 72.21 34.83C74.0767 35.0633 75.9467 35.0333 77.82 34.74C78.1267 34.6933 78.7467 34.4667 79.68 34.06C80.3067 33.78 80.98 33.6733 81.7 33.74C81.9465 33.765 82.2149 33.9489 82.43 34.24C82.83 34.7867 83.44 34.9767 84.26 34.81C86.2667 34.41 88.2567 33.99 90.23 33.55" fill="none" opacity="1" stroke="#ae887d" stroke-linecap="butt" stroke-linejoin="miter" stroke-width="2" vectornator:layerName="path"/>
<path d="M90.23 33.55C92.65 31.4233 92.7267 29.1567 90.46 26.75" fill="none" opacity="1" stroke="#77504a" stroke-linecap="butt" stroke-linejoin="miter" stroke-width="2" vectornator:layerName="path"/>
<path d="M90.46 26.75L90.91 25.86C91.0184 25.6403 91.3465 25.4919 91.75 25.48C94.1367 25.3867 96.48 25.6767 98.78 26.35C99.0665 26.4348 99.3971 26.4279 99.73 26.33C101.163 25.91 101.683 26.55 101.29 28.25" fill="none" opacity="1" stroke="#ae887d" stroke-linecap="butt" stroke-linejoin="miter" stroke-width="2" vectornator:layerName="path"/>
<path d="M90.23 33.55L55.03 33.15" fill="none" opacity="1" stroke="#6e3b35" stroke-linecap="butt" stroke-linejoin="miter" stroke-width="2" vectornator:layerName="path"/>
<path d="M77.25 29.04C79.5767 29.7533 81.91 29.7533 84.25 29.04" fill="none" opacity="1" stroke="#6e3b35" stroke-linecap="butt" stroke-linejoin="miter" stroke-width="2" vectornator:layerName="path"/>
<path d="M77.25 11.79C78.9167 11.7567 79.4167 11.9933 78.75 12.5C79.0833 14.96 78.6667 17.28 77.5 19.46" fill="none" opacity="1" stroke="#ab7e6e" stroke-linecap="butt" stroke-linejoin="miter" stroke-width="2" vectornator:layerName="path"/>
<path d="M77.5 19.46C75.2733 21.6533 74.11 24.3367 74.01 27.51C73.997 27.8663 74.1022 28.1856 74.3 28.39C74.7533 28.8367 75.25 28.79 75.79 28.25" fill="none" opacity="1" stroke="#867257" stroke-linecap="butt" stroke-linejoin="miter" stroke-width="2" vectornator:layerName="path"/>
<path d="M75.79 28.25C76.3233 28.73 76.9767 28.91 77.75 28.79" fill="none" opacity="1" stroke="#d8c4b9" stroke-linecap="butt" stroke-linejoin="miter" stroke-width="2" vectornator:layerName="path"/>
<path d="M77.75 28.79C77.65 28.99 77.4833 29.0733 77.25 29.04" fill="none" opacity="1" stroke="#ab7e6e" stroke-linecap="butt" stroke-linejoin="miter" stroke-width="2" vectornator:layerName="path"/>
<path d="M77.25 29.04L56.25 29.73C55.9009 29.7425 55.5935 29.8816 55.41 30.11C55.0433 30.5567 54.8367 31.1033 54.79 31.75" fill="none" opacity="1" stroke="#74463b" stroke-linecap="butt" stroke-linejoin="miter" stroke-width="2" vectornator:layerName="path"/>
<path d="M90.46 26.75C89.96 26.37 89.4033 26.2033 88.79 26.25" fill="none" opacity="1" stroke="#6e3b35" stroke-linecap="butt" stroke-linejoin="miter" stroke-width="2" vectornator:layerName="path"/>
<path d="M88.79 26.25C89.4633 23.3567 88.6567 21.2667 86.37 19.98" fill="none" opacity="1" stroke="#d2b9b4" stroke-linecap="butt" stroke-linejoin="miter" stroke-width="2" vectornator:layerName="path"/>
<path d="M86.37 19.98C86.91 19.6933 86.96 19.3767 86.52 19.03C86.3333 18.8833 86.09 18.8067 85.79 18.8C83.0033 18.7267 80.24 18.9467 77.5 19.46" fill="none" opacity="1" stroke="#816751" stroke-linecap="butt" stroke-linejoin="miter" stroke-width="2" vectornator:layerName="path"/>
<path d="M88.79 26.25C87.6767 27.7967 86.1633 28.7267 84.25 29.04" fill="none" opacity="1" stroke="#9b8181" stroke-linecap="butt" stroke-linejoin="miter" stroke-width="2" vectornator:layerName="path"/>
<path d="M84.25 29.04L77.75 28.79" fill="none" opacity="1" stroke="#d2b9b4" stroke-linecap="butt" stroke-linejoin="miter" stroke-width="2" vectornator:layerName="path"/>
<path d="M86.37 19.98C84.5167 19.9067 82.7167 19.9667 80.97 20.16C78.7567 20.4067 77.2 21.1333 76.3 22.34C75.12 23.9133 74.95 25.8833 75.79 28.25" fill="none" opacity="1" stroke="#aead9d" stroke-linecap="butt" stroke-linejoin="miter" stroke-width="2" vectornator:layerName="path"/>
<path d="M101.63 43.24C95.4033 45.04 89.0467 45.7533 82.56 45.38C77.1667 45.0667 74.46 44.9067 74.44 44.9C65.48 44.7133 56.52 44.6433 47.56 44.69C45.96 44.6967 44.31 44.1267 42.61 42.98C41.79 42.4333 41.1 42.1933 40.54 42.26C39.72 42.3533 39.0267 42.7667 38.46 43.5" fill="none" opacity="1" stroke="#76544c" stroke-linecap="butt" stroke-linejoin="miter" stroke-width="2" vectornator:layerName="path"/>
<path d="M38.46 43.5C36.46 44.1867 35.1767 45.4867 34.61 47.4C34.4732 47.8634 34.5412 48.3628 34.7951 48.7602C35.049 49.1575 35.462 49.4108 35.92 49.45L41.75 49.96" fill="none" opacity="1" stroke="#6e3b35" stroke-linecap="butt" stroke-linejoin="miter" stroke-width="2" vectornator:layerName="path"/>
<path d="M41.75 49.96L45.77 50C46.4411 50.0045 47.0225 50.4426 47.19 51.07C47.4367 51.9967 48.04 52.4533 49 52.44C50.34 52.4267 51.6767 52.4333 53.01 52.46C53.9367 52.4733 55.25 52.3333 56.95 52.04C58.53 51.7733 60.1333 51.74 61.76 51.94C67.2333 52.6333 72.73 52.9867 78.25 53C80.0633 53.0067 81.3867 52.4767 82.22 51.41C82.4806 51.0734 82.7513 50.8467 82.96 50.79L85 50.21" fill="none" opacity="1" stroke="#420607" stroke-linecap="butt" stroke-linejoin="miter" stroke-width="2" vectornator:layerName="path"/>
<path d="M85 50.21C88.1933 50.33 91.3867 50.3633 94.58 50.31C96.8067 50.2767 98.54 49.9767 99.78 49.41C101.44 48.65 102.873 47.5367 104.08 46.07C105.36 44.51 106.617 42.9367 107.85 41.35C108.717 40.2367 108.933 39.0233 108.5 37.71" fill="none" opacity="1" stroke="#76544c" stroke-linecap="butt" stroke-linejoin="miter" stroke-width="2" vectornator:layerName="path"/>
<path d="M108.5 37.71C108.527 37.0567 108.277 36.5567 107.75 36.21" fill="none" opacity="1" stroke="#6e3b35" stroke-linecap="butt" stroke-linejoin="miter" stroke-width="2" vectornator:layerName="path"/>
<path d="M107.75 36.21C107.643 35.9567 107.49 35.8067 107.29 35.76C107.073 35.7143 106.772 35.9071 106.54 36.24L101.63 43.24" fill="none" opacity="1" stroke="#4a2f1e" stroke-linecap="butt" stroke-linejoin="miter" stroke-width="2" vectornator:layerName="path"/>
<path d="M107.75 36.21C107.263 36.5767 107.027 37.09 107.04 37.75" fill="none" opacity="1" stroke="#816751" stroke-linecap="butt" stroke-linejoin="miter" stroke-width="2" vectornator:layerName="path"/>
<path d="M107.04 37.75C105.833 40.0033 104.03 41.8333 101.63 43.24" fill="none" opacity="1" stroke="#888068" stroke-linecap="butt" stroke-linejoin="miter" stroke-width="2" vectornator:layerName="path"/>
<path d="M108.5 37.71C108.02 37.47 107.533 37.4833 107.04 37.75" fill="none" opacity="1" stroke="#ad8c7f" stroke-linecap="butt" stroke-linejoin="miter" stroke-width="2" vectornator:layerName="path"/>
<path d="M85 50.21L53 49.71" fill="none" opacity="1" stroke="#805851" stroke-linecap="butt" stroke-linejoin="miter" stroke-width="2" vectornator:layerName="path"/>
<path d="M53 49.71L42.46 48.93" fill="none" opacity="1" stroke="#ad8c7f" stroke-linecap="butt" stroke-linejoin="miter" stroke-width="2" vectornator:layerName="path"/>
<path d="M42.46 48.93L44.32 48.16C44.6448 48.0257 44.8663 47.7964 44.89 47.57C45.01 46.51 44.7267 45.6867 44.04 45.1C43.6 44.7267 42.9433 44.2767 42.07 43.75C41.01 43.11 39.8333 43.11 38.54 43.75" fill="none" opacity="1" stroke="#bfb2a4" stroke-linecap="butt" stroke-linejoin="miter" stroke-width="2" vectornator:layerName="path"/>
<path d="M38.54 43.75L38.46 43.5" fill="none" opacity="1" stroke="#ad8c7f" stroke-linecap="butt" stroke-linejoin="miter" stroke-width="2" vectornator:layerName="path"/>
<path d="M42.46 48.93L37.44 48.5C36.9607 48.4595 36.5189 48.2242 36.2432 47.8624C35.9675 47.5007 35.8888 47.0532 36.03 46.65C36.47 45.3967 37.3067 44.43 38.54 43.75" fill="none" opacity="1" stroke="#b8998d" stroke-linecap="butt" stroke-linejoin="miter" stroke-width="2" vectornator:layerName="path"/>
<path d="M53 49.71L41.75 49.96" fill="none" opacity="1" stroke="#793f3a" stroke-linecap="butt" stroke-linejoin="miter" stroke-width="2" vectornator:layerName="path"/>
<path d="M102.19 56.67C101.377 56.8633 100.547 57.0433 99.7 57.21C98.9067 57.3633 98.06 57.4333 97.16 57.42C76.1067 57.1 55.0533 56.71 34 56.25C33.1067 56.23 31.7033 55.5633 29.79 54.25" fill="none" opacity="1" stroke="#663d20" stroke-linecap="butt" stroke-linejoin="miter" stroke-width="2" vectornator:layerName="path"/>
<path d="M29.79 54.25C28.9167 53.1033 27.9233 52.79 26.81 53.31C24.2433 54.5167 21.3 56.3133 17.98 58.7C14.5667 61.1467 12.8433 64.4967 12.81 68.75C12.79 71.4167 12.7567 74.0833 12.71 76.75" fill="none" opacity="1" stroke="#6c4b38" stroke-linecap="butt" stroke-linejoin="miter" stroke-width="2" vectornator:layerName="path"/>
<path d="M12.71 76.75C11.9633 96.4967 11.7567 116.247 12.09 136C12.1633 140.167 12.21 144.337 12.23 148.51C12.27 155.597 12.4267 159.747 12.7 160.96C13.9133 166.36 17.3467 170.36 23 172.96" fill="none" opacity="1" stroke="#5f4931" stroke-linecap="butt" stroke-linejoin="miter" stroke-width="2" vectornator:layerName="path"/>
<path d="M23 172.96L25.25 173.71" fill="none" opacity="1" stroke="#74463b" stroke-linecap="butt" stroke-linejoin="miter" stroke-width="2" vectornator:layerName="path"/>
<path d="M25.25 173.71C26.1033 174.217 27.02 174.383 28 174.21" fill="none" opacity="1" stroke="#81615a" stroke-linecap="butt" stroke-linejoin="miter" stroke-width="2" vectornator:layerName="path"/>
<path d="M28 174.21L74.48 174.19" fill="none" opacity="1" stroke="#8b795d" stroke-linecap="butt" stroke-linejoin="miter" stroke-width="2" vectornator:layerName="path"/>
<path d="M74.48 174.19C85.5533 175.103 96.6433 175.513 107.75 175.42C109.89 175.4 111.947 174.973 113.92 174.14C118.54 172.187 122.52 169.39 125.86 165.75C127.833 163.597 128.837 162.507 128.87 162.48C131.197 160.08 133.483 157.647 135.73 155.18C135.943 154.941 136.063 154.633 136.07 154.31C136.617 123.29 136.597 92.3867 136.01 61.6C135.983 60.16 135.403 58.9933 134.27 58.1C130.877 55.4133 127.947 52.4 125.48 49.06C123.26 46.0467 120.677 43.98 117.73 42.86C116.503 42.4 115.463 42.6667 114.61 43.66C111.483 47.2867 108.76 50.7967 106.44 54.19C105.893 54.9833 104.477 55.81 102.19 56.67" fill="none" opacity="1" stroke="#5d4834" stroke-linecap="butt" stroke-linejoin="miter" stroke-width="2" vectornator:layerName="path"/>
<path d="M74.48 174.19C84.0067 173.997 93.5133 173.683 103 173.25C103.427 173.23 104.677 172.883 106.75 172.21" fill="none" opacity="1" stroke="#b0bf8e" stroke-linecap="butt" stroke-linejoin="miter" stroke-width="2" vectornator:layerName="path"/>
<path d="M106.75 172.21L108.69 172.95C108.963 173.052 109.179 173.275 109.28 173.56C109.487 174.187 110.06 174.417 111 174.25C114.167 173.69 116.62 172.303 118.36 170.09C119.34 168.85 120.097 166.953 120.63 164.4C121.183 161.78 121.473 159.73 121.5 158.25C121.833 141.43 121.893 114.513 121.68 77.5C121.64 71.0067 121.497 66.9233 121.25 65.25C120.743 61.8367 118.727 59.2433 115.2 57.47C114.926 57.3281 114.595 57.3812 114.39 57.6C113.997 58.02 113.67 58.4833 113.41 58.99C112.977 59.8367 112.58 60.4267 112.22 60.76C110.66 62.1933 108.86 63.4 106.82 64.38" fill="none" opacity="1" stroke="#98a97a" stroke-linecap="butt" stroke-linejoin="miter" stroke-width="2" vectornator:layerName="path"/>
<path d="M106.82 64.38C104.393 63.7133 101.787 63.4067 99 63.46C96.9933 63.5 94.9933 63.4167 93 63.21" fill="none" opacity="1" stroke="#b0bf8e" stroke-linecap="butt" stroke-linejoin="miter" stroke-width="2" vectornator:layerName="path"/>
<path d="M93 63.21L93.74 61.7C93.8376 61.4836 94.1468 61.3042 94.55 61.23C97.5833 60.6767 100.13 59.1567 102.19 56.67" fill="none" opacity="1" stroke="#8c8352" stroke-linecap="butt" stroke-linejoin="miter" stroke-width="2" vectornator:layerName="path"/>
<path d="M93 63.21C76.3333 63.2567 59.6667 63.27 43 63.25C38.4 63.2433 34.8 62.9067 32.2 62.24" fill="none" opacity="1" stroke="#bab37b" stroke-linecap="butt" stroke-linejoin="miter" stroke-width="2" vectornator:layerName="path"/>
<path d="M32.2 62.24C26.7467 60.1133 22.6767 60.9167 19.99 64.65C18.8767 66.2033 18.0733 68.43 17.58 71.33C17.1667 73.7967 16.9733 76.1867 17 78.5C17.0667 84.3 16.9933 89.2267 16.78 93.28" fill="none" opacity="1" stroke="#cabb9f" stroke-linecap="butt" stroke-linejoin="miter" stroke-width="2" vectornator:layerName="path"/>
<path d="M16.78 93.28C15.9267 88.06 15.4867 82.8 15.46 77.5" fill="none" opacity="1" stroke="#8e844f" stroke-linecap="butt" stroke-linejoin="miter" stroke-width="2" vectornator:layerName="path"/>
<path d="M106.75 172.21L112.31 167.93C113.263 167.197 113.713 166.137 113.66 164.75C112.72 137.57 112.517 110.153 113.05 82.5C113.143 77.6533 112.627 73.07 111.5 68.75C110.933 66.5833 109.373 65.1267 106.82 64.38" fill="none" opacity="1" stroke="#c6daa3" stroke-linecap="butt" stroke-linejoin="miter" stroke-width="2" vectornator:layerName="path"/>
<path d="M28 174.21C27.2133 173.85 26.9633 173.21 27.25 172.29" fill="none" opacity="1" stroke="#d4d7b5" stroke-linecap="butt" stroke-linejoin="miter" stroke-width="2" vectornator:layerName="path"/>
<path d="M33.24 144.05C38.9133 145.47 48.48 147.39 61.94 149.81C72.6067 151.73 82.5133 151 91.66 147.62C95.4467 146.22 97.4 143.653 97.52 139.92C97.5667 138.387 97.2667 137.217 96.62 136.41C95.6733 135.23 94.2167 135.093 92.25 136C89.81 137.127 87.06 137.797 84 138.01C80.4467 138.263 76.8967 138.3 73.35 138.12C70.53 137.973 67.0367 137.453 62.87 136.56C55.7367 135.02 48.59 133.553 41.43 132.16C41.1341 132.101 40.923 131.852 40.93 131.57L41.16 116.68C41.1662 116.393 41.3814 116.144 41.68 116.08C46.6333 114.98 51.59 113.877 56.55 112.77C61.37 111.697 65.2033 111.057 68.05 110.85C72.0367 110.563 75.9367 110.613 79.75 111C84.59 111.493 88.4233 113.863 91.25 118.11" fill="none" opacity="1" stroke="#a5c085" stroke-linecap="butt" stroke-linejoin="miter" stroke-width="2" vectornator:layerName="path"/>
<path d="M91.25 118.11L98.84 116.72C99.131 116.67 99.4033 116.46 99.58 116.15C100.147 115.197 100.357 114.147 100.21 113" fill="none" opacity="1" stroke="#9da579" stroke-linecap="butt" stroke-linejoin="miter" stroke-width="2" vectornator:layerName="path"/>
<path d="M100.21 113C100.663 110.147 99.8233 108.25 97.69 107.31C91.2167 104.47 84.0533 102.58 76.2 101.64C72.12 101.153 66.31 101.12 58.77 101.54C50.3767 102.007 41.9033 102.323 33.35 102.49" fill="none" opacity="1" stroke="#a5c085" stroke-linecap="butt" stroke-linejoin="miter" stroke-width="2" vectornator:layerName="path"/>
<path d="M29.79 54.25C30.8367 55.29 31.0367 56.1633 30.39 56.87C30.0967 57.19 29.4467 57.4967 28.44 57.79C18.9667 60.5633 14.64 67.1333 15.46 77.5" fill="none" opacity="1" stroke="#9b8656" stroke-linecap="butt" stroke-linejoin="miter" stroke-width="2" vectornator:layerName="path"/>
<path d="M15.46 77.5C14.0933 78.28 13.1767 78.03 12.71 76.75" fill="none" opacity="1" stroke="#939267" stroke-linecap="butt" stroke-linejoin="miter" stroke-width="2" vectornator:layerName="path"/>
<path d="M32.2 62.24C33.3867 66.54 33.8633 70.9033 33.63 75.33C33.3633 80.5367 33.23 83.1567 33.23 83.19C33.2167 89.61 33.2567 96.0433 33.35 102.49" fill="none" opacity="1" stroke="#eff7db" stroke-linecap="butt" stroke-linejoin="miter" stroke-width="2" vectornator:layerName="path"/>
<path d="M33.35 102.49C33.4233 109.97 33.47 117.47 33.49 124.99C33.4967 126.957 33.43 130.13 33.29 134.51C33.1833 137.77 33.1667 140.95 33.24 144.05" fill="none" opacity="1" stroke="#b5c8a9" stroke-linecap="butt" stroke-linejoin="miter" stroke-width="2" vectornator:layerName="path"/>
<path d="M33.24 144.05L33.52 171.05C33.5242 171.559 33.1008 171.983 32.56 172.01L27.25 172.29" fill="none" opacity="1" stroke="#eff7db" stroke-linecap="butt" stroke-linejoin="miter" stroke-width="2" vectornator:layerName="path"/>
<path d="M27.25 172.29L25.25 172.04" fill="none" opacity="1" stroke="#e5dfd9" stroke-linecap="butt" stroke-linejoin="miter" stroke-width="2" vectornator:layerName="path"/>
<path d="M25.25 172.04L23.29 171.25" fill="none" opacity="1" stroke="#d8c4b9" stroke-linecap="butt" stroke-linejoin="miter" stroke-width="2" vectornator:layerName="path"/>
<path d="M23.29 171.25L21.79 170" fill="none" opacity="1" stroke="#c3c8b0" stroke-linecap="butt" stroke-linejoin="miter" stroke-width="2" vectornator:layerName="path"/>
<path d="M21.79 170C20.05 168.167 18.9533 166.5 18.5 165C17.92 163.093 17.5033 160.177 17.25 156.25C17.0967 153.877 16.9667 147.037 16.86 135.73" fill="none" opacity="1" stroke="#aead9d" stroke-linecap="butt" stroke-linejoin="miter" stroke-width="2" vectornator:layerName="path"/>
<path d="M16.86 135.73L16.78 93.28" fill="none" opacity="1" stroke="#c3c8b0" stroke-linecap="butt" stroke-linejoin="miter" stroke-width="2" vectornator:layerName="path"/>
<path d="M16.86 135.73C16.1467 140.417 15.7767 144.173 15.75 147C15.71 150.813 16.1067 155.637 16.94 161.47C17.3 163.963 18.2567 166.703 19.81 169.69C20.47 170.95 21.13 171.053 21.79 170" fill="none" opacity="1" stroke="#71764d" stroke-linecap="butt" stroke-linejoin="miter" stroke-width="2" vectornator:layerName="path"/>
<path d="M23.29 171.25C22.9767 171.77 22.88 172.34 23 172.96" fill="none" opacity="1" stroke="#9b8d6a" stroke-linecap="butt" stroke-linejoin="miter" stroke-width="2" vectornator:layerName="path"/>
<path d="M100.21 113C99.7433 113.607 99.4567 114.297 99.35 115.07C99.3128 115.356 99.1107 115.597 98.83 115.69L91.25 118.11" fill="none" opacity="1" stroke="#647647" stroke-linecap="butt" stroke-linejoin="miter" stroke-width="2" vectornator:layerName="path"/>
<path d="M25.25 172.04L25.25 173.71" fill="none" opacity="1" stroke="#bda493" stroke-linecap="butt" stroke-linejoin="miter" stroke-width="2" vectornator:layerName="path"/>
<path d="M99.0761 118.593C98.9601 118.399 98.7085 118.335 98.514 118.451L87.8457 124.81C87.6512 124.926 87.5875 125.178 87.7034 125.373L87.7239 125.407C87.8399 125.601 88.0915 125.665 88.286 125.549L98.9543 119.19C99.1488 119.074 99.2125 118.822 99.0966 118.627L99.0761 118.593" fill="none" opacity="1" stroke="#9da579" stroke-linecap="butt" stroke-linejoin="miter" stroke-width="2" vectornator:layerName="path"/>
<path d="M99.8863 130.949C99.9272 130.531 96.8147 129.884 92.9342 129.504C89.0534 129.123 85.8743 129.153 85.8337 129.571C85.7928 129.989 88.9053 130.636 92.7858 131.016C96.6666 131.397 99.8457 131.367 99.8863 130.949" fill="none" opacity="1" stroke="#9da579" stroke-linecap="butt" stroke-linejoin="miter" stroke-width="2" vectornator:layerName="path"/>
</g>
<path d="M5.29 73.25L6.96 59.5C11.18 53.0733 17.0267 48.9767 24.5 47.21C26.26 47.3833 27.2467 46.5633 27.46 44.75C29.8133 40.8967 32.69 37.7133 36.09 35.2C36.8487 34.6348 37.288 33.7337 37.27 32.78C37.19 29.04 37.2067 25.4767 37.32 22.09C37.46 17.7633 37.6567 15.0467 37.91 13.94C38.5967 10.9733 40.13 8.59667 42.51 6.81C44.41 5.39 47.0567 4.45667 50.45 4.01C53.0767 3.67 55.9267 3.5 59 3.5C76.42 3.49333 89.5833 3.55667 98.49 3.69C101.27 3.73667 103.423 3.96 104.95 4.36C107.203 4.94667 109.2 5.84667 110.94 7.06C112.413 8.09333 113.517 9.65667 114.25 11.75C114.703 13.0433 114.963 15.71 115.03 19.75C115.097 23.9633 115.48 28.1467 116.18 32.3C116.373 33.4067 116.93 34.2833 117.85 34.93C123.003 38.5567 127.833 42.1333 132.34 45.66C135.433 48.08 138.14 50.8733 140.46 54.04C142.48 56.7867 143.75 59.77 144.27 62.99C144.417 63.93 144.5 67.1033 144.52 72.51C144.587 94.07 144.497 119.983 144.25 150.25C144.23 152.863 144.043 155.303 143.69 157.57C143.423 159.283 142.73 160.87 141.61 162.33C137.39 167.85 132.27 172.823 126.25 177.25C122.93 179.697 119.407 181.363 115.68 182.25C113.533 182.763 109.723 182.993 104.25 182.94C82.4967 182.727 60.7467 182.7 39 182.86C33.2 182.907 28.45 182.787 24.75 182.5C21.5167 182.253 18.47 181.127 15.61 179.12C10.9633 175.867 7.77 171.767 6.03 166.82C5.03667 164 4.56667 159.19 4.62 152.39C4.82667 126.01 5.05 99.63 5.29 73.25ZM101.29 28.25L102.16 13.72C102.185 13.3452 102.05 12.9767 101.787 12.7007C101.524 12.4247 101.157 12.2653 100.77 12.26L77.25 11.79L53.25 11.54C47.65 11.62 45.15 14.43 45.75 19.97C46.2567 24.71 46.2567 28.8033 45.75 32.25C45.4433 34.3167 45.4967 36.0567 45.91 37.47C45.9913 37.7476 46.2577 37.9362 46.56 37.93C61.38 37.5433 76.2033 37.39 91.03 37.47C94.3767 37.49 96.7533 37.0333 98.16 36.1C100.567 34.5 101.61 31.8833 101.29 28.25ZM101.63 43.24C95.4033 45.04 89.0467 45.7533 82.56 45.38C77.1667 45.0667 74.46 44.9067 74.44 44.9C65.48 44.7133 56.52 44.6433 47.56 44.69C45.96 44.6967 44.31 44.1267 42.61 42.98C41.79 42.4333 41.1 42.1933 40.54 42.26C39.72 42.3533 39.0267 42.7667 38.46 43.5C36.46 44.1867 35.1767 45.4867 34.61 47.4C34.4732 47.8634 34.5412 48.3628 34.7951 48.7602C35.049 49.1575 35.462 49.4108 35.92 49.45L41.75 49.96L45.77 50C46.4411 50.0045 47.0225 50.4426 47.19 51.07C47.4367 51.9967 48.04 52.4533 49 52.44C50.34 52.4267 51.6767 52.4333 53.01 52.46C53.9367 52.4733 55.25 52.3333 56.95 52.04C58.53 51.7733 60.1333 51.74 61.76 51.94C67.2333 52.6333 72.73 52.9867 78.25 53C80.0633 53.0067 81.3867 52.4767 82.22 51.41C82.4806 51.0734 82.7513 50.8467 82.96 50.79L85 50.21C88.1933 50.33 91.3867 50.3633 94.58 50.31C96.8067 50.2767 98.54 49.9767 99.78 49.41C101.44 48.65 102.873 47.5367 104.08 46.07C105.36 44.51 106.617 42.9367 107.85 41.35C108.717 40.2367 108.933 39.0233 108.5 37.71C108.527 37.0567 108.277 36.5567 107.75 36.21C107.643 35.9567 107.49 35.8067 107.29 35.76C107.073 35.7143 106.772 35.9071 106.54 36.24L101.63 43.24ZM102.19 56.67C101.377 56.8633 100.547 57.0433 99.7 57.21C98.9067 57.3633 98.06 57.4333 97.16 57.42C76.1067 57.1 55.0533 56.71 34 56.25C33.1067 56.23 31.7033 55.5633 29.79 54.25C28.9167 53.1033 27.9233 52.79 26.81 53.31C24.2433 54.5167 21.3 56.3133 17.98 58.7C14.5667 61.1467 12.8433 64.4967 12.81 68.75C12.79 71.4167 12.7567 74.0833 12.71 76.75C11.9633 96.4967 11.7567 116.247 12.09 136C12.1633 140.167 12.21 144.337 12.23 148.51C12.27 155.597 12.4267 159.747 12.7 160.96C13.9133 166.36 17.3467 170.36 23 172.96L25.25 173.71C26.1033 174.217 27.02 174.383 28 174.21L74.48 174.19C85.5533 175.103 96.6433 175.513 107.75 175.42C109.89 175.4 111.947 174.973 113.92 174.14C118.54 172.187 122.52 169.39 125.86 165.75C127.833 163.597 128.837 162.507 128.87 162.48C131.197 160.08 133.483 157.647 135.73 155.18C135.943 154.941 136.063 154.633 136.07 154.31C136.617 123.29 136.597 92.3867 136.01 61.6C135.983 60.16 135.403 58.9933 134.27 58.1C130.877 55.4133 127.947 52.4 125.48 49.06C123.26 46.0467 120.677 43.98 117.73 42.86C116.503 42.4 115.463 42.6667 114.61 43.66C111.483 47.2867 108.76 50.7967 106.44 54.19C105.893 54.9833 104.477 55.81 102.19 56.67Z" fill="#370202" fill-rule="nonzero" opacity="1" stroke="none" vectornator:layerName="path"/>
<path d="M53.25 11.54C53.6567 15.9267 53.77 20.3133 53.59 24.7C53.5433 25.7867 53.7 26.9567 54.06 28.21C54.3933 29.37 54.6367 30.55 54.79 31.75C54.6633 32.15 54.7433 32.6167 55.03 33.15C59.43 33.6233 63.8433 34.0267 68.27 34.36C68.31 34.36 69.6233 34.5167 72.21 34.83C74.0767 35.0633 75.9467 35.0333 77.82 34.74C78.1267 34.6933 78.7467 34.4667 79.68 34.06C80.3067 33.78 80.98 33.6733 81.7 33.74C81.9465 33.765 82.2149 33.9489 82.43 34.24C82.83 34.7867 83.44 34.9767 84.26 34.81C86.2667 34.41 88.2567 33.99 90.23 33.55C92.65 31.4233 92.7267 29.1567 90.46 26.75L90.91 25.86C91.0184 25.6403 91.3465 25.4919 91.75 25.48C94.1367 25.3867 96.48 25.6767 98.78 26.35C99.0665 26.4348 99.3971 26.4279 99.73 26.33C101.163 25.91 101.683 26.55 101.29 28.25C101.61 31.8833 100.567 34.5 98.16 36.1C96.7533 37.0333 94.3767 37.49 91.03 37.47C76.2033 37.39 61.38 37.5433 46.56 37.93C46.2577 37.9362 45.9913 37.7476 45.91 37.47C45.4967 36.0567 45.4433 34.3167 45.75 32.25C46.2567 28.8033 46.2567 24.71 45.75 19.97C45.15 14.43 47.65 11.62 53.25 11.54Z" fill="#b69d92" fill-rule="nonzero" opacity="1" stroke="none" vectornator:layerName="path"/>
<path d="M53.25 11.54L77.25 11.79C78.9167 11.7567 79.4167 11.9933 78.75 12.5C79.0833 14.96 78.6667 17.28 77.5 19.46C75.2733 21.6533 74.11 24.3367 74.01 27.51C73.997 27.8663 74.1022 28.1856 74.3 28.39C74.7533 28.8367 75.25 28.79 75.79 28.25C76.3233 28.73 76.9767 28.91 77.75 28.79C77.65 28.99 77.4833 29.0733 77.25 29.04L56.25 29.73C55.9009 29.7425 55.5935 29.8816 55.41 30.11C55.0433 30.5567 54.8367 31.1033 54.79 31.75C54.6367 30.55 54.3933 29.37 54.06 28.21C53.7 26.9567 53.5433 25.7867 53.59 24.7C53.77 20.3133 53.6567 15.9267 53.25 11.54Z" fill="#b08973" fill-rule="nonzero" opacity="1" stroke="none" vectornator:layerName="path"/>
<path d="M77.25 11.79L100.77 12.26C101.157 12.2653 101.524 12.4247 101.787 12.7007C102.05 12.9767 102.185 13.3452 102.16 13.72L101.29 28.25C101.683 26.55 101.163 25.91 99.73 26.33C99.3971 26.4279 99.0665 26.4348 98.78 26.35C96.48 25.6767 94.1367 25.3867 91.75 25.48C91.3465 25.4919 91.0184 25.6403 90.91 25.86L90.46 26.75C89.96 26.37 89.4033 26.2033 88.79 26.25C89.4633 23.3567 88.6567 21.2667 86.37 19.98C86.91 19.6933 86.96 19.3767 86.52 19.03C86.3333 18.8833 86.09 18.8067 85.79 18.8C83.0033 18.7267 80.24 18.9467 77.5 19.46C78.6667 17.28 79.0833 14.96 78.75 12.5C79.4167 11.9933 78.9167 11.7567 77.25 11.79Z" fill="#a57368" fill-rule="nonzero" opacity="1" stroke="none" vectornator:layerName="path"/>
<path d="M86.37 19.98C84.5167 19.9067 82.7167 19.9667 80.97 20.16C78.7567 20.4067 77.2 21.1333 76.3 22.34C75.12 23.9133 74.95 25.8833 75.79 28.25C75.25 28.79 74.7533 28.8367 74.3 28.39C74.1022 28.1856 73.997 27.8663 74.01 27.51C74.11 24.3367 75.2733 21.6533 77.5 19.46C80.24 18.9467 83.0033 18.7267 85.79 18.8C86.09 18.8067 86.3333 18.8833 86.52 19.03C86.96 19.3767 86.91 19.6933 86.37 19.98Z" fill="#5c5b3a" fill-rule="nonzero" opacity="1" stroke="none" vectornator:layerName="path"/>
<path d="M86.37 19.98C88.6567 21.2667 89.4633 23.3567 88.79 26.25C87.6767 27.7967 86.1633 28.7267 84.25 29.04L77.75 28.79C76.9767 28.91 76.3233 28.73 75.79 28.25C74.95 25.8833 75.12 23.9133 76.3 22.34C77.2 21.1333 78.7567 20.4067 80.97 20.16C82.7167 19.9667 84.5167 19.9067 86.37 19.98Z" fill="#ffffff" fill-rule="nonzero" opacity="1" stroke="none" vectornator:layerName="path"/>
<path d="M88.79 26.25C89.4033 26.2033 89.96 26.37 90.46 26.75C92.7267 29.1567 92.65 31.4233 90.23 33.55L55.03 33.15C54.7433 32.6167 54.6633 32.15 54.79 31.75C54.8367 31.1033 55.0433 30.5567 55.41 30.11C55.5935 29.8816 55.9009 29.7425 56.25 29.73L77.25 29.04C79.5767 29.7533 81.91 29.7533 84.25 29.04C86.1633 28.7267 87.6767 27.7967 88.79 26.25Z" fill="#370202" fill-rule="nonzero" opacity="1" stroke="none" vectornator:layerName="path"/>
<path d="M77.75 28.79L84.25 29.04C81.91 29.7533 79.5767 29.7533 77.25 29.04C77.4833 29.0733 77.65 28.99 77.75 28.79Z" fill="#a57368" fill-rule="nonzero" opacity="1" stroke="none" vectornator:layerName="path"/>
<path d="M55.03 33.15L90.23 33.55C88.2567 33.99 86.2667 34.41 84.26 34.81C83.44 34.9767 82.83 34.7867 82.43 34.24C82.2149 33.9489 81.9465 33.765 81.7 33.74C80.98 33.6733 80.3067 33.78 79.68 34.06C78.7467 34.4667 78.1267 34.6933 77.82 34.74C75.9467 35.0333 74.0767 35.0633 72.21 34.83C69.6233 34.5167 68.31 34.36 68.27 34.36C63.8433 34.0267 59.43 33.6233 55.03 33.15Z" fill="#a57368" fill-rule="nonzero" opacity="1" stroke="none" vectornator:layerName="path"/>
<path d="M107.75 36.21C107.263 36.5767 107.027 37.09 107.04 37.75C105.833 40.0033 104.03 41.8333 101.63 43.24L106.54 36.24C106.772 35.9071 107.073 35.7143 107.29 35.76C107.49 35.8067 107.643 35.9567 107.75 36.21Z" fill="#5c5b3a" fill-rule="nonzero" opacity="1" stroke="none" vectornator:layerName="path"/>
<path d="M107.75 36.21C108.277 36.5567 108.527 37.0567 108.5 37.71C108.02 37.47 107.533 37.4833 107.04 37.75C107.027 37.09 107.263 36.5767 107.75 36.21Z" fill="#a57368" fill-rule="nonzero" opacity="1" stroke="none" vectornator:layerName="path"/>
<path d="M108.5 37.71C108.933 39.0233 108.717 40.2367 107.85 41.35C106.617 42.9367 105.36 44.51 104.08 46.07C102.873 47.5367 101.44 48.65 99.78 49.41C98.54 49.9767 96.8067 50.2767 94.58 50.31C91.3867 50.3633 88.1933 50.33 85 50.21L53 49.71L42.46 48.93L44.32 48.16C44.6448 48.0257 44.8663 47.7964 44.89 47.57C45.01 46.51 44.7267 45.6867 44.04 45.1C43.6 44.7267 42.9433 44.2767 42.07 43.75C41.01 43.11 39.8333 43.11 38.54 43.75L38.46 43.5C39.0267 42.7667 39.72 42.3533 40.54 42.26C41.1 42.1933 41.79 42.4333 42.61 42.98C44.31 44.1267 45.96 44.6967 47.56 44.69C56.52 44.6433 65.48 44.7133 74.44 44.9C74.46 44.9067 77.1667 45.0667 82.56 45.38C89.0467 45.7533 95.4033 45.04 101.63 43.24C104.03 41.8333 105.833 40.0033 107.04 37.75C107.533 37.4833 108.02 37.47 108.5 37.71Z" fill="#b4a595" fill-rule="nonzero" opacity="1" stroke="none" vectornator:layerName="path"/>
<path d="M74.48 174.19C84.0067 173.997 93.5133 173.683 103 173.25C103.427 173.23 104.677 172.883 106.75 172.21L108.69 172.95C108.963 173.052 109.179 173.275 109.28 173.56C109.487 174.187 110.06 174.417 111 174.25C114.167 173.69 116.62 172.303 118.36 170.09C119.34 168.85 120.097 166.953 120.63 164.4C121.183 161.78 121.473 159.73 121.5 158.25C121.833 141.43 121.893 114.513 121.68 77.5C121.64 71.0067 121.497 66.9233 121.25 65.25C120.743 61.8367 118.727 59.2433 115.2 57.47C114.926 57.3281 114.595 57.3812 114.39 57.6C113.997 58.02 113.67 58.4833 113.41 58.99C112.977 59.8367 112.58 60.4267 112.22 60.76C110.66 62.1933 108.86 63.4 106.82 64.38C104.393 63.7133 101.787 63.4067 99 63.46C96.9933 63.5 94.9933 63.4167 93 63.21L93.74 61.7C93.8376 61.4836 94.1468 61.3042 94.55 61.23C97.5833 60.6767 100.13 59.1567 102.19 56.67C104.477 55.81 105.893 54.9833 106.44 54.19C108.76 50.7967 111.483 47.2867 114.61 43.66C115.463 42.6667 116.503 42.4 117.73 42.86C120.677 43.98 123.26 46.0467 125.48 49.06C127.947 52.4 130.877 55.4133 134.27 58.1C135.403 58.9933 135.983 60.16 136.01 61.6C136.597 92.3867 136.617 123.29 136.07 154.31C136.063 154.633 135.943 154.941 135.73 155.18C133.483 157.647 131.197 160.08 128.87 162.48C128.837 162.507 127.833 163.597 125.86 165.75C122.52 169.39 118.54 172.187 113.92 174.14C111.947 174.973 109.89 175.4 107.75 175.42C96.6433 175.513 85.5533 175.103 74.48 174.19Z" fill="#828e65" fill-rule="nonzero" opacity="1" stroke="none" vectornator:layerName="path"/>
<path d="M42.46 48.93L37.44 48.5C36.9607 48.4595 36.5189 48.2242 36.2432 47.8624C35.9675 47.5007 35.8888 47.0532 36.03 46.65C36.47 45.3967 37.3067 44.43 38.54 43.75C39.8333 43.11 41.01 43.11 42.07 43.75C42.9433 44.2767 43.6 44.7267 44.04 45.1C44.7267 45.6867 45.01 46.51 44.89 47.57C44.8663 47.7964 44.6448 48.0257 44.32 48.16L42.46 48.93Z" fill="#cabfb2" fill-rule="nonzero" opacity="1" stroke="none" vectornator:layerName="path"/>
<path d="M38.46 43.5L38.54 43.75C37.3067 44.43 36.47 45.3967 36.03 46.65C35.8888 47.0532 35.9675 47.5007 36.2432 47.8624C36.5189 48.2242 36.9607 48.4595 37.44 48.5L42.46 48.93L53 49.71L41.75 49.96L35.92 49.45C35.462 49.4108 35.049 49.1575 34.7951 48.7602C34.5412 48.3628 34.4732 47.8634 34.61 47.4C35.1767 45.4867 36.46 44.1867 38.46 43.5Z" fill="#a57368" fill-rule="nonzero" opacity="1" stroke="none" vectornator:layerName="path"/>
<path d="M27.46 44.75C27.2467 46.5633 26.26 47.3833 24.5 47.21C25.6533 46.6033 26.64 45.7833 27.46 44.75Z" fill="#5c5b3a" fill-rule="nonzero" opacity="1" stroke="none" vectornator:layerName="path"/>
<path d="M53 49.71L85 50.21L82.96 50.79C82.7513 50.8467 82.4806 51.0734 82.22 51.41C81.3867 52.4767 80.0633 53.0067 78.25 53C72.73 52.9867 67.2333 52.6333 61.76 51.94C60.1333 51.74 58.53 51.7733 56.95 52.04C55.25 52.3333 53.9367 52.4733 53.01 52.46C51.6767 52.4333 50.34 52.4267 49 52.44C48.04 52.4533 47.4367 51.9967 47.19 51.07C47.0225 50.4426 46.4411 50.0045 45.77 50L41.75 49.96L53 49.71Z" fill="#4c0a0c" fill-rule="nonzero" opacity="1" stroke="none" vectornator:layerName="path"/>
<path d="M29.79 54.25C30.8367 55.29 31.0367 56.1633 30.39 56.87C30.0967 57.19 29.4467 57.4967 28.44 57.79C18.9667 60.5633 14.64 67.1333 15.46 77.5C14.0933 78.28 13.1767 78.03 12.71 76.75C12.7567 74.0833 12.79 71.4167 12.81 68.75C12.8433 64.4967 14.5667 61.1467 17.98 58.7C21.3 56.3133 24.2433 54.5167 26.81 53.31C27.9233 52.79 28.9167 53.1033 29.79 54.25Z" fill="#a0946e" fill-rule="nonzero" opacity="1" stroke="none" vectornator:layerName="path"/>
<path d="M29.79 54.25C31.7033 55.5633 33.1067 56.23 34 56.25C55.0533 56.71 76.1067 57.1 97.16 57.42C98.06 57.4333 98.9067 57.3633 99.7 57.21C100.547 57.0433 101.377 56.8633 102.19 56.67C100.13 59.1567 97.5833 60.6767 94.55 61.23C94.1468 61.3042 93.8376 61.4836 93.74 61.7L93 63.21C76.3333 63.2567 59.6667 63.27 43 63.25C38.4 63.2433 34.8 62.9067 32.2 62.24C26.7467 60.1133 22.6767 60.9167 19.99 64.65C18.8767 66.2033 18.0733 68.43 17.58 71.33C17.1667 73.7967 16.9733 76.1867 17 78.5C17.0667 84.3 16.9933 89.2267 16.78 93.28C15.9267 88.06 15.4867 82.8 15.46 77.5C14.64 67.1333 18.9667 60.5633 28.44 57.79C29.4467 57.4967 30.0967 57.19 30.39 56.87C31.0367 56.1633 30.8367 55.29 29.79 54.25Z" fill="#95773e" fill-rule="nonzero" opacity="1" stroke="none" vectornator:layerName="path"/>
<path d="M106.75 172.21L112.31 167.93C113.263 167.197 113.713 166.137 113.66 164.75C112.72 137.57 112.517 110.153 113.05 82.5C113.143 77.6533 112.627 73.07 111.5 68.75C110.933 66.5833 109.373 65.1267 106.82 64.38C108.86 63.4 110.66 62.1933 112.22 60.76C112.58 60.4267 112.977 59.8367 113.41 58.99C113.67 58.4833 113.997 58.02 114.39 57.6C114.595 57.3812 114.926 57.3281 115.2 57.47C118.727 59.2433 120.743 61.8367 121.25 65.25C121.497 66.9233 121.64 71.0067 121.68 77.5C121.893 114.513 121.833 141.43 121.5 158.25C121.473 159.73 121.183 161.78 120.63 164.4C120.097 166.953 119.34 168.85 118.36 170.09C116.62 172.303 114.167 173.69 111 174.25C110.06 174.417 109.487 174.187 109.28 173.56C109.179 173.275 108.963 173.052 108.69 172.95L106.75 172.21Z" fill="#aec48e" fill-rule="nonzero" opacity="1" stroke="none" vectornator:layerName="path"/>
<path d="M6.96 59.5L5.29 73.25C5.25 71.6833 5.23333 70.1133 5.24 68.54C5.24 68.4933 5.2 67.6367 5.12 65.97C5 63.63 5.61333 61.4733 6.96 59.5Z" fill="#5c5b3a" fill-rule="nonzero" opacity="1" stroke="none" vectornator:layerName="path"/>
<path d="M32.2 62.24C33.3867 66.54 33.8633 70.9033 33.63 75.33C33.3633 80.5367 33.23 83.1567 33.23 83.19C33.2167 89.61 33.2567 96.0433 33.35 102.49C33.4233 109.97 33.47 117.47 33.49 124.99C33.4967 126.957 33.43 130.13 33.29 134.51C33.1833 137.77 33.1667 140.95 33.24 144.05L33.52 171.05C33.5242 171.559 33.1008 171.983 32.56 172.01L27.25 172.29L25.25 172.04L23.29 171.25L21.79 170C20.05 168.167 18.9533 166.5 18.5 165C17.92 163.093 17.5033 160.177 17.25 156.25C17.0967 153.877 16.9667 147.037 16.86 135.73L16.78 93.28C16.9933 89.2267 17.0667 84.3 17 78.5C16.9733 76.1867 17.1667 73.7967 17.58 71.33C18.0733 68.43 18.8767 66.2033 19.99 64.65C22.6767 60.9167 26.7467 60.1133 32.2 62.24Z" fill="#ffffff" fill-rule="nonzero" opacity="1" stroke="none" vectornator:layerName="path"/>
<path d="M32.2 62.24C34.8 62.9067 38.4 63.2433 43 63.25C59.6667 63.27 76.3333 63.2567 93 63.21C94.9933 63.4167 96.9933 63.5 99 63.46C101.787 63.4067 104.393 63.7133 106.82 64.38C109.373 65.1267 110.933 66.5833 111.5 68.75C112.627 73.07 113.143 77.6533 113.05 82.5C112.517 110.153 112.72 137.57 113.66 164.75C113.713 166.137 113.263 167.197 112.31 167.93L106.75 172.21C104.677 172.883 103.427 173.23 103 173.25C93.5133 173.683 84.0067 173.997 74.48 174.19L28 174.21C27.2133 173.85 26.9633 173.21 27.25 172.29L32.56 172.01C33.1008 171.983 33.5242 171.559 33.52 171.05L33.24 144.05C38.9133 145.47 48.48 147.39 61.94 149.81C72.6067 151.73 82.5133 151 91.66 147.62C95.4467 146.22 97.4 143.653 97.52 139.92C97.5667 138.387 97.2667 137.217 96.62 136.41C95.6733 135.23 94.2167 135.093 92.25 136C89.81 137.127 87.06 137.797 84 138.01C80.4467 138.263 76.8967 138.3 73.35 138.12C70.53 137.973 67.0367 137.453 62.87 136.56C55.7367 135.02 48.59 133.553 41.43 132.16C41.1341 132.101 40.923 131.852 40.93 131.57L41.16 116.68C41.1662 116.393 41.3814 116.144 41.68 116.08C46.6333 114.98 51.59 113.877 56.55 112.77C61.37 111.697 65.2033 111.057 68.05 110.85C72.0367 110.563 75.9367 110.613 79.75 111C84.59 111.493 88.4233 113.863 91.25 118.11L98.84 116.72C99.131 116.67 99.4033 116.46 99.58 116.15C100.147 115.197 100.357 114.147 100.21 113C100.663 110.147 99.8233 108.25 97.69 107.31C91.2167 104.47 84.0533 102.58 76.2 101.64C72.12 101.153 66.31 101.12 58.77 101.54C50.3767 102.007 41.9033 102.323 33.35 102.49C33.2567 96.0433 33.2167 89.61 33.23 83.19C33.23 83.1567 33.3633 80.5367 33.63 75.33C33.8633 70.9033 33.3867 66.54 32.2 62.24ZM99.0761 118.593C98.9601 118.399 98.7085 118.335 98.514 118.451L87.8457 124.81C87.6512 124.926 87.5875 125.178 87.7034 125.373L87.7239 125.407C87.8399 125.601 88.0915 125.665 88.286 125.549L98.9543 119.19C99.1488 119.074 99.2125 118.822 99.0966 118.627L99.0761 118.593ZM99.8863 130.949C99.9272 130.531 96.8147 129.884 92.9342 129.504C89.0534 129.123 85.8743 129.153 85.8337 129.571C85.7928 129.989 88.9053 130.636 92.7858 131.016C96.6666 131.397 99.8457 131.367 99.8863 130.949Z" fill="#deefb7" fill-rule="nonzero" opacity="1" stroke="none" vectornator:layerName="path"/>
<path d="M12.71 76.75C13.1767 78.03 14.0933 78.28 15.46 77.5C15.4867 82.8 15.9267 88.06 16.78 93.28L16.86 135.73C16.1467 140.417 15.7767 144.173 15.75 147C15.71 150.813 16.1067 155.637 16.94 161.47C17.3 163.963 18.2567 166.703 19.81 169.69C20.47 170.95 21.13 171.053 21.79 170L23.29 171.25C22.9767 171.77 22.88 172.34 23 172.96C17.3467 170.36 13.9133 166.36 12.7 160.96C12.4267 159.747 12.27 155.597 12.23 148.51C12.21 144.337 12.1633 140.167 12.09 136C11.7567 116.247 11.9633 96.4967 12.71 76.75Z" fill="#869060" fill-rule="nonzero" opacity="1" stroke="none" vectornator:layerName="path"/>
<path d="M100.21 113C99.7433 113.607 99.4567 114.297 99.35 115.07C99.3128 115.356 99.1107 115.597 98.83 115.69L91.25 118.11C88.4233 113.863 84.59 111.493 79.75 111C75.9367 110.613 72.0367 110.563 68.05 110.85C65.2033 111.057 61.37 111.697 56.55 112.77C51.59 113.877 46.6333 114.98 41.68 116.08C41.3814 116.144 41.1662 116.393 41.16 116.68L40.93 131.57C40.923 131.852 41.1341 132.101 41.43 132.16C48.59 133.553 55.7367 135.02 62.87 136.56C67.0367 137.453 70.53 137.973 73.35 138.12C76.8967 138.3 80.4467 138.263 84 138.01C87.06 137.797 89.81 137.127 92.25 136C94.2167 135.093 95.6733 135.23 96.62 136.41C97.2667 137.217 97.5667 138.387 97.52 139.92C97.4 143.653 95.4467 146.22 91.66 147.62C82.5133 151 72.6067 151.73 61.94 149.81C48.48 147.39 38.9133 145.47 33.24 144.05C33.1667 140.95 33.1833 137.77 33.29 134.51C33.43 130.13 33.4967 126.957 33.49 124.99C33.47 117.47 33.4233 109.97 33.35 102.49C41.9033 102.323 50.3767 102.007 58.77 101.54C66.31 101.12 72.12 101.153 76.2 101.64C84.0533 102.58 91.2167 104.47 97.69 107.31C99.8233 108.25 100.663 110.147 100.21 113Z" fill="#6b9153" fill-rule="nonzero" opacity="1" stroke="none" vectornator:layerName="path"/>
<path d="M100.21 113C100.357 114.147 100.147 115.197 99.58 116.15C99.4033 116.46 99.131 116.67 98.84 116.72L91.25 118.11L98.83 115.69C99.1107 115.597 99.3128 115.356 99.35 115.07C99.4567 114.297 99.7433 113.607 100.21 113Z" fill="#5c5b3a" fill-rule="nonzero" opacity="1" stroke="none" vectornator:layerName="path"/>
<path d="M87.8457 124.81L98.514 118.451C98.7085 118.335 98.9601 118.399 99.0761 118.593L99.0966 118.627C99.2125 118.822 99.1488 119.074 98.9543 119.19L88.286 125.549C88.0915 125.665 87.8399 125.601 87.7239 125.407L87.7034 125.373C87.5875 125.178 87.6512 124.926 87.8457 124.81Z" fill="#5c5b3a" fill-rule="nonzero" opacity="1" stroke="none" vectornator:layerName="rect"/>
<path d="M85.8337 129.571C85.8747 129.153 89.0536 129.123 92.9342 129.504C96.8147 129.884 99.9273 130.531 99.8863 130.949C99.8453 131.367 96.6664 131.397 92.7858 131.016C88.9053 130.636 85.7927 129.989 85.8337 129.571Z" fill="#5c5b3a" fill-rule="nonzero" opacity="1" stroke="none" vectornator:layerName="ellipse"/>
<path d="M16.86 135.73C16.9667 147.037 17.0967 153.877 17.25 156.25C17.5033 160.177 17.92 163.093 18.5 165C18.9533 166.5 20.05 168.167 21.79 170C21.13 171.053 20.47 170.95 19.81 169.69C18.2567 166.703 17.3 163.963 16.94 161.47C16.1067 155.637 15.71 150.813 15.75 147C15.7767 144.173 16.1467 140.417 16.86 135.73Z" fill="#5c5b3a" fill-rule="nonzero" opacity="1" stroke="none" vectornator:layerName="path"/>
<path d="M23.29 171.25L25.25 172.04L25.25 173.71L23 172.96C22.88 172.34 22.9767 171.77 23.29 171.25Z" fill="#b08973" fill-rule="nonzero" opacity="1" stroke="none" vectornator:layerName="path"/>
<path d="M25.25 172.04L27.25 172.29C26.9633 173.21 27.2133 173.85 28 174.21C27.02 174.383 26.1033 174.217 25.25 173.71L25.25 172.04Z" fill="#cabfb2" fill-rule="nonzero" opacity="1" stroke="none" vectornator:layerName="path"/>
</g>
</svg>
