<?xml version="1.0" encoding="UTF-8" standalone="no"?>
<!DOCTYPE svg PUBLIC "-//W3C//DTD SVG 1.1//EN" "http://www.w3.org/Graphics/SVG/1.1/DTD/svg11.dtd">
<!-- Created with Vectornator (http://vectornator.io/) -->
<svg height="100%" stroke-miterlimit="10" style="fill-rule:nonzero;clip-rule:evenodd;stroke-linecap:round;stroke-linejoin:round;" version="1.1" viewBox="0 0 131 195" width="100%" xml:space="preserve" xmlns="http://www.w3.org/2000/svg" xmlns:vectornator="http://vectornator.io" xmlns:xlink="http://www.w3.org/1999/xlink">
<defs/>
<g id="名称未設定" vectornator:layerName="名称未設定">
<g opacity="1" vectornator:layerName="g">
<path d="M94.72 79.56C98.9533 77.9533 103.197 75.8333 107.45 73.2C112.383 70.14 117.433 67.2867 122.6 64.64C124.62 63.6067 126.52 62.3933 128.3 61C128.567 60.7853 128.756 60.5089 128.84 60.21C129.347 58.4167 129.17 56.41 128.31 54.19C125.917 47.9833 122.82 42.1267 119.02 36.62C117.927 35.04 116.563 34.75 114.93 35.75C105.603 41.4567 95.8967 47.1433 85.81 52.81C81.8167 55.0567 77.8733 58.88 73.98 64.28C73.7779 64.5606 73.5169 64.7694 73.23 64.88C71.7367 65.44 69.8867 65.61 67.68 65.39C67.4104 65.3641 67.1721 65.2035 67.047 64.9633C66.9218 64.7231 66.9267 64.4358 67.06 64.2C68.38 61.8133 69.51 59.22 70.45 56.42C71.69 52.7067 72.32 50.82 72.34 50.76C75.66 41.6067 78.7333 32.3733 81.56 23.06C82.4733 20.06 82.9633 17.46 83.03 15.26C83.07 13.82 82.6 12.5 81.62 11.3C77.6733 6.48667 72.61 4.22333 66.43 4.51C63.59 4.63667 61.0733 5.34667 58.88 6.64C56.44 8.07333 54.54 10.01 53.18 12.45C52.78 13.17 51.5567 16.7367 49.51 23.15C45.39 36.0633 41.44 49.1167 37.66 62.31C37.4624 62.9938 36.8416 63.4684 36.13 63.48C34.1633 63.5133 32.5233 63.88 31.21 64.58C30.05 65.1933 29.0633 66.4133 28.25 68.24C27.5033 69.9 26.8667 71.6633 26.34 73.53C26.1973 74.0302 25.8996 74.4715 25.49 74.79C22.29 77.2567 19.4467 79.88 16.96 82.66C14.2133 85.7333 12.0567 88.44 10.49 90.78C8.55 93.68 7.07333 96.8433 6.06 100.27C5.33333 102.703 5.55 105.443 6.71 108.49C6.90333 108.997 7 109.52 7 110.06C6.97333 133.64 8.56333 156.37 11.77 178.25C12.7233 184.777 16.3867 188.933 22.76 190.72C26.74 191.833 30.7733 192.58 34.86 192.96C36.5467 193.113 40.6367 193.29 47.13 193.49C56.0233 193.763 64.9167 193.697 73.81 193.29C78.5967 193.07 82.1833 192.58 84.57 191.82C88.09 190.693 91.32 188.92 94.26 186.5C96.2067 184.893 97.37 182.643 97.75 179.75C100.057 162.117 100.993 145.37 100.56 129.51C100.38 122.843 100.277 115.943 100.25 108.81C100.243 108.253 100.532 107.732 101.01 107.44C103.59 105.86 105.86 103.82 107.82 101.32C111.12 97.1133 110.987 93.0267 107.42 89.06C104.273 85.56 100.033 82.6867 94.7 80.44C93.9867 80.1333 93.9933 79.84 94.72 79.56" fill="none" opacity="1" stroke="#988382" stroke-linecap="butt" stroke-linejoin="miter" stroke-width="2" vectornator:layerName="path"/>
<path d="M48.09 64.71L61.59 64.97C62.409 64.9825 63.1375 64.4915 63.4 63.75C68.8267 48.3433 73.8267 33.1667 78.4 18.22C79.22 15.54 78.5233 13.3633 76.31 11.69C73.3433 9.44333 70.0733 8.47667 66.5 8.79" fill="none" opacity="1" stroke="#95612a" stroke-linecap="butt" stroke-linejoin="miter" stroke-width="2" vectornator:layerName="path"/>
<path d="M66.5 8.79C60.4467 10.0033 56.4467 13.74 54.5 20C50.8733 31.64 47.27 43.2867 43.69 54.94C42.6367 58.3533 41.95 61.2733 41.63 63.7C41.6095 63.8393 41.644 63.9806 41.7254 64.0904C41.8069 64.2003 41.9279 64.2689 42.06 64.28L48.09 64.71" fill="none" opacity="1" stroke="#986f3d" stroke-linecap="butt" stroke-linejoin="miter" stroke-width="2" vectornator:layerName="path"/>
<path d="M66.5 8.79C61.6 22.6033 56.7867 36.4433 52.06 50.31C49.8733 56.73 48.55 61.53 48.09 64.71" fill="none" opacity="1" stroke="#fcc962" stroke-linecap="butt" stroke-linejoin="miter" stroke-width="2" vectornator:layerName="path"/>
<path d="M89 57.71C85.24 58.89 82.3067 60.9933 80.2 64.02C79.3 65.3067 78.0333 67.3667 76.4 70.2C75.18 72.3133 74.2833 74.58 73.71 77" fill="none" opacity="1" stroke="#82351b" stroke-linecap="butt" stroke-linejoin="miter" stroke-width="2" vectornator:layerName="path"/>
<path d="M73.71 77C72.95 77.1867 72.6167 76.9367 72.71 76.25" fill="none" opacity="1" stroke="#49181d" stroke-linecap="butt" stroke-linejoin="miter" stroke-width="2" vectornator:layerName="path"/>
<path d="M72.71 76.25L73.32 69.95C73.3315 69.833 73.2829 69.7166 73.186 69.6292C73.0891 69.5418 72.9527 69.4913 72.81 69.49L63.06 69.61C62.7786 69.6081 62.5459 69.8056 62.53 70.06C62.3367 73.76 62.6233 77.6633 63.39 81.77C63.4458 82.0729 63.7181 82.2847 64.02 82.26L71.75 81.71" fill="none" opacity="1" stroke="#882d21" stroke-linecap="butt" stroke-linejoin="miter" stroke-width="2" vectornator:layerName="path"/>
<path d="M71.75 81.71C72.2767 82.0567 72.7767 82.0567 73.25 81.71" fill="none" opacity="1" stroke="#49181d" stroke-linecap="butt" stroke-linejoin="miter" stroke-width="2" vectornator:layerName="path"/>
<path d="M73.25 81.71L79.76 81.74C80.3107 81.7468 80.8426 81.4353 81.16 80.92L89.31 67.68C89.7611 66.9482 90.0003 66.1541 90 65.39C90 63.5633 90.53 62.31 91.59 61.63" fill="none" opacity="1" stroke="#82351b" stroke-linecap="butt" stroke-linejoin="miter" stroke-width="2" vectornator:layerName="path"/>
<path d="M91.59 61.63C97.0767 57.97 102.953 55.0433 109.22 52.85C109.474 52.7591 109.736 52.5564 109.97 52.27C110.317 51.8433 110.657 51.77 110.99 52.05C111.23 52.2548 111.534 52.3109 111.75 52.19C114.343 50.69 117.097 49.5433 120.01 48.75C120.298 48.6684 120.524 48.447 120.616 48.1577C120.707 47.8684 120.653 47.5478 120.47 47.3L115.46 40.53C115.347 40.3785 115.175 40.2828 114.991 40.2693C114.806 40.2557 114.63 40.3257 114.51 40.46C110.47 45.0067 105.89 48.6767 100.77 51.47C97.5633 53.2167 95.91 54.1167 95.81 54.17C93.5833 55.43 91.3133 56.61 89 57.71" fill="none" opacity="1" stroke="#5d6c49" stroke-linecap="butt" stroke-linejoin="miter" stroke-width="2" vectornator:layerName="path"/>
<path d="M91.59 61.63C89.8767 62.3433 88.9967 62.0533 88.95 60.76C88.9433 60.64 89.0867 60.1667 89.38 59.34C89.5733 58.7867 89.4467 58.2433 89 57.71" fill="none" opacity="1" stroke="#af9a5e" stroke-linecap="butt" stroke-linejoin="miter" stroke-width="2" vectornator:layerName="path"/>
<path d="M73.25 81.71L73.71 77" fill="none" opacity="1" stroke="#9b4532" stroke-linecap="butt" stroke-linejoin="miter" stroke-width="2" vectornator:layerName="path"/>
<path d="M72.71 76.25L71.75 81.71" fill="none" opacity="1" stroke="#a13d39" stroke-linecap="butt" stroke-linejoin="miter" stroke-width="2" vectornator:layerName="path"/>
<path d="M100.83 66.09C99.2967 67.5167 97.0833 69.1333 94.19 70.94C91.81 72.42 89.8167 74.7367 88.21 77.89C87.63 79.0233 87.89 79.3567 88.99 78.89C89.25 78.7833 89.5067 78.5967 89.76 78.33C90.82 77.1833 92.2133 76.22 93.94 75.44C100.833 72.32 107.787 68.45 114.8 63.83C115.287 63.5033 116.857 62.6067 119.51 61.14C121.117 60.2467 122.597 59.17 123.95 57.91C124.189 57.6842 124.338 57.386 124.37 57.07C124.557 55.0033 124.16 52.95 123.18 50.91C123.123 50.7892 123.018 50.6974 122.89 50.6559C122.761 50.6144 122.621 50.6267 122.5 50.69C114.4 55.05 107.177 60.1833 100.83 66.09" fill="none" opacity="1" stroke="#931f2f" stroke-linecap="butt" stroke-linejoin="miter" stroke-width="2" vectornator:layerName="path"/>
<path d="M103 58.66C102.88 59.0933 102.963 59.4367 103.25 59.69C103.446 59.8541 103.781 59.8164 104.05 59.6L110.09 54.78C110.37 54.5598 110.491 54.2379 110.38 54.01C110.173 53.59 109.747 53.6233 109.1 54.11C107.313 55.4367 105.483 56.7033 103.61 57.91C103.296 58.122 103.078 58.3899 103 58.66" fill="none" opacity="1" stroke="#49181d" stroke-linecap="butt" stroke-linejoin="miter" stroke-width="2" vectornator:layerName="path"/>
<path d="M94.7895 66.7553C95.6193 67.4418 97.6533 66.3528 99.3325 64.323C101.012 62.2932 101.7 60.0912 100.871 59.4047C100.041 58.7182 98.0067 59.8072 96.3275 61.837C94.6483 63.8668 93.9597 66.0688 94.7895 66.7553" fill="none" opacity="1" stroke="#988382" stroke-linecap="butt" stroke-linejoin="miter" stroke-width="2" vectornator:layerName="path"/>
<path d="M32.75 68.29C31.7033 69.8167 30.94 71.47 30.46 73.25C29.8133 75.6033 29.4867 76.7933 29.48 76.82C29.3133 78.2333 29.9867 79.4467 31.5 80.46" fill="none" opacity="1" stroke="#882d21" stroke-linecap="butt" stroke-linejoin="miter" stroke-width="2" vectornator:layerName="path"/>
<path d="M31.5 80.46C32.6067 81.9467 34.0033 82.6267 35.69 82.5C35.9958 82.4746 36.286 82.3113 36.49 82.05C39.2567 78.4767 41.46 74.2767 43.1 69.45C43.1552 69.2881 43.1388 69.1104 43.0547 68.9614C42.9707 68.8125 42.8271 68.7064 42.66 68.67C39 67.9033 35.6967 67.7767 32.75 68.29" fill="none" opacity="1" stroke="#974c39" stroke-linecap="butt" stroke-linejoin="miter" stroke-width="2" vectornator:layerName="path"/>
<path d="M31.5 80.46C31.4333 79.18 31.56 77.94 31.88 76.74C32.2867 75.2267 32.5 74.03 32.52 73.15C32.5533 71.53 32.63 69.91 32.75 68.29" fill="none" opacity="1" stroke="#ef7155" stroke-linecap="butt" stroke-linejoin="miter" stroke-width="2" vectornator:layerName="path"/>
<path d="M54.07 68.56C51.6033 68.3467 49.14 68.37 46.68 68.63C46.3816 68.6597 46.1251 68.8618 46.02 69.15C44.3933 73.6567 42.3333 78.2167 39.84 82.83C39.7119 83.0626 39.7128 83.3456 39.8423 83.5738C39.9719 83.8021 40.2107 83.9414 40.47 83.94L58.2 83.96C58.4888 83.9601 58.7246 83.7288 58.73 83.44L58.94 69.86C58.9447 69.288 58.4645 68.8167 57.86 68.8C56.7867 68.7667 55.5233 68.6867 54.07 68.56" fill="none" opacity="1" stroke="#95372c" stroke-linecap="butt" stroke-linejoin="miter" stroke-width="2" vectornator:layerName="path"/>
<path d="M90.91 69.36C90.1033 70.6733 90.2433 71.2033 91.33 70.95C91.6392 70.8788 91.9179 70.6822 92.11 70.4C92.87 69.2467 92.7233 68.73 91.67 68.85C91.3661 68.8886 91.0868 69.0761 90.91 69.36" fill="none" opacity="1" stroke="#49181d" stroke-linecap="butt" stroke-linejoin="miter" stroke-width="2" vectornator:layerName="path"/>
<path d="M95.54 147C95.7667 136.54 95.77 126.077 95.55 115.61C95.55 115.55 95.5733 114.143 95.62 111.39C95.6667 108.717 95.2733 106.523 94.44 104.81C91.3933 98.5833 86.6267 92.7533 80.14 87.32C79.8869 87.1125 79.5744 86.9931 79.25 86.98C74.6567 86.8 70.0367 87.01 65.39 87.61" fill="none" opacity="1" stroke="#88221d" stroke-linecap="butt" stroke-linejoin="miter" stroke-width="2" vectornator:layerName="path"/>
<path d="M65.39 87.61C55.2033 89.0567 45.0467 88.8533 34.92 87C32.3733 86.54 30.5733 85.8933 29.52 85.06C28.0333 83.8933 26.91 82.2033 26.15 79.99C25.8033 78.97 25.28 78.8733 24.58 79.7C19.5067 85.7067 14.9133 91.75 10.8 97.83C9.93333 99.1167 9.74667 100.497 10.24 101.97C10.6333 103.123 10.9433 104.383 11.17 105.75C11.35 106.803 11.4233 108.1 11.39 109.64C10.93 132.813 12.9533 155.77 17.46 178.51C18.1267 181.857 20.2233 183.853 23.75 184.5C41.73 187.78 59.3433 188.487 76.59 186.62C79.01 186.36 81.0933 186.007 82.84 185.56C84.9 185.033 86.9233 184.38 88.91 183.6C90.9633 182.8 92.16 181.517 92.5 179.75C94.36 170.123 95.3733 159.207 95.54 147" fill="none" opacity="1" stroke="#953028" stroke-linecap="butt" stroke-linejoin="miter" stroke-width="2" vectornator:layerName="path"/>
<path d="M65.39 87.61C69.5567 91.3233 73.0533 95.52 75.88 100.2C78.1933 104.02 80.62 108.863 83.16 114.73C85.8667 120.957 87.77 127.47 88.87 134.27C89.6167 138.857 90.3033 143.447 90.93 148.04C90.9567 148.233 91.0333 148.257 91.16 148.11C92.1667 146.91 93.3533 146.037 94.72 145.49C94.846 145.437 94.9884 145.44 95.107 145.499C95.2257 145.557 95.3077 145.664 95.33 145.79L95.54 147" fill="none" opacity="1" stroke="#ed4b40" stroke-linecap="butt" stroke-linejoin="miter" stroke-width="2" vectornator:layerName="path"/>
<path d="M95.46 97.75C96.8933 99.8367 97.9967 102.103 98.77 104.55C98.8103 104.673 98.9107 104.767 99.0362 104.8C99.1617 104.832 99.2951 104.798 99.39 104.71C101.697 102.557 103.573 100.23 105.02 97.73C106.387 95.3767 106.047 93.37 104 91.71" fill="none" opacity="1" stroke="#7e532c" stroke-linecap="butt" stroke-linejoin="miter" stroke-width="2" vectornator:layerName="path"/>
<path d="M104 91.71C99.94 88.2967 95.4 85.7833 90.38 84.17C89.3667 83.8433 88.43 83.6833 87.57 83.69C84.5567 83.7167 84.2533 84.9367 86.66 87.35C89.8733 90.5767 92.8067 94.0433 95.46 97.75" fill="none" opacity="1" stroke="#6f421b" stroke-linecap="butt" stroke-linejoin="miter" stroke-width="2" vectornator:layerName="path"/>
<path d="M104 91.71C102.873 91.8367 102.707 92.2667 103.5 93C104.493 93.9133 104.577 95.2467 103.75 97C102.87 98.8667 101.593 100.36 99.92 101.48C99.8003 101.559 99.6563 101.589 99.5206 101.565C99.385 101.54 99.2694 101.463 99.2 101.35L96.92 97.75C96.7081 97.4193 96.4379 97.2054 96.2 97.18C95.8 97.14 95.5533 97.33 95.46 97.75" fill="none" opacity="1" stroke="#bc8d41" stroke-linecap="butt" stroke-linejoin="miter" stroke-width="2" vectornator:layerName="path"/>
<path d="M25.49 90.97C22.5033 95.49 19.97 100.417 17.89 105.75C17.4967 106.757 17.4133 107.793 17.64 108.86C17.8867 110 18.41 110.493 19.21 110.34C19.4909 110.284 19.7433 110.051 19.88 109.72C23.1667 101.907 26.52 95.8133 29.94 91.44C32.1 88.6667 31.72 87.06 28.8 86.62C28.5086 86.5769 28.2143 86.7181 28.05 86.98C27.2167 88.3267 26.3633 89.6567 25.49 90.97" fill="none" opacity="1" stroke="#fcaca5" stroke-linecap="butt" stroke-linejoin="miter" stroke-width="2" vectornator:layerName="path"/>
<path d="M55.56 168.03C53.9467 166.91 52.2867 166.837 50.58 167.81C46.46 170.143 45.2733 173.423 47.02 177.65C47.3133 178.35 47.73 178.847 48.27 179.14C48.8833 179.473 49.55 179.64 50.27 179.64C51.83 179.647 52.65 179.653 52.73 179.66C56.85 179.993 59.1733 178.023 59.7 173.75C59.7391 173.424 59.6799 173.093 59.53 172.8C58.4967 170.747 57.1733 169.157 55.56 168.03" fill="none" opacity="1" stroke="#fcaca5" stroke-linecap="butt" stroke-linejoin="miter" stroke-width="2" vectornator:layerName="path"/>
<path d="M33.84 178.21L34.5 173.82C34.6095 173.064 34.0833 172.289 33.23 171.95C30.3567 170.817 27.78 170.853 25.5 172.06C25.2225 172.212 25.0333 172.487 24.99 172.8C24.2167 178.727 26.96 180.747 33.22 178.86C33.5507 178.757 33.7908 178.505 33.84 178.21" fill="none" opacity="1" stroke="#fcaca5" stroke-linecap="butt" stroke-linejoin="miter" stroke-width="2" vectornator:layerName="path"/>
<path d="M43.58 172.2C41.0867 171.007 38.72 171.117 36.48 172.53C36.2089 172.704 36.0071 172.97 35.91 173.28C35.3367 175.227 35.1933 177.2 35.48 179.2C35.5286 179.5 35.7509 179.746 36.05 179.83C39.1967 180.717 42.4067 181.017 45.68 180.73C45.8064 180.721 45.9228 180.658 45.9979 180.558C46.0731 180.458 46.0995 180.33 46.07 180.21L44.39 173.19C44.2824 172.754 43.9847 172.39 43.58 172.2" fill="none" opacity="1" stroke="#fcaca5" stroke-linecap="butt" stroke-linejoin="miter" stroke-width="2" vectornator:layerName="path"/>
<path d="M72.15 171.9C70.09 171.373 67.6233 171.387 64.75 171.94C63.8384 172.116 63.1056 172.618 62.78 173.29L60.03 178.89C59.8962 179.161 59.9068 179.481 60.0586 179.759C60.2105 180.038 60.4871 180.244 60.81 180.32C63.6233 180.973 66.9133 180.89 70.68 180.07C71.4006 179.913 71.9989 179.408 72.28 178.72C72.92 177.127 73.2433 175.327 73.25 173.32C73.2559 172.652 72.8017 172.066 72.15 171.9" fill="none" opacity="1" stroke="#fcaca5" stroke-linecap="butt" stroke-linejoin="miter" stroke-width="2" vectornator:layerName="path"/>
<path d="M83.0199 173.984C82.9704 172.566 81.7803 171.456 80.3617 171.505L77.0837 171.62C75.6652 171.669 74.5555 172.859 74.605 174.278L74.7201 177.576C74.7696 178.994 75.9597 180.104 77.3783 180.055L80.6563 179.94C82.0748 179.891 83.1845 178.701 83.135 177.282L83.0199 173.984" fill="none" opacity="1" stroke="#fcaca5" stroke-linecap="butt" stroke-linejoin="miter" stroke-width="2" vectornator:layerName="path"/>
</g>
<path d="M94.72 79.56C93.9933 79.84 93.9867 80.1333 94.7 80.44C100.033 82.6867 104.273 85.56 107.42 89.06C110.987 93.0267 111.12 97.1133 107.82 101.32C105.86 103.82 103.59 105.86 101.01 107.44C100.532 107.732 100.243 108.253 100.25 108.81C100.277 115.943 100.38 122.843 100.56 129.51C100.993 145.37 100.057 162.117 97.75 179.75C97.37 182.643 96.2067 184.893 94.26 186.5C91.32 188.92 88.09 190.693 84.57 191.82C82.1833 192.58 78.5967 193.07 73.81 193.29C64.9167 193.697 56.0233 193.763 47.13 193.49C40.6367 193.29 36.5467 193.113 34.86 192.96C30.7733 192.58 26.74 191.833 22.76 190.72C16.3867 188.933 12.7233 184.777 11.77 178.25C8.56333 156.37 6.97333 133.64 7 110.06C7 109.52 6.90333 108.997 6.71 108.49C5.55 105.443 5.33333 102.703 6.06 100.27C7.07333 96.8433 8.55 93.68 10.49 90.78C12.0567 88.44 14.2133 85.7333 16.96 82.66C19.4467 79.88 22.29 77.2567 25.49 74.79C25.8996 74.4715 26.1973 74.0302 26.34 73.53C26.8667 71.6633 27.5033 69.9 28.25 68.24C29.0633 66.4133 30.05 65.1933 31.21 64.58C32.5233 63.88 34.1633 63.5133 36.13 63.48C36.8416 63.4684 37.4624 62.9938 37.66 62.31C41.44 49.1167 45.39 36.0633 49.51 23.15C51.5567 16.7367 52.78 13.17 53.18 12.45C54.54 10.01 56.44 8.07333 58.88 6.64C61.0733 5.34667 63.59 4.63667 66.43 4.51C72.61 4.22333 77.6733 6.48667 81.62 11.3C82.6 12.5 83.07 13.82 83.03 15.26C82.9633 17.46 82.4733 20.06 81.56 23.06C78.7333 32.3733 75.66 41.6067 72.34 50.76C72.32 50.82 71.69 52.7067 70.45 56.42C69.51 59.22 68.38 61.8133 67.06 64.2C66.9267 64.4358 66.9218 64.7231 67.047 64.9633C67.1721 65.2035 67.4104 65.3641 67.68 65.39C69.8867 65.61 71.7367 65.44 73.23 64.88C73.5169 64.7694 73.7779 64.5606 73.98 64.28C77.8733 58.88 81.8167 55.0567 85.81 52.81C95.8967 47.1433 105.603 41.4567 114.93 35.75C116.563 34.75 117.927 35.04 119.02 36.62C122.82 42.1267 125.917 47.9833 128.31 54.19C129.17 56.41 129.347 58.4167 128.84 60.21C128.756 60.5089 128.567 60.7853 128.3 61C126.52 62.3933 124.62 63.6067 122.6 64.64C117.433 67.2867 112.383 70.14 107.45 73.2C103.197 75.8333 98.9533 77.9533 94.72 79.56ZM48.09 64.71L61.59 64.97C62.409 64.9825 63.1375 64.4915 63.4 63.75C68.8267 48.3433 73.8267 33.1667 78.4 18.22C79.22 15.54 78.5233 13.3633 76.31 11.69C73.3433 9.44333 70.0733 8.47667 66.5 8.79C60.4467 10.0033 56.4467 13.74 54.5 20C50.8733 31.64 47.27 43.2867 43.69 54.94C42.6367 58.3533 41.95 61.2733 41.63 63.7C41.6095 63.8393 41.644 63.9806 41.7254 64.0904C41.8069 64.2003 41.9279 64.2689 42.06 64.28L48.09 64.71ZM89 57.71C85.24 58.89 82.3067 60.9933 80.2 64.02C79.3 65.3067 78.0333 67.3667 76.4 70.2C75.18 72.3133 74.2833 74.58 73.71 77C72.95 77.1867 72.6167 76.9367 72.71 76.25L73.32 69.95C73.3315 69.833 73.2829 69.7166 73.186 69.6292C73.0891 69.5418 72.9527 69.4913 72.81 69.49L63.06 69.61C62.7786 69.6081 62.5459 69.8056 62.53 70.06C62.3367 73.76 62.6233 77.6633 63.39 81.77C63.4458 82.0729 63.7181 82.2847 64.02 82.26L71.75 81.71C72.2767 82.0567 72.7767 82.0567 73.25 81.71L79.76 81.74C80.3107 81.7468 80.8426 81.4353 81.16 80.92L89.31 67.68C89.7611 66.9482 90.0003 66.1541 90 65.39C90 63.5633 90.53 62.31 91.59 61.63C97.0767 57.97 102.953 55.0433 109.22 52.85C109.474 52.7591 109.736 52.5564 109.97 52.27C110.317 51.8433 110.657 51.77 110.99 52.05C111.23 52.2548 111.534 52.3109 111.75 52.19C114.343 50.69 117.097 49.5433 120.01 48.75C120.298 48.6684 120.524 48.447 120.616 48.1577C120.707 47.8684 120.653 47.5478 120.47 47.3L115.46 40.53C115.347 40.3785 115.175 40.2828 114.991 40.2693C114.806 40.2557 114.63 40.3257 114.51 40.46C110.47 45.0067 105.89 48.6767 100.77 51.47C97.5633 53.2167 95.91 54.1167 95.81 54.17C93.5833 55.43 91.3133 56.61 89 57.71ZM100.83 66.09C99.2967 67.5167 97.0833 69.1333 94.19 70.94C91.81 72.42 89.8167 74.7367 88.21 77.89C87.63 79.0233 87.89 79.3567 88.99 78.89C89.25 78.7833 89.5067 78.5967 89.76 78.33C90.82 77.1833 92.2133 76.22 93.94 75.44C100.833 72.32 107.787 68.45 114.8 63.83C115.287 63.5033 116.857 62.6067 119.51 61.14C121.117 60.2467 122.597 59.17 123.95 57.91C124.189 57.6842 124.338 57.386 124.37 57.07C124.557 55.0033 124.16 52.95 123.18 50.91C123.123 50.7892 123.018 50.6974 122.89 50.6559C122.761 50.6144 122.621 50.6267 122.5 50.69C114.4 55.05 107.177 60.1833 100.83 66.09ZM103 58.66C102.88 59.0933 102.963 59.4367 103.25 59.69C103.446 59.8541 103.781 59.8164 104.05 59.6L110.09 54.78C110.37 54.5598 110.491 54.2379 110.38 54.01C110.173 53.59 109.747 53.6233 109.1 54.11C107.313 55.4367 105.483 56.7033 103.61 57.91C103.296 58.122 103.078 58.3899 103 58.66ZM94.7895 66.7553C95.6193 67.4418 97.6533 66.3528 99.3325 64.323C101.012 62.2932 101.7 60.0912 100.871 59.4047C100.041 58.7182 98.0067 59.8072 96.3275 61.837C94.6483 63.8668 93.9597 66.0688 94.7895 66.7553ZM32.75 68.29C31.7033 69.8167 30.94 71.47 30.46 73.25C29.8133 75.6033 29.4867 76.7933 29.48 76.82C29.3133 78.2333 29.9867 79.4467 31.5 80.46C32.6067 81.9467 34.0033 82.6267 35.69 82.5C35.9958 82.4746 36.286 82.3113 36.49 82.05C39.2567 78.4767 41.46 74.2767 43.1 69.45C43.1552 69.2881 43.1388 69.1104 43.0547 68.9614C42.9707 68.8125 42.8271 68.7064 42.66 68.67C39 67.9033 35.6967 67.7767 32.75 68.29ZM54.07 68.56C51.6033 68.3467 49.14 68.37 46.68 68.63C46.3816 68.6597 46.1251 68.8618 46.02 69.15C44.3933 73.6567 42.3333 78.2167 39.84 82.83C39.7119 83.0626 39.7128 83.3456 39.8423 83.5738C39.9719 83.8021 40.2107 83.9414 40.47 83.94L58.2 83.96C58.4888 83.9601 58.7246 83.7288 58.73 83.44L58.94 69.86C58.9447 69.288 58.4645 68.8167 57.86 68.8C56.7867 68.7667 55.5233 68.6867 54.07 68.56ZM90.91 69.36C90.1033 70.6733 90.2433 71.2033 91.33 70.95C91.6392 70.8788 91.9179 70.6822 92.11 70.4C92.87 69.2467 92.7233 68.73 91.67 68.85C91.3661 68.8886 91.0868 69.0761 90.91 69.36ZM95.54 147C95.7667 136.54 95.77 126.077 95.55 115.61C95.55 115.55 95.5733 114.143 95.62 111.39C95.6667 108.717 95.2733 106.523 94.44 104.81C91.3933 98.5833 86.6267 92.7533 80.14 87.32C79.8869 87.1125 79.5744 86.9931 79.25 86.98C74.6567 86.8 70.0367 87.01 65.39 87.61C55.2033 89.0567 45.0467 88.8533 34.92 87C32.3733 86.54 30.5733 85.8933 29.52 85.06C28.0333 83.8933 26.91 82.2033 26.15 79.99C25.8033 78.97 25.28 78.8733 24.58 79.7C19.5067 85.7067 14.9133 91.75 10.8 97.83C9.93333 99.1167 9.74667 100.497 10.24 101.97C10.6333 103.123 10.9433 104.383 11.17 105.75C11.35 106.803 11.4233 108.1 11.39 109.64C10.93 132.813 12.9533 155.77 17.46 178.51C18.1267 181.857 20.2233 183.853 23.75 184.5C41.73 187.78 59.3433 188.487 76.59 186.62C79.01 186.36 81.0933 186.007 82.84 185.56C84.9 185.033 86.9233 184.38 88.91 183.6C90.9633 182.8 92.16 181.517 92.5 179.75C94.36 170.123 95.3733 159.207 95.54 147ZM95.46 97.75C96.8933 99.8367 97.9967 102.103 98.77 104.55C98.8103 104.673 98.9107 104.767 99.0362 104.8C99.1617 104.832 99.2951 104.798 99.39 104.71C101.697 102.557 103.573 100.23 105.02 97.73C106.387 95.3767 106.047 93.37 104 91.71C99.94 88.2967 95.4 85.7833 90.38 84.17C89.3667 83.8433 88.43 83.6833 87.57 83.69C84.5567 83.7167 84.2533 84.9367 86.66 87.35C89.8733 90.5767 92.8067 94.0433 95.46 97.75Z" fill="#300705" fill-rule="nonzero" opacity="1" stroke="none" vectornator:layerName="path"/>
<path d="M66.5 8.79C61.6 22.6033 56.7867 36.4433 52.06 50.31C49.8733 56.73 48.55 61.53 48.09 64.71L42.06 64.28C41.9279 64.2689 41.8069 64.2003 41.7254 64.0904C41.644 63.9806 41.6095 63.8393 41.63 63.7C41.95 61.2733 42.6367 58.3533 43.69 54.94C47.27 43.2867 50.8733 31.64 54.5 20C56.4467 13.74 60.4467 10.0033 66.5 8.79Z" fill="#ffd774" fill-rule="nonzero" opacity="1" stroke="none" vectornator:layerName="path"/>
<path d="M66.5 8.79C70.0733 8.47667 73.3433 9.44333 76.31 11.69C78.5233 13.3633 79.22 15.54 78.4 18.22C73.8267 33.1667 68.8267 48.3433 63.4 63.75C63.1375 64.4915 62.409 64.9825 61.59 64.97L48.09 64.71C48.55 61.53 49.8733 56.73 52.06 50.31C56.7867 36.4433 61.6 22.6033 66.5 8.79Z" fill="#f9ba4f" fill-rule="nonzero" opacity="1" stroke="none" vectornator:layerName="path"/>
<path d="M91.59 61.63C89.8767 62.3433 88.9967 62.0533 88.95 60.76C88.9433 60.64 89.0867 60.1667 89.38 59.34C89.5733 58.7867 89.4467 58.2433 89 57.71C91.3133 56.61 93.5833 55.43 95.81 54.17C95.91 54.1167 97.5633 53.2167 100.77 51.47C105.89 48.6767 110.47 45.0067 114.51 40.46C114.63 40.3257 114.806 40.2557 114.991 40.2693C115.175 40.2828 115.347 40.3785 115.46 40.53L120.47 47.3C120.653 47.5478 120.707 47.8684 120.616 48.1577C120.524 48.447 120.298 48.6684 120.01 48.75C117.097 49.5433 114.343 50.69 111.75 52.19C111.534 52.3109 111.23 52.2548 110.99 52.05C110.657 51.77 110.317 51.8433 109.97 52.27C109.736 52.5564 109.474 52.7591 109.22 52.85C102.953 55.0433 97.0767 57.97 91.59 61.63Z" fill="#89d18c" fill-rule="nonzero" opacity="1" stroke="none" vectornator:layerName="path"/>
<path d="M100.83 66.09C107.177 60.1833 114.4 55.05 122.5 50.69C122.621 50.6267 122.761 50.6144 122.89 50.6559C123.018 50.6974 123.123 50.7892 123.18 50.91C124.16 52.95 124.557 55.0033 124.37 57.07C124.338 57.386 124.189 57.6842 123.95 57.91C122.597 59.17 121.117 60.2467 119.51 61.14C116.857 62.6067 115.287 63.5033 114.8 63.83C107.787 68.45 100.833 72.32 93.94 75.44C92.2133 76.22 90.82 77.1833 89.76 78.33C89.5067 78.5967 89.25 78.7833 88.99 78.89C87.89 79.3567 87.63 79.0233 88.21 77.89C89.8167 74.7367 91.81 72.42 94.19 70.94C97.0833 69.1333 99.2967 67.5167 100.83 66.09Z" fill="#f53659" fill-rule="nonzero" opacity="1" stroke="none" vectornator:layerName="path"/>
<path d="M103.61 57.91C105.483 56.7033 107.313 55.4367 109.1 54.11C109.747 53.6233 110.173 53.59 110.38 54.01C110.491 54.2379 110.37 54.5598 110.09 54.78L104.05 59.6C103.781 59.8164 103.446 59.8541 103.25 59.69C102.963 59.4367 102.88 59.0933 103 58.66C103.078 58.3899 103.296 58.122 103.61 57.91Z" fill="#612834" fill-rule="nonzero" opacity="1" stroke="none" vectornator:layerName="path"/>
<path d="M89 57.71C89.4467 58.2433 89.5733 58.7867 89.38 59.34C89.0867 60.1667 88.9433 60.64 88.95 60.76C88.9967 62.0533 89.8767 62.3433 91.59 61.63C90.53 62.31 90 63.5633 90 65.39C90.0003 66.1541 89.7611 66.9482 89.31 67.68L81.16 80.92C80.8426 81.4353 80.3107 81.7468 79.76 81.74L73.25 81.71L73.71 77C74.2833 74.58 75.18 72.3133 76.4 70.2C78.0333 67.3667 79.3 65.3067 80.2 64.02C82.3067 60.9933 85.24 58.89 89 57.71Z" fill="#d46230" fill-rule="nonzero" opacity="1" stroke="none" vectornator:layerName="path"/>
<path d="M100.871 59.4047C101.7 60.0911 101.012 62.2931 99.3325 64.323C97.6533 66.3528 95.6193 67.4418 94.7895 66.7553C93.9597 66.0689 94.6483 63.8669 96.3275 61.837C98.0067 59.8072 100.041 58.7182 100.871 59.4047Z" fill="#ffffff" fill-rule="nonzero" opacity="1" stroke="none" vectornator:layerName="ellipse"/>
<path d="M31.5 80.46C31.4333 79.18 31.56 77.94 31.88 76.74C32.2867 75.2267 32.5 74.03 32.52 73.15C32.5533 71.53 32.63 69.91 32.75 68.29C35.6967 67.7767 39 67.9033 42.66 68.67C42.8271 68.7064 42.9707 68.8125 43.0547 68.9614C43.1388 69.1104 43.1552 69.2881 43.1 69.45C41.46 74.2767 39.2567 78.4767 36.49 82.05C36.286 82.3113 35.9958 82.4746 35.69 82.5C34.0033 82.6267 32.6067 81.9467 31.5 80.46Z" fill="#fe906d" fill-rule="nonzero" opacity="1" stroke="none" vectornator:layerName="path"/>
<path d="M32.75 68.29C32.63 69.91 32.5533 71.53 32.52 73.15C32.5 74.03 32.2867 75.2267 31.88 76.74C31.56 77.94 31.4333 79.18 31.5 80.46C29.9867 79.4467 29.3133 78.2333 29.48 76.82C29.4867 76.7933 29.8133 75.6033 30.46 73.25C30.94 71.47 31.7033 69.8167 32.75 68.29Z" fill="#e0523d" fill-rule="nonzero" opacity="1" stroke="none" vectornator:layerName="path"/>
<path d="M54.07 68.56C55.5233 68.6867 56.7867 68.7667 57.86 68.8C58.4645 68.8167 58.9447 69.288 58.94 69.86L58.73 83.44C58.7246 83.7288 58.4888 83.9601 58.2 83.96L40.47 83.94C40.2107 83.9414 39.9719 83.8021 39.8423 83.5738C39.7128 83.3456 39.7119 83.0626 39.84 82.83C42.3333 78.2167 44.3933 73.6567 46.02 69.15C46.1251 68.8618 46.3816 68.6597 46.68 68.63C49.14 68.37 51.6033 68.3467 54.07 68.56Z" fill="#fa6653" fill-rule="nonzero" opacity="1" stroke="none" vectornator:layerName="path"/>
<path d="M91.67 68.85C92.7233 68.73 92.87 69.2467 92.11 70.4C91.9179 70.6822 91.6392 70.8788 91.33 70.95C90.2433 71.2033 90.1033 70.6733 90.91 69.36C91.0868 69.0761 91.3661 68.8886 91.67 68.85Z" fill="#612834" fill-rule="nonzero" opacity="1" stroke="none" vectornator:layerName="path"/>
<path d="M72.71 76.25L71.75 81.71L64.02 82.26C63.7181 82.2847 63.4458 82.0729 63.39 81.77C62.6233 77.6633 62.3367 73.76 62.53 70.06C62.5459 69.8056 62.7786 69.6081 63.06 69.61L72.81 69.49C72.9527 69.4913 73.0891 69.5418 73.186 69.6292C73.2829 69.7166 73.3315 69.833 73.32 69.95L72.71 76.25Z" fill="#e0523d" fill-rule="nonzero" opacity="1" stroke="none" vectornator:layerName="path"/>
<path d="M72.71 76.25C72.6167 76.9367 72.95 77.1867 73.71 77L73.25 81.71C72.7767 82.0567 72.2767 82.0567 71.75 81.71L72.71 76.25Z" fill="#612834" fill-rule="nonzero" opacity="1" stroke="none" vectornator:layerName="path"/>
<path d="M65.39 87.61C69.5567 91.3233 73.0533 95.52 75.88 100.2C78.1933 104.02 80.62 108.863 83.16 114.73C85.8667 120.957 87.77 127.47 88.87 134.27C89.6167 138.857 90.3033 143.447 90.93 148.04C90.9567 148.233 91.0333 148.257 91.16 148.11C92.1667 146.91 93.3533 146.037 94.72 145.49C94.846 145.437 94.9884 145.44 95.107 145.499C95.2257 145.557 95.3077 145.664 95.33 145.79L95.54 147C95.3733 159.207 94.36 170.123 92.5 179.75C92.16 181.517 90.9633 182.8 88.91 183.6C86.9233 184.38 84.9 185.033 82.84 185.56C81.0933 186.007 79.01 186.36 76.59 186.62C59.3433 188.487 41.73 187.78 23.75 184.5C20.2233 183.853 18.1267 181.857 17.46 178.51C12.9533 155.77 10.93 132.813 11.39 109.64C11.4233 108.1 11.35 106.803 11.17 105.75C10.9433 104.383 10.6333 103.123 10.24 101.97C9.74667 100.497 9.93333 99.1167 10.8 97.83C14.9133 91.75 19.5067 85.7067 24.58 79.7C25.28 78.8733 25.8033 78.97 26.15 79.99C26.91 82.2033 28.0333 83.8933 29.52 85.06C30.5733 85.8933 32.3733 86.54 34.92 87C45.0467 88.8533 55.2033 89.0567 65.39 87.61ZM25.49 90.97C22.5033 95.49 19.97 100.417 17.89 105.75C17.4967 106.757 17.4133 107.793 17.64 108.86C17.8867 110 18.41 110.493 19.21 110.34C19.4909 110.284 19.7433 110.051 19.88 109.72C23.1667 101.907 26.52 95.8133 29.94 91.44C32.1 88.6667 31.72 87.06 28.8 86.62C28.5086 86.5769 28.2143 86.7181 28.05 86.98C27.2167 88.3267 26.3633 89.6567 25.49 90.97ZM55.56 168.03C53.9467 166.91 52.2867 166.837 50.58 167.81C46.46 170.143 45.2733 173.423 47.02 177.65C47.3133 178.35 47.73 178.847 48.27 179.14C48.8833 179.473 49.55 179.64 50.27 179.64C51.83 179.647 52.65 179.653 52.73 179.66C56.85 179.993 59.1733 178.023 59.7 173.75C59.7391 173.424 59.6799 173.093 59.53 172.8C58.4967 170.747 57.1733 169.157 55.56 168.03ZM33.84 178.21L34.5 173.82C34.6095 173.064 34.0833 172.289 33.23 171.95C30.3567 170.817 27.78 170.853 25.5 172.06C25.2225 172.212 25.0333 172.487 24.99 172.8C24.2167 178.727 26.96 180.747 33.22 178.86C33.5507 178.757 33.7908 178.505 33.84 178.21ZM43.58 172.2C41.0867 171.007 38.72 171.117 36.48 172.53C36.2089 172.704 36.0071 172.97 35.91 173.28C35.3367 175.227 35.1933 177.2 35.48 179.2C35.5286 179.5 35.7509 179.746 36.05 179.83C39.1967 180.717 42.4067 181.017 45.68 180.73C45.8064 180.721 45.9228 180.658 45.9979 180.558C46.0731 180.458 46.0995 180.33 46.07 180.21L44.39 173.19C44.2824 172.754 43.9847 172.39 43.58 172.2ZM72.15 171.9C70.09 171.373 67.6233 171.387 64.75 171.94C63.8384 172.116 63.1056 172.618 62.78 173.29L60.03 178.89C59.8962 179.161 59.9068 179.481 60.0586 179.759C60.2105 180.038 60.4871 180.244 60.81 180.32C63.6233 180.973 66.9133 180.89 70.68 180.07C71.4006 179.913 71.9989 179.408 72.28 178.72C72.92 177.127 73.2433 175.327 73.25 173.32C73.2559 172.652 72.8017 172.066 72.15 171.9ZM83.0199 173.984C82.9704 172.566 81.7803 171.456 80.3617 171.505L77.0837 171.62C75.6652 171.669 74.5555 172.859 74.605 174.278L74.7201 177.576C74.7696 178.994 75.9597 180.104 77.3783 180.055L80.6563 179.94C82.0748 179.891 83.1845 178.701 83.135 177.282L83.0199 173.984Z" fill="#f9594b" fill-rule="nonzero" opacity="1" stroke="none" vectornator:layerName="path"/>
<path d="M104 91.71C102.873 91.8367 102.707 92.2667 103.5 93C104.493 93.9133 104.577 95.2467 103.75 97C102.87 98.8667 101.593 100.36 99.92 101.48C99.8003 101.559 99.6563 101.589 99.5206 101.565C99.385 101.54 99.2694 101.463 99.2 101.35L96.92 97.75C96.7081 97.4193 96.4379 97.2054 96.2 97.18C95.8 97.14 95.5533 97.33 95.46 97.75C92.8067 94.0433 89.8733 90.5767 86.66 87.35C84.2533 84.9367 84.5567 83.7167 87.57 83.69C88.43 83.6833 89.3667 83.8433 90.38 84.17C95.4 85.7833 99.94 88.2967 104 91.71Z" fill="#ad7c30" fill-rule="nonzero" opacity="1" stroke="none" vectornator:layerName="path"/>
<path d="M25.49 90.97C26.3633 89.6567 27.2167 88.3267 28.05 86.98C28.2143 86.7181 28.5086 86.5769 28.8 86.62C31.72 87.06 32.1 88.6667 29.94 91.44C26.52 95.8133 23.1667 101.907 19.88 109.72C19.7433 110.051 19.4909 110.284 19.21 110.34C18.41 110.493 17.8867 110 17.64 108.86C17.4133 107.793 17.4967 106.757 17.89 105.75C19.97 100.417 22.5033 95.49 25.49 90.97Z" fill="#ffffff" fill-rule="nonzero" opacity="1" stroke="none" vectornator:layerName="path"/>
<path d="M95.54 147L95.33 145.79C95.3077 145.664 95.2257 145.557 95.107 145.499C94.9884 145.44 94.846 145.437 94.72 145.49C93.3533 146.037 92.1667 146.91 91.16 148.11C91.0333 148.257 90.9567 148.233 90.93 148.04C90.3033 143.447 89.6167 138.857 88.87 134.27C87.77 127.47 85.8667 120.957 83.16 114.73C80.62 108.863 78.1933 104.02 75.88 100.2C73.0533 95.52 69.5567 91.3233 65.39 87.61C70.0367 87.01 74.6567 86.8 79.25 86.98C79.5744 86.9931 79.8869 87.1125 80.14 87.32C86.6267 92.7533 91.3933 98.5833 94.44 104.81C95.2733 106.523 95.6667 108.717 95.62 111.39C95.5733 114.143 95.55 115.55 95.55 115.61C95.77 126.077 95.7667 136.54 95.54 147Z" fill="#e03c34" fill-rule="nonzero" opacity="1" stroke="none" vectornator:layerName="path"/>
<path d="M104 91.71C106.047 93.37 106.387 95.3767 105.02 97.73C103.573 100.23 101.697 102.557 99.39 104.71C99.2951 104.798 99.1617 104.832 99.0362 104.8C98.9107 104.767 98.8103 104.673 98.77 104.55C97.9967 102.103 96.8933 99.8367 95.46 97.75C95.5533 97.33 95.8 97.14 96.2 97.18C96.4379 97.2054 96.7081 97.4193 96.92 97.75L99.2 101.35C99.2694 101.463 99.385 101.54 99.5206 101.565C99.6563 101.589 99.8003 101.559 99.92 101.48C101.593 100.36 102.87 98.8667 103.75 97C104.577 95.2467 104.493 93.9133 103.5 93C102.707 92.2667 102.873 91.8367 104 91.71Z" fill="#cb9e52" fill-rule="nonzero" opacity="1" stroke="none" vectornator:layerName="path"/>
<path d="M55.56 168.03C57.1733 169.157 58.4967 170.747 59.53 172.8C59.6799 173.093 59.7391 173.424 59.7 173.75C59.1733 178.023 56.85 179.993 52.73 179.66C52.65 179.653 51.83 179.647 50.27 179.64C49.55 179.64 48.8833 179.473 48.27 179.14C47.73 178.847 47.3133 178.35 47.02 177.65C45.2733 173.423 46.46 170.143 50.58 167.81C52.2867 166.837 53.9467 166.91 55.56 168.03Z" fill="#ffffff" fill-rule="nonzero" opacity="1" stroke="none" vectornator:layerName="path"/>
<path d="M33.84 178.21C33.7908 178.505 33.5507 178.757 33.22 178.86C26.96 180.747 24.2167 178.727 24.99 172.8C25.0333 172.487 25.2225 172.212 25.5 172.06C27.78 170.853 30.3567 170.817 33.23 171.95C34.0833 172.289 34.6095 173.064 34.5 173.82L33.84 178.21Z" fill="#ffffff" fill-rule="nonzero" opacity="1" stroke="none" vectornator:layerName="path"/>
<path d="M43.58 172.2C43.9847 172.39 44.2824 172.754 44.39 173.19L46.07 180.21C46.0995 180.33 46.0731 180.458 45.9979 180.558C45.9228 180.658 45.8064 180.721 45.68 180.73C42.4067 181.017 39.1967 180.717 36.05 179.83C35.7509 179.746 35.5286 179.5 35.48 179.2C35.1933 177.2 35.3367 175.227 35.91 173.28C36.0071 172.97 36.2089 172.704 36.48 172.53C38.72 171.117 41.0867 171.007 43.58 172.2Z" fill="#ffffff" fill-rule="nonzero" opacity="1" stroke="none" vectornator:layerName="path"/>
<path d="M72.15 171.9C72.8017 172.066 73.2559 172.652 73.25 173.32C73.2433 175.327 72.92 177.127 72.28 178.72C71.9989 179.408 71.4006 179.913 70.68 180.07C66.9133 180.89 63.6233 180.973 60.81 180.32C60.4871 180.244 60.2105 180.038 60.0586 179.759C59.9068 179.481 59.8962 179.161 60.03 178.89L62.78 173.29C63.1056 172.618 63.8384 172.116 64.75 171.94C67.6233 171.387 70.09 171.373 72.15 171.9Z" fill="#ffffff" fill-rule="nonzero" opacity="1" stroke="none" vectornator:layerName="path"/>
<path d="M77.0837 171.62L80.3617 171.505C81.7802 171.456 82.9703 172.566 83.0199 173.984L83.135 177.282C83.1846 178.701 82.0748 179.891 80.6563 179.94L77.3783 180.055C75.9598 180.104 74.7697 178.994 74.7202 177.576L74.605 174.278C74.5554 172.859 75.6652 171.669 77.0837 171.62Z" fill="#ffffff" fill-rule="nonzero" opacity="1" stroke="none" vectornator:layerName="rect"/>
</g>
</svg>
