<?xml version="1.0" encoding="UTF-8" standalone="no"?>
<!DOCTYPE svg PUBLIC "-//W3C//DTD SVG 1.1//EN" "http://www.w3.org/Graphics/SVG/1.1/DTD/svg11.dtd">
<!-- Created with Vectornator (http://vectornator.io/) -->
<svg height="100%" stroke-miterlimit="10" style="fill-rule:nonzero;clip-rule:evenodd;stroke-linecap:round;stroke-linejoin:round;" version="1.1" viewBox="0 0 138 192" width="100%" xml:space="preserve" xmlns="http://www.w3.org/2000/svg" xmlns:vectornator="http://vectornator.io" xmlns:xlink="http://www.w3.org/1999/xlink">
<defs/>
<g id="名称未設定" vectornator:layerName="名称未設定">
<g opacity="1" vectornator:layerName="g">
<path d="M111.78 31.69L110.5 14.74C110.36 12.8667 109.627 11.2567 108.3 9.91C106.407 7.99667 104.097 6.58333 101.37 5.67C99.57 5.07 96.9533 4.74 93.52 4.68C78.8467 4.44 64.1733 4.28667 49.5 4.22C45.24 4.20667 41.74 4.63333 39 5.5C34.0333 7.07333 31.3033 10.66 30.81 16.26C30.3633 21.3333 30.1733 26.4167 30.24 31.51C30.2466 31.8272 30.1407 32.1414 29.94 32.4C28.4267 34.3067 26.91 36.2133 25.39 38.12C23.8567 40.0467 22.05 41.9167 19.97 43.73C16.2233 47.0167 13.2533 49.8767 11.06 52.31C9.38 54.1833 8.05667 56.37 7.09 58.87C6.37 60.75 5.98667 63.2233 5.94 66.29C5.45333 95.5633 5.30333 124.84 5.49 154.12C5.49 154.2 5.46667 155.283 5.42 157.37C5.36 160.21 5.72 162.67 6.5 164.75C8.31333 169.597 11.21 174.533 15.19 179.56C19.3633 184.84 25.1333 187.493 32.5 187.52C52.58 187.593 72.66 187.667 92.74 187.74C92.8 187.74 93.8033 187.777 95.75 187.85C99.79 187.997 103.6 187.107 107.18 185.18C114.027 181.487 120.033 176.77 125.2 171.03C127.447 168.53 128.863 166.893 129.45 166.12C130.797 164.353 131.847 162.437 132.6 160.37C133.367 158.263 133.753 155.13 133.76 150.97C133.813 126.657 133.74 102.343 133.54 78.03C133.54 77.9433 133.543 75.09 133.55 69.47C133.557 63.5167 133.29 59.36 132.75 57C132.237 54.76 131.467 52.8633 130.44 51.31C129.587 50.0367 128.273 48.2967 126.5 46.09C125.193 44.4633 123.7 42.8867 122.02 41.36C118.767 38.3933 115.49 35.45 112.19 32.53C111.952 32.3117 111.806 32.0117 111.78 31.69" fill="none" opacity="1" stroke="#9c8181" stroke-linecap="butt" stroke-linejoin="miter" stroke-width="2" vectornator:layerName="path"/>
<path d="M68.25 32.21C72.0967 32.3767 75.93 32.21 79.75 31.71" fill="none" opacity="1" stroke="#9c807b" stroke-linecap="butt" stroke-linejoin="miter" stroke-width="2" vectornator:layerName="path"/>
<path d="M79.75 31.71C80.7033 31.8367 81.5667 31.6533 82.34 31.16C82.3733 31.14 82.6433 30.8667 83.15 30.34C83.55 29.9333 84.04 29.8567 84.62 30.11" fill="none" opacity="1" stroke="#512114" stroke-linecap="butt" stroke-linejoin="miter" stroke-width="2" vectornator:layerName="path"/>
<path d="M84.62 30.11C86.3133 34.1233 89.01 35.91 92.71 35.47C94.5033 35.2567 95.4267 34.23 95.48 32.39L96 14.21C96.0176 13.698 95.6307 13.2666 95.13 13.24C88.0233 12.8867 80.89 12.66 73.73 12.56C73.23 12.5533 68.58 12.62 59.78 12.76C55.1267 12.84 50.4733 12.7167 45.82 12.39C44.2133 12.2767 43.0133 12.3367 42.22 12.57C40.94 12.9433 39.8933 13.62 39.08 14.6C38.2333 15.6133 37.74 17.2033 37.6 19.37C37.3067 23.8633 37.48 28.3467 38.12 32.82C38.1613 33.1217 38.3805 33.3649 38.67 33.43C40.5633 33.8433 42.9233 33.7833 45.75 33.25C49.3233 32.5767 56.8233 32.23 68.25 32.21" fill="none" opacity="1" stroke="#754d42" stroke-linecap="butt" stroke-linejoin="miter" stroke-width="2" vectornator:layerName="path"/>
<path d="M84.62 30.11L85.18 25C85.2202 24.6216 85.0799 24.2941 84.85 24.23C84.67 24.1767 84.47 24.1967 84.25 24.29" fill="none" opacity="1" stroke="#8c6c54" stroke-linecap="butt" stroke-linejoin="miter" stroke-width="2" vectornator:layerName="path"/>
<path d="M84.25 24.29C84.13 23.4367 83.8567 22.67 83.43 21.99C83.03 21.3633 82.4033 20.93 81.55 20.69C78.9833 19.9767 76.3933 20.0267 73.78 20.84C71.6533 21.5 70.3933 22.8033 70 24.75C69.4933 27.2567 68.91 29.7433 68.25 32.21" fill="none" opacity="1" stroke="#d7cbbb" stroke-linecap="butt" stroke-linejoin="miter" stroke-width="2" vectornator:layerName="path"/>
<path d="M84.25 24.29C84.7833 28.0833 83.2833 30.5567 79.75 31.71" fill="none" opacity="1" stroke="#b39f8d" stroke-linecap="butt" stroke-linejoin="miter" stroke-width="2" vectornator:layerName="path"/>
<path d="M102.79 26C102.75 28.3067 102.4 30.5433 101.74 32.71C101.34 34.0233 100.55 35.3533 99.37 36.7C98.33 37.8867 97.31 39.09 96.31 40.31C95.53 41.27 94.4267 41.6533 93 41.46" fill="none" opacity="1" stroke="#755957" stroke-linecap="butt" stroke-linejoin="miter" stroke-width="2" vectornator:layerName="path"/>
<path d="M93 41.46C81.7533 40.6133 70.4867 40.3967 59.2 40.81" fill="none" opacity="1" stroke="#6a3f37" stroke-linecap="butt" stroke-linejoin="miter" stroke-width="2" vectornator:layerName="path"/>
<path d="M59.2 40.81C51.2467 40.1967 45.5967 40.1767 42.25 40.75C40.33 41.0767 38.6767 40.7067 37.29 39.64C36.5217 39.0454 35.4935 38.9045 34.59 39.27C32.2767 40.19 30.7633 41.6267 30.05 43.58C29.9778 43.7858 30.0056 44.0134 30.1252 44.1957C30.2448 44.3781 30.4425 44.4943 30.66 44.51C38.4933 45.03 46.3567 45.3467 54.25 45.46C58.23 45.52 64.8933 45.68 74.24 45.94C81.4067 46.14 88.5733 46.09 95.74 45.79C98.62 45.67 100.52 44.6367 101.44 42.69C103.687 37.93 104.277 32.3667 103.21 26" fill="none" opacity="1" stroke="#755957" stroke-linecap="butt" stroke-linejoin="miter" stroke-width="2" vectornator:layerName="path"/>
<path d="M103.21 26C103.41 23.8 103.487 22.4867 103.44 22.06C103.387 21.5867 103.253 21.4 103.04 21.5C102.821 21.6038 102.684 21.8428 102.69 22.11L102.79 26" fill="none" opacity="1" stroke="#512114" stroke-linecap="butt" stroke-linejoin="miter" stroke-width="2" vectornator:layerName="path"/>
<path d="M103.21 26L102.79 26" fill="none" opacity="1" stroke="#8d7869" stroke-linecap="butt" stroke-linejoin="miter" stroke-width="2" vectornator:layerName="path"/>
<path d="M59.2 40.81L93 41.46" fill="none" opacity="1" stroke="#a6968c" stroke-linecap="butt" stroke-linejoin="miter" stroke-width="2" vectornator:layerName="path"/>
<path d="M105.25 50.21C102.643 51.8033 99.8933 53.08 97 54.04" fill="none" opacity="1" stroke="#855547" stroke-linecap="butt" stroke-linejoin="miter" stroke-width="2" vectornator:layerName="path"/>
<path d="M97 54.04L89 54.29" fill="none" opacity="1" stroke="#76402a" stroke-linecap="butt" stroke-linejoin="miter" stroke-width="2" vectornator:layerName="path"/>
<path d="M89 54.29L28.25 53.29" fill="none" opacity="1" stroke="#62321e" stroke-linecap="butt" stroke-linejoin="miter" stroke-width="2" vectornator:layerName="path"/>
<path d="M28.25 53.29C26.7633 52.89 25.65 52.1233 24.91 50.99C24.7542 50.7542 24.4938 50.6086 24.2069 50.5968C23.9199 50.5851 23.6397 50.7084 23.45 50.93L16.05 59.57C15.23 60.5367 14.79 61.5767 14.73 62.69C14.6433 64.25 14.5433 65.8733 14.43 67.56C14.31 69.2667 14.25 70.8933 14.25 72.44C14.25 88.0133 14.25 103.587 14.25 119.16C14.25 119.193 14.1867 124.917 14.06 136.33C13.9933 142.47 14.07 148.61 14.29 154.75" fill="none" opacity="1" stroke="#76402a" stroke-linecap="butt" stroke-linejoin="miter" stroke-width="2" vectornator:layerName="path"/>
<path d="M14.29 154.75C14.03 157.617 14.6133 160.283 16.04 162.75" fill="none" opacity="1" stroke="#895a4d" stroke-linecap="butt" stroke-linejoin="miter" stroke-width="2" vectornator:layerName="path"/>
<path d="M16.04 162.75C16.38 163.737 16.9367 164.57 17.71 165.25" fill="none" opacity="1" stroke="#76402a" stroke-linecap="butt" stroke-linejoin="miter" stroke-width="2" vectornator:layerName="path"/>
<path d="M17.71 165.25C18.63 170.63 21.21 174.447 25.45 176.7C27.35 177.707 30.1467 178.287 33.84 178.44C53.1067 179.233 72.4333 179.367 91.82 178.84" fill="none" opacity="1" stroke="#9c807b" stroke-linecap="butt" stroke-linejoin="miter" stroke-width="2" vectornator:layerName="path"/>
<path d="M91.82 178.84C95.94 179.733 99.75 178.94 103.25 176.46" fill="none" opacity="1" stroke="#895a4d" stroke-linecap="butt" stroke-linejoin="miter" stroke-width="2" vectornator:layerName="path"/>
<path d="M103.25 176.46C105.723 176.293 107.89 175.403 109.75 173.79" fill="none" opacity="1" stroke="#512114" stroke-linecap="butt" stroke-linejoin="miter" stroke-width="2" vectornator:layerName="path"/>
<path d="M109.75 173.79C114.157 170.837 117.597 167.007 120.07 162.3C120.513 161.453 121.362 160.89 122.32 160.81C124.013 160.677 124.793 159.81 124.66 158.21C124.587 157.397 124.55 156.96 124.55 156.9C124.317 137.713 124.347 118.523 124.64 99.33C124.687 96.63 124.647 92.41 124.52 86.67C124.433 82.4433 124.47 78.2167 124.63 73.99C124.697 72.2767 124.68 70.45 124.58 68.51C124.493 66.6767 124.447 64.84 124.44 63C124.427 57.2467 122.317 52.4567 118.11 48.63C115.757 46.49 113.34 44.0967 110.86 41.45C110.808 41.397 110.733 41.3727 110.66 41.3846C110.586 41.3965 110.523 41.4432 110.49 41.51C109.07 44.5967 107.323 47.4967 105.25 50.21" fill="none" opacity="1" stroke="#6a3f37" stroke-linecap="butt" stroke-linejoin="miter" stroke-width="2" vectornator:layerName="path"/>
<path d="M109.75 173.79C109.27 173.31 108.687 173.117 108 173.21" fill="none" opacity="1" stroke="#825e49" stroke-linecap="butt" stroke-linejoin="miter" stroke-width="2" vectornator:layerName="path"/>
<path d="M108 173.21C109.78 170.95 110.863 168.13 111.25 164.75C111.983 158.35 112.383 153.6 112.45 150.5C112.77 134.92 112.857 119.337 112.71 103.75" fill="none" opacity="1" stroke="#ba9782" stroke-linecap="butt" stroke-linejoin="miter" stroke-width="2" vectornator:layerName="path"/>
<path d="M112.71 103.75C113.09 89.53 113.197 75.3067 113.03 61.08C113.01 59.2067 112.87 57.66 112.61 56.44C112.197 54.4933 111.64 53.0333 110.94 52.06C109.813 50.5133 107.917 49.8967 105.25 50.21" fill="none" opacity="1" stroke="#b6927c" stroke-linecap="butt" stroke-linejoin="miter" stroke-width="2" vectornator:layerName="path"/>
<path d="M112.71 103.75C112.663 102.923 112.453 102.173 112.08 101.5C111.927 101.22 111.767 101.223 111.6 101.51C111.36 101.923 111.147 101.993 110.96 101.72C110.603 101.187 110.085 100.778 109.48 100.55C107.447 99.79 106.217 98.8967 105.79 97.87C105.123 96.2433 104.06 94.9833 102.6 94.09C102.307 93.91 101.957 93.62 101.55 93.22C100.883 92.58 100.347 92.6833 99.94 93.53C99.7667 93.8833 99.67 93.8767 99.65 93.51L99.46 90.25" fill="none" opacity="1" stroke="#d4ad91" stroke-linecap="butt" stroke-linejoin="miter" stroke-width="2" vectornator:layerName="path"/>
<path d="M99.46 90.25C99.96 78.4833 100.057 70.65 99.75 66.75C99.4633 63.0767 97.38 60.84 93.5 60.04" fill="none" opacity="1" stroke="#e7d1ba" stroke-linecap="butt" stroke-linejoin="miter" stroke-width="2" vectornator:layerName="path"/>
<path d="M93.5 60.04C93.7067 59.12 94.08 58.3 94.62 57.58C94.66 57.5333 95.1967 57.13 96.23 56.37C96.9167 55.8633 97.1733 55.0867 97 54.04" fill="none" opacity="1" stroke="#c1936f" stroke-linecap="butt" stroke-linejoin="miter" stroke-width="2" vectornator:layerName="path"/>
<path d="M108 173.21L103.25 176.46" fill="none" opacity="1" stroke="#a0795f" stroke-linecap="butt" stroke-linejoin="miter" stroke-width="2" vectornator:layerName="path"/>
<path d="M93.5 60.04L90.25 59.71" fill="none" opacity="1" stroke="#d8bc9d" stroke-linecap="butt" stroke-linejoin="miter" stroke-width="2" vectornator:layerName="path"/>
<path d="M90.25 59.71C92.17 58.5433 91.7533 58.0433 89 58.21" fill="none" opacity="1" stroke="#8d5f3c" stroke-linecap="butt" stroke-linejoin="miter" stroke-width="2" vectornator:layerName="path"/>
<path d="M99.46 90.25L99.21 97" fill="none" opacity="1" stroke="#ebd6c0" stroke-linecap="butt" stroke-linejoin="miter" stroke-width="2" vectornator:layerName="path"/>
<path d="M85.5 108.21C86.5067 107.63 87 106.83 86.98 105.81C86.9775 105.677 86.9192 105.551 86.8179 105.459C86.7166 105.367 86.5807 105.317 86.44 105.32C80.8933 105.473 74.9333 106.887 68.56 109.56C67.3067 110.087 66.7033 111.107 66.75 112.62" fill="none" opacity="1" stroke="#e08a7a" stroke-linecap="butt" stroke-linejoin="miter" stroke-width="2" vectornator:layerName="path"/>
<path d="M63.79 111.75C63.87 110.563 63.62 109.567 63.04 108.76C62.5733 108.107 61.7467 107.703 60.56 107.55C51.22 106.337 41.8667 106.333 32.5 107.54" fill="none" opacity="1" stroke="#e08a7a" stroke-linecap="butt" stroke-linejoin="miter" stroke-width="2" vectornator:layerName="path"/>
<path d="M34.25 59.29C35.69 62.5567 34.9433 64.9867 32.01 66.58C31.7149 66.7467 31.5002 66.9972 31.41 67.28C30.6367 69.7933 30.3333 72.5333 30.5 75.5C30.78 80.3933 30.83 85.7333 30.65 91.52C30.5767 93.8733 30.65 96.36 30.87 98.98C31.0833 101.46 31.2267 103.943 31.3 106.43C31.3072 106.673 31.5156 106.894 31.81 106.97C32.1167 107.043 32.3467 107.233 32.5 107.54" fill="none" opacity="1" stroke="#fefcee" stroke-linecap="butt" stroke-linejoin="miter" stroke-width="2" vectornator:layerName="path"/>
<path d="M32.5 107.54C30.8667 111.447 30.44 115.5 31.22 119.7C31.2744 119.988 31.5175 120.202 31.81 120.22C41.95 120.927 52.1 121.02 62.26 120.5C62.9337 120.467 63.4722 119.881 63.5 119.15L63.79 111.75" fill="none" opacity="1" stroke="#e08c80" stroke-linecap="butt" stroke-linejoin="miter" stroke-width="2" vectornator:layerName="path"/>
<path d="M63.79 111.75C64.81 111.09 65.7967 111.38 66.75 112.62" fill="none" opacity="1" stroke="#fefcee" stroke-linecap="butt" stroke-linejoin="miter" stroke-width="2" vectornator:layerName="path"/>
<path d="M66.75 112.62C73.2967 112.307 79.5467 110.837 85.5 108.21" fill="none" opacity="1" stroke="#e08c80" stroke-linecap="butt" stroke-linejoin="miter" stroke-width="2" vectornator:layerName="path"/>
<path d="M85.5 108.21C88.5067 107.537 90.5067 106.55 91.5 105.25C92.7267 103.657 94.0067 102.11 95.34 100.61C95.38 100.563 95.8067 99.9933 96.62 98.9C97.2667 98.0267 98.13 97.3933 99.21 97" fill="none" opacity="1" stroke="#fefcee" stroke-linecap="butt" stroke-linejoin="miter" stroke-width="2" vectornator:layerName="path"/>
<path d="M99.21 97C99.2833 113.333 99.4633 129.667 99.75 146C99.7967 148.707 99.6267 153.957 99.24 161.75C98.98 167.137 98.7167 170.29 98.45 171.21C97.4833 174.557 95.2733 177.1 91.82 178.84" fill="none" opacity="1" stroke="#ebd8c6" stroke-linecap="butt" stroke-linejoin="miter" stroke-width="2" vectornator:layerName="path"/>
<path d="M17.96 133.5C17.2467 107.5 17.1767 86.6667 17.75 71C17.8233 68.9467 18.69 66.34 20.35 63.18" fill="none" opacity="1" stroke="#b39f8d" stroke-linecap="butt" stroke-linejoin="miter" stroke-width="2" vectornator:layerName="path"/>
<path d="M89 54.29C87.02 54.1367 86.5033 54.72 87.45 56.04C87.97 56.76 88.4867 57.4833 89 58.21" fill="none" opacity="1" stroke="#9f6f46" stroke-linecap="butt" stroke-linejoin="miter" stroke-width="2" vectornator:layerName="path"/>
<path d="M89 58.21C77.76 57.45 66.51 57.1367 55.25 57.27C47.5033 57.3567 39.7533 57.3533 32 57.26C31.7002 57.2536 31.3836 57.1458 31.09 56.95C30.2367 56.3833 29.29 56.0533 28.25 55.96" fill="none" opacity="1" stroke="#7a5130" stroke-linecap="butt" stroke-linejoin="miter" stroke-width="2" vectornator:layerName="path"/>
<path d="M90.25 59.71L34.25 59.29" fill="none" opacity="1" stroke="#b39d87" stroke-linecap="butt" stroke-linejoin="miter" stroke-width="2" vectornator:layerName="path"/>
<path d="M34.25 59.29C32.7033 59.3433 30.9333 59.1833 28.94 58.81C26.7467 58.4033 24.73 58.9133 22.89 60.34" fill="none" opacity="1" stroke="#b39f8d" stroke-linecap="butt" stroke-linejoin="miter" stroke-width="2" vectornator:layerName="path"/>
<path d="M28.25 53.29L28.25 55.96" fill="none" opacity="1" stroke="#9f6f46" stroke-linecap="butt" stroke-linejoin="miter" stroke-width="2" vectornator:layerName="path"/>
<path d="M28.25 55.96L22.89 60.34" fill="none" opacity="1" stroke="#8d5f3c" stroke-linecap="butt" stroke-linejoin="miter" stroke-width="2" vectornator:layerName="path"/>
<path d="M22.89 60.34L20.35 63.18" fill="none" opacity="1" stroke="#d8bda3" stroke-linecap="butt" stroke-linejoin="miter" stroke-width="2" vectornator:layerName="path"/>
<path d="M20.35 63.18C17.29 67 15.7567 70.8567 15.75 74.75C15.7233 93.5033 15.8133 112.85 16.02 132.79C16.0201 133.195 16.1384 133.588 16.36 133.92C17.1733 135.153 17.7067 135.013 17.96 133.5" fill="none" opacity="1" stroke="#8d5f3c" stroke-linecap="butt" stroke-linejoin="miter" stroke-width="2" vectornator:layerName="path"/>
<path d="M17.96 133.5L17.71 165.25" fill="none" opacity="1" stroke="#d8bda3" stroke-linecap="butt" stroke-linejoin="miter" stroke-width="2" vectornator:layerName="path"/>
<path d="M16.04 162.75C16.46 159.497 16.3367 156.267 15.67 153.06C15.6426 152.944 15.5624 152.848 15.4572 152.803C15.352 152.759 15.2362 152.772 15.15 152.84C14.59 153.3 14.3033 153.937 14.29 154.75" fill="none" opacity="1" stroke="#c59875" stroke-linecap="butt" stroke-linejoin="miter" stroke-width="2" vectornator:layerName="path"/>
<path d="M68.94 122.32C74.9067 122.413 80.51 121.033 85.75 118.18C86.0513 118.014 86.2703 117.759 86.36 117.47C86.6467 116.57 86.6467 115.673 86.36 114.78C86.2725 114.512 85.9876 114.35 85.69 114.4C79.7567 115.42 74.4233 116.933 69.69 118.94C68.2833 119.533 67.8033 120.5 68.25 121.84C68.3473 122.121 68.6226 122.313 68.94 122.32" fill="none" opacity="1" stroke="#e08c80" stroke-linecap="butt" stroke-linejoin="miter" stroke-width="2" vectornator:layerName="path"/>
<path d="M86.07 126.06C87.5167 125.28 87.42 124.85 85.78 124.77C84.0333 124.677 82.0433 125.023 79.81 125.81C75.8233 127.217 71.8033 128.53 67.75 129.75C67.4367 129.843 67.2367 129.96 67.15 130.1C66.95 130.407 67.1267 130.563 67.68 130.57C74.2067 130.643 80.3367 129.14 86.07 126.06" fill="none" opacity="1" stroke="#e08c80" stroke-linecap="butt" stroke-linejoin="miter" stroke-width="2" vectornator:layerName="path"/>
<path d="M39.58 137.24C38.2333 134.853 35.74 133.91 32.1 134.41C31.1555 134.539 30.4733 135.379 30.54 136.33C30.84 140.723 32.15 144.81 34.47 148.59C36.23 151.457 38.2833 153.53 40.63 154.81C43.19 156.203 46.1467 156.933 49.5 157C57.0133 157.153 63.7433 156.177 69.69 154.07C72.6633 153.017 74.85 151.743 76.25 150.25C79.6567 146.61 82.43 142.477 84.57 137.85C85.0967 136.717 84.74 136.243 83.5 136.43C71.0667 138.27 58.7333 139.04 46.5 138.74C44.3867 138.687 42.32 138.383 40.3 137.83C40.0054 137.746 39.7465 137.534 39.58 137.24" fill="none" opacity="1" stroke="#db8a80" stroke-linecap="butt" stroke-linejoin="miter" stroke-width="2" vectornator:layerName="path"/>
</g>
<path d="M112.19 32.53C115.49 35.45 118.767 38.3933 122.02 41.36C123.7 42.8867 125.193 44.4633 126.5 46.09C128.273 48.2967 129.587 50.0367 130.44 51.31C131.467 52.8633 132.237 54.76 132.75 57C133.29 59.36 133.557 63.5167 133.55 69.47C133.543 75.09 133.54 77.9433 133.54 78.03C133.74 102.343 133.813 126.657 133.76 150.97C133.753 155.13 133.367 158.263 132.6 160.37C131.847 162.437 130.797 164.353 129.45 166.12C128.863 166.893 127.447 168.53 125.2 171.03C120.033 176.77 114.027 181.487 107.18 185.18C103.6 187.107 99.79 187.997 95.75 187.85C93.8033 187.777 92.8 187.74 92.74 187.74C72.66 187.667 52.58 187.593 32.5 187.52C25.1333 187.493 19.3633 184.84 15.19 179.56C11.21 174.533 8.31333 169.597 6.5 164.75C5.72 162.67 5.36 160.21 5.42 157.37C5.46667 155.283 5.49 154.2 5.49 154.12C5.30333 124.84 5.45333 95.5633 5.94 66.29C5.98667 63.2233 6.37 60.75 7.09 58.87C8.05667 56.37 9.38 54.1833 11.06 52.31C13.2533 49.8767 16.2233 47.0167 19.97 43.73C22.05 41.9167 23.8567 40.0467 25.39 38.12C26.91 36.2133 28.4267 34.3067 29.94 32.4C30.1407 32.1414 30.2466 31.8272 30.24 31.51C30.1733 26.4167 30.3633 21.3333 30.81 16.26C31.3033 10.66 34.0333 7.07333 39 5.5C41.74 4.63333 45.24 4.20667 49.5 4.22C64.1733 4.28667 78.8467 4.44 93.52 4.68C96.9533 4.74 99.57 5.07 101.37 5.67C104.097 6.58333 106.407 7.99667 108.3 9.91C109.627 11.2567 110.36 12.8667 110.5 14.74L111.78 31.69C111.806 32.0117 111.952 32.3117 112.19 32.53ZM68.25 32.21C72.0967 32.3767 75.93 32.21 79.75 31.71C80.7033 31.8367 81.5667 31.6533 82.34 31.16C82.3733 31.14 82.6433 30.8667 83.15 30.34C83.55 29.9333 84.04 29.8567 84.62 30.11C86.3133 34.1233 89.01 35.91 92.71 35.47C94.5033 35.2567 95.4267 34.23 95.48 32.39L96 14.21C96.0176 13.698 95.6307 13.2666 95.13 13.24C88.0233 12.8867 80.89 12.66 73.73 12.56C73.23 12.5533 68.58 12.62 59.78 12.76C55.1267 12.84 50.4733 12.7167 45.82 12.39C44.2133 12.2767 43.0133 12.3367 42.22 12.57C40.94 12.9433 39.8933 13.62 39.08 14.6C38.2333 15.6133 37.74 17.2033 37.6 19.37C37.3067 23.8633 37.48 28.3467 38.12 32.82C38.1613 33.1217 38.3805 33.3649 38.67 33.43C40.5633 33.8433 42.9233 33.7833 45.75 33.25C49.3233 32.5767 56.8233 32.23 68.25 32.21ZM102.79 26C102.75 28.3067 102.4 30.5433 101.74 32.71C101.34 34.0233 100.55 35.3533 99.37 36.7C98.33 37.8867 97.31 39.09 96.31 40.31C95.53 41.27 94.4267 41.6533 93 41.46C81.7533 40.6133 70.4867 40.3967 59.2 40.81C51.2467 40.1967 45.5967 40.1767 42.25 40.75C40.33 41.0767 38.6767 40.7067 37.29 39.64C36.5217 39.0454 35.4935 38.9045 34.59 39.27C32.2767 40.19 30.7633 41.6267 30.05 43.58C29.9778 43.7858 30.0056 44.0134 30.1252 44.1957C30.2448 44.3781 30.4425 44.4943 30.66 44.51C38.4933 45.03 46.3567 45.3467 54.25 45.46C58.23 45.52 64.8933 45.68 74.24 45.94C81.4067 46.14 88.5733 46.09 95.74 45.79C98.62 45.67 100.52 44.6367 101.44 42.69C103.687 37.93 104.277 32.3667 103.21 26C103.41 23.8 103.487 22.4867 103.44 22.06C103.387 21.5867 103.253 21.4 103.04 21.5C102.821 21.6038 102.684 21.8428 102.69 22.11L102.79 26ZM105.25 50.21C102.643 51.8033 99.8933 53.08 97 54.04L89 54.29L28.25 53.29C26.7633 52.89 25.65 52.1233 24.91 50.99C24.7542 50.7542 24.4938 50.6086 24.2069 50.5968C23.9199 50.5851 23.6397 50.7084 23.45 50.93L16.05 59.57C15.23 60.5367 14.79 61.5767 14.73 62.69C14.6433 64.25 14.5433 65.8733 14.43 67.56C14.31 69.2667 14.25 70.8933 14.25 72.44C14.25 88.0133 14.25 103.587 14.25 119.16C14.25 119.193 14.1867 124.917 14.06 136.33C13.9933 142.47 14.07 148.61 14.29 154.75C14.03 157.617 14.6133 160.283 16.04 162.75C16.38 163.737 16.9367 164.57 17.71 165.25C18.63 170.63 21.21 174.447 25.45 176.7C27.35 177.707 30.1467 178.287 33.84 178.44C53.1067 179.233 72.4333 179.367 91.82 178.84C95.94 179.733 99.75 178.94 103.25 176.46C105.723 176.293 107.89 175.403 109.75 173.79C114.157 170.837 117.597 167.007 120.07 162.3C120.513 161.453 121.362 160.89 122.32 160.81C124.013 160.677 124.793 159.81 124.66 158.21C124.587 157.397 124.55 156.96 124.55 156.9C124.317 137.713 124.347 118.523 124.64 99.33C124.687 96.63 124.647 92.41 124.52 86.67C124.433 82.4433 124.47 78.2167 124.63 73.99C124.697 72.2767 124.68 70.45 124.58 68.51C124.493 66.6767 124.447 64.84 124.44 63C124.427 57.2467 122.317 52.4567 118.11 48.63C115.757 46.49 113.34 44.0967 110.86 41.45C110.808 41.397 110.733 41.3727 110.66 41.3846C110.586 41.3965 110.523 41.4432 110.49 41.51C109.07 44.5967 107.323 47.4967 105.25 50.21Z" fill="#390202" fill-rule="nonzero" opacity="1" stroke="none" vectornator:layerName="path"/>
<path d="M84.62 30.11L85.18 25C85.2202 24.6216 85.0799 24.2941 84.85 24.23C84.67 24.1767 84.47 24.1967 84.25 24.29C84.13 23.4367 83.8567 22.67 83.43 21.99C83.03 21.3633 82.4033 20.93 81.55 20.69C78.9833 19.9767 76.3933 20.0267 73.78 20.84C71.6533 21.5 70.3933 22.8033 70 24.75C69.4933 27.2567 68.91 29.7433 68.25 32.21C56.8233 32.23 49.3233 32.5767 45.75 33.25C42.9233 33.7833 40.5633 33.8433 38.67 33.43C38.3805 33.3649 38.1613 33.1217 38.12 32.82C37.48 28.3467 37.3067 23.8633 37.6 19.37C37.74 17.2033 38.2333 15.6133 39.08 14.6C39.8933 13.62 40.94 12.9433 42.22 12.57C43.0133 12.3367 44.2133 12.2767 45.82 12.39C50.4733 12.7167 55.1267 12.84 59.78 12.76C68.58 12.62 73.23 12.5533 73.73 12.56C80.89 12.66 88.0233 12.8867 95.13 13.24C95.6307 13.2666 96.0176 13.698 96 14.21L95.48 32.39C95.4267 34.23 94.5033 35.2567 92.71 35.47C89.01 35.91 86.3133 34.1233 84.62 30.11Z" fill="#b09882" fill-rule="nonzero" opacity="1" stroke="none" vectornator:layerName="path"/>
<path d="M84.25 24.29C84.7833 28.0833 83.2833 30.5567 79.75 31.71C75.93 32.21 72.0967 32.3767 68.25 32.21C68.91 29.7433 69.4933 27.2567 70 24.75C70.3933 22.8033 71.6533 21.5 73.78 20.84C76.3933 20.0267 78.9833 19.9767 81.55 20.69C82.4033 20.93 83.03 21.3633 83.43 21.99C83.8567 22.67 84.13 23.4367 84.25 24.29Z" fill="#fefdf4" fill-rule="nonzero" opacity="1" stroke="none" vectornator:layerName="path"/>
<path d="M103.21 26L102.79 26L102.69 22.11C102.684 21.8428 102.821 21.6038 103.04 21.5C103.253 21.4 103.387 21.5867 103.44 22.06C103.487 22.4867 103.41 23.8 103.21 26Z" fill="#684026" fill-rule="nonzero" opacity="1" stroke="none" vectornator:layerName="path"/>
<path d="M84.25 24.29C84.47 24.1967 84.67 24.1767 84.85 24.23C85.0799 24.2941 85.2202 24.6216 85.18 25L84.62 30.11C84.04 29.8567 83.55 29.9333 83.15 30.34C82.6433 30.8667 82.3733 31.14 82.34 31.16C81.5667 31.6533 80.7033 31.8367 79.75 31.71C83.2833 30.5567 84.7833 28.0833 84.25 24.29Z" fill="#684026" fill-rule="nonzero" opacity="1" stroke="none" vectornator:layerName="path"/>
<path d="M102.79 26L103.21 26C104.277 32.3667 103.687 37.93 101.44 42.69C100.52 44.6367 98.62 45.67 95.74 45.79C88.5733 46.09 81.4067 46.14 74.24 45.94C64.8933 45.68 58.23 45.52 54.25 45.46C46.3567 45.3467 38.4933 45.03 30.66 44.51C30.4425 44.4943 30.2448 44.3781 30.1252 44.1957C30.0056 44.0134 29.9778 43.7858 30.05 43.58C30.7633 41.6267 32.2767 40.19 34.59 39.27C35.4935 38.9045 36.5217 39.0454 37.29 39.64C38.6767 40.7067 40.33 41.0767 42.25 40.75C45.5967 40.1767 51.2467 40.1967 59.2 40.81L93 41.46C94.4267 41.6533 95.53 41.27 96.31 40.31C97.31 39.09 98.33 37.8867 99.37 36.7C100.55 35.3533 101.34 34.0233 101.74 32.71C102.4 30.5433 102.75 28.3067 102.79 26Z" fill="#b1afac" fill-rule="nonzero" opacity="1" stroke="none" vectornator:layerName="path"/>
<path d="M93 41.46L59.2 40.81C70.4867 40.3967 81.7533 40.6133 93 41.46Z" fill="#9b7c6c" fill-rule="nonzero" opacity="1" stroke="none" vectornator:layerName="path"/>
<path d="M109.75 173.79C109.27 173.31 108.687 173.117 108 173.21C109.78 170.95 110.863 168.13 111.25 164.75C111.983 158.35 112.383 153.6 112.45 150.5C112.77 134.92 112.857 119.337 112.71 103.75C113.09 89.53 113.197 75.3067 113.03 61.08C113.01 59.2067 112.87 57.66 112.61 56.44C112.197 54.4933 111.64 53.0333 110.94 52.06C109.813 50.5133 107.917 49.8967 105.25 50.21C107.323 47.4967 109.07 44.5967 110.49 41.51C110.523 41.4432 110.586 41.3965 110.66 41.3846C110.733 41.3727 110.808 41.397 110.86 41.45C113.34 44.0967 115.757 46.49 118.11 48.63C122.317 52.4567 124.427 57.2467 124.44 63C124.447 64.84 124.493 66.6767 124.58 68.51C124.68 70.45 124.697 72.2767 124.63 73.99C124.47 78.2167 124.433 82.4433 124.52 86.67C124.647 92.41 124.687 96.63 124.64 99.33C124.347 118.523 124.317 137.713 124.55 156.9C124.55 156.96 124.587 157.397 124.66 158.21C124.793 159.81 124.013 160.677 122.32 160.81C121.362 160.89 120.513 161.453 120.07 162.3C117.597 167.007 114.157 170.837 109.75 173.79Z" fill="#9b7c6c" fill-rule="nonzero" opacity="1" stroke="none" vectornator:layerName="path"/>
<path d="M105.25 50.21C107.917 49.8967 109.813 50.5133 110.94 52.06C111.64 53.0333 112.197 54.4933 112.61 56.44C112.87 57.66 113.01 59.2067 113.03 61.08C113.197 75.3067 113.09 89.53 112.71 103.75C112.663 102.923 112.453 102.173 112.08 101.5C111.927 101.22 111.767 101.223 111.6 101.51C111.36 101.923 111.147 101.993 110.96 101.72C110.603 101.187 110.085 100.778 109.48 100.55C107.447 99.79 106.217 98.8967 105.79 97.87C105.123 96.2433 104.06 94.9833 102.6 94.09C102.307 93.91 101.957 93.62 101.55 93.22C100.883 92.58 100.347 92.6833 99.94 93.53C99.7667 93.8833 99.67 93.8767 99.65 93.51L99.46 90.25C99.96 78.4833 100.057 70.65 99.75 66.75C99.4633 63.0767 97.38 60.84 93.5 60.04C93.7067 59.12 94.08 58.3 94.62 57.58C94.66 57.5333 95.1967 57.13 96.23 56.37C96.9167 55.8633 97.1733 55.0867 97 54.04C99.8933 53.08 102.643 51.8033 105.25 50.21Z" fill="#d0a88b" fill-rule="nonzero" opacity="1" stroke="none" vectornator:layerName="path"/>
<path d="M28.25 53.29L28.25 55.96L22.89 60.34L20.35 63.18C17.29 67 15.7567 70.8567 15.75 74.75C15.7233 93.5033 15.8133 112.85 16.02 132.79C16.0201 133.195 16.1384 133.588 16.36 133.92C17.1733 135.153 17.7067 135.013 17.96 133.5L17.71 165.25C16.9367 164.57 16.38 163.737 16.04 162.75C16.46 159.497 16.3367 156.267 15.67 153.06C15.6426 152.944 15.5624 152.848 15.4572 152.803C15.352 152.759 15.2362 152.772 15.15 152.84C14.59 153.3 14.3033 153.937 14.29 154.75C14.07 148.61 13.9933 142.47 14.06 136.33C14.1867 124.917 14.25 119.193 14.25 119.16C14.25 103.587 14.25 88.0133 14.25 72.44C14.25 70.8933 14.31 69.2667 14.43 67.56C14.5433 65.8733 14.6433 64.25 14.73 62.69C14.79 61.5767 15.23 60.5367 16.05 59.57L23.45 50.93C23.6397 50.7084 23.9199 50.5851 24.2069 50.5968C24.4938 50.6086 24.7542 50.7542 24.91 50.99C25.65 52.1233 26.7633 52.89 28.25 53.29Z" fill="#b27d52" fill-rule="nonzero" opacity="1" stroke="none" vectornator:layerName="path"/>
<path d="M28.25 53.29L89 54.29C87.02 54.1367 86.5033 54.72 87.45 56.04C87.97 56.76 88.4867 57.4833 89 58.21C77.76 57.45 66.51 57.1367 55.25 57.27C47.5033 57.3567 39.7533 57.3533 32 57.26C31.7002 57.2536 31.3836 57.1458 31.09 56.95C30.2367 56.3833 29.29 56.0533 28.25 55.96L28.25 53.29Z" fill="#8b6139" fill-rule="nonzero" opacity="1" stroke="none" vectornator:layerName="path"/>
<path d="M97 54.04C97.1733 55.0867 96.9167 55.8633 96.23 56.37C95.1967 57.13 94.66 57.5333 94.62 57.58C94.08 58.3 93.7067 59.12 93.5 60.04L90.25 59.71C92.17 58.5433 91.7533 58.0433 89 58.21C88.4867 57.4833 87.97 56.76 87.45 56.04C86.5033 54.72 87.02 54.1367 89 54.29L97 54.04Z" fill="#b27d52" fill-rule="nonzero" opacity="1" stroke="none" vectornator:layerName="path"/>
<path d="M28.25 55.96C29.29 56.0533 30.2367 56.3833 31.09 56.95C31.3836 57.1458 31.7002 57.2536 32 57.26C39.7533 57.3533 47.5033 57.3567 55.25 57.27C66.51 57.1367 77.76 57.45 89 58.21C91.7533 58.0433 92.17 58.5433 90.25 59.71L34.25 59.29C32.7033 59.3433 30.9333 59.1833 28.94 58.81C26.7467 58.4033 24.73 58.9133 22.89 60.34L28.25 55.96Z" fill="#684026" fill-rule="nonzero" opacity="1" stroke="none" vectornator:layerName="path"/>
<path d="M34.25 59.29C35.69 62.5567 34.9433 64.9867 32.01 66.58C31.7149 66.7467 31.5002 66.9972 31.41 67.28C30.6367 69.7933 30.3333 72.5333 30.5 75.5C30.78 80.3933 30.83 85.7333 30.65 91.52C30.5767 93.8733 30.65 96.36 30.87 98.98C31.0833 101.46 31.2267 103.943 31.3 106.43C31.3072 106.673 31.5156 106.894 31.81 106.97C32.1167 107.043 32.3467 107.233 32.5 107.54C30.8667 111.447 30.44 115.5 31.22 119.7C31.2744 119.988 31.5175 120.202 31.81 120.22C41.95 120.927 52.1 121.02 62.26 120.5C62.9337 120.467 63.4722 119.881 63.5 119.15L63.79 111.75C64.81 111.09 65.7967 111.38 66.75 112.62C73.2967 112.307 79.5467 110.837 85.5 108.21C88.5067 107.537 90.5067 106.55 91.5 105.25C92.7267 103.657 94.0067 102.11 95.34 100.61C95.38 100.563 95.8067 99.9933 96.62 98.9C97.2667 98.0267 98.13 97.3933 99.21 97C99.2833 113.333 99.4633 129.667 99.75 146C99.7967 148.707 99.6267 153.957 99.24 161.75C98.98 167.137 98.7167 170.29 98.45 171.21C97.4833 174.557 95.2733 177.1 91.82 178.84C72.4333 179.367 53.1067 179.233 33.84 178.44C30.1467 178.287 27.35 177.707 25.45 176.7C21.21 174.447 18.63 170.63 17.71 165.25L17.96 133.5C17.2467 107.5 17.1767 86.6667 17.75 71C17.8233 68.9467 18.69 66.34 20.35 63.18L22.89 60.34C24.73 58.9133 26.7467 58.4033 28.94 58.81C30.9333 59.1833 32.7033 59.3433 34.25 59.29ZM68.94 122.32C74.9067 122.413 80.51 121.033 85.75 118.18C86.0513 118.014 86.2703 117.759 86.36 117.47C86.6467 116.57 86.6467 115.673 86.36 114.78C86.2725 114.512 85.9876 114.35 85.69 114.4C79.7567 115.42 74.4233 116.933 69.69 118.94C68.2833 119.533 67.8033 120.5 68.25 121.84C68.3473 122.121 68.6226 122.313 68.94 122.32ZM86.07 126.06C87.5167 125.28 87.42 124.85 85.78 124.77C84.0333 124.677 82.0433 125.023 79.81 125.81C75.8233 127.217 71.8033 128.53 67.75 129.75C67.4367 129.843 67.2367 129.96 67.15 130.1C66.95 130.407 67.1267 130.563 67.68 130.57C74.2067 130.643 80.3367 129.14 86.07 126.06ZM39.58 137.24C38.2333 134.853 35.74 133.91 32.1 134.41C31.1555 134.539 30.4733 135.379 30.54 136.33C30.84 140.723 32.15 144.81 34.47 148.59C36.23 151.457 38.2833 153.53 40.63 154.81C43.19 156.203 46.1467 156.933 49.5 157C57.0133 157.153 63.7433 156.177 69.69 154.07C72.6633 153.017 74.85 151.743 76.25 150.25C79.6567 146.61 82.43 142.477 84.57 137.85C85.0967 136.717 84.74 136.243 83.5 136.43C71.0667 138.27 58.7333 139.04 46.5 138.74C44.3867 138.687 42.32 138.383 40.3 137.83C40.0054 137.746 39.7465 137.534 39.58 137.24Z" fill="#fefdf4" fill-rule="nonzero" opacity="1" stroke="none" vectornator:layerName="path"/>
<path d="M34.25 59.29L90.25 59.71L93.5 60.04C97.38 60.84 99.4633 63.0767 99.75 66.75C100.057 70.65 99.96 78.4833 99.46 90.25L99.21 97C98.13 97.3933 97.2667 98.0267 96.62 98.9C95.8067 99.9933 95.38 100.563 95.34 100.61C94.0067 102.11 92.7267 103.657 91.5 105.25C90.5067 106.55 88.5067 107.537 85.5 108.21C86.5067 107.63 87 106.83 86.98 105.81C86.9775 105.677 86.9192 105.551 86.8179 105.459C86.7166 105.367 86.5807 105.317 86.44 105.32C80.8933 105.473 74.9333 106.887 68.56 109.56C67.3067 110.087 66.7033 111.107 66.75 112.62C65.7967 111.38 64.81 111.09 63.79 111.75C63.87 110.563 63.62 109.567 63.04 108.76C62.5733 108.107 61.7467 107.703 60.56 107.55C51.22 106.337 41.8667 106.333 32.5 107.54C32.3467 107.233 32.1167 107.043 31.81 106.97C31.5156 106.894 31.3072 106.673 31.3 106.43C31.2267 103.943 31.0833 101.46 30.87 98.98C30.65 96.36 30.5767 93.8733 30.65 91.52C30.83 85.7333 30.78 80.3933 30.5 75.5C30.3333 72.5333 30.6367 69.7933 31.41 67.28C31.5002 66.9972 31.7149 66.7467 32.01 66.58C34.9433 64.9867 35.69 62.5567 34.25 59.29Z" fill="#fefae8" fill-rule="nonzero" opacity="1" stroke="none" vectornator:layerName="path"/>
<path d="M20.35 63.18C18.69 66.34 17.8233 68.9467 17.75 71C17.1767 86.6667 17.2467 107.5 17.96 133.5C17.7067 135.013 17.1733 135.153 16.36 133.92C16.1384 133.588 16.0201 133.195 16.02 132.79C15.8133 112.85 15.7233 93.5033 15.75 74.75C15.7567 70.8567 17.29 67 20.35 63.18Z" fill="#684026" fill-rule="nonzero" opacity="1" stroke="none" vectornator:layerName="path"/>
<path d="M99.46 90.25L99.65 93.51C99.67 93.8767 99.7667 93.8833 99.94 93.53C100.347 92.6833 100.883 92.58 101.55 93.22C101.957 93.62 102.307 93.91 102.6 94.09C104.06 94.9833 105.123 96.2433 105.79 97.87C106.217 98.8967 107.447 99.79 109.48 100.55C110.085 100.778 110.603 101.187 110.96 101.72C111.147 101.993 111.36 101.923 111.6 101.51C111.767 101.223 111.927 101.22 112.08 101.5C112.453 102.173 112.663 102.923 112.71 103.75C112.857 119.337 112.77 134.92 112.45 150.5C112.383 153.6 111.983 158.35 111.25 164.75C110.863 168.13 109.78 170.95 108 173.21L103.25 176.46C99.75 178.94 95.94 179.733 91.82 178.84C95.2733 177.1 97.4833 174.557 98.45 171.21C98.7167 170.29 98.98 167.137 99.24 161.75C99.6267 153.957 99.7967 148.707 99.75 146C99.4633 129.667 99.2833 113.333 99.21 97L99.46 90.25Z" fill="#d8b297" fill-rule="nonzero" opacity="1" stroke="none" vectornator:layerName="path"/>
<path d="M85.5 108.21C79.5467 110.837 73.2967 112.307 66.75 112.62C66.7033 111.107 67.3067 110.087 68.56 109.56C74.9333 106.887 80.8933 105.473 86.44 105.32C86.5807 105.317 86.7166 105.367 86.8179 105.459C86.9192 105.551 86.9775 105.677 86.98 105.81C87 106.83 86.5067 107.63 85.5 108.21Z" fill="#c21a0b" fill-rule="nonzero" opacity="1" stroke="none" vectornator:layerName="path"/>
<path d="M63.79 111.75L63.5 119.15C63.4722 119.881 62.9337 120.467 62.26 120.5C52.1 121.02 41.95 120.927 31.81 120.22C31.5175 120.202 31.2744 119.988 31.22 119.7C30.44 115.5 30.8667 111.447 32.5 107.54C41.8667 106.333 51.22 106.337 60.56 107.55C61.7467 107.703 62.5733 108.107 63.04 108.76C63.62 109.567 63.87 110.563 63.79 111.75Z" fill="#c21a0b" fill-rule="nonzero" opacity="1" stroke="none" vectornator:layerName="path"/>
<path d="M68.25 121.84C67.8033 120.5 68.2833 119.533 69.69 118.94C74.4233 116.933 79.7567 115.42 85.69 114.4C85.9876 114.35 86.2725 114.512 86.36 114.78C86.6467 115.673 86.6467 116.57 86.36 117.47C86.2703 117.759 86.0513 118.014 85.75 118.18C80.51 121.033 74.9067 122.413 68.94 122.32C68.6226 122.313 68.3473 122.121 68.25 121.84Z" fill="#c21a0b" fill-rule="nonzero" opacity="1" stroke="none" vectornator:layerName="path"/>
<path d="M86.07 126.06C80.3367 129.14 74.2067 130.643 67.68 130.57C67.1267 130.563 66.95 130.407 67.15 130.1C67.2367 129.96 67.4367 129.843 67.75 129.75C71.8033 128.53 75.8233 127.217 79.81 125.81C82.0433 125.023 84.0333 124.677 85.78 124.77C87.42 124.85 87.5167 125.28 86.07 126.06Z" fill="#c21a0b" fill-rule="nonzero" opacity="1" stroke="none" vectornator:layerName="path"/>
<path d="M40.3 137.83C42.32 138.383 44.3867 138.687 46.5 138.74C58.7333 139.04 71.0667 138.27 83.5 136.43C84.74 136.243 85.0967 136.717 84.57 137.85C82.43 142.477 79.6567 146.61 76.25 150.25C74.85 151.743 72.6633 153.017 69.69 154.07C63.7433 156.177 57.0133 157.153 49.5 157C46.1467 156.933 43.19 156.203 40.63 154.81C38.2833 153.53 36.23 151.457 34.47 148.59C32.15 144.81 30.84 140.723 30.54 136.33C30.4733 135.379 31.1555 134.539 32.1 134.41C35.74 133.91 38.2333 134.853 39.58 137.24C39.7465 137.534 40.0054 137.746 40.3 137.83Z" fill="#b7160c" fill-rule="nonzero" opacity="1" stroke="none" vectornator:layerName="path"/>
<path d="M16.04 162.75C14.6133 160.283 14.03 157.617 14.29 154.75C14.3033 153.937 14.59 153.3 15.15 152.84C15.2362 152.772 15.352 152.759 15.4572 152.803C15.5624 152.848 15.6426 152.944 15.67 153.06C16.3367 156.267 16.46 159.497 16.04 162.75Z" fill="#d8b297" fill-rule="nonzero" opacity="1" stroke="none" vectornator:layerName="path"/>
<path d="M108 173.21C108.687 173.117 109.27 173.31 109.75 173.79C107.89 175.403 105.723 176.293 103.25 176.46L108 173.21Z" fill="#684026" fill-rule="nonzero" opacity="1" stroke="none" vectornator:layerName="path"/>
</g>
</svg>
