<?xml version="1.0" encoding="UTF-8" standalone="no"?>
<!DOCTYPE svg PUBLIC "-//W3C//DTD SVG 1.1//EN" "http://www.w3.org/Graphics/SVG/1.1/DTD/svg11.dtd">
<!-- Created with Vectornator (http://vectornator.io/) -->
<svg height="100%" stroke-miterlimit="10" style="fill-rule:nonzero;clip-rule:evenodd;stroke-linecap:round;stroke-linejoin:round;" version="1.1" viewBox="0 0 219 206" width="100%" xml:space="preserve" xmlns="http://www.w3.org/2000/svg" xmlns:vectornator="http://vectornator.io" xmlns:xlink="http://www.w3.org/1999/xlink">
<defs/>
<g id="名称未設定" vectornator:layerName="名称未設定">
<g opacity="1" vectornator:layerName="g">
<path d="M27.76 46.26C26.7333 49.9667 26.0833 53.93 25.81 58.15" fill="none" opacity="1" stroke="#bec2a7" stroke-linecap="butt" stroke-linejoin="miter" stroke-width="2" vectornator:layerName="path"/>
<path d="M25.81 58.15C19.8233 60.9833 15.35 65.3433 12.39 71.23" fill="none" opacity="1" stroke="#9c8181" stroke-linecap="butt" stroke-linejoin="miter" stroke-width="2" vectornator:layerName="path"/>
<path d="M12.39 71.23C9.75667 77.4433 8.62667 84.5333 9 92.5C9.14667 95.58 10.1133 98.2267 11.9 100.44" fill="none" opacity="1" stroke="#bec2a7" stroke-linecap="butt" stroke-linejoin="miter" stroke-width="2" vectornator:layerName="path"/>
<path d="M11.9 100.44C6.11333 108.1 4.14667 116.287 6 125C7.72667 133.1 11.36 140.22 16.9 146.36C21.9 151.887 27.86 155.227 34.78 156.38C35.52 156.507 36.26 156.497 37 156.35C38.6133 156.03 39.5967 156.39 39.95 157.43C40.1567 158.05 40.27 158.38 40.29 158.42C44.53 167.26 51.1833 173.607 60.25 177.46" fill="none" opacity="1" stroke="#9c8181" stroke-linecap="butt" stroke-linejoin="miter" stroke-width="2" vectornator:layerName="path"/>
<path d="M60.25 177.46C59.77 178.76 59.5133 180.107 59.48 181.5C59.4133 184.04 60.3233 185.61 62.21 186.21C62.89 186.43 64.2567 186.583 66.31 186.67C68.0833 186.75 69.46 186.59 70.44 186.19C71.7067 185.67 73.7467 184.127 76.56 181.56C77.7733 180.46 78.54 179.18 78.86 177.72" fill="none" opacity="1" stroke="#f6e8db" stroke-linecap="butt" stroke-linejoin="miter" stroke-width="2" vectornator:layerName="path"/>
<path d="M78.86 177.72C80.82 179.013 82.2867 180.737 83.26 182.89C84.2333 185.057 84.9867 186.473 85.52 187.14C92.38 195.747 101.52 199.097 112.94 197.19C115.667 196.73 117.843 195.307 119.47 192.92C119.532 192.832 119.634 192.78 119.74 192.784C119.847 192.788 119.941 192.847 119.99 192.94C123.503 199.28 129.257 202.467 137.25 202.5C144.417 202.533 150.823 201.563 156.47 199.59C158.95 198.73 160.793 197.72 162 196.56C163.673 194.96 164.663 192.983 164.97 190.63C165.177 189.057 164.907 187.007 164.16 184.48C163.62 182.653 162.98 180.667 162.24 178.52C161.653 176.807 162.263 176.037 164.07 176.21C166.737 176.47 169.88 176.22 173.5 175.46" fill="none" opacity="1" stroke="#9c8181" stroke-linecap="butt" stroke-linejoin="miter" stroke-width="2" vectornator:layerName="path"/>
<path d="M173.5 175.46C174.72 175.64 175.857 175.453 176.91 174.9C177.017 174.84 177.123 174.81 177.23 174.81C178.583 174.737 178.507 174.563 177 174.29" fill="none" opacity="1" stroke="#d5d6d0" stroke-linecap="butt" stroke-linejoin="miter" stroke-width="2" vectornator:layerName="path"/>
<path d="M177 174.29C180.847 173.17 184.433 171.497 187.76 169.27C200.733 160.577 209.013 148.593 212.6 133.32C214.213 126.453 214.743 119.54 214.19 112.58C213.957 109.547 213.44 106.877 212.64 104.57C211.62 101.597 210.303 99.1767 208.69 97.31C207.01 95.3767 205.38 93.4033 203.8 91.39C203.615 91.1481 203.573 90.8212 203.69 90.53C205.643 85.6767 206.497 80.3333 206.25 74.5C205.923 66.76 204.117 59.7367 200.83 53.43C197.203 46.4767 193.28 40.98 189.06 36.94C179.38 27.66 167.647 21.8267 153.86 19.44C151.207 18.98 147.95 18.75 144.09 18.75C140.917 18.75 137.643 18.75 134.27 18.75C134.131 18.7501 133.998 18.6936 133.902 18.5936C133.806 18.4936 133.755 18.3587 133.76 18.22C133.8 17.4133 133.513 16.62 132.9 15.84C130.42 12.68 127.277 10.4333 123.47 9.1C119.257 7.62 114.957 6.59333 110.57 6.02C106.87 5.53333 102.483 5.27333 97.41 5.24C88.3833 5.18 79.4733 6.32333 70.68 8.67C50.1733 14.15 35.8667 26.68 27.76 46.26" fill="none" opacity="1" stroke="#9c8181" stroke-linecap="butt" stroke-linejoin="miter" stroke-width="2" vectornator:layerName="path"/>
<path d="M177 174.29L173.5 175.46" fill="none" opacity="1" stroke="#725952" stroke-linecap="butt" stroke-linejoin="miter" stroke-width="2" vectornator:layerName="path"/>
<path d="M78.86 177.72C77.6933 178.753 76.4067 179.263 75 179.25C68.9267 179.203 64.01 178.607 60.25 177.46" fill="none" opacity="1" stroke="#946b5e" stroke-linecap="butt" stroke-linejoin="miter" stroke-width="2" vectornator:layerName="path"/>
<path d="M11.9 100.44C9.84667 95.4333 9.08667 90.4833 9.62 85.59C9.7 84.8633 10.1167 82.4667 10.87 78.4C11.3233 75.9933 11.83 73.6033 12.39 71.23" fill="none" opacity="1" stroke="#5b452a" stroke-linecap="butt" stroke-linejoin="miter" stroke-width="2" vectornator:layerName="path"/>
<path d="M25.81 58.15L27.23 51.5C27.31 51.1133 27.4267 50.8233 27.58 50.63C28.4733 49.4967 28.5333 48.04 27.76 46.26" fill="none" opacity="1" stroke="#5b452a" stroke-linecap="butt" stroke-linejoin="miter" stroke-width="2" vectornator:layerName="path"/>
<path d="M86.75 195.21L63 194.79" fill="none" opacity="1" stroke="#bec2a7" stroke-linecap="butt" stroke-linejoin="miter" stroke-width="2" vectornator:layerName="path"/>
<path d="M63 194.79L46.41 194.77C44.8833 194.77 43.46 195.297 42.14 196.35C40.1933 197.903 40.0133 199.477 41.6 201.07C42.5 201.977 43.6667 202.6 45.1 202.94C46.64 203.313 48.5233 203.5 50.75 203.5C61.83 203.5 72.9133 203.577 84 203.73C88.0733 203.79 90.5067 201.79 91.3 197.73C91.3949 197.252 91.3017 196.757 91.0423 196.363C90.783 195.97 90.3805 195.712 89.93 195.65L86.75 195.21" fill="none" opacity="1" stroke="#9c8181" stroke-linecap="butt" stroke-linejoin="miter" stroke-width="2" vectornator:layerName="path"/>
<path d="M63 194.79C70.9133 195.37 78.83 195.51 86.75 195.21" fill="none" opacity="1" stroke="#5b452a" stroke-linecap="butt" stroke-linejoin="miter" stroke-width="2" vectornator:layerName="path"/>
<path d="M55.81 24.16C44.9633 31.0333 38.09 40.71 35.19 53.19C35.01 53.95 34.4367 55.8733 33.47 58.96C33.4322 59.0757 33.4491 59.2024 33.5158 59.3025C33.5826 59.4026 33.6914 59.4646 33.81 59.47L35.5 59.54" fill="none" opacity="1" stroke="#9b807c" stroke-linecap="butt" stroke-linejoin="miter" stroke-width="2" vectornator:layerName="path"/>
<path d="M35.5 59.54C39.6667 59.8333 42.5833 60.2367 44.25 60.75C45.6233 61.17 46.9933 62.03 48.36 63.33C49.1 64.0433 49.47 64.77 49.47 65.51C49.4633 66.6767 48.7233 67.3533 47.25 67.54" fill="none" opacity="1" stroke="#796e49" stroke-linecap="butt" stroke-linejoin="miter" stroke-width="2" vectornator:layerName="path"/>
<path d="M47.25 67.54L43.37 67.54" fill="none" opacity="1" stroke="#615339" stroke-linecap="butt" stroke-linejoin="miter" stroke-width="2" vectornator:layerName="path"/>
<path d="M43.37 67.54C37.4167 65.8867 31.64 65.8533 26.04 67.44C24.62 67.84 23.4967 68.37 22.67 69.03C21.63 69.87 20.8433 70.88 20.31 72.06C17.97 77.2667 16.9933 82.9533 17.38 89.12" fill="none" opacity="1" stroke="#977f77" stroke-linecap="butt" stroke-linejoin="miter" stroke-width="2" vectornator:layerName="path"/>
<path d="M17.38 89.12C17.48 92.42 18.2067 95.5267 19.56 98.44C20.44 100.333 20.9167 102.183 20.99 103.99C21.0015 104.298 20.8404 104.589 20.57 104.75C14.6767 108.337 12.3067 113.673 13.46 120.76C15.1267 131 20.2833 138.917 28.93 144.51C34.11 147.857 39.8033 149.52 46.01 149.5C46.8256 149.501 47.4968 150.041 47.55 150.74L47.98 156.83C48.0445 157.753 48.3683 158.541 48.88 159.02C50.56 160.58 52.1767 162.157 53.73 163.75C55.6633 165.717 57.4067 167.11 58.96 167.93C65.7133 171.503 72.82 171.76 80.28 168.7C80.5892 168.571 80.9239 168.557 81.22 168.66C85.0333 169.993 88.0533 172.423 90.28 175.95" fill="none" opacity="1" stroke="#615339" stroke-linecap="butt" stroke-linejoin="miter" stroke-width="2" vectornator:layerName="path"/>
<path d="M90.28 175.95C91.54 175.397 92.1433 175.447 92.09 176.1C92.0767 176.32 91.9167 176.683 91.61 177.19C90.77 178.603 90.4733 180.103 90.72 181.69C90.7654 182.008 90.9198 182.31 91.16 182.55C95.8533 187.277 101.28 189.657 107.44 189.69C111.367 189.703 114.937 187.783 118.15 183.93" fill="none" opacity="1" stroke="#5b452a" stroke-linecap="butt" stroke-linejoin="miter" stroke-width="2" vectornator:layerName="path"/>
<path d="M118.15 183.93C119.143 183.337 120.23 182.597 121.41 181.71C122.503 180.883 123.367 180.573 124 180.78C124.907 181.08 125.457 182.117 125.65 183.89C125.81 185.33 126.613 186.007 128.06 185.92C138.033 185.32 146.573 180.99 153.68 172.93C155.987 170.323 158.35 167.8 160.77 165.36C161.083 165.042 161.586 165.016 161.93 165.3C162.89 166.1 163.93 166.73 165.05 167.19C166.05 167.603 167.217 167.787 168.55 167.74C172.703 167.607 176.5 166.59 179.94 164.69C188.027 160.223 194.313 154.097 198.8 146.31C201.613 141.437 203.587 135.92 204.72 129.76C205.8 123.9 206.09 117.967 205.59 111.96C205.41 109.82 204.81 107.79 203.79 105.87C202.397 103.27 200.87 100.763 199.21 98.35C198.86 97.8365 198.281 97.5266 197.66 97.52C193.927 97.48 191.103 97.16 189.19 96.56C186.71 95.7733 186.683 94.91 189.11 93.97C191.31 93.11 193.367 92.0633 195.28 90.83C196.287 90.1833 196.88 89.2667 197.06 88.08C197.607 84.4 197.833 80.7033 197.74 76.99C197.6 71.7033 196.607 66.67 194.76 61.89C193.087 57.57 190.473 53.2567 186.92 48.95C180.167 40.7567 171.797 34.47 161.81 30.09" fill="none" opacity="1" stroke="#615339" stroke-linecap="butt" stroke-linejoin="miter" stroke-width="2" vectornator:layerName="path"/>
<path d="M161.81 30.09C157.17 27.8567 152.317 26.48 147.25 25.96" fill="none" opacity="1" stroke="#5b452a" stroke-linecap="butt" stroke-linejoin="miter" stroke-width="2" vectornator:layerName="path"/>
<path d="M147.25 25.96C145.483 25.76 141.087 25.5033 134.06 25.19C125.833 24.8233 118.73 26.6633 112.75 30.71" fill="none" opacity="1" stroke="#796e49" stroke-linecap="butt" stroke-linejoin="miter" stroke-width="2" vectornator:layerName="path"/>
<path d="M112.75 30.71C105.703 33.9033 99.9267 38.63 95.42 44.89C93.5867 47.45 92.2967 50.2733 91.55 53.36C91.4906 53.6074 91.5603 53.8677 91.7362 54.0556C91.9122 54.2436 92.1718 54.3351 92.43 54.3L101.25 53.21" fill="none" opacity="1" stroke="#9c8181" stroke-linecap="butt" stroke-linejoin="miter" stroke-width="2" vectornator:layerName="path"/>
<path d="M101.25 53.21C106.657 53.21 111.553 53.66 115.94 54.56C131.147 57.7 142.973 65.87 151.42 79.07C153.047 81.6033 153.657 83.9967 153.25 86.25C152.97 87.7967 152.03 88.6433 150.43 88.79C150.145 88.8146 149.872 88.631 149.76 88.34C147.3 81.8667 142.983 75.9 136.81 70.44C129.957 64.3733 122.637 60.5533 114.85 58.98C107.223 57.44 99.44 57.6133 91.5 59.5C86.6667 60.6467 82.5133 61.8967 79.04 63.25" fill="none" opacity="1" stroke="#796e49" stroke-linecap="butt" stroke-linejoin="miter" stroke-width="2" vectornator:layerName="path"/>
<path d="M79.04 63.25C78.9533 62.65 79.0667 61.9567 79.38 61.17C79.4652 60.9588 79.4373 60.7188 79.3058 60.5328C79.1744 60.3468 78.9575 60.2403 78.73 60.25C77.5367 60.2967 76.4467 59.7367 75.46 58.57" fill="none" opacity="1" stroke="#471004" stroke-linecap="butt" stroke-linejoin="miter" stroke-width="2" vectornator:layerName="path"/>
<path d="M75.46 58.57C78.9 57.03 82.5233 56.0033 86.33 55.49C86.6345 55.447 86.8767 55.2129 86.93 54.91C87.8567 49.43 89.7267 44.46 92.54 40" fill="none" opacity="1" stroke="#796e49" stroke-linecap="butt" stroke-linejoin="miter" stroke-width="2" vectornator:layerName="path"/>
<path d="M92.54 40C93.42 40.0533 94.2 40.36 94.88 40.92C95.1033 41.0993 95.4154 41.0993 95.62 40.92C98.2067 38.5867 100.783 36.24 103.35 33.88C104.377 32.9467 105.677 32.17 107.25 31.55C108.843 30.9233 110.393 30.16 111.9 29.26C112.183 29.0926 112.397 28.826 112.5 28.51C113.213 26.2967 112.65 25.5633 110.81 26.31C109.89 26.69 108.493 27.7233 106.62 29.41C106.419 29.5916 106.113 29.7182 105.75 29.77C105.01 29.8767 104.363 30.3067 103.81 31.06C102.87 32.3467 101.443 33.4067 99.53 34.24C99.1567 34.4067 98.8333 34.4567 98.56 34.39C98.1867 34.2967 97.9033 34.0833 97.71 33.75" fill="none" opacity="1" stroke="#471004" stroke-linecap="butt" stroke-linejoin="miter" stroke-width="2" vectornator:layerName="path"/>
<path d="M97.71 33.75C101.45 29.6967 105.77 26.5233 110.67 24.23C112.397 23.4233 114.72 22.6533 117.64 21.92C120.013 21.32 122.39 20.72 124.77 20.12C125.097 20.04 125.137 19.8867 124.89 19.66C122.67 17.5933 120.373 16.2067 118 15.5C109.347 12.9333 100.44 12.01 91.28 12.73C84.5333 13.2567 78.3933 14.3467 72.86 16C66.8067 17.8133 61.1233 20.5333 55.81 24.16" fill="none" opacity="1" stroke="#796e49" stroke-linecap="butt" stroke-linejoin="miter" stroke-width="2" vectornator:layerName="path"/>
<path d="M97.71 33.75L92.54 40" fill="none" opacity="1" stroke="#867949" stroke-linecap="butt" stroke-linejoin="miter" stroke-width="2" vectornator:layerName="path"/>
<path d="M75.46 58.57C66.1333 64.07 60.4133 72.1933 58.3 82.94" fill="none" opacity="1" stroke="#867949" stroke-linecap="butt" stroke-linejoin="miter" stroke-width="2" vectornator:layerName="path"/>
<path d="M58.3 82.94C58.3933 84.9533 59.1967 86.3067 60.71 87" fill="none" opacity="1" stroke="#867949" stroke-linecap="butt" stroke-linejoin="miter" stroke-width="2" vectornator:layerName="path"/>
<path d="M60.71 87C62.09 89.0533 63.75 89.86 65.69 89.42C67.0167 89.12 68.3267 88.1967 69.62 86.65C71.6267 84.2567 73.19 81.31 74.31 77.81C75.8033 73.1633 76.5167 68.9567 76.45 65.19" fill="none" opacity="1" stroke="#dbebc6" stroke-linecap="butt" stroke-linejoin="miter" stroke-width="2" vectornator:layerName="path"/>
<path d="M76.45 65.19C77.0033 64.39 77.8667 63.7433 79.04 63.25" fill="none" opacity="1" stroke="#867949" stroke-linecap="butt" stroke-linejoin="miter" stroke-width="2" vectornator:layerName="path"/>
<path d="M101.25 53.21C104.723 47.1367 109.097 41.8167 114.37 37.25C115.777 36.03 116.697 35.0367 117.13 34.27C118.55 31.75 117.09 30.5633 112.75 30.71" fill="none" opacity="1" stroke="#dbebc6" stroke-linecap="butt" stroke-linejoin="miter" stroke-width="2" vectornator:layerName="path"/>
<path d="M147.25 25.96C144.05 26.3867 144.187 26.5867 147.66 26.56C147.833 26.56 147.84 26.5833 147.68 26.63C146.753 26.89 146.86 27.0467 148 27.1C152.16 27.2867 156.077 28.35 159.75 30.29" fill="none" opacity="1" stroke="#9bae6f" stroke-linecap="butt" stroke-linejoin="miter" stroke-width="2" vectornator:layerName="path"/>
<path d="M159.75 30.29C161.277 30.8167 162.527 31.47 163.5 32.25C167.433 35.4033 171.133 38.9467 174.6 42.88C178.24 47.0067 181.023 51.25 182.95 55.61C187.63 66.19 188.953 77.3633 186.92 89.13C186.393 92.17 186.2 94.4367 186.34 95.93C186.52 97.8833 186.907 100.157 187.5 102.75C188.853 108.69 189.363 115.77 189.03 123.99C188.95 126.037 188.597 128.037 187.97 129.99C187.057 132.83 185.477 134.98 183.23 136.44C181.53 137.54 179.107 138.227 175.96 138.5C168.793 139.113 162.117 137.813 155.93 134.6C155.656 134.459 155.336 134.441 155.049 134.55C154.763 134.659 154.537 134.885 154.43 135.17C152.263 140.917 149.457 145.773 146.01 149.74C144.503 151.473 142.8 152.93 140.9 154.11C138.867 155.377 136.817 156.34 134.75 157C128.177 159.107 121.177 160.03 113.75 159.77C103.73 159.423 94.7933 156.187 86.94 150.06C79.6 144.34 71.3767 136.447 62.27 126.38C58.73 122.473 56.2767 119.37 54.91 117.07C52.7167 113.377 51.33 109.603 50.75 105.75C49.7433 99.0367 49.5033 90.95 50.03 81.49C50.2567 77.4633 49.9967 73.47 49.25 69.51C49.1873 69.1817 48.9551 68.9114 48.64 68.8C47.0733 68.2667 46.61 67.8467 47.25 67.54" fill="none" opacity="1" stroke="#a1bc7e" stroke-linecap="butt" stroke-linejoin="miter" stroke-width="2" vectornator:layerName="path"/>
<path d="M35.5 59.54C38.3467 60.1067 40.0133 59.01 40.5 56.25C40.94 53.7633 41.7733 51.11 43 48.29C44.0067 45.9833 45.3733 43.5867 47.1 41.1C50.5533 36.1267 54.4633 31.52 58.83 27.28C59.0739 27.0418 59.19 26.727 59.14 26.44C58.8867 25.1533 57.7767 24.3933 55.81 24.16" fill="none" opacity="1" stroke="#dae9c2" stroke-linecap="butt" stroke-linejoin="miter" stroke-width="2" vectornator:layerName="path"/>
<path d="M76.45 65.19C75.7767 65.4433 75.2933 65.7267 75 66.04" fill="none" opacity="1" stroke="#a98d81" stroke-linecap="butt" stroke-linejoin="miter" stroke-width="2" vectornator:layerName="path"/>
<path d="M75 66.04C74.6933 65.7133 74.3567 65.4867 73.99 65.36C73.7129 65.2662 73.3749 65.3293 73.08 65.53C71.4933 66.63 70.06 67.8867 68.78 69.3C67.28 70.9533 66.0267 72.3633 65.02 73.53C63.0867 75.7633 61.6433 78.3167 60.69 81.19C60.5033 81.75 59.7067 82.3333 58.3 82.94" fill="none" opacity="1" stroke="#541b04" stroke-linecap="butt" stroke-linejoin="miter" stroke-width="2" vectornator:layerName="path"/>
<path d="M161.81 30.09L159.75 30.29" fill="none" opacity="1" stroke="#83935f" stroke-linecap="butt" stroke-linejoin="miter" stroke-width="2" vectornator:layerName="path"/>
<path d="M118.15 183.93C107.703 179.883 99.55 176.843 93.69 174.81C93.0033 174.577 91.8667 174.957 90.28 175.95" fill="none" opacity="1" stroke="#83935f" stroke-linecap="butt" stroke-linejoin="miter" stroke-width="2" vectornator:layerName="path"/>
<path d="M17.38 89.12C19.3667 87.16 21.0933 84.3067 22.56 80.56C24.0867 76.6733 27.22 74.08 31.96 72.78C36.1 71.6467 39.9033 69.9 43.37 67.54" fill="none" opacity="1" stroke="#bfcead" stroke-linecap="butt" stroke-linejoin="miter" stroke-width="2" vectornator:layerName="path"/>
<path d="M75 66.04C68.06 71.5533 63.2967 78.54 60.71 87" fill="none" opacity="1" stroke="#a98d81" stroke-linecap="butt" stroke-linejoin="miter" stroke-width="2" vectornator:layerName="path"/>
<path d="M137.2 66.43C136.593 65.7767 135.933 65.1867 135.22 64.66C135.071 64.5469 134.886 64.5268 134.76 64.61C134.673 64.6633 134.61 64.73 134.57 64.81C134.458 65 134.566 65.3138 134.83 65.56C137.077 67.68 139.27 69.8567 141.41 72.09C142.97 73.71 143.53 73.6333 143.09 71.86C142.997 71.4933 142.82 71.1667 142.56 70.88C141.58 69.7733 140.467 68.84 139.22 68.08C138.48 67.6267 137.807 67.0767 137.2 66.43" fill="none" opacity="1" stroke="#471004" stroke-linecap="butt" stroke-linejoin="miter" stroke-width="2" vectornator:layerName="path"/>
<path d="M141.34 190.28L128.09 192.59C127.577 192.683 127.553 192.847 128.02 193.08L130.79 194.5" fill="none" opacity="1" stroke="#615339" stroke-linecap="butt" stroke-linejoin="miter" stroke-width="2" vectornator:layerName="path"/>
<path d="M130.79 194.5C133.363 195.613 136.017 195.793 138.75 195.04" fill="none" opacity="1" stroke="#5b452a" stroke-linecap="butt" stroke-linejoin="miter" stroke-width="2" vectornator:layerName="path"/>
<path d="M138.75 195.04L143.25 194.29" fill="none" opacity="1" stroke="#615339" stroke-linecap="butt" stroke-linejoin="miter" stroke-width="2" vectornator:layerName="path"/>
<path d="M143.25 194.29C147.93 193.99 152.68 193.21 157.5 191.95C157.928 191.838 158.235 191.462 158.26 191.02C158.387 188.88 157.643 186.583 156.03 184.13C155.872 183.887 155.553 183.808 155.3 183.95C150.507 186.663 145.853 188.773 141.34 190.28" fill="none" opacity="1" stroke="#725952" stroke-linecap="butt" stroke-linejoin="miter" stroke-width="2" vectornator:layerName="path"/>
<path d="M143.25 194.29L140.98 193.91C140.681 193.86 140.413 193.625 140.27 193.29C139.703 191.983 140.06 190.98 141.34 190.28" fill="none" opacity="1" stroke="#9aa888" stroke-linecap="butt" stroke-linejoin="miter" stroke-width="2" vectornator:layerName="path"/>
<path d="M138.75 195.04L130.79 194.5" fill="none" opacity="1" stroke="#83935f" stroke-linecap="butt" stroke-linejoin="miter" stroke-width="2" vectornator:layerName="path"/>
<path d="M95.3 94.15C99.5933 92.5233 103.107 90.1 105.84 86.88C106.94 85.58 107.553 84.43 107.68 83.43C107.867 81.93 107.233 80.6133 105.78 79.48C104.587 78.56 103.243 77.9967 101.75 77.79" fill="none" opacity="1" stroke="#796e49" stroke-linecap="butt" stroke-linejoin="miter" stroke-width="2" vectornator:layerName="path"/>
<path d="M101.75 77.79C96.47 76.8767 92.2467 78.46 89.08 82.54C88.36 83.4667 88.1033 84.5133 88.31 85.68C89.09 90 91.42 92.8233 95.3 94.15" fill="none" opacity="1" stroke="#8f7d48" stroke-linecap="butt" stroke-linejoin="miter" stroke-width="2" vectornator:layerName="path"/>
<path d="M101.75 77.79L101.39 78.68C101.339 78.7986 101.354 78.9374 101.429 79.0641C101.505 79.1908 101.635 79.2941 101.79 79.35C102.483 79.59 103.16 79.8667 103.82 80.18C106.707 81.56 106.913 83.3133 104.44 85.44C103.373 86.3533 100.327 89.2567 95.3 94.15" fill="none" opacity="1" stroke="#501302" stroke-linecap="butt" stroke-linejoin="miter" stroke-width="2" vectornator:layerName="path"/>
<path d="M90.37 92.66C89.2433 91.9467 88.0633 91.8467 86.83 92.36C84.57 93.3 83.1833 94.7 82.67 96.56C82.1967 98.28 82.5733 99.97 83.8 101.63C85.3 103.67 87.4533 104.787 90.26 104.98C90.584 104.999 90.9021 104.907 91.16 104.72C93.3 103.187 94.2467 101.023 94 98.23C93.7933 95.91 92.5833 94.0533 90.37 92.66" fill="none" opacity="1" stroke="#dbebc6" stroke-linecap="butt" stroke-linejoin="miter" stroke-width="2" vectornator:layerName="path"/>
<path d="M148.462 109.314C146.989 107.422 144.107 107.204 142.024 108.825C139.941 110.447 139.446 113.295 140.918 115.186C142.391 117.078 145.273 117.296 147.356 115.675C149.439 114.053 149.934 111.205 148.462 109.314" fill="none" opacity="1" stroke="#967048" stroke-linecap="butt" stroke-linejoin="miter" stroke-width="2" vectornator:layerName="path"/>
</g>
<path d="M177 174.29L173.5 175.46C169.88 176.22 166.737 176.47 164.07 176.21C162.263 176.037 161.653 176.807 162.24 178.52C162.98 180.667 163.62 182.653 164.16 184.48C164.907 187.007 165.177 189.057 164.97 190.63C164.663 192.983 163.673 194.96 162 196.56C160.793 197.72 158.95 198.73 156.47 199.59C150.823 201.563 144.417 202.533 137.25 202.5C129.257 202.467 123.503 199.28 119.99 192.94C119.941 192.847 119.847 192.788 119.74 192.784C119.634 192.78 119.532 192.832 119.47 192.92C117.843 195.307 115.667 196.73 112.94 197.19C101.52 199.097 92.38 195.747 85.52 187.14C84.9867 186.473 84.2333 185.057 83.26 182.89C82.2867 180.737 80.82 179.013 78.86 177.72C77.6933 178.753 76.4067 179.263 75 179.25C68.9267 179.203 64.01 178.607 60.25 177.46C51.1833 173.607 44.53 167.26 40.29 158.42C40.27 158.38 40.1567 158.05 39.95 157.43C39.5967 156.39 38.6133 156.03 37 156.35C36.26 156.497 35.52 156.507 34.78 156.38C27.86 155.227 21.9 151.887 16.9 146.36C11.36 140.22 7.72667 133.1 6 125C4.14667 116.287 6.11333 108.1 11.9 100.44C9.84667 95.4333 9.08667 90.4833 9.62 85.59C9.7 84.8633 10.1167 82.4667 10.87 78.4C11.3233 75.9933 11.83 73.6033 12.39 71.23C15.35 65.3433 19.8233 60.9833 25.81 58.15L27.23 51.5C27.31 51.1133 27.4267 50.8233 27.58 50.63C28.4733 49.4967 28.5333 48.04 27.76 46.26C35.8667 26.68 50.1733 14.15 70.68 8.67C79.4733 6.32333 88.3833 5.18 97.41 5.24C102.483 5.27333 106.87 5.53333 110.57 6.02C114.957 6.59333 119.257 7.62 123.47 9.1C127.277 10.4333 130.42 12.68 132.9 15.84C133.513 16.62 133.8 17.4133 133.76 18.22C133.755 18.3587 133.806 18.4936 133.902 18.5936C133.998 18.6936 134.131 18.7501 134.27 18.75C137.643 18.75 140.917 18.75 144.09 18.75C147.95 18.75 151.207 18.98 153.86 19.44C167.647 21.8267 179.38 27.66 189.06 36.94C193.28 40.98 197.203 46.4767 200.83 53.43C204.117 59.7367 205.923 66.76 206.25 74.5C206.497 80.3333 205.643 85.6767 203.69 90.53C203.573 90.8212 203.615 91.1481 203.8 91.39C205.38 93.4033 207.01 95.3767 208.69 97.31C210.303 99.1767 211.62 101.597 212.64 104.57C213.44 106.877 213.957 109.547 214.19 112.58C214.743 119.54 214.213 126.453 212.6 133.32C209.013 148.593 200.733 160.577 187.76 169.27C184.433 171.497 180.847 173.17 177 174.29ZM55.81 24.16C44.9633 31.0333 38.09 40.71 35.19 53.19C35.01 53.95 34.4367 55.8733 33.47 58.96C33.4322 59.0757 33.4491 59.2024 33.5158 59.3025C33.5826 59.4026 33.6914 59.4646 33.81 59.47L35.5 59.54C39.6667 59.8333 42.5833 60.2367 44.25 60.75C45.6233 61.17 46.9933 62.03 48.36 63.33C49.1 64.0433 49.47 64.77 49.47 65.51C49.4633 66.6767 48.7233 67.3533 47.25 67.54L43.37 67.54C37.4167 65.8867 31.64 65.8533 26.04 67.44C24.62 67.84 23.4967 68.37 22.67 69.03C21.63 69.87 20.8433 70.88 20.31 72.06C17.97 77.2667 16.9933 82.9533 17.38 89.12C17.48 92.42 18.2067 95.5267 19.56 98.44C20.44 100.333 20.9167 102.183 20.99 103.99C21.0015 104.298 20.8404 104.589 20.57 104.75C14.6767 108.337 12.3067 113.673 13.46 120.76C15.1267 131 20.2833 138.917 28.93 144.51C34.11 147.857 39.8033 149.52 46.01 149.5C46.8256 149.501 47.4968 150.041 47.55 150.74L47.98 156.83C48.0445 157.753 48.3683 158.541 48.88 159.02C50.56 160.58 52.1767 162.157 53.73 163.75C55.6633 165.717 57.4067 167.11 58.96 167.93C65.7133 171.503 72.82 171.76 80.28 168.7C80.5892 168.571 80.9239 168.557 81.22 168.66C85.0333 169.993 88.0533 172.423 90.28 175.95C91.54 175.397 92.1433 175.447 92.09 176.1C92.0767 176.32 91.9167 176.683 91.61 177.19C90.77 178.603 90.4733 180.103 90.72 181.69C90.7654 182.008 90.9198 182.31 91.16 182.55C95.8533 187.277 101.28 189.657 107.44 189.69C111.367 189.703 114.937 187.783 118.15 183.93C119.143 183.337 120.23 182.597 121.41 181.71C122.503 180.883 123.367 180.573 124 180.78C124.907 181.08 125.457 182.117 125.65 183.89C125.81 185.33 126.613 186.007 128.06 185.92C138.033 185.32 146.573 180.99 153.68 172.93C155.987 170.323 158.35 167.8 160.77 165.36C161.083 165.042 161.586 165.016 161.93 165.3C162.89 166.1 163.93 166.73 165.05 167.19C166.05 167.603 167.217 167.787 168.55 167.74C172.703 167.607 176.5 166.59 179.94 164.69C188.027 160.223 194.313 154.097 198.8 146.31C201.613 141.437 203.587 135.92 204.72 129.76C205.8 123.9 206.09 117.967 205.59 111.96C205.41 109.82 204.81 107.79 203.79 105.87C202.397 103.27 200.87 100.763 199.21 98.35C198.86 97.8365 198.281 97.5266 197.66 97.52C193.927 97.48 191.103 97.16 189.19 96.56C186.71 95.7733 186.683 94.91 189.11 93.97C191.31 93.11 193.367 92.0633 195.28 90.83C196.287 90.1833 196.88 89.2667 197.06 88.08C197.607 84.4 197.833 80.7033 197.74 76.99C197.6 71.7033 196.607 66.67 194.76 61.89C193.087 57.57 190.473 53.2567 186.92 48.95C180.167 40.7567 171.797 34.47 161.81 30.09C157.17 27.8567 152.317 26.48 147.25 25.96C145.483 25.76 141.087 25.5033 134.06 25.19C125.833 24.8233 118.73 26.6633 112.75 30.71C105.703 33.9033 99.9267 38.63 95.42 44.89C93.5867 47.45 92.2967 50.2733 91.55 53.36C91.4906 53.6074 91.5603 53.8677 91.7362 54.0556C91.9122 54.2436 92.1718 54.3351 92.43 54.3L101.25 53.21C106.657 53.21 111.553 53.66 115.94 54.56C131.147 57.7 142.973 65.87 151.42 79.07C153.047 81.6033 153.657 83.9967 153.25 86.25C152.97 87.7967 152.03 88.6433 150.43 88.79C150.145 88.8146 149.872 88.631 149.76 88.34C147.3 81.8667 142.983 75.9 136.81 70.44C129.957 64.3733 122.637 60.5533 114.85 58.98C107.223 57.44 99.44 57.6133 91.5 59.5C86.6667 60.6467 82.5133 61.8967 79.04 63.25C78.9533 62.65 79.0667 61.9567 79.38 61.17C79.4652 60.9588 79.4373 60.7188 79.3058 60.5328C79.1744 60.3468 78.9575 60.2403 78.73 60.25C77.5367 60.2967 76.4467 59.7367 75.46 58.57C78.9 57.03 82.5233 56.0033 86.33 55.49C86.6345 55.447 86.8767 55.2129 86.93 54.91C87.8567 49.43 89.7267 44.46 92.54 40C93.42 40.0533 94.2 40.36 94.88 40.92C95.1033 41.0993 95.4154 41.0993 95.62 40.92C98.2067 38.5867 100.783 36.24 103.35 33.88C104.377 32.9467 105.677 32.17 107.25 31.55C108.843 30.9233 110.393 30.16 111.9 29.26C112.183 29.0926 112.397 28.826 112.5 28.51C113.213 26.2967 112.65 25.5633 110.81 26.31C109.89 26.69 108.493 27.7233 106.62 29.41C106.419 29.5916 106.113 29.7182 105.75 29.77C105.01 29.8767 104.363 30.3067 103.81 31.06C102.87 32.3467 101.443 33.4067 99.53 34.24C99.1567 34.4067 98.8333 34.4567 98.56 34.39C98.1867 34.2967 97.9033 34.0833 97.71 33.75C101.45 29.6967 105.77 26.5233 110.67 24.23C112.397 23.4233 114.72 22.6533 117.64 21.92C120.013 21.32 122.39 20.72 124.77 20.12C125.097 20.04 125.137 19.8867 124.89 19.66C122.67 17.5933 120.373 16.2067 118 15.5C109.347 12.9333 100.44 12.01 91.28 12.73C84.5333 13.2567 78.3933 14.3467 72.86 16C66.8067 17.8133 61.1233 20.5333 55.81 24.16ZM137.2 66.43C136.593 65.7767 135.933 65.1867 135.22 64.66C135.071 64.5469 134.886 64.5268 134.76 64.61C134.673 64.6633 134.61 64.73 134.57 64.81C134.458 65 134.566 65.3138 134.83 65.56C137.077 67.68 139.27 69.8567 141.41 72.09C142.97 73.71 143.53 73.6333 143.09 71.86C142.997 71.4933 142.82 71.1667 142.56 70.88C141.58 69.7733 140.467 68.84 139.22 68.08C138.48 67.6267 137.807 67.0767 137.2 66.43ZM141.34 190.28L128.09 192.59C127.577 192.683 127.553 192.847 128.02 193.08L130.79 194.5C133.363 195.613 136.017 195.793 138.75 195.04L143.25 194.29C147.93 193.99 152.68 193.21 157.5 191.95C157.928 191.838 158.235 191.462 158.26 191.02C158.387 188.88 157.643 186.583 156.03 184.13C155.872 183.887 155.553 183.808 155.3 183.95C150.507 186.663 145.853 188.773 141.34 190.28Z" fill="#390403" fill-rule="nonzero" opacity="1" stroke="none" vectornator:layerName="path"/>
<path d="M97.71 33.75L92.54 40C89.7267 44.46 87.8567 49.43 86.93 54.91C86.8767 55.2129 86.6345 55.447 86.33 55.49C82.5233 56.0033 78.9 57.03 75.46 58.57C66.1333 64.07 60.4133 72.1933 58.3 82.94C58.3933 84.9533 59.1967 86.3067 60.71 87C62.09 89.0533 63.75 89.86 65.69 89.42C67.0167 89.12 68.3267 88.1967 69.62 86.65C71.6267 84.2567 73.19 81.31 74.31 77.81C75.8033 73.1633 76.5167 68.9567 76.45 65.19C77.0033 64.39 77.8667 63.7433 79.04 63.25C82.5133 61.8967 86.6667 60.6467 91.5 59.5C99.44 57.6133 107.223 57.44 114.85 58.98C122.637 60.5533 129.957 64.3733 136.81 70.44C142.983 75.9 147.3 81.8667 149.76 88.34C149.872 88.631 150.145 88.8146 150.43 88.79C152.03 88.6433 152.97 87.7967 153.25 86.25C153.657 83.9967 153.047 81.6033 151.42 79.07C142.973 65.87 131.147 57.7 115.94 54.56C111.553 53.66 106.657 53.21 101.25 53.21C104.723 47.1367 109.097 41.8167 114.37 37.25C115.777 36.03 116.697 35.0367 117.13 34.27C118.55 31.75 117.09 30.5633 112.75 30.71C118.73 26.6633 125.833 24.8233 134.06 25.19C141.087 25.5033 145.483 25.76 147.25 25.96C144.05 26.3867 144.187 26.5867 147.66 26.56C147.833 26.56 147.84 26.5833 147.68 26.63C146.753 26.89 146.86 27.0467 148 27.1C152.16 27.2867 156.077 28.35 159.75 30.29C161.277 30.8167 162.527 31.47 163.5 32.25C167.433 35.4033 171.133 38.9467 174.6 42.88C178.24 47.0067 181.023 51.25 182.95 55.61C187.63 66.19 188.953 77.3633 186.92 89.13C186.393 92.17 186.2 94.4367 186.34 95.93C186.52 97.8833 186.907 100.157 187.5 102.75C188.853 108.69 189.363 115.77 189.03 123.99C188.95 126.037 188.597 128.037 187.97 129.99C187.057 132.83 185.477 134.98 183.23 136.44C181.53 137.54 179.107 138.227 175.96 138.5C168.793 139.113 162.117 137.813 155.93 134.6C155.656 134.459 155.336 134.441 155.049 134.55C154.763 134.659 154.537 134.885 154.43 135.17C152.263 140.917 149.457 145.773 146.01 149.74C144.503 151.473 142.8 152.93 140.9 154.11C138.867 155.377 136.817 156.34 134.75 157C128.177 159.107 121.177 160.03 113.75 159.77C103.73 159.423 94.7933 156.187 86.94 150.06C79.6 144.34 71.3767 136.447 62.27 126.38C58.73 122.473 56.2767 119.37 54.91 117.07C52.7167 113.377 51.33 109.603 50.75 105.75C49.7433 99.0367 49.5033 90.95 50.03 81.49C50.2567 77.4633 49.9967 73.47 49.25 69.51C49.1873 69.1817 48.9551 68.9114 48.64 68.8C47.0733 68.2667 46.61 67.8467 47.25 67.54C48.7233 67.3533 49.4633 66.6767 49.47 65.51C49.47 64.77 49.1 64.0433 48.36 63.33C46.9933 62.03 45.6233 61.17 44.25 60.75C42.5833 60.2367 39.6667 59.8333 35.5 59.54C38.3467 60.1067 40.0133 59.01 40.5 56.25C40.94 53.7633 41.7733 51.11 43 48.29C44.0067 45.9833 45.3733 43.5867 47.1 41.1C50.5533 36.1267 54.4633 31.52 58.83 27.28C59.0739 27.0418 59.19 26.727 59.14 26.44C58.8867 25.1533 57.7767 24.3933 55.81 24.16C61.1233 20.5333 66.8067 17.8133 72.86 16C78.3933 14.3467 84.5333 13.2567 91.28 12.73C100.44 12.01 109.347 12.9333 118 15.5C120.373 16.2067 122.67 17.5933 124.89 19.66C125.137 19.8867 125.097 20.04 124.77 20.12C122.39 20.72 120.013 21.32 117.64 21.92C114.72 22.6533 112.397 23.4233 110.67 24.23C105.77 26.5233 101.45 29.6967 97.71 33.75ZM95.3 94.15C99.5933 92.5233 103.107 90.1 105.84 86.88C106.94 85.58 107.553 84.43 107.68 83.43C107.867 81.93 107.233 80.6133 105.78 79.48C104.587 78.56 103.243 77.9967 101.75 77.79C96.47 76.8767 92.2467 78.46 89.08 82.54C88.36 83.4667 88.1033 84.5133 88.31 85.68C89.09 90 91.42 92.8233 95.3 94.15ZM90.37 92.66C89.2433 91.9467 88.0633 91.8467 86.83 92.36C84.57 93.3 83.1833 94.7 82.67 96.56C82.1967 98.28 82.5733 99.97 83.8 101.63C85.3 103.67 87.4533 104.787 90.26 104.98C90.584 104.999 90.9021 104.907 91.16 104.72C93.3 103.187 94.2467 101.023 94 98.23C93.7933 95.91 92.5833 94.0533 90.37 92.66ZM148.462 109.314C146.989 107.422 144.107 107.204 142.024 108.825C139.941 110.447 139.446 113.295 140.918 115.186C142.391 117.078 145.273 117.296 147.356 115.675C149.439 114.053 149.934 111.205 148.462 109.314Z" fill="#b8d78e" fill-rule="nonzero" opacity="1" stroke="none" vectornator:layerName="path"/>
<path d="M55.81 24.16C57.7767 24.3933 58.8867 25.1533 59.14 26.44C59.19 26.727 59.0739 27.0418 58.83 27.28C54.4633 31.52 50.5533 36.1267 47.1 41.1C45.3733 43.5867 44.0067 45.9833 43 48.29C41.7733 51.11 40.94 53.7633 40.5 56.25C40.0133 59.01 38.3467 60.1067 35.5 59.54L33.81 59.47C33.6914 59.4646 33.5826 59.4026 33.5158 59.3025C33.4491 59.2024 33.4322 59.0757 33.47 58.96C34.4367 55.8733 35.01 53.95 35.19 53.19C38.09 40.71 44.9633 31.0333 55.81 24.16Z" fill="#fcfbf5" fill-rule="nonzero" opacity="1" stroke="none" vectornator:layerName="path"/>
<path d="M92.54 40L97.71 33.75C97.9033 34.0833 98.1867 34.2967 98.56 34.39C98.8333 34.4567 99.1567 34.4067 99.53 34.24C101.443 33.4067 102.87 32.3467 103.81 31.06C104.363 30.3067 105.01 29.8767 105.75 29.77C106.113 29.7182 106.419 29.5916 106.62 29.41C108.493 27.7233 109.89 26.69 110.81 26.31C112.65 25.5633 113.213 26.2967 112.5 28.51C112.397 28.826 112.183 29.0926 111.9 29.26C110.393 30.16 108.843 30.9233 107.25 31.55C105.677 32.17 104.377 32.9467 103.35 33.88C100.783 36.24 98.2067 38.5867 95.62 40.92C95.4154 41.0993 95.1033 41.0993 94.88 40.92C94.2 40.36 93.42 40.0533 92.54 40Z" fill="#541b04" fill-rule="nonzero" opacity="1" stroke="none" vectornator:layerName="path"/>
<path d="M147.25 25.96C152.317 26.48 157.17 27.8567 161.81 30.09L159.75 30.29C156.077 28.35 152.16 27.2867 148 27.1C146.86 27.0467 146.753 26.89 147.68 26.63C147.84 26.5833 147.833 26.56 147.66 26.56C144.187 26.5867 144.05 26.3867 147.25 25.96Z" fill="#7d8550" fill-rule="nonzero" opacity="1" stroke="none" vectornator:layerName="path"/>
<path d="M159.75 30.29L161.81 30.09C171.797 34.47 180.167 40.7567 186.92 48.95C190.473 53.2567 193.087 57.57 194.76 61.89C196.607 66.67 197.6 71.7033 197.74 76.99C197.833 80.7033 197.607 84.4 197.06 88.08C196.88 89.2667 196.287 90.1833 195.28 90.83C193.367 92.0633 191.31 93.11 189.11 93.97C186.683 94.91 186.71 95.7733 189.19 96.56C191.103 97.16 193.927 97.48 197.66 97.52C198.281 97.5266 198.86 97.8365 199.21 98.35C200.87 100.763 202.397 103.27 203.79 105.87C204.81 107.79 205.41 109.82 205.59 111.96C206.09 117.967 205.8 123.9 204.72 129.76C203.587 135.92 201.613 141.437 198.8 146.31C194.313 154.097 188.027 160.223 179.94 164.69C176.5 166.59 172.703 167.607 168.55 167.74C167.217 167.787 166.05 167.603 165.05 167.19C163.93 166.73 162.89 166.1 161.93 165.3C161.586 165.016 161.083 165.042 160.77 165.36C158.35 167.8 155.987 170.323 153.68 172.93C146.573 180.99 138.033 185.32 128.06 185.92C126.613 186.007 125.81 185.33 125.65 183.89C125.457 182.117 124.907 181.08 124 180.78C123.367 180.573 122.503 180.883 121.41 181.71C120.23 182.597 119.143 183.337 118.15 183.93C107.703 179.883 99.55 176.843 93.69 174.81C93.0033 174.577 91.8667 174.957 90.28 175.95C88.0533 172.423 85.0333 169.993 81.22 168.66C80.9239 168.557 80.5892 168.571 80.28 168.7C72.82 171.76 65.7133 171.503 58.96 167.93C57.4067 167.11 55.6633 165.717 53.73 163.75C52.1767 162.157 50.56 160.58 48.88 159.02C48.3683 158.541 48.0445 157.753 47.98 156.83L47.55 150.74C47.4968 150.041 46.8256 149.501 46.01 149.5C39.8033 149.52 34.11 147.857 28.93 144.51C20.2833 138.917 15.1267 131 13.46 120.76C12.3067 113.673 14.6767 108.337 20.57 104.75C20.8404 104.589 21.0015 104.298 20.99 103.99C20.9167 102.183 20.44 100.333 19.56 98.44C18.2067 95.5267 17.48 92.42 17.38 89.12C19.3667 87.16 21.0933 84.3067 22.56 80.56C24.0867 76.6733 27.22 74.08 31.96 72.78C36.1 71.6467 39.9033 69.9 43.37 67.54L47.25 67.54C46.61 67.8467 47.0733 68.2667 48.64 68.8C48.9551 68.9114 49.1873 69.1817 49.25 69.51C49.9967 73.47 50.2567 77.4633 50.03 81.49C49.5033 90.95 49.7433 99.0367 50.75 105.75C51.33 109.603 52.7167 113.377 54.91 117.07C56.2767 119.37 58.73 122.473 62.27 126.38C71.3767 136.447 79.6 144.34 86.94 150.06C94.7933 156.187 103.73 159.423 113.75 159.77C121.177 160.03 128.177 159.107 134.75 157C136.817 156.34 138.867 155.377 140.9 154.11C142.8 152.93 144.503 151.473 146.01 149.74C149.457 145.773 152.263 140.917 154.43 135.17C154.537 134.885 154.763 134.659 155.049 134.55C155.336 134.441 155.656 134.459 155.93 134.6C162.117 137.813 168.793 139.113 175.96 138.5C179.107 138.227 181.53 137.54 183.23 136.44C185.477 134.98 187.057 132.83 187.97 129.99C188.597 128.037 188.95 126.037 189.03 123.99C189.363 115.77 188.853 108.69 187.5 102.75C186.907 100.157 186.52 97.8833 186.34 95.93C186.2 94.4367 186.393 92.17 186.92 89.13C188.953 77.3633 187.63 66.19 182.95 55.61C181.023 51.25 178.24 47.0067 174.6 42.88C171.133 38.9467 167.433 35.4033 163.5 32.25C162.527 31.47 161.277 30.8167 159.75 30.29Z" fill="#89a16e" fill-rule="nonzero" opacity="1" stroke="none" vectornator:layerName="path"/>
<path d="M112.75 30.71C117.09 30.5633 118.55 31.75 117.13 34.27C116.697 35.0367 115.777 36.03 114.37 37.25C109.097 41.8167 104.723 47.1367 101.25 53.21L92.43 54.3C92.1718 54.3351 91.9122 54.2436 91.7362 54.0556C91.5603 53.8677 91.4906 53.6074 91.55 53.36C92.2967 50.2733 93.5867 47.45 95.42 44.89C99.9267 38.63 105.703 33.9033 112.75 30.71Z" fill="#fefefe" fill-rule="nonzero" opacity="1" stroke="none" vectornator:layerName="path"/>
<path d="M27.76 46.26C28.5333 48.04 28.4733 49.4967 27.58 50.63C27.4267 50.8233 27.31 51.1133 27.23 51.5L25.81 58.15C26.0833 53.93 26.7333 49.9667 27.76 46.26Z" fill="#7d8550" fill-rule="nonzero" opacity="1" stroke="none" vectornator:layerName="path"/>
<path d="M75.46 58.57C76.4467 59.7367 77.5367 60.2967 78.73 60.25C78.9575 60.2403 79.1744 60.3468 79.3058 60.5328C79.4373 60.7188 79.4652 60.9588 79.38 61.17C79.0667 61.9567 78.9533 62.65 79.04 63.25C77.8667 63.7433 77.0033 64.39 76.45 65.19C75.7767 65.4433 75.2933 65.7267 75 66.04C74.6933 65.7133 74.3567 65.4867 73.99 65.36C73.7129 65.2662 73.3749 65.3293 73.08 65.53C71.4933 66.63 70.06 67.8867 68.78 69.3C67.28 70.9533 66.0267 72.3633 65.02 73.53C63.0867 75.7633 61.6433 78.3167 60.69 81.19C60.5033 81.75 59.7067 82.3333 58.3 82.94C60.4133 72.1933 66.1333 64.07 75.46 58.57Z" fill="#541b04" fill-rule="nonzero" opacity="1" stroke="none" vectornator:layerName="path"/>
<path d="M139.22 68.08C140.467 68.84 141.58 69.7733 142.56 70.88C142.82 71.1667 142.997 71.4933 143.09 71.86C143.53 73.6333 142.97 73.71 141.41 72.09C139.27 69.8567 137.077 67.68 134.83 65.56C134.566 65.3138 134.458 65 134.57 64.81C134.61 64.73 134.673 64.6633 134.76 64.61C134.886 64.5268 135.071 64.5469 135.22 64.66C135.933 65.1867 136.593 65.7767 137.2 66.43C137.807 67.0767 138.48 67.6267 139.22 68.08Z" fill="#541b04" fill-rule="nonzero" opacity="1" stroke="none" vectornator:layerName="path"/>
<path d="M75 66.04C68.06 71.5533 63.2967 78.54 60.71 87C59.1967 86.3067 58.3933 84.9533 58.3 82.94C59.7067 82.3333 60.5033 81.75 60.69 81.19C61.6433 78.3167 63.0867 75.7633 65.02 73.53C66.0267 72.3633 67.28 70.9533 68.78 69.3C70.06 67.8867 71.4933 66.63 73.08 65.53C73.3749 65.3293 73.7129 65.2662 73.99 65.36C74.3567 65.4867 74.6933 65.7133 75 66.04Z" fill="#541b04" fill-rule="nonzero" opacity="1" stroke="none" vectornator:layerName="path"/>
<path d="M76.45 65.19C76.5167 68.9567 75.8033 73.1633 74.31 77.81C73.19 81.31 71.6267 84.2567 69.62 86.65C68.3267 88.1967 67.0167 89.12 65.69 89.42C63.75 89.86 62.09 89.0533 60.71 87C63.2967 78.54 68.06 71.5533 75 66.04C75.2933 65.7267 75.7767 65.4433 76.45 65.19Z" fill="#fefefe" fill-rule="nonzero" opacity="1" stroke="none" vectornator:layerName="path"/>
<path d="M43.37 67.54C39.9033 69.9 36.1 71.6467 31.96 72.78C27.22 74.08 24.0867 76.6733 22.56 80.56C21.0933 84.3067 19.3667 87.16 17.38 89.12C16.9933 82.9533 17.97 77.2667 20.31 72.06C20.8433 70.88 21.63 69.87 22.67 69.03C23.4967 68.37 24.62 67.84 26.04 67.44C31.64 65.8533 37.4167 65.8867 43.37 67.54Z" fill="#f4faeb" fill-rule="nonzero" opacity="1" stroke="none" vectornator:layerName="path"/>
<path d="M12.39 71.23C11.83 73.6033 11.3233 75.9933 10.87 78.4C10.1167 82.4667 9.7 84.8633 9.62 85.59C9.08667 90.4833 9.84667 95.4333 11.9 100.44C10.1133 98.2267 9.14667 95.58 9 92.5C8.62667 84.5333 9.75667 77.4433 12.39 71.23Z" fill="#7d8550" fill-rule="nonzero" opacity="1" stroke="none" vectornator:layerName="path"/>
<path d="M101.75 77.79L101.39 78.68C101.339 78.7986 101.354 78.9374 101.429 79.0641C101.505 79.1908 101.635 79.2941 101.79 79.35C102.483 79.59 103.16 79.8667 103.82 80.18C106.707 81.56 106.913 83.3133 104.44 85.44C103.373 86.3533 100.327 89.2567 95.3 94.15C91.42 92.8233 89.09 90 88.31 85.68C88.1033 84.5133 88.36 83.4667 89.08 82.54C92.2467 78.46 96.47 76.8767 101.75 77.79Z" fill="#662201" fill-rule="nonzero" opacity="1" stroke="none" vectornator:layerName="path"/>
<path d="M101.75 77.79C103.243 77.9967 104.587 78.56 105.78 79.48C107.233 80.6133 107.867 81.93 107.68 83.43C107.553 84.43 106.94 85.58 105.84 86.88C103.107 90.1 99.5933 92.5233 95.3 94.15C100.327 89.2567 103.373 86.3533 104.44 85.44C106.913 83.3133 106.707 81.56 103.82 80.18C103.16 79.8667 102.483 79.59 101.79 79.35C101.635 79.2941 101.505 79.1908 101.429 79.0641C101.354 78.9374 101.339 78.7986 101.39 78.68L101.75 77.79Z" fill="#390403" fill-rule="nonzero" opacity="1" stroke="none" vectornator:layerName="path"/>
<path d="M90.37 92.66C92.5833 94.0533 93.7933 95.91 94 98.23C94.2467 101.023 93.3 103.187 91.16 104.72C90.9021 104.907 90.584 104.999 90.26 104.98C87.4533 104.787 85.3 103.67 83.8 101.63C82.5733 99.97 82.1967 98.28 82.67 96.56C83.1833 94.7 84.57 93.3 86.83 92.36C88.0633 91.8467 89.2433 91.9467 90.37 92.66Z" fill="#fefefe" fill-rule="nonzero" opacity="1" stroke="none" vectornator:layerName="path"/>
<path d="M140.918 115.186C139.446 113.295 139.941 110.447 142.024 108.825C144.107 107.204 146.989 107.422 148.462 109.314C149.934 111.205 149.439 114.053 147.356 115.675C145.273 117.296 142.391 117.078 140.918 115.186Z" fill="#740901" fill-rule="nonzero" opacity="1" stroke="none" vectornator:layerName="ellipse"/>
<path d="M177 174.29C178.507 174.563 178.583 174.737 177.23 174.81C177.123 174.81 177.017 174.84 176.91 174.9C175.857 175.453 174.72 175.64 173.5 175.46L177 174.29Z" fill="#abaea1" fill-rule="nonzero" opacity="1" stroke="none" vectornator:layerName="path"/>
<path d="M118.15 183.93C114.937 187.783 111.367 189.703 107.44 189.69C101.28 189.657 95.8533 187.277 91.16 182.55C90.9198 182.31 90.7654 182.008 90.72 181.69C90.4733 180.103 90.77 178.603 91.61 177.19C91.9167 176.683 92.0767 176.32 92.09 176.1C92.1433 175.447 91.54 175.397 90.28 175.95C91.8667 174.957 93.0033 174.577 93.69 174.81C99.55 176.843 107.703 179.883 118.15 183.93Z" fill="#7d8550" fill-rule="nonzero" opacity="1" stroke="none" vectornator:layerName="path"/>
<path d="M60.25 177.46C64.01 178.607 68.9267 179.203 75 179.25C76.4067 179.263 77.6933 178.753 78.86 177.72C78.54 179.18 77.7733 180.46 76.56 181.56C73.7467 184.127 71.7067 185.67 70.44 186.19C69.46 186.59 68.0833 186.75 66.31 186.67C64.2567 186.583 62.89 186.43 62.21 186.21C60.3233 185.61 59.4133 184.04 59.48 181.5C59.5133 180.107 59.77 178.76 60.25 177.46Z" fill="#eed2b8" fill-rule="nonzero" opacity="1" stroke="none" vectornator:layerName="path"/>
<path d="M143.25 194.29L140.98 193.91C140.681 193.86 140.413 193.625 140.27 193.29C139.703 191.983 140.06 190.98 141.34 190.28C145.853 188.773 150.507 186.663 155.3 183.95C155.553 183.808 155.872 183.887 156.03 184.13C157.643 186.583 158.387 188.88 158.26 191.02C158.235 191.462 157.928 191.838 157.5 191.95C152.68 193.21 147.93 193.99 143.25 194.29Z" fill="#abaea1" fill-rule="nonzero" opacity="1" stroke="none" vectornator:layerName="path"/>
<path d="M141.34 190.28C140.06 190.98 139.703 191.983 140.27 193.29C140.413 193.625 140.681 193.86 140.98 193.91L143.25 194.29L138.75 195.04L130.79 194.5L128.02 193.08C127.553 192.847 127.577 192.683 128.09 192.59L141.34 190.28Z" fill="#89a16e" fill-rule="nonzero" opacity="1" stroke="none" vectornator:layerName="path"/>
<path d="M63 194.79C70.9133 195.37 78.83 195.51 86.75 195.21L89.93 195.65C90.3805 195.712 90.783 195.97 91.0423 196.363C91.3017 196.757 91.3949 197.252 91.3 197.73C90.5067 201.79 88.0733 203.79 84 203.73C72.9133 203.577 61.83 203.5 50.75 203.5C48.5233 203.5 46.64 203.313 45.1 202.94C43.6667 202.6 42.5 201.977 41.6 201.07C40.0133 199.477 40.1933 197.903 42.14 196.35C43.46 195.297 44.8833 194.77 46.41 194.77L63 194.79Z" fill="#390403" fill-rule="nonzero" opacity="1" stroke="none" vectornator:layerName="path"/>
<path d="M130.79 194.5L138.75 195.04C136.017 195.793 133.363 195.613 130.79 194.5Z" fill="#7d8550" fill-rule="nonzero" opacity="1" stroke="none" vectornator:layerName="path"/>
<path d="M63 194.79L86.75 195.21C78.83 195.51 70.9133 195.37 63 194.79Z" fill="#7d8550" fill-rule="nonzero" opacity="1" stroke="none" vectornator:layerName="path"/>
</g>
</svg>
