<?xml version="1.0" encoding="UTF-8" standalone="no"?>
<!DOCTYPE svg PUBLIC "-//W3C//DTD SVG 1.1//EN" "http://www.w3.org/Graphics/SVG/1.1/DTD/svg11.dtd">
<!-- Created with Vectornator (http://vectornator.io/) -->
<svg height="100%" stroke-miterlimit="10" style="fill-rule:nonzero;clip-rule:evenodd;stroke-linecap:round;stroke-linejoin:round;" version="1.1" viewBox="0 0 163 203" width="100%" xml:space="preserve" xmlns="http://www.w3.org/2000/svg" xmlns:vectornator="http://vectornator.io" xmlns:xlink="http://www.w3.org/1999/xlink">
<defs/>
<g id="名称未設定" vectornator:layerName="名称未設定">
<g opacity="1" vectornator:layerName="g">
<path d="M22.77 190.72C29.6633 196.173 37.42 197.543 46.04 194.83" fill="none" opacity="1" stroke="#ddc1ac" stroke-linecap="butt" stroke-linejoin="miter" stroke-width="2" vectornator:layerName="path"/>
<path d="M46.04 194.83C49.9533 194.43 53.09 192.703 55.45 189.65C55.5245 189.556 55.6374 189.5 55.7576 189.498C55.8778 189.496 55.9925 189.548 56.07 189.64C58.57 192.68 61.7133 194.813 65.5 196.04" fill="none" opacity="1" stroke="#9c8181" stroke-linecap="butt" stroke-linejoin="miter" stroke-width="2" vectornator:layerName="path"/>
<path d="M65.5 196.04C65.3333 196.573 65.5 196.833 66 196.82C66.3933 196.813 66.7133 196.857 66.96 196.95C67.6933 197.23 68.4567 197.317 69.25 197.21" fill="none" opacity="1" stroke="#ddc1ac" stroke-linecap="butt" stroke-linejoin="miter" stroke-width="2" vectornator:layerName="path"/>
<path d="M69.25 197.21L75.25 197.46" fill="none" opacity="1" stroke="#9c8181" stroke-linecap="butt" stroke-linejoin="miter" stroke-width="2" vectornator:layerName="path"/>
<path d="M75.25 197.46C76.55 197.807 77.5867 197.58 78.36 196.78" fill="none" opacity="1" stroke="#ddc1ac" stroke-linecap="butt" stroke-linejoin="miter" stroke-width="2" vectornator:layerName="path"/>
<path d="M78.36 196.78C81.18 195.807 83.8867 194.473 86.48 192.78C86.74 192.613 86.98 192.52 87.2 192.5C87.4667 192.473 87.7333 192.487 88 192.54" fill="none" opacity="1" stroke="#9c8181" stroke-linecap="butt" stroke-linejoin="miter" stroke-width="2" vectornator:layerName="path"/>
<path d="M88 192.54C93.0667 195.433 98.4833 196.183 104.25 194.79" fill="none" opacity="1" stroke="#ddc1ac" stroke-linecap="butt" stroke-linejoin="miter" stroke-width="2" vectornator:layerName="path"/>
<path d="M104.25 194.79C109.29 194.283 113.84 192.553 117.9 189.6" fill="none" opacity="1" stroke="#9c8181" stroke-linecap="butt" stroke-linejoin="miter" stroke-width="2" vectornator:layerName="path"/>
<path d="M117.9 189.6C119.96 191.173 122.41 192.07 125.25 192.29" fill="none" opacity="1" stroke="#a88381" stroke-linecap="butt" stroke-linejoin="miter" stroke-width="2" vectornator:layerName="path"/>
<path d="M125.25 192.29C130.717 193.183 136.737 192.523 143.31 190.31C147.803 188.803 151.347 186.347 153.94 182.94C157.64 178.073 159.42 172.343 159.28 165.75C159.247 164.243 158.507 162.723 157.06 161.19C155.427 159.45 153.637 159.017 151.69 159.89C150.743 160.317 150.243 161.167 150.19 162.44L149.96 167.25" fill="none" opacity="1" stroke="#9a8180" stroke-linecap="butt" stroke-linejoin="miter" stroke-width="2" vectornator:layerName="path"/>
<path d="M149.96 167.25L148.83 171.8" fill="none" opacity="1" stroke="#ddc1ac" stroke-linecap="butt" stroke-linejoin="miter" stroke-width="2" vectornator:layerName="path"/>
<path d="M148.83 171.8C147.123 176.907 143.763 180.46 138.75 182.46" fill="none" opacity="1" stroke="#9a8180" stroke-linecap="butt" stroke-linejoin="miter" stroke-width="2" vectornator:layerName="path"/>
<path d="M138.75 182.46L135.05 183.31C134.77 183.377 134.72 183.293 134.9 183.06L137.37 179.91" fill="none" opacity="1" stroke="#a88381" stroke-linecap="butt" stroke-linejoin="miter" stroke-width="2" vectornator:layerName="path"/>
<path d="M137.37 179.91C141.723 175.47 143.537 170.167 142.81 164C142.771 163.662 142.63 163.353 142.41 163.12C140.957 161.627 139.153 161.017 137 161.29" fill="none" opacity="1" stroke="#ddc1ac" stroke-linecap="butt" stroke-linejoin="miter" stroke-width="2" vectornator:layerName="path"/>
<path d="M137 161.29C134.353 161.53 132.507 160.517 131.46 158.25" fill="none" opacity="1" stroke="#f4ece8" stroke-linecap="butt" stroke-linejoin="miter" stroke-width="2" vectornator:layerName="path"/>
<path d="M131.46 158.25L130.62 147.8C130.594 147.468 130.664 147.15 130.82 146.89C134.107 141.517 135.597 135.797 135.29 129.73C135.15 126.97 134.403 124.083 133.05 121.07C131.817 118.337 130.387 115.683 128.76 113.11C128.44 112.601 128.388 111.967 128.62 111.41C132.373 102.583 130.95 94.6033 124.35 87.47" fill="none" opacity="1" stroke="#9c8181" stroke-linecap="butt" stroke-linejoin="miter" stroke-width="2" vectornator:layerName="path"/>
<path d="M124.35 87.47C130.317 85.1567 135.89 85.14 141.07 87.42C145.503 89.3733 149.533 88.86 153.16 85.88C154.66 84.64 155.357 83.18 155.25 81.5C155.03 78.1667 153.27 75.91 149.97 74.73C146.503 73.49 142.93 73.08 139.25 73.5C134.643 74.0267 129.24 75.6933 123.04 78.5" fill="none" opacity="1" stroke="#f7e4dd" stroke-linecap="butt" stroke-linejoin="miter" stroke-width="2" vectornator:layerName="path"/>
<path d="M123.04 78.5L120.44 75.4C120.366 75.3139 120.332 75.2005 120.347 75.0941C120.363 74.9877 120.427 74.9009 120.52 74.86C129.627 70.8067 137.1 65.1667 142.94 57.94C145.333 54.9733 147.063 51.54 148.13 47.64C148.977 44.5733 149.143 41.7933 148.63 39.3C148.07 36.5667 146.88 33.9467 145.06 31.44C139.687 24.0333 132.5 20.7333 123.5 21.54" fill="none" opacity="1" stroke="#9c8181" stroke-linecap="butt" stroke-linejoin="miter" stroke-width="2" vectornator:layerName="path"/>
<path d="M123.5 21.54C120.993 21.8933 118.743 22.8667 116.75 24.46" fill="none" opacity="1" stroke="#a48781" stroke-linecap="butt" stroke-linejoin="miter" stroke-width="2" vectornator:layerName="path"/>
<path d="M116.75 24.46C118.563 14.9867 116.133 8.86667 109.46 6.1C104.92 4.22 99.9533 4.28333 94.56 6.29C89.6 8.13667 85.3367 11.1967 81.77 15.47C81.5233 15.77 81.1933 16.28 80.78 17C79.9133 18.5333 79.1533 18.46 78.5 16.78C78.1867 15.9733 77.8933 15.3767 77.62 14.99C74.3467 10.4167 70.14 7.25333 65 5.5C59.3133 3.56 54.7033 4.20333 51.17 7.43C48.6633 9.71667 46.8567 13.2833 45.75 18.13C44.8567 22.03 44.5367 26.1267 44.79 30.42C44.8233 30.96 44.6233 31.0633 44.19 30.73C42.7367 29.5967 41.3067 28.54 39.9 27.56C38.2867 26.4333 36.74 25.5633 35.26 24.95C26.98 21.51 19.72 22.3633 13.48 27.51C10.1867 30.23 7.84333 33.55 6.45 37.47C4.96333 41.6567 4.77667 45.89 5.89 50.17C6.96333 54.3167 9.26333 58.3733 12.79 62.34C15.9033 65.8467 19.62 68.8367 23.94 71.31C25.3867 72.1433 26.7167 72.6867 27.93 72.94C28.1833 72.9933 28.3767 73.08 28.51 73.2C28.9367 73.58 28.7467 73.82 27.94 73.92C24.94 74.3067 22.7433 75.58 21.35 77.74C20.8833 78.4667 20.05 80.67 18.85 84.35C17.79 87.5967 16.89 90.89 16.15 94.23C14.8833 99.9433 14.67 105.72 15.51 111.56C15.5879 112.113 15.49 112.676 15.23 113.17C12.09 119.163 10.13 124.943 9.35 130.51C8.56333 136.057 9.38667 141.13 11.82 145.73C12.4733 146.97 12.6567 148.277 12.37 149.65C11.6633 153.05 11.69 156.263 12.45 159.29C13.1233 161.957 13.4667 163.633 13.48 164.32C13.5067 165.913 13.3467 167.64 13 169.5C12.42 172.607 12.76 175.803 14.02 179.09C15.84 183.837 18.7567 187.713 22.77 190.72" fill="none" opacity="1" stroke="#9c8181" stroke-linecap="butt" stroke-linejoin="miter" stroke-width="2" vectornator:layerName="path"/>
<path d="M116.75 24.46C116.237 24.28 115.91 24.44 115.77 24.94C115.677 25.2437 115.461 25.4711 115.2 25.54C114.133 25.7933 113.38 26.26 112.94 26.94C112.187 28.0867 110.497 31.0267 107.87 35.76C107.663 36.1267 107.55 36.5167 107.53 36.93C107.51 37.35 107.487 37.77 107.46 38.19C107.447 38.5337 107.331 38.8506 107.13 39.09L104.03 42.81C103.849 43.0302 103.557 43.2026 103.2 43.3C101.9 43.6667 100.73 44.4633 99.69 45.69C99.13 46.3433 98.3167 46.5167 97.25 46.21" fill="none" opacity="1" stroke="#410903" stroke-linecap="butt" stroke-linejoin="miter" stroke-width="2" vectornator:layerName="path"/>
<path d="M97.25 46.21C102.71 39.2233 106.22 31.42 107.78 22.8C108.24 20.2667 108.247 18.2333 107.8 16.7C107.047 14.14 105.38 12.6567 102.8 12.25C100.933 11.9567 98.86 12.48 96.58 13.82C92.4267 16.2733 88.57 19.48 85.01 23.44C84.3541 24.1774 84.1068 25.1893 84.35 26.14C86.69 35.1533 86.5733 44.2733 84 53.5C83.4933 55.3133 83.3133 56.5633 83.46 57.25" fill="none" opacity="1" stroke="#625533" stroke-linecap="butt" stroke-linejoin="miter" stroke-width="2" vectornator:layerName="path"/>
<path d="M83.46 57.25C84.22 58.0767 85.1333 58.42 86.2 58.28" fill="none" opacity="1" stroke="#625533" stroke-linecap="butt" stroke-linejoin="miter" stroke-width="2" vectornator:layerName="path"/>
<path d="M86.2 58.28C87.86 60.02 89.84 60.97 92.14 61.13" fill="none" opacity="1" stroke="#410903" stroke-linecap="butt" stroke-linejoin="miter" stroke-width="2" vectornator:layerName="path"/>
<path d="M92.14 61.13C93.1333 65.2167 93.7433 69.0933 93.97 72.76C93.9898 73.0927 94.1567 73.3993 94.4254 73.5965C94.6941 73.7937 95.0367 73.8609 95.36 73.78C103.513 71.74 111.413 69.0833 119.06 65.81C126.307 62.7033 132.35 57.83 137.19 51.19C139.83 47.5633 140.877 43.8133 140.33 39.94C139.843 36.5533 138.247 33.8667 135.54 31.88C132.82 29.8933 129.557 29.0033 125.75 29.21" fill="none" opacity="1" stroke="#3e2b15" stroke-linecap="butt" stroke-linejoin="miter" stroke-width="2" vectornator:layerName="path"/>
<path d="M125.75 29.21L124.81 28.94C124.537 28.8652 124.331 28.6783 124.27 28.45C124.177 28.09 123.94 27.9033 123.56 27.89C123.437 27.8813 123.322 27.8287 123.241 27.744C123.16 27.6593 123.12 27.5498 123.13 27.44C123.223 26.4467 123.097 25.4767 122.75 24.53C122.655 24.2665 122.744 23.9685 122.97 23.79C123.77 23.17 123.947 22.42 123.5 21.54" fill="none" opacity="1" stroke="#410903" stroke-linecap="butt" stroke-linejoin="miter" stroke-width="2" vectornator:layerName="path"/>
<path d="M123.04 78.5C124.027 81.2667 124.463 84.2567 124.35 87.47" fill="none" opacity="1" stroke="#94665e" stroke-linecap="butt" stroke-linejoin="miter" stroke-width="2" vectornator:layerName="path"/>
<path d="M131.46 158.25L130.96 162.75" fill="none" opacity="1" stroke="#916e69" stroke-linecap="butt" stroke-linejoin="miter" stroke-width="2" vectornator:layerName="path"/>
<path d="M130.96 162.75C129.8 169.177 127.55 175.177 124.21 180.75" fill="none" opacity="1" stroke="#7a432e" stroke-linecap="butt" stroke-linejoin="miter" stroke-width="2" vectornator:layerName="path"/>
<path d="M124.21 180.75C123.763 181.15 123.527 181.637 123.5 182.21" fill="none" opacity="1" stroke="#57220e" stroke-linecap="butt" stroke-linejoin="miter" stroke-width="2" vectornator:layerName="path"/>
<path d="M123.5 182.21C121.147 182.243 119.83 183.343 119.55 185.51C119.503 185.837 119.387 186.133 119.2 186.4C118.553 187.327 118.12 188.393 117.9 189.6" fill="none" opacity="1" stroke="#450503" stroke-linecap="butt" stroke-linejoin="miter" stroke-width="2" vectornator:layerName="path"/>
<path d="M104.25 194.79C98.71 194.923 93.2933 194.173 88 192.54" fill="none" opacity="1" stroke="#7a432e" stroke-linecap="butt" stroke-linejoin="miter" stroke-width="2" vectornator:layerName="path"/>
<path d="M78.36 196.78L75.25 197.46" fill="none" opacity="1" stroke="#7a432e" stroke-linecap="butt" stroke-linejoin="miter" stroke-width="2" vectornator:layerName="path"/>
<path d="M69.25 197.21L65.5 196.04" fill="none" opacity="1" stroke="#7a432e" stroke-linecap="butt" stroke-linejoin="miter" stroke-width="2" vectornator:layerName="path"/>
<path d="M46.04 194.83C37.7333 196.417 29.9767 195.047 22.77 190.72" fill="none" opacity="1" stroke="#7a432e" stroke-linecap="butt" stroke-linejoin="miter" stroke-width="2" vectornator:layerName="path"/>
<path d="M123.5 182.21C126.4 184.503 128.007 183.903 128.32 180.41" fill="none" opacity="1" stroke="#63240f" stroke-linecap="butt" stroke-linejoin="miter" stroke-width="2" vectornator:layerName="path"/>
<path d="M137 161.29C136.947 161.67 137.043 161.99 137.29 162.25" fill="none" opacity="1" stroke="#d2ad95" stroke-linecap="butt" stroke-linejoin="miter" stroke-width="2" vectornator:layerName="path"/>
<path d="M137.29 162.25C135.897 169.083 132.907 175.137 128.32 180.41" fill="none" opacity="1" stroke="#9d706a" stroke-linecap="butt" stroke-linejoin="miter" stroke-width="2" vectornator:layerName="path"/>
<path d="M128.32 180.41C127.527 182.423 126.24 183.037 124.46 182.25" fill="none" opacity="1" stroke="#af8c75" stroke-linecap="butt" stroke-linejoin="miter" stroke-width="2" vectornator:layerName="path"/>
<path d="M124.46 182.25C124.447 181.797 124.69 181.277 125.19 180.69C129.403 175.69 131.327 169.71 130.96 162.75" fill="none" opacity="1" stroke="#d2ad95" stroke-linecap="butt" stroke-linejoin="miter" stroke-width="2" vectornator:layerName="path"/>
<path d="M125.75 29.21C121.397 29.7433 117.813 32.0067 115 36C112.42 39.6667 107.83 45.0767 101.23 52.23C100.377 53.15 98.8233 54.5867 96.57 56.54C94.95 57.9533 93.4733 59.4833 92.14 61.13" fill="none" opacity="1" stroke="#463116" stroke-linecap="butt" stroke-linejoin="miter" stroke-width="2" vectornator:layerName="path"/>
<path d="M86.2 58.28L90.79 53.75" fill="none" opacity="1" stroke="#695a34" stroke-linecap="butt" stroke-linejoin="miter" stroke-width="2" vectornator:layerName="path"/>
<path d="M97.25 46.21L90.79 53.75" fill="none" opacity="1" stroke="#695a34" stroke-linecap="butt" stroke-linejoin="miter" stroke-width="2" vectornator:layerName="path"/>
<path d="M90.79 53.75C90.7767 52.99 90.2733 52.7633 89.28 53.07C88.4933 53.31 87.6933 53.4933 86.88 53.62C85.4467 53.8333 84.6433 54.3567 84.47 55.19C84.4049 55.5086 84.2583 55.7878 84.05 55.99C83.69 56.33 83.4933 56.75 83.46 57.25" fill="none" opacity="1" stroke="#8aa664" stroke-linecap="butt" stroke-linejoin="miter" stroke-width="2" vectornator:layerName="path"/>
<path d="M124.46 182.25C124.233 181.783 124.15 181.283 124.21 180.75" fill="none" opacity="1" stroke="#97613a" stroke-linecap="butt" stroke-linejoin="miter" stroke-width="2" vectornator:layerName="path"/>
<path d="M125.25 192.29C127.263 192.337 127.76 192.267 126.74 192.08C126.287 191.993 126.12 191.827 126.24 191.58C126.333 191.38 126.609 191.25 126.94 191.25C130.087 191.25 133.237 191.25 136.39 191.25C136.557 191.25 136.797 191.277 137.11 191.33C137.923 191.463 138.023 191.147 137.41 190.38C137.217 190.144 137.209 189.809 137.39 189.57C138.517 188.103 139.113 186.6 139.18 185.06C139.192 184.771 139.07 184.462 138.84 184.2C138.273 183.54 138.33 183.267 139.01 183.38C139.353 183.436 139.675 183.354 139.87 183.16C140.683 182.34 140.31 182.107 138.75 182.46" fill="none" opacity="1" stroke="#430502" stroke-linecap="butt" stroke-linejoin="miter" stroke-width="2" vectornator:layerName="path"/>
<path d="M148.83 171.8C149.797 170.467 150.173 168.95 149.96 167.25" fill="none" opacity="1" stroke="#77422d" stroke-linecap="butt" stroke-linejoin="miter" stroke-width="2" vectornator:layerName="path"/>
<path d="M137.37 179.91C140.07 175.93 141.677 171.69 142.19 167.19C142.59 163.69 140.957 162.043 137.29 162.25" fill="none" opacity="1" stroke="#86452e" stroke-linecap="butt" stroke-linejoin="miter" stroke-width="2" vectornator:layerName="path"/>
<path d="M70.25 53.04C80.0367 48.78 82.5633 41.4367 77.83 31.01" fill="none" opacity="1" stroke="#6f6640" stroke-linecap="butt" stroke-linejoin="miter" stroke-width="2" vectornator:layerName="path"/>
<path d="M77.83 31.01C76.23 26.93 73.69 23.3167 70.21 20.17C68.23 18.3833 66.6633 17.0367 65.51 16.13C63.89 14.8567 62.1 13.7967 60.14 12.95C59.06 12.4833 58.08 12.6433 57.2 13.43C56.3867 14.15 55.65 14.93 54.99 15.77C54.3767 16.55 53.8667 17.48 53.46 18.56C50.44 26.54 51.04 34.3233 55.26 41.91C57.4867 45.9233 60.3567 49.41 63.87 52.37C65.03 53.3567 65.93 54.55 66.57 55.95C66.9767 56.85 67.3233 56.83 67.61 55.89C67.9833 54.67 68.8633 53.72 70.25 53.04" fill="none" opacity="1" stroke="#6f6640" stroke-linecap="butt" stroke-linejoin="miter" stroke-width="2" vectornator:layerName="path"/>
<path d="M77.83 31.01C76.65 33.9233 76.6433 36.8533 77.81 39.8C77.9367 40.1133 77.9767 40.43 77.93 40.75C77.5033 43.6967 76.7967 45.8 75.81 47.06C74.7767 48.3867 72.42 50.1367 68.74 52.31C68.4568 52.4778 68.3305 52.7959 68.45 53.04C68.7233 53.5933 69.3233 53.5933 70.25 53.04" fill="none" opacity="1" stroke="#a5c87e" stroke-linecap="butt" stroke-linejoin="miter" stroke-width="2" vectornator:layerName="path"/>
<path d="M39.56 36.19C35.5933 33.2833 31.97 31.49 28.69 30.81C23.0167 29.6367 18.58 31.0967 15.38 35.19C13.7133 37.33 12.8233 39.76 12.71 42.48C12.5967 45.1933 13.1367 47.8433 14.33 50.43C16.2167 54.5167 18.8867 58 22.34 60.88C30.36 67.5533 39.47 72.05 49.67 74.37C50.0233 74.45 50.3733 74.6133 50.72 74.86C51.0467 75.0867 51.3867 75.29 51.74 75.47C51.8423 75.5258 51.9656 75.5272 52.0709 75.4735C52.1761 75.4199 52.2503 75.318 52.27 75.2C52.97 71.4533 54.46 68.0467 56.74 64.98C57.7 63.68 58.94 62.7933 60.46 62.32C60.5721 62.2857 60.6629 62.2027 60.7059 62.0952C60.7489 61.9877 60.7393 61.8677 60.68 61.77C57.1067 55.9567 53.2433 50.3367 49.09 44.91C47.0633 42.2633 43.8867 39.3567 39.56 36.19" fill="none" opacity="1" stroke="#605938" stroke-linecap="butt" stroke-linejoin="miter" stroke-width="2" vectornator:layerName="path"/>
<path d="M60.41 94.1C59.4233 94.9933 58.22 95.31 56.8 95.05C56.5284 95.0008 56.2884 94.7761 56.17 94.46C55.8633 93.6733 55.4433 93.64 54.91 94.36C54.8639 94.4242 54.7876 94.4589 54.7057 94.4529C54.6239 94.447 54.547 94.401 54.5 94.33L54.29 94" fill="none" opacity="1" stroke="#450503" stroke-linecap="butt" stroke-linejoin="miter" stroke-width="2" vectornator:layerName="path"/>
<path d="M54.29 94L52.79 87.75" fill="none" opacity="1" stroke="#965821" stroke-linecap="butt" stroke-linejoin="miter" stroke-width="2" vectornator:layerName="path"/>
<path d="M52.79 87.75L52.15 83.76C52.0634 83.2466 51.6906 82.8091 51.17 82.61C45.4567 80.3967 39.83 78.85 34.29 77.97C33.0167 77.7633 31.89 78.0833 30.91 78.93C27.9433 81.49 26.21 84.8467 25.71 89" fill="none" opacity="1" stroke="#9a775f" stroke-linecap="butt" stroke-linejoin="miter" stroke-width="2" vectornator:layerName="path"/>
<path d="M25.71 89C24.8433 91.92 24.0367 94.8567 23.29 97.81C22.1967 102.17 22.13 107.24 23.09 113.02C23.1672 113.509 23.0565 114.009 22.78 114.42C20.6467 117.56 19.0367 120.947 17.95 124.58C16.7567 128.587 16.4367 132.247 16.99 135.56C17.6367 139.38 19.2967 142.813 21.97 145.86" fill="none" opacity="1" stroke="#965821" stroke-linecap="butt" stroke-linejoin="miter" stroke-width="2" vectornator:layerName="path"/>
<path d="M21.97 145.86C23.5033 148.413 23.0567 150.367 20.63 151.72C19.11 152.567 18.7233 153.72 19.47 155.18L21.79 159.75" fill="none" opacity="1" stroke="#9a7653" stroke-linecap="butt" stroke-linejoin="miter" stroke-width="2" vectornator:layerName="path"/>
<path d="M21.79 159.75C22.2833 161.117 22.29 162.083 21.81 162.65" fill="none" opacity="1" stroke="#863f15" stroke-linecap="butt" stroke-linejoin="miter" stroke-width="2" vectornator:layerName="path"/>
<path d="M21.81 162.65C19.3233 168.877 19.6367 174.507 22.75 179.54" fill="none" opacity="1" stroke="#965c28" stroke-linecap="butt" stroke-linejoin="miter" stroke-width="2" vectornator:layerName="path"/>
<path d="M22.75 179.54C23.5767 181.72 25.0767 183.193 27.25 183.96" fill="none" opacity="1" stroke="#57220e" stroke-linecap="butt" stroke-linejoin="miter" stroke-width="2" vectornator:layerName="path"/>
<path d="M27.25 183.96L31.2 185.99" fill="none" opacity="1" stroke="#965c28" stroke-linecap="butt" stroke-linejoin="miter" stroke-width="2" vectornator:layerName="path"/>
<path d="M31.2 185.99C38.3933 188.323 45.13 187.827 51.41 184.5C53.7167 183.273 55.45 181.6 56.61 179.48C59.69 173.82 59.07 168.167 54.75 162.52C53.87 161.373 53.51 160.18 53.67 158.94" fill="none" opacity="1" stroke="#863f15" stroke-linecap="butt" stroke-linejoin="miter" stroke-width="2" vectornator:layerName="path"/>
<path d="M53.67 158.94C55.01 154.933 55.7033 152.537 55.75 151.75C55.89 149.403 55.5567 147.27 54.75 145.35" fill="none" opacity="1" stroke="#9a7653" stroke-linecap="butt" stroke-linejoin="miter" stroke-width="2" vectornator:layerName="path"/>
<path d="M54.75 145.35C55.1633 140.95 56.1 137.02 57.56 133.56C57.98 132.573 58.71 132.4 59.75 133.04" fill="none" opacity="1" stroke="#450503" stroke-linecap="butt" stroke-linejoin="miter" stroke-width="2" vectornator:layerName="path"/>
<path d="M59.75 133.04C57.9567 135.607 57.54 138.093 58.5 140.5C59.14 142.113 60.4767 143.75 62.51 145.41" fill="none" opacity="1" stroke="#9a786a" stroke-linecap="butt" stroke-linejoin="miter" stroke-width="2" vectornator:layerName="path"/>
<path d="M62.51 145.41L61.54 151.25" fill="none" opacity="1" stroke="#896251" stroke-linecap="butt" stroke-linejoin="miter" stroke-width="2" vectornator:layerName="path"/>
<path d="M61.54 151.25C59.2 156.443 59.9567 160.897 63.81 164.61" fill="none" opacity="1" stroke="#9a786a" stroke-linecap="butt" stroke-linejoin="miter" stroke-width="2" vectornator:layerName="path"/>
<path d="M63.81 164.61L65.68 169.18" fill="none" opacity="1" stroke="#845645" stroke-linecap="butt" stroke-linejoin="miter" stroke-width="2" vectornator:layerName="path"/>
<path d="M65.68 169.18C65.26 174.367 64.0967 179.32 62.19 184.04C62.0764 184.322 62.1531 184.641 62.38 184.83C65.62 187.663 69.2967 189.183 73.41 189.39C75.6567 189.503 77.9333 188.927 80.24 187.66C82.88 186.2 85.4367 184.407 87.91 182.28C89.2167 181.16 89.6667 179.743 89.26 178.03L87.46 170.5" fill="none" opacity="1" stroke="#8e6456" stroke-linecap="butt" stroke-linejoin="miter" stroke-width="2" vectornator:layerName="path"/>
<path d="M87.46 170.5L87.46 166.43" fill="none" opacity="1" stroke="#845645" stroke-linecap="butt" stroke-linejoin="miter" stroke-width="2" vectornator:layerName="path"/>
<path d="M87.46 166.43C88.6733 165.557 89.2567 164.413 89.21 163" fill="none" opacity="1" stroke="#57220e" stroke-linecap="butt" stroke-linejoin="miter" stroke-width="2" vectornator:layerName="path"/>
<path d="M89.21 163C91.77 159.66 91.8533 156.327 89.46 153" fill="none" opacity="1" stroke="#9a786a" stroke-linecap="butt" stroke-linejoin="miter" stroke-width="2" vectornator:layerName="path"/>
<path d="M89.46 153C89.6133 151.993 89.9633 151.087 90.51 150.28C91.2967 149.12 91.7733 148.31 91.94 147.85C92.62 145.95 93.17 144.017 93.59 142.05C93.65 141.77 93.6267 141.45 93.52 141.09C93.1733 139.87 93.6533 139.173 94.96 139" fill="none" opacity="1" stroke="#450503" stroke-linecap="butt" stroke-linejoin="miter" stroke-width="2" vectornator:layerName="path"/>
<path d="M94.96 139L95.29 143.75" fill="none" opacity="1" stroke="#9b6f3b" stroke-linecap="butt" stroke-linejoin="miter" stroke-width="2" vectornator:layerName="path"/>
<path d="M95.29 143.75C94.4233 147.07 94.64 150.423 95.94 153.81C96.6133 155.583 97.2167 157.8 97.75 160.46" fill="none" opacity="1" stroke="#9a775f" stroke-linecap="butt" stroke-linejoin="miter" stroke-width="2" vectornator:layerName="path"/>
<path d="M97.75 160.46C97.4567 160.987 97.3133 161.46 97.32 161.88" fill="none" opacity="1" stroke="#7a432e" stroke-linecap="butt" stroke-linejoin="miter" stroke-width="2" vectornator:layerName="path"/>
<path d="M97.32 161.88C96.7 164.1 96.3433 167.39 96.25 171.75C96.19 174.503 96.6867 176.577 97.74 177.97" fill="none" opacity="1" stroke="#956942" stroke-linecap="butt" stroke-linejoin="miter" stroke-width="2" vectornator:layerName="path"/>
<path d="M97.74 177.97C95.9667 179.91 94.7067 182.17 93.96 184.75" fill="none" opacity="1" stroke="#863f15" stroke-linecap="butt" stroke-linejoin="miter" stroke-width="2" vectornator:layerName="path"/>
<path d="M93.96 184.75C92.3533 187.177 92.7467 188.32 95.14 188.18C96.4 188.107 97.31 188.083 97.87 188.11C101.983 188.323 105.86 187.467 109.5 185.54" fill="none" opacity="1" stroke="#77300c" stroke-linecap="butt" stroke-linejoin="miter" stroke-width="2" vectornator:layerName="path"/>
<path d="M109.5 185.54C112.033 184.2 114.117 182.367 115.75 180.04" fill="none" opacity="1" stroke="#863f15" stroke-linecap="butt" stroke-linejoin="miter" stroke-width="2" vectornator:layerName="path"/>
<path d="M115.75 180.04C119.337 174.38 121.907 168.283 123.46 161.75" fill="none" opacity="1" stroke="#7a432e" stroke-linecap="butt" stroke-linejoin="miter" stroke-width="2" vectornator:layerName="path"/>
<path d="M123.46 161.75C123.98 159.75 124.007 157.75 123.54 155.75" fill="none" opacity="1" stroke="#57220e" stroke-linecap="butt" stroke-linejoin="miter" stroke-width="2" vectornator:layerName="path"/>
<path d="M123.54 155.75C122.72 152.617 121.04 150.02 118.5 147.96" fill="none" opacity="1" stroke="#9a775f" stroke-linecap="butt" stroke-linejoin="miter" stroke-width="2" vectornator:layerName="path"/>
<path d="M118.5 147.96C118.473 147.487 118.64 147.097 119 146.79" fill="none" opacity="1" stroke="#57220e" stroke-linecap="butt" stroke-linejoin="miter" stroke-width="2" vectornator:layerName="path"/>
<path d="M119 146.79C119.82 146.11 121.09 144.783 122.81 142.81C126.37 138.743 127.587 134.307 126.46 129.5" fill="none" opacity="1" stroke="#93521d" stroke-linecap="butt" stroke-linejoin="miter" stroke-width="2" vectornator:layerName="path"/>
<path d="M126.46 129.5C126.173 124.46 124.54 119.607 121.56 114.94C120.407 113.127 120.41 111.437 121.57 109.87" fill="none" opacity="1" stroke="#965c28" stroke-linecap="butt" stroke-linejoin="miter" stroke-width="2" vectornator:layerName="path"/>
<path d="M121.57 109.87C122.743 104.837 121.993 100.023 119.32 95.43" fill="none" opacity="1" stroke="#9b693b" stroke-linecap="butt" stroke-linejoin="miter" stroke-width="2" vectornator:layerName="path"/>
<path d="M119.32 95.43C119.447 94.0233 119.123 92.6033 118.35 91.17" fill="none" opacity="1" stroke="#965c28" stroke-linecap="butt" stroke-linejoin="miter" stroke-width="2" vectornator:layerName="path"/>
<path d="M118.35 91.17C117.203 89.9767 116.607 88.5867 116.56 87C116.513 85.4333 116.173 83.9333 115.54 82.5" fill="none" opacity="1" stroke="#863f15" stroke-linecap="butt" stroke-linejoin="miter" stroke-width="2" vectornator:layerName="path"/>
<path d="M115.54 82.5C114.493 79.3067 112.167 77.9933 108.56 78.56C102.773 79.48 98.52 80.2 95.8 80.72C95.4958 80.7806 95.266 81.0184 95.23 81.31C95.1367 82.1233 95.24 82.9367 95.54 83.75" fill="none" opacity="1" stroke="#997a6f" stroke-linecap="butt" stroke-linejoin="miter" stroke-width="2" vectornator:layerName="path"/>
<path d="M95.54 83.75L93.29 91.25" fill="none" opacity="1" stroke="#975c18" stroke-linecap="butt" stroke-linejoin="miter" stroke-width="2" vectornator:layerName="path"/>
<path d="M93.29 91.25C91.7033 100.283 91.1267 109.357 91.56 118.47" fill="none" opacity="1" stroke="#9b6f3b" stroke-linecap="butt" stroke-linejoin="miter" stroke-width="2" vectornator:layerName="path"/>
<path d="M91.56 118.47C91.54 116.81 90.97 116.14 89.85 116.46C89.49 116.567 89.3967 116.453 89.57 116.12C89.8567 115.567 89.8967 114.763 89.69 113.71C89.6314 113.418 89.3733 113.21 89.08 113.22C86.9133 113.3 85.8733 112.643 85.96 111.25" fill="none" opacity="1" stroke="#450503" stroke-linecap="butt" stroke-linejoin="miter" stroke-width="2" vectornator:layerName="path"/>
<path d="M85.96 111.25C86.5933 107.77 86.7733 105.27 86.5 103.75C86.0867 101.43 84.5167 99.43 81.79 97.75" fill="none" opacity="1" stroke="#97704d" stroke-linecap="butt" stroke-linejoin="miter" stroke-width="2" vectornator:layerName="path"/>
<path d="M81.79 97.75C88.7033 89.2167 90.4167 79.6533 86.93 69.06C86.3233 67.2 85.2133 65.7233 83.6 64.63C79.1 61.59 74.31 61.1167 69.23 63.21C60.5833 66.7767 56.8633 73.2867 58.07 82.74C58.55 86.48 59.33 90.2667 60.41 94.1" fill="none" opacity="1" stroke="#98652d" stroke-linecap="butt" stroke-linejoin="miter" stroke-width="2" vectornator:layerName="path"/>
<path d="M81.79 97.75C78.2767 99.85 74.4167 100.887 70.21 100.86" fill="none" opacity="1" stroke="#f6d178" stroke-linecap="butt" stroke-linejoin="miter" stroke-width="2" vectornator:layerName="path"/>
<path d="M70.21 100.86L61.24 100.4" fill="none" opacity="1" stroke="#fae29e" stroke-linecap="butt" stroke-linejoin="miter" stroke-width="2" vectornator:layerName="path"/>
<path d="M61.24 100.4C61.3733 98.0333 61.0967 95.9333 60.41 94.1" fill="none" opacity="1" stroke="#a4672e" stroke-linecap="butt" stroke-linejoin="miter" stroke-width="2" vectornator:layerName="path"/>
<path d="M61.24 100.4C58.8133 102.887 58.5667 105.683 60.5 108.79" fill="none" opacity="1" stroke="#a88274" stroke-linecap="butt" stroke-linejoin="miter" stroke-width="2" vectornator:layerName="path"/>
<path d="M60.5 108.79C62.5533 115.39 63.0533 121.96 62 128.5C61.78 129.847 61.23 131.053 60.35 132.12" fill="none" opacity="1" stroke="#a06745" stroke-linecap="butt" stroke-linejoin="miter" stroke-width="2" vectornator:layerName="path"/>
<path d="M60.35 132.12L59.75 133.04" fill="none" opacity="1" stroke="#a67a6b" stroke-linecap="butt" stroke-linejoin="miter" stroke-width="2" vectornator:layerName="path"/>
<path d="M54.75 145.35L53.25 143.96" fill="none" opacity="1" stroke="#a67854" stroke-linecap="butt" stroke-linejoin="miter" stroke-width="2" vectornator:layerName="path"/>
<path d="M53.25 143.96L52.04 134.75" fill="none" opacity="1" stroke="#924115" stroke-linecap="butt" stroke-linejoin="miter" stroke-width="2" vectornator:layerName="path"/>
<path d="M52.04 134.75C52.0333 131.103 52.52 127.533 53.5 124.04" fill="none" opacity="1" stroke="#83320c" stroke-linecap="butt" stroke-linejoin="miter" stroke-width="2" vectornator:layerName="path"/>
<path d="M54.21 122.29C56.2633 117.303 56.4233 112.643 54.69 108.31C53.4033 105.11 52.6533 103 52.44 101.98" fill="none" opacity="1" stroke="#a76b3b" stroke-linecap="butt" stroke-linejoin="miter" stroke-width="2" vectornator:layerName="path"/>
<path d="M85.96 111.25C85.3867 113.803 84.47 116.22 83.21 118.5" fill="none" opacity="1" stroke="#a3724d" stroke-linecap="butt" stroke-linejoin="miter" stroke-width="2" vectornator:layerName="path"/>
<path d="M83.21 118.5C82.4833 119.067 81.8467 119.097 81.3 118.59C81.2067 118.497 80.9733 118.017 80.6 117.15C80.38 116.637 80.01 116.15 79.49 115.69" fill="none" opacity="1" stroke="#e4ac5f" stroke-linecap="butt" stroke-linejoin="miter" stroke-width="2" vectornator:layerName="path"/>
<path d="M79.49 115.69C79.13 114.43 78.45 113.34 77.45 112.42C76.65 111.693 75.5233 111.253 74.07 111.1C71.8033 110.86 69.53 110.673 67.25 110.54" fill="none" opacity="1" stroke="#f2d28f" stroke-linecap="butt" stroke-linejoin="miter" stroke-width="2" vectornator:layerName="path"/>
<path d="M67.25 110.54C70.4833 110.493 73.5867 110.103 76.56 109.37C76.9996 109.265 77.302 108.861 77.28 108.41C77.1933 106.597 76.7133 105.117 75.84 103.97C75.4067 103.397 74.5033 102.853 73.13 102.34C72.1433 101.973 71.17 101.48 70.21 100.86" fill="none" opacity="1" stroke="#faedbe" stroke-linecap="butt" stroke-linejoin="miter" stroke-width="2" vectornator:layerName="path"/>
<path d="M67.25 110.54L62.76 110.27C62.4755 110.251 62.2293 110.053 62.14 109.77C61.8933 108.983 61.3467 108.657 60.5 108.79" fill="none" opacity="1" stroke="#f7e2b6" stroke-linecap="butt" stroke-linejoin="miter" stroke-width="2" vectornator:layerName="path"/>
<path d="M53.25 143.96L50.5 144.21" fill="none" opacity="1" stroke="#e7b266" stroke-linecap="butt" stroke-linejoin="miter" stroke-width="2" vectornator:layerName="path"/>
<path d="M50.5 144.21C50.7133 143.497 50.66 142.963 50.34 142.61C50.1067 142.35 49.68 142.263 49.06 142.35C43.5267 143.117 38.09 142.68 32.75 141.04" fill="none" opacity="1" stroke="#c46c1e" stroke-linecap="butt" stroke-linejoin="miter" stroke-width="2" vectornator:layerName="path"/>
<path d="M53.67 158.94C48.7433 162.673 43.6033 164.693 38.25 165C32.5167 165.327 27.03 163.577 21.79 159.75" fill="none" opacity="1" stroke="#e7b266" stroke-linecap="butt" stroke-linejoin="miter" stroke-width="2" vectornator:layerName="path"/>
<path d="M52.04 134.75C51.9467 136.843 51.9067 137.01 51.92 135.25C51.9333 133.303 51.72 131.38 51.28 129.48" fill="none" opacity="1" stroke="#c46c1e" stroke-linecap="butt" stroke-linejoin="miter" stroke-width="2" vectornator:layerName="path"/>
<path d="M54.29 94L52.44 101.98" fill="none" opacity="1" stroke="#a25a22" stroke-linecap="butt" stroke-linejoin="miter" stroke-width="2" vectornator:layerName="path"/>
<path d="M52.44 101.98C48.7933 102.627 45.0767 102.297 41.29 100.99" fill="none" opacity="1" stroke="#f8be5a" stroke-linecap="butt" stroke-linejoin="miter" stroke-width="2" vectornator:layerName="path"/>
<path d="M41.29 100.99C35.0967 98.7767 30.1467 99.9267 26.44 104.44C24.7867 106.447 24.4733 108.79 25.5 111.47C25.5813 111.695 25.5175 111.995 25.33 112.27C25.1967 112.47 25.1467 112.7 25.18 112.96C25.2097 113.237 25.4409 113.499 25.78 113.64C29.6133 115.267 33.6067 116.167 37.76 116.34" fill="none" opacity="1" stroke="#f9d592" stroke-linecap="butt" stroke-linejoin="miter" stroke-width="2" vectornator:layerName="path"/>
<path d="M37.76 116.34L54.21 122.29" fill="none" opacity="1" stroke="#f8be5a" stroke-linecap="butt" stroke-linejoin="miter" stroke-width="2" vectornator:layerName="path"/>
<path d="M54.21 122.29C54.23 122.75 53.9933 123.333 53.5 124.04" fill="none" opacity="1" stroke="#a25a22" stroke-linecap="butt" stroke-linejoin="miter" stroke-width="2" vectornator:layerName="path"/>
<path d="M53.5 124.04C52.2933 123.58 51.6267 124.067 51.5 125.5C51.3067 127.7 51.2333 129.027 51.28 129.48" fill="none" opacity="1" stroke="#d4842b" stroke-linecap="butt" stroke-linejoin="miter" stroke-width="2" vectornator:layerName="path"/>
<path d="M51.28 129.48C48.9733 136.753 44.2133 140.343 37 140.25C34.9933 140.223 33.5767 140.487 32.75 141.04" fill="none" opacity="1" stroke="#e39434" stroke-linecap="butt" stroke-linejoin="miter" stroke-width="2" vectornator:layerName="path"/>
<path d="M32.75 141.04C31.8233 140.833 30.9733 140.963 30.2 141.43C29.4533 141.883 29.4867 142.217 30.3 142.43L39 144.71" fill="none" opacity="1" stroke="#d4842b" stroke-linecap="butt" stroke-linejoin="miter" stroke-width="2" vectornator:layerName="path"/>
<path d="M39 144.71C33.2333 144.317 27.5567 144.7 21.97 145.86" fill="none" opacity="1" stroke="#f7ca72" stroke-linecap="butt" stroke-linejoin="miter" stroke-width="2" vectornator:layerName="path"/>
<path d="M86.5 143.54C86.5267 144.36 86.2967 144.823 85.81 144.93C85.7047 144.958 85.5898 144.92 85.4929 144.827C85.3961 144.734 85.3262 144.594 85.3 144.44C85.2 143.773 84.6833 143.543 83.75 143.75C77.0633 145.23 69.9833 145.783 62.51 145.41" fill="none" opacity="1" stroke="#ead7b9" stroke-linecap="butt" stroke-linejoin="miter" stroke-width="2" vectornator:layerName="path"/>
<path d="M79.49 115.69C79.47 118.243 80.14 120.61 81.5 122.79" fill="none" opacity="1" stroke="#e1a157" stroke-linecap="butt" stroke-linejoin="miter" stroke-width="2" vectornator:layerName="path"/>
<path d="M81.5 122.79L83.75 127.96" fill="none" opacity="1" stroke="#a06745" stroke-linecap="butt" stroke-linejoin="miter" stroke-width="2" vectornator:layerName="path"/>
<path d="M83.75 127.96C82.9233 128.287 82.9333 128.957 83.78 129.97C84.2522 130.541 84.2221 131.375 83.71 131.91C75.93 140.003 68.1433 140.073 60.35 132.12" fill="none" opacity="1" stroke="#f5daad" stroke-linecap="butt" stroke-linejoin="miter" stroke-width="2" vectornator:layerName="path"/>
<path d="M89.46 153L87.96 151.75" fill="none" opacity="1" stroke="#a67a6b" stroke-linecap="butt" stroke-linejoin="miter" stroke-width="2" vectornator:layerName="path"/>
<path d="M87.96 151.75C87.1067 151.143 86.6 149.997 86.44 148.31C86.2867 146.723 86.3067 145.133 86.5 143.54" fill="none" opacity="1" stroke="#956452" stroke-linecap="butt" stroke-linejoin="miter" stroke-width="2" vectornator:layerName="path"/>
<path d="M86.5 143.54C87.6467 140.493 88.1267 137.377 87.94 134.19C87.8667 132.857 87.41 131.69 86.57 130.69C85.73 129.69 84.79 128.78 83.75 127.96" fill="none" opacity="1" stroke="#a67a6b" stroke-linecap="butt" stroke-linejoin="miter" stroke-width="2" vectornator:layerName="path"/>
<path d="M81.5 122.79C82.66 121.61 83.23 120.18 83.21 118.5" fill="none" opacity="1" stroke="#924115" stroke-linecap="butt" stroke-linejoin="miter" stroke-width="2" vectornator:layerName="path"/>
<path d="M50.5 144.21C46.6867 144.917 42.8533 145.083 39 144.71" fill="none" opacity="1" stroke="#d8a25d" stroke-linecap="butt" stroke-linejoin="miter" stroke-width="2" vectornator:layerName="path"/>
<path d="M31.2 185.99C32.52 186.063 33.4533 185.713 34 184.94C34.182 184.679 34.4748 184.542 34.75 184.59C40.6633 185.537 45.6933 184.07 49.84 180.19" fill="none" opacity="1" stroke="#e3983b" stroke-linecap="butt" stroke-linejoin="miter" stroke-width="2" vectornator:layerName="path"/>
<path d="M49.84 180.19L52.57 171.73C52.6919 171.353 52.7064 171.009 52.61 170.78L50.74 166.43C50.6838 166.3 50.5773 166.199 50.444 166.148C50.3107 166.098 50.1616 166.102 50.03 166.16L43 169.21" fill="none" opacity="1" stroke="#e08e2f" stroke-linecap="butt" stroke-linejoin="miter" stroke-width="2" vectornator:layerName="path"/>
<path d="M43 169.21C34.92 170.21 27.8567 168.023 21.81 162.65" fill="none" opacity="1" stroke="#e3983b" stroke-linecap="butt" stroke-linejoin="miter" stroke-width="2" vectornator:layerName="path"/>
<path d="M41.29 100.99C39.1233 100.93 38.77 101.12 40.23 101.56C42.9633 102.38 45.7067 103.157 48.46 103.89C49.32 104.123 50.0733 104.113 50.72 103.86C50.9177 103.781 51.1407 103.798 51.3245 103.905C51.5082 104.013 51.632 104.199 51.66 104.41C52.2867 108.637 50.7967 111.647 47.19 113.44C43.6767 115.18 40.5333 116.147 37.76 116.34" fill="none" opacity="1" stroke="#fde6ac" stroke-linecap="butt" stroke-linejoin="miter" stroke-width="2" vectornator:layerName="path"/>
<path d="M52.79 87.75C52.83 89.19 52.4433 90.35 51.63 91.23C50.9833 91.9233 49.9467 92.26 48.52 92.24C40.7867 92.12 33.1833 91.04 25.71 89" fill="none" opacity="1" stroke="#f7cc7e" stroke-linecap="butt" stroke-linejoin="miter" stroke-width="2" vectornator:layerName="path"/>
<path d="M87.96 151.75C83.6 153.497 79.26 154.267 74.94 154.06C70.62 153.853 66.1533 152.917 61.54 151.25" fill="none" opacity="1" stroke="#ead7b9" stroke-linecap="butt" stroke-linejoin="miter" stroke-width="2" vectornator:layerName="path"/>
<path d="M89.21 163L87.46 165.25" fill="none" opacity="1" stroke="#b79776" stroke-linecap="butt" stroke-linejoin="miter" stroke-width="2" vectornator:layerName="path"/>
<path d="M87.46 165.25C86.4467 166.07 85.2933 166.47 84 166.45C77.1933 166.343 70.4633 165.73 63.81 164.61" fill="none" opacity="1" stroke="#e4cbad" stroke-linecap="butt" stroke-linejoin="miter" stroke-width="2" vectornator:layerName="path"/>
<path d="M102 95.79L102 95.96" fill="none" opacity="1" stroke="#fce18c" stroke-linecap="butt" stroke-linejoin="miter" stroke-width="2" vectornator:layerName="path"/>
<path d="M102 95.96L95.47 98.77C95.1547 98.9054 94.8913 99.1688 94.73 99.51C93.1167 102.917 92.3733 106.337 92.5 109.77C92.5133 110.183 92.6833 110.257 93.01 109.99C94.0567 109.13 95.0267 109.17 95.92 110.11C96.1432 110.34 96.4439 110.467 96.75 110.46C98.0233 110.433 98.92 110.967 99.44 112.06C100.153 113.553 101.007 114.63 102 115.29" fill="none" opacity="1" stroke="#fce792" stroke-linecap="butt" stroke-linejoin="miter" stroke-width="2" vectornator:layerName="path"/>
<path d="M102 115.29C96.7733 118.057 94.8533 122.357 96.24 128.19C96.6667 129.99 97.92 131.26 100 132C103.827 133.367 107.403 133.75 110.73 133.15C113.53 132.65 116.593 132.317 119.92 132.15C120.306 132.127 120.651 132.391 120.73 132.77C121.297 135.45 121.457 138.193 121.21 141C121.097 142.26 120.703 143.33 120.03 144.21C119.31 145.15 118.467 145.983 117.5 146.71" fill="none" opacity="1" stroke="#f5bd56" stroke-linecap="butt" stroke-linejoin="miter" stroke-width="2" vectornator:layerName="path"/>
<path d="M117.5 146.71C117.08 146.657 116.747 146.74 116.5 146.96" fill="none" opacity="1" stroke="#b98d47" stroke-linecap="butt" stroke-linejoin="miter" stroke-width="2" vectornator:layerName="path"/>
<path d="M116.5 146.96C114.553 147.667 111.887 148.013 108.5 148C103.607 147.98 99.6467 146.477 96.62 143.49C96.5595 143.43 96.4812 143.392 96.4072 143.386C96.3332 143.38 96.2717 143.408 96.24 143.46C96.1933 143.533 96.1833 143.63 96.21 143.75" fill="none" opacity="1" stroke="#e8ab4e" stroke-linecap="butt" stroke-linejoin="miter" stroke-width="2" vectornator:layerName="path"/>
<path d="M96.21 143.75L95.29 143.75" fill="none" opacity="1" stroke="#fce398" stroke-linecap="butt" stroke-linejoin="miter" stroke-width="2" vectornator:layerName="path"/>
<path d="M94.96 139C95.14 131.873 94.0067 125.03 91.56 118.47" fill="none" opacity="1" stroke="#a7713c" stroke-linecap="butt" stroke-linejoin="miter" stroke-width="2" vectornator:layerName="path"/>
<path d="M43 169.21C44.28 169.323 45.5267 169.203 46.74 168.85C47.7267 168.563 48.4167 168.457 48.81 168.53C49.8567 168.717 50.2533 169.457 50 170.75C49.3333 174.15 49.28 177.297 49.84 180.19" fill="none" opacity="1" stroke="#f0aa43" stroke-linecap="butt" stroke-linejoin="miter" stroke-width="2" vectornator:layerName="path"/>
<path d="M27.25 183.96C25.9967 182.24 24.4967 180.767 22.75 179.54" fill="none" opacity="1" stroke="#b47a34" stroke-linecap="butt" stroke-linejoin="miter" stroke-width="2" vectornator:layerName="path"/>
<path d="M87.46 170.5C86.6133 170.52 86.0233 171 85.69 171.94C85.3167 172.98 84.5033 173.487 83.25 173.46" fill="none" opacity="1" stroke="#d8b798" stroke-linecap="butt" stroke-linejoin="miter" stroke-width="2" vectornator:layerName="path"/>
<path d="M83.25 173.46C83.29 173.027 83.16 172.707 82.86 172.5C82.6733 172.367 82.3767 172.32 81.97 172.36C78.79 172.627 75.2167 172.423 71.25 171.75C70.17 171.563 69.6567 172.063 69.71 173.25" fill="none" opacity="1" stroke="#c49570" stroke-linecap="butt" stroke-linejoin="miter" stroke-width="2" vectornator:layerName="path"/>
<path d="M69.71 173.25L65.68 169.18" fill="none" opacity="1" stroke="#d8b798" stroke-linecap="butt" stroke-linejoin="miter" stroke-width="2" vectornator:layerName="path"/>
<path d="M87.46 166.43L87.46 165.25" fill="none" opacity="1" stroke="#a17451" stroke-linecap="butt" stroke-linejoin="miter" stroke-width="2" vectornator:layerName="path"/>
<path d="M96.75 84.96C95.3433 85.66 95.3633 86.2367 96.81 86.69C101.643 88.19 107.22 88.52 113.54 87.68" fill="none" opacity="1" stroke="#f3c158" stroke-linecap="butt" stroke-linejoin="miter" stroke-width="2" vectornator:layerName="path"/>
<path d="M116.29 91.5C115.137 92.7467 113.707 93.5667 112 93.96" fill="none" opacity="1" stroke="#f4b43e" stroke-linecap="butt" stroke-linejoin="miter" stroke-width="2" vectornator:layerName="path"/>
<path d="M112 93.96C110.06 94.2667 108.117 94.5667 106.17 94.86C106.09 94.8733 105.477 94.9 104.33 94.94C103.477 94.9667 102.7 95.25 102 95.79" fill="none" opacity="1" stroke="#f8ce69" stroke-linecap="butt" stroke-linejoin="miter" stroke-width="2" vectornator:layerName="path"/>
<path d="M102 95.79L98.74 95.39C98.2933 95.33 97.9667 95.3233 97.76 95.37C95.5267 95.81 94.44 94.8533 94.5 92.5C94.5267 91.5333 94.1233 91.1167 93.29 91.25" fill="none" opacity="1" stroke="#f9c751" stroke-linecap="butt" stroke-linejoin="miter" stroke-width="2" vectornator:layerName="path"/>
<path d="M115.21 101.57C115.197 100.823 115.157 100.97 115.09 102.01C115.05 102.59 115.007 103.17 114.96 103.75" fill="none" opacity="1" stroke="#fcdc8c" stroke-linecap="butt" stroke-linejoin="miter" stroke-width="2" vectornator:layerName="path"/>
<path d="M114.96 103.75C114.733 103.463 114.65 103.13 114.71 102.75" fill="none" opacity="1" stroke="#fdf4d2" stroke-linecap="butt" stroke-linejoin="miter" stroke-width="2" vectornator:layerName="path"/>
<path d="M114.71 102.75C114.883 100.637 113.98 99.3867 112 99C109.907 98.5867 108.12 98.0167 106.64 97.29C106.429 97.1877 106.213 96.9357 106.04 96.59C105.787 96.0833 105.273 95.8867 104.5 96C104.16 96.0467 103.327 96.0333 102 95.96" fill="none" opacity="1" stroke="#fbeeaa" stroke-linecap="butt" stroke-linejoin="miter" stroke-width="2" vectornator:layerName="path"/>
<path d="M116.5 146.96C117.107 146.987 117.44 147.347 117.5 148.04" fill="none" opacity="1" stroke="#a35e21" stroke-linecap="butt" stroke-linejoin="miter" stroke-width="2" vectornator:layerName="path"/>
<path d="M117.5 148.04C110.627 150.36 104.107 149.7 97.94 146.06C97.1667 145.607 96.59 144.837 96.21 143.75" fill="none" opacity="1" stroke="#e7b371" stroke-linecap="butt" stroke-linejoin="miter" stroke-width="2" vectornator:layerName="path"/>
<path d="M119 146.79L117.5 146.71" fill="none" opacity="1" stroke="#b17029" stroke-linecap="butt" stroke-linejoin="miter" stroke-width="2" vectornator:layerName="path"/>
<path d="M117.5 148.04L118.5 147.96" fill="none" opacity="1" stroke="#b8966b" stroke-linecap="butt" stroke-linejoin="miter" stroke-width="2" vectornator:layerName="path"/>
<path d="M123.54 155.75C122.7 157.55 121.45 158.987 119.79 160.06C117.677 161.42 115.497 162.663 113.25 163.79" fill="none" opacity="1" stroke="#b8966b" stroke-linecap="butt" stroke-linejoin="miter" stroke-width="2" vectornator:layerName="path"/>
<path d="M113.25 163.79C107.523 164.877 102.357 163.767 97.75 160.46" fill="none" opacity="1" stroke="#dbb78a" stroke-linecap="butt" stroke-linejoin="miter" stroke-width="2" vectornator:layerName="path"/>
<path d="M114.71 102.75L109.55 102.29C109.269 102.265 108.961 102.415 108.73 102.69C108.083 103.47 107.193 104.76 106.06 106.56C105.067 108.14 105.013 109.423 105.9 110.41C106.4 110.97 107.233 111.25 108.4 111.25C109.333 111.25 110.27 111.25 111.21 111.25" fill="none" opacity="1" stroke="#fdfad7" stroke-linecap="butt" stroke-linejoin="miter" stroke-width="2" vectornator:layerName="path"/>
<path d="M111.21 111.25L111.25 111.96" fill="none" opacity="1" stroke="#fbe291" stroke-linecap="butt" stroke-linejoin="miter" stroke-width="2" vectornator:layerName="path"/>
<path d="M111.25 111.96C108.03 112.707 104.947 113.817 102 115.29" fill="none" opacity="1" stroke="#f4ca73" stroke-linecap="butt" stroke-linejoin="miter" stroke-width="2" vectornator:layerName="path"/>
<path d="M69.71 173.25C70.8567 174.103 72.1167 174.547 73.49 174.58C75.0433 174.62 75.8867 174.643 76.02 174.65C78.5 174.857 80.91 174.46 83.25 173.46" fill="none" opacity="1" stroke="#cea481" stroke-linecap="butt" stroke-linejoin="miter" stroke-width="2" vectornator:layerName="path"/>
<path d="M118.35 91.17C117.497 91.15 116.81 91.26 116.29 91.5" fill="none" opacity="1" stroke="#e3983b" stroke-linecap="butt" stroke-linejoin="miter" stroke-width="2" vectornator:layerName="path"/>
<path d="M116.29 91.5C114.997 90.8533 114.78 90.0567 115.64 89.11C115.903 88.8158 116.06 88.5111 116.08 88.26C116.147 87.58 115.967 86.9933 115.54 86.5" fill="none" opacity="1" stroke="#e4982a" stroke-linecap="butt" stroke-linejoin="miter" stroke-width="2" vectornator:layerName="path"/>
<path d="M115.54 82.5L115.54 86.5" fill="none" opacity="1" stroke="#e6b682" stroke-linecap="butt" stroke-linejoin="miter" stroke-width="2" vectornator:layerName="path"/>
<path d="M115.54 86.5C115.4 87.4133 114.733 87.8067 113.54 87.68" fill="none" opacity="1" stroke="#f7d385" stroke-linecap="butt" stroke-linejoin="miter" stroke-width="2" vectornator:layerName="path"/>
<path d="M113.54 87.68C112.12 86.84 110.357 86.53 108.25 86.75C104.65 87.13 100.817 86.5333 96.75 84.96" fill="none" opacity="1" stroke="#f5e0af" stroke-linecap="butt" stroke-linejoin="miter" stroke-width="2" vectornator:layerName="path"/>
<path d="M96.75 84.96C96.5633 84.3133 96.16 83.91 95.54 83.75" fill="none" opacity="1" stroke="#f7d385" stroke-linecap="butt" stroke-linejoin="miter" stroke-width="2" vectornator:layerName="path"/>
<path d="M119.32 95.43C119.36 100.377 120.11 105.19 121.57 109.87" fill="none" opacity="1" stroke="#f8c261" stroke-linecap="butt" stroke-linejoin="miter" stroke-width="2" vectornator:layerName="path"/>
<path d="M126.46 129.5L123.89 127.28C123.557 126.993 123.343 126.743 123.25 126.53C122.143 124.003 121.543 121.597 121.45 119.31C121.437 118.99 121.347 118.677 121.18 118.37C120.42 116.963 119.547 114.57 118.56 111.19C118.113 109.637 117.343 109.477 116.25 110.71" fill="none" opacity="1" stroke="#f0aa43" stroke-linecap="butt" stroke-linejoin="miter" stroke-width="2" vectornator:layerName="path"/>
<path d="M116.25 110.71C117.223 107.53 116.877 104.483 115.21 101.57" fill="none" opacity="1" stroke="#f8c261" stroke-linecap="butt" stroke-linejoin="miter" stroke-width="2" vectornator:layerName="path"/>
<path d="M115.21 101.57C116.37 97.5033 115.3 94.9667 112 93.96" fill="none" opacity="1" stroke="#f7ce79" stroke-linecap="butt" stroke-linejoin="miter" stroke-width="2" vectornator:layerName="path"/>
<path d="M116.25 110.71C114.723 111.663 113.057 112.08 111.25 111.96" fill="none" opacity="1" stroke="#f5b855" stroke-linecap="butt" stroke-linejoin="miter" stroke-width="2" vectornator:layerName="path"/>
<path d="M111.21 111.25C114.777 110.043 116.027 107.543 114.96 103.75" fill="none" opacity="1" stroke="#fee7b9" stroke-linecap="butt" stroke-linejoin="miter" stroke-width="2" vectornator:layerName="path"/>
<path d="M123.46 161.75C121.513 161.637 119.657 162.367 117.89 163.94C117.017 164.713 116.01 165.237 114.87 165.51C113.55 165.83 113.01 165.257 113.25 163.79" fill="none" opacity="1" stroke="#97613a" stroke-linecap="butt" stroke-linejoin="miter" stroke-width="2" vectornator:layerName="path"/>
<path d="M115.75 180.04L114.75 179.96" fill="none" opacity="1" stroke="#c67f40" stroke-linecap="butt" stroke-linejoin="miter" stroke-width="2" vectornator:layerName="path"/>
<path d="M114.75 179.96C115.59 176.913 115.78 173.86 115.32 170.8C115.087 169.207 114.517 168.04 113.61 167.3C112.537 166.427 111.187 165.973 109.56 165.94C105.18 165.847 101.1 164.493 97.32 161.88" fill="none" opacity="1" stroke="#d5a86e" stroke-linecap="butt" stroke-linejoin="miter" stroke-width="2" vectornator:layerName="path"/>
<path d="M114.75 179.96L110.43 183.39C109.729 183.943 108.648 183.864 107.83 183.2C106.37 182.007 104.737 181.237 102.93 180.89C102.717 180.85 102.42 180.72 102.04 180.5L97.74 177.97" fill="none" opacity="1" stroke="#e1a555" stroke-linecap="butt" stroke-linejoin="miter" stroke-width="2" vectornator:layerName="path"/>
<path d="M109.5 185.54C105.507 185.927 101.507 186.247 97.5 186.5C95.6133 186.62 94.4333 186.037 93.96 184.75" fill="none" opacity="1" stroke="#c46c1e" stroke-linecap="butt" stroke-linejoin="miter" stroke-width="2" vectornator:layerName="path"/>
</g>
<path d="M116.75 24.46C116.237 24.28 115.91 24.44 115.77 24.94C115.677 25.2437 115.461 25.4711 115.2 25.54C114.133 25.7933 113.38 26.26 112.94 26.94C112.187 28.0867 110.497 31.0267 107.87 35.76C107.663 36.1267 107.55 36.5167 107.53 36.93C107.51 37.35 107.487 37.77 107.46 38.19C107.447 38.5337 107.331 38.8506 107.13 39.09L104.03 42.81C103.849 43.0302 103.557 43.2026 103.2 43.3C101.9 43.6667 100.73 44.4633 99.69 45.69C99.13 46.3433 98.3167 46.5167 97.25 46.21C102.71 39.2233 106.22 31.42 107.78 22.8C108.24 20.2667 108.247 18.2333 107.8 16.7C107.047 14.14 105.38 12.6567 102.8 12.25C100.933 11.9567 98.86 12.48 96.58 13.82C92.4267 16.2733 88.57 19.48 85.01 23.44C84.3541 24.1774 84.1068 25.1893 84.35 26.14C86.69 35.1533 86.5733 44.2733 84 53.5C83.4933 55.3133 83.3133 56.5633 83.46 57.25C84.22 58.0767 85.1333 58.42 86.2 58.28C87.86 60.02 89.84 60.97 92.14 61.13C93.1333 65.2167 93.7433 69.0933 93.97 72.76C93.9898 73.0927 94.1567 73.3993 94.4254 73.5965C94.6941 73.7937 95.0367 73.8609 95.36 73.78C103.513 71.74 111.413 69.0833 119.06 65.81C126.307 62.7033 132.35 57.83 137.19 51.19C139.83 47.5633 140.877 43.8133 140.33 39.94C139.843 36.5533 138.247 33.8667 135.54 31.88C132.82 29.8933 129.557 29.0033 125.75 29.21L124.81 28.94C124.537 28.8652 124.331 28.6783 124.27 28.45C124.177 28.09 123.94 27.9033 123.56 27.89C123.437 27.8813 123.322 27.8287 123.241 27.744C123.16 27.6593 123.12 27.5498 123.13 27.44C123.223 26.4467 123.097 25.4767 122.75 24.53C122.655 24.2665 122.744 23.9685 122.97 23.79C123.77 23.17 123.947 22.42 123.5 21.54C132.5 20.7333 139.687 24.0333 145.06 31.44C146.88 33.9467 148.07 36.5667 148.63 39.3C149.143 41.7933 148.977 44.5733 148.13 47.64C147.063 51.54 145.333 54.9733 142.94 57.94C137.1 65.1667 129.627 70.8067 120.52 74.86C120.427 74.9009 120.363 74.9877 120.347 75.0941C120.332 75.2005 120.366 75.3139 120.44 75.4L123.04 78.5C124.027 81.2667 124.463 84.2567 124.35 87.47C130.95 94.6033 132.373 102.583 128.62 111.41C128.388 111.967 128.44 112.601 128.76 113.11C130.387 115.683 131.817 118.337 133.05 121.07C134.403 124.083 135.15 126.97 135.29 129.73C135.597 135.797 134.107 141.517 130.82 146.89C130.664 147.15 130.594 147.468 130.62 147.8L131.46 158.25L130.96 162.75C129.8 169.177 127.55 175.177 124.21 180.75C123.763 181.15 123.527 181.637 123.5 182.21C121.147 182.243 119.83 183.343 119.55 185.51C119.503 185.837 119.387 186.133 119.2 186.4C118.553 187.327 118.12 188.393 117.9 189.6C113.84 192.553 109.29 194.283 104.25 194.79C98.71 194.923 93.2933 194.173 88 192.54C87.7333 192.487 87.4667 192.473 87.2 192.5C86.98 192.52 86.74 192.613 86.48 192.78C83.8867 194.473 81.18 195.807 78.36 196.78L75.25 197.46L69.25 197.21L65.5 196.04C61.7133 194.813 58.57 192.68 56.07 189.64C55.9925 189.548 55.8778 189.496 55.7576 189.498C55.6374 189.5 55.5245 189.556 55.45 189.65C53.09 192.703 49.9533 194.43 46.04 194.83C37.7333 196.417 29.9767 195.047 22.77 190.72C18.7567 187.713 15.84 183.837 14.02 179.09C12.76 175.803 12.42 172.607 13 169.5C13.3467 167.64 13.5067 165.913 13.48 164.32C13.4667 163.633 13.1233 161.957 12.45 159.29C11.69 156.263 11.6633 153.05 12.37 149.65C12.6567 148.277 12.4733 146.97 11.82 145.73C9.38667 141.13 8.56333 136.057 9.35 130.51C10.13 124.943 12.09 119.163 15.23 113.17C15.49 112.676 15.5879 112.113 15.51 111.56C14.67 105.72 14.8833 99.9433 16.15 94.23C16.89 90.89 17.79 87.5967 18.85 84.35C20.05 80.67 20.8833 78.4667 21.35 77.74C22.7433 75.58 24.94 74.3067 27.94 73.92C28.7467 73.82 28.9367 73.58 28.51 73.2C28.3767 73.08 28.1833 72.9933 27.93 72.94C26.7167 72.6867 25.3867 72.1433 23.94 71.31C19.62 68.8367 15.9033 65.8467 12.79 62.34C9.26333 58.3733 6.96333 54.3167 5.89 50.17C4.77667 45.89 4.96333 41.6567 6.45 37.47C7.84333 33.55 10.1867 30.23 13.48 27.51C19.72 22.3633 26.98 21.51 35.26 24.95C36.74 25.5633 38.2867 26.4333 39.9 27.56C41.3067 28.54 42.7367 29.5967 44.19 30.73C44.6233 31.0633 44.8233 30.96 44.79 30.42C44.5367 26.1267 44.8567 22.03 45.75 18.13C46.8567 13.2833 48.6633 9.71667 51.17 7.43C54.7033 4.20333 59.3133 3.56 65 5.5C70.14 7.25333 74.3467 10.4167 77.62 14.99C77.8933 15.3767 78.1867 15.9733 78.5 16.78C79.1533 18.46 79.9133 18.5333 80.78 17C81.1933 16.28 81.5233 15.77 81.77 15.47C85.3367 11.1967 89.6 8.13667 94.56 6.29C99.9533 4.28333 104.92 4.22 109.46 6.1C116.133 8.86667 118.563 14.9867 116.75 24.46ZM70.25 53.04C80.0367 48.78 82.5633 41.4367 77.83 31.01C76.23 26.93 73.69 23.3167 70.21 20.17C68.23 18.3833 66.6633 17.0367 65.51 16.13C63.89 14.8567 62.1 13.7967 60.14 12.95C59.06 12.4833 58.08 12.6433 57.2 13.43C56.3867 14.15 55.65 14.93 54.99 15.77C54.3767 16.55 53.8667 17.48 53.46 18.56C50.44 26.54 51.04 34.3233 55.26 41.91C57.4867 45.9233 60.3567 49.41 63.87 52.37C65.03 53.3567 65.93 54.55 66.57 55.95C66.9767 56.85 67.3233 56.83 67.61 55.89C67.9833 54.67 68.8633 53.72 70.25 53.04ZM39.56 36.19C35.5933 33.2833 31.97 31.49 28.69 30.81C23.0167 29.6367 18.58 31.0967 15.38 35.19C13.7133 37.33 12.8233 39.76 12.71 42.48C12.5967 45.1933 13.1367 47.8433 14.33 50.43C16.2167 54.5167 18.8867 58 22.34 60.88C30.36 67.5533 39.47 72.05 49.67 74.37C50.0233 74.45 50.3733 74.6133 50.72 74.86C51.0467 75.0867 51.3867 75.29 51.74 75.47C51.8423 75.5258 51.9656 75.5272 52.0709 75.4735C52.1761 75.4199 52.2503 75.318 52.27 75.2C52.97 71.4533 54.46 68.0467 56.74 64.98C57.7 63.68 58.94 62.7933 60.46 62.32C60.5721 62.2857 60.6629 62.2027 60.7059 62.0952C60.7489 61.9877 60.7393 61.8677 60.68 61.77C57.1067 55.9567 53.2433 50.3367 49.09 44.91C47.0633 42.2633 43.8867 39.3567 39.56 36.19ZM60.41 94.1C59.4233 94.9933 58.22 95.31 56.8 95.05C56.5284 95.0008 56.2884 94.7761 56.17 94.46C55.8633 93.6733 55.4433 93.64 54.91 94.36C54.8639 94.4242 54.7876 94.4589 54.7057 94.4529C54.6239 94.447 54.547 94.401 54.5 94.33L54.29 94L52.79 87.75L52.15 83.76C52.0634 83.2466 51.6906 82.8091 51.17 82.61C45.4567 80.3967 39.83 78.85 34.29 77.97C33.0167 77.7633 31.89 78.0833 30.91 78.93C27.9433 81.49 26.21 84.8467 25.71 89C24.8433 91.92 24.0367 94.8567 23.29 97.81C22.1967 102.17 22.13 107.24 23.09 113.02C23.1672 113.509 23.0565 114.009 22.78 114.42C20.6467 117.56 19.0367 120.947 17.95 124.58C16.7567 128.587 16.4367 132.247 16.99 135.56C17.6367 139.38 19.2967 142.813 21.97 145.86C23.5033 148.413 23.0567 150.367 20.63 151.72C19.11 152.567 18.7233 153.72 19.47 155.18L21.79 159.75C22.2833 161.117 22.29 162.083 21.81 162.65C19.3233 168.877 19.6367 174.507 22.75 179.54C23.5767 181.72 25.0767 183.193 27.25 183.96L31.2 185.99C38.3933 188.323 45.13 187.827 51.41 184.5C53.7167 183.273 55.45 181.6 56.61 179.48C59.69 173.82 59.07 168.167 54.75 162.52C53.87 161.373 53.51 160.18 53.67 158.94C55.01 154.933 55.7033 152.537 55.75 151.75C55.89 149.403 55.5567 147.27 54.75 145.35C55.1633 140.95 56.1 137.02 57.56 133.56C57.98 132.573 58.71 132.4 59.75 133.04C57.9567 135.607 57.54 138.093 58.5 140.5C59.14 142.113 60.4767 143.75 62.51 145.41L61.54 151.25C59.2 156.443 59.9567 160.897 63.81 164.61L65.68 169.18C65.26 174.367 64.0967 179.32 62.19 184.04C62.0764 184.322 62.1531 184.641 62.38 184.83C65.62 187.663 69.2967 189.183 73.41 189.39C75.6567 189.503 77.9333 188.927 80.24 187.66C82.88 186.2 85.4367 184.407 87.91 182.28C89.2167 181.16 89.6667 179.743 89.26 178.03L87.46 170.5L87.46 166.43C88.6733 165.557 89.2567 164.413 89.21 163C91.77 159.66 91.8533 156.327 89.46 153C89.6133 151.993 89.9633 151.087 90.51 150.28C91.2967 149.12 91.7733 148.31 91.94 147.85C92.62 145.95 93.17 144.017 93.59 142.05C93.65 141.77 93.6267 141.45 93.52 141.09C93.1733 139.87 93.6533 139.173 94.96 139L95.29 143.75C94.4233 147.07 94.64 150.423 95.94 153.81C96.6133 155.583 97.2167 157.8 97.75 160.46C97.4567 160.987 97.3133 161.46 97.32 161.88C96.7 164.1 96.3433 167.39 96.25 171.75C96.19 174.503 96.6867 176.577 97.74 177.97C95.9667 179.91 94.7067 182.17 93.96 184.75C92.3533 187.177 92.7467 188.32 95.14 188.18C96.4 188.107 97.31 188.083 97.87 188.11C101.983 188.323 105.86 187.467 109.5 185.54C112.033 184.2 114.117 182.367 115.75 180.04C119.337 174.38 121.907 168.283 123.46 161.75C123.98 159.75 124.007 157.75 123.54 155.75C122.72 152.617 121.04 150.02 118.5 147.96C118.473 147.487 118.64 147.097 119 146.79C119.82 146.11 121.09 144.783 122.81 142.81C126.37 138.743 127.587 134.307 126.46 129.5C126.173 124.46 124.54 119.607 121.56 114.94C120.407 113.127 120.41 111.437 121.57 109.87C122.743 104.837 121.993 100.023 119.32 95.43C119.447 94.0233 119.123 92.6033 118.35 91.17C117.203 89.9767 116.607 88.5867 116.56 87C116.513 85.4333 116.173 83.9333 115.54 82.5C114.493 79.3067 112.167 77.9933 108.56 78.56C102.773 79.48 98.52 80.2 95.8 80.72C95.4958 80.7806 95.266 81.0184 95.23 81.31C95.1367 82.1233 95.24 82.9367 95.54 83.75L93.29 91.25C91.7033 100.283 91.1267 109.357 91.56 118.47C91.54 116.81 90.97 116.14 89.85 116.46C89.49 116.567 89.3967 116.453 89.57 116.12C89.8567 115.567 89.8967 114.763 89.69 113.71C89.6314 113.418 89.3733 113.21 89.08 113.22C86.9133 113.3 85.8733 112.643 85.96 111.25C86.5933 107.77 86.7733 105.27 86.5 103.75C86.0867 101.43 84.5167 99.43 81.79 97.75C88.7033 89.2167 90.4167 79.6533 86.93 69.06C86.3233 67.2 85.2133 65.7233 83.6 64.63C79.1 61.59 74.31 61.1167 69.23 63.21C60.5833 66.7767 56.8633 73.2867 58.07 82.74C58.55 86.48 59.33 90.2667 60.41 94.1Z" fill="#390302" fill-rule="nonzero" opacity="1" stroke="none" vectornator:layerName="path"/>
<path d="M97.25 46.21L90.79 53.75C90.7767 52.99 90.2733 52.7633 89.28 53.07C88.4933 53.31 87.6933 53.4933 86.88 53.62C85.4467 53.8333 84.6433 54.3567 84.47 55.19C84.4049 55.5086 84.2583 55.7878 84.05 55.99C83.69 56.33 83.4933 56.75 83.46 57.25C83.3133 56.5633 83.4933 55.3133 84 53.5C86.5733 44.2733 86.69 35.1533 84.35 26.14C84.1068 25.1893 84.3541 24.1774 85.01 23.44C88.57 19.48 92.4267 16.2733 96.58 13.82C98.86 12.48 100.933 11.9567 102.8 12.25C105.38 12.6567 107.047 14.14 107.8 16.7C108.247 18.2333 108.24 20.2667 107.78 22.8C106.22 31.42 102.71 39.2233 97.25 46.21Z" fill="#8aa664" fill-rule="nonzero" opacity="1" stroke="none" vectornator:layerName="path"/>
<path d="M77.83 31.01C76.65 33.9233 76.6433 36.8533 77.81 39.8C77.9367 40.1133 77.9767 40.43 77.93 40.75C77.5033 43.6967 76.7967 45.8 75.81 47.06C74.7767 48.3867 72.42 50.1367 68.74 52.31C68.4568 52.4778 68.3305 52.7959 68.45 53.04C68.7233 53.5933 69.3233 53.5933 70.25 53.04C68.8633 53.72 67.9833 54.67 67.61 55.89C67.3233 56.83 66.9767 56.85 66.57 55.95C65.93 54.55 65.03 53.3567 63.87 52.37C60.3567 49.41 57.4867 45.9233 55.26 41.91C51.04 34.3233 50.44 26.54 53.46 18.56C53.8667 17.48 54.3767 16.55 54.99 15.77C55.65 14.93 56.3867 14.15 57.2 13.43C58.08 12.6433 59.06 12.4833 60.14 12.95C62.1 13.7967 63.89 14.8567 65.51 16.13C66.6633 17.0367 68.23 18.3833 70.21 20.17C73.69 23.3167 76.23 26.93 77.83 31.01Z" fill="#a5c87e" fill-rule="nonzero" opacity="1" stroke="none" vectornator:layerName="path"/>
<path d="M123.5 21.54C123.947 22.42 123.77 23.17 122.97 23.79C122.744 23.9685 122.655 24.2665 122.75 24.53C123.097 25.4767 123.223 26.4467 123.13 27.44C123.12 27.5498 123.16 27.6593 123.241 27.744C123.322 27.8287 123.437 27.8813 123.56 27.89C123.94 27.9033 124.177 28.09 124.27 28.45C124.331 28.6783 124.537 28.8652 124.81 28.94L125.75 29.21C121.397 29.7433 117.813 32.0067 115 36C112.42 39.6667 107.83 45.0767 101.23 52.23C100.377 53.15 98.8233 54.5867 96.57 56.54C94.95 57.9533 93.4733 59.4833 92.14 61.13C89.84 60.97 87.86 60.02 86.2 58.28L90.79 53.75L97.25 46.21C98.3167 46.5167 99.13 46.3433 99.69 45.69C100.73 44.4633 101.9 43.6667 103.2 43.3C103.557 43.2026 103.849 43.0302 104.03 42.81L107.13 39.09C107.331 38.8506 107.447 38.5337 107.46 38.19C107.487 37.77 107.51 37.35 107.53 36.93C107.55 36.5167 107.663 36.1267 107.87 35.76C110.497 31.0267 112.187 28.0867 112.94 26.94C113.38 26.26 114.133 25.7933 115.2 25.54C115.461 25.4711 115.677 25.2437 115.77 24.94C115.91 24.44 116.237 24.28 116.75 24.46C118.743 22.8667 120.993 21.8933 123.5 21.54Z" fill="#480e03" fill-rule="nonzero" opacity="1" stroke="none" vectornator:layerName="path"/>
<path d="M125.75 29.21C129.557 29.0033 132.82 29.8933 135.54 31.88C138.247 33.8667 139.843 36.5533 140.33 39.94C140.877 43.8133 139.83 47.5633 137.19 51.19C132.35 57.83 126.307 62.7033 119.06 65.81C111.413 69.0833 103.513 71.74 95.36 73.78C95.0367 73.8609 94.6941 73.7937 94.4254 73.5965C94.1567 73.3993 93.9898 73.0927 93.97 72.76C93.7433 69.0933 93.1333 65.2167 92.14 61.13C93.4733 59.4833 94.95 57.9533 96.57 56.54C98.8233 54.5867 100.377 53.15 101.23 52.23C107.83 45.0767 112.42 39.6667 115 36C117.813 32.0067 121.397 29.7433 125.75 29.21Z" fill="#435328" fill-rule="nonzero" opacity="1" stroke="none" vectornator:layerName="path"/>
<path d="M39.56 36.19C43.8867 39.3567 47.0633 42.2633 49.09 44.91C53.2433 50.3367 57.1067 55.9567 60.68 61.77C60.7393 61.8677 60.7489 61.9877 60.7059 62.0952C60.6629 62.2027 60.5721 62.2857 60.46 62.32C58.94 62.7933 57.7 63.68 56.74 64.98C54.46 68.0467 52.97 71.4533 52.27 75.2C52.2503 75.318 52.1761 75.4199 52.0709 75.4735C51.9656 75.5272 51.8423 75.5258 51.74 75.47C51.3867 75.29 51.0467 75.0867 50.72 74.86C50.3733 74.6133 50.0233 74.45 49.67 74.37C39.47 72.05 30.36 67.5533 22.34 60.88C18.8867 58 16.2167 54.5167 14.33 50.43C13.1367 47.8433 12.5967 45.1933 12.71 42.48C12.8233 39.76 13.7133 37.33 15.38 35.19C18.58 31.0967 23.0167 29.6367 28.69 30.81C31.97 31.49 35.5933 33.2833 39.56 36.19Z" fill="#87af6e" fill-rule="nonzero" opacity="1" stroke="none" vectornator:layerName="path"/>
<path d="M77.83 31.01C82.5633 41.4367 80.0367 48.78 70.25 53.04C69.3233 53.5933 68.7233 53.5933 68.45 53.04C68.3305 52.7959 68.4568 52.4778 68.74 52.31C72.42 50.1367 74.7767 48.3867 75.81 47.06C76.7967 45.8 77.5033 43.6967 77.93 40.75C77.9767 40.43 77.9367 40.1133 77.81 39.8C76.6433 36.8533 76.65 33.9233 77.83 31.01Z" fill="#a5c87e" fill-rule="nonzero" opacity="1" stroke="none" vectornator:layerName="path"/>
<path d="M90.79 53.75L86.2 58.28C85.1333 58.42 84.22 58.0767 83.46 57.25C83.4933 56.75 83.69 56.33 84.05 55.99C84.2583 55.7878 84.4049 55.5086 84.47 55.19C84.6433 54.3567 85.4467 53.8333 86.88 53.62C87.6933 53.4933 88.4933 53.31 89.28 53.07C90.2733 52.7633 90.7767 52.99 90.79 53.75Z" fill="#8aa664" fill-rule="nonzero" opacity="1" stroke="none" vectornator:layerName="path"/>
<path d="M81.79 97.75C78.2767 99.85 74.4167 100.887 70.21 100.86L61.24 100.4C61.3733 98.0333 61.0967 95.9333 60.41 94.1C59.33 90.2667 58.55 86.48 58.07 82.74C56.8633 73.2867 60.5833 66.7767 69.23 63.21C74.31 61.1167 79.1 61.59 83.6 64.63C85.2133 65.7233 86.3233 67.2 86.93 69.06C90.4167 79.6533 88.7033 89.2167 81.79 97.75Z" fill="#f6c658" fill-rule="nonzero" opacity="1" stroke="none" vectornator:layerName="path"/>
<path d="M124.35 87.47C124.463 84.2567 124.027 81.2667 123.04 78.5C129.24 75.6933 134.643 74.0267 139.25 73.5C142.93 73.08 146.503 73.49 149.97 74.73C153.27 75.91 155.03 78.1667 155.25 81.5C155.357 83.18 154.66 84.64 153.16 85.88C149.533 88.86 145.503 89.3733 141.07 87.42C135.89 85.14 130.317 85.1567 124.35 87.47Z" fill="#eec9ba" fill-rule="nonzero" opacity="1" stroke="none" vectornator:layerName="path"/>
<path d="M52.79 87.75C52.83 89.19 52.4433 90.35 51.63 91.23C50.9833 91.9233 49.9467 92.26 48.52 92.24C40.7867 92.12 33.1833 91.04 25.71 89C26.21 84.8467 27.9433 81.49 30.91 78.93C31.89 78.0833 33.0167 77.7633 34.29 77.97C39.83 78.85 45.4567 80.3967 51.17 82.61C51.6906 82.8091 52.0634 83.2466 52.15 83.76L52.79 87.75Z" fill="#fbebbb" fill-rule="nonzero" opacity="1" stroke="none" vectornator:layerName="path"/>
<path d="M115.54 82.5L115.54 86.5C115.4 87.4133 114.733 87.8067 113.54 87.68C112.12 86.84 110.357 86.53 108.25 86.75C104.65 87.13 100.817 86.5333 96.75 84.96C96.5633 84.3133 96.16 83.91 95.54 83.75C95.24 82.9367 95.1367 82.1233 95.23 81.31C95.266 81.0184 95.4958 80.7806 95.8 80.72C98.52 80.2 102.773 79.48 108.56 78.56C112.167 77.9933 114.493 79.3067 115.54 82.5Z" fill="#f9f1dc" fill-rule="nonzero" opacity="1" stroke="none" vectornator:layerName="path"/>
<path d="M115.54 82.5C116.173 83.9333 116.513 85.4333 116.56 87C116.607 88.5867 117.203 89.9767 118.35 91.17C117.497 91.15 116.81 91.26 116.29 91.5C114.997 90.8533 114.78 90.0567 115.64 89.11C115.903 88.8158 116.06 88.5111 116.08 88.26C116.147 87.58 115.967 86.9933 115.54 86.5L115.54 82.5Z" fill="#d27b27" fill-rule="nonzero" opacity="1" stroke="none" vectornator:layerName="path"/>
<path d="M95.54 83.75C96.16 83.91 96.5633 84.3133 96.75 84.96C95.3433 85.66 95.3633 86.2367 96.81 86.69C101.643 88.19 107.22 88.52 113.54 87.68C114.733 87.8067 115.4 87.4133 115.54 86.5C115.967 86.9933 116.147 87.58 116.08 88.26C116.06 88.5111 115.903 88.8158 115.64 89.11C114.78 90.0567 114.997 90.8533 116.29 91.5C115.137 92.7467 113.707 93.5667 112 93.96C110.06 94.2667 108.117 94.5667 106.17 94.86C106.09 94.8733 105.477 94.9 104.33 94.94C103.477 94.9667 102.7 95.25 102 95.79L98.74 95.39C98.2933 95.33 97.9667 95.3233 97.76 95.37C95.5267 95.81 94.44 94.8533 94.5 92.5C94.5267 91.5333 94.1233 91.1167 93.29 91.25L95.54 83.75Z" fill="#f5b42d" fill-rule="nonzero" opacity="1" stroke="none" vectornator:layerName="path"/>
<path d="M96.75 84.96C100.817 86.5333 104.65 87.13 108.25 86.75C110.357 86.53 112.12 86.84 113.54 87.68C107.22 88.52 101.643 88.19 96.81 86.69C95.3633 86.2367 95.3433 85.66 96.75 84.96Z" fill="#f0ce82" fill-rule="nonzero" opacity="1" stroke="none" vectornator:layerName="path"/>
<path d="M52.79 87.75L54.29 94L52.44 101.98C48.7933 102.627 45.0767 102.297 41.29 100.99C35.0967 98.7767 30.1467 99.9267 26.44 104.44C24.7867 106.447 24.4733 108.79 25.5 111.47C25.5813 111.695 25.5175 111.995 25.33 112.27C25.1967 112.47 25.1467 112.7 25.18 112.96C25.2097 113.237 25.4409 113.499 25.78 113.64C29.6133 115.267 33.6067 116.167 37.76 116.34L54.21 122.29C54.23 122.75 53.9933 123.333 53.5 124.04C52.2933 123.58 51.6267 124.067 51.5 125.5C51.3067 127.7 51.2333 129.027 51.28 129.48C48.9733 136.753 44.2133 140.343 37 140.25C34.9933 140.223 33.5767 140.487 32.75 141.04C31.8233 140.833 30.9733 140.963 30.2 141.43C29.4533 141.883 29.4867 142.217 30.3 142.43L39 144.71C33.2333 144.317 27.5567 144.7 21.97 145.86C19.2967 142.813 17.6367 139.38 16.99 135.56C16.4367 132.247 16.7567 128.587 17.95 124.58C19.0367 120.947 20.6467 117.56 22.78 114.42C23.0565 114.009 23.1672 113.509 23.09 113.02C22.13 107.24 22.1967 102.17 23.29 97.81C24.0367 94.8567 24.8433 91.92 25.71 89C33.1833 91.04 40.7867 92.12 48.52 92.24C49.9467 92.26 50.9833 91.9233 51.63 91.23C52.4433 90.35 52.83 89.19 52.79 87.75Z" fill="#f3ac40" fill-rule="nonzero" opacity="1" stroke="none" vectornator:layerName="path"/>
<path d="M93.29 91.25C94.1233 91.1167 94.5267 91.5333 94.5 92.5C94.44 94.8533 95.5267 95.81 97.76 95.37C97.9667 95.3233 98.2933 95.33 98.74 95.39L102 95.79L102 95.96L95.47 98.77C95.1547 98.9054 94.8913 99.1688 94.73 99.51C93.1167 102.917 92.3733 106.337 92.5 109.77C92.5133 110.183 92.6833 110.257 93.01 109.99C94.0567 109.13 95.0267 109.17 95.92 110.11C96.1432 110.34 96.4439 110.467 96.75 110.46C98.0233 110.433 98.92 110.967 99.44 112.06C100.153 113.553 101.007 114.63 102 115.29C96.7733 118.057 94.8533 122.357 96.24 128.19C96.6667 129.99 97.92 131.26 100 132C103.827 133.367 107.403 133.75 110.73 133.15C113.53 132.65 116.593 132.317 119.92 132.15C120.306 132.127 120.651 132.391 120.73 132.77C121.297 135.45 121.457 138.193 121.21 141C121.097 142.26 120.703 143.33 120.03 144.21C119.31 145.15 118.467 145.983 117.5 146.71C117.08 146.657 116.747 146.74 116.5 146.96C114.553 147.667 111.887 148.013 108.5 148C103.607 147.98 99.6467 146.477 96.62 143.49C96.5595 143.43 96.4812 143.392 96.4072 143.386C96.3332 143.38 96.2717 143.408 96.24 143.46C96.1933 143.533 96.1833 143.63 96.21 143.75L95.29 143.75L94.96 139C95.14 131.873 94.0067 125.03 91.56 118.47C91.1267 109.357 91.7033 100.283 93.29 91.25Z" fill="#fdda74" fill-rule="nonzero" opacity="1" stroke="none" vectornator:layerName="path"/>
<path d="M118.35 91.17C119.123 92.6033 119.447 94.0233 119.32 95.43C119.36 100.377 120.11 105.19 121.57 109.87C120.41 111.437 120.407 113.127 121.56 114.94C124.54 119.607 126.173 124.46 126.46 129.5L123.89 127.28C123.557 126.993 123.343 126.743 123.25 126.53C122.143 124.003 121.543 121.597 121.45 119.31C121.437 118.99 121.347 118.677 121.18 118.37C120.42 116.963 119.547 114.57 118.56 111.19C118.113 109.637 117.343 109.477 116.25 110.71C117.223 107.53 116.877 104.483 115.21 101.57C116.37 97.5033 115.3 94.9667 112 93.96C113.707 93.5667 115.137 92.7467 116.29 91.5C116.81 91.26 117.497 91.15 118.35 91.17Z" fill="#f3b44e" fill-rule="nonzero" opacity="1" stroke="none" vectornator:layerName="path"/>
<path d="M60.41 94.1C61.0967 95.9333 61.3733 98.0333 61.24 100.4C58.8133 102.887 58.5667 105.683 60.5 108.79C62.5533 115.39 63.0533 121.96 62 128.5C61.78 129.847 61.23 131.053 60.35 132.12L59.75 133.04C58.71 132.4 57.98 132.573 57.56 133.56C56.1 137.02 55.1633 140.95 54.75 145.35L53.25 143.96L52.04 134.75C52.0333 131.103 52.52 127.533 53.5 124.04C53.9933 123.333 54.23 122.75 54.21 122.29C56.2633 117.303 56.4233 112.643 54.69 108.31C53.4033 105.11 52.6533 103 52.44 101.98L54.29 94L54.5 94.33C54.547 94.401 54.6239 94.447 54.7057 94.4529C54.7876 94.4589 54.8639 94.4242 54.91 94.36C55.4433 93.64 55.8633 93.6733 56.17 94.46C56.2884 94.7761 56.5284 95.0008 56.8 95.05C58.22 95.31 59.4233 94.9933 60.41 94.1Z" fill="#510703" fill-rule="nonzero" opacity="1" stroke="none" vectornator:layerName="path"/>
<path d="M112 93.96C115.3 94.9667 116.37 97.5033 115.21 101.57C115.197 100.823 115.157 100.97 115.09 102.01C115.05 102.59 115.007 103.17 114.96 103.75C114.733 103.463 114.65 103.13 114.71 102.75C114.883 100.637 113.98 99.3867 112 99C109.907 98.5867 108.12 98.0167 106.64 97.29C106.429 97.1877 106.213 96.9357 106.04 96.59C105.787 96.0833 105.273 95.8867 104.5 96C104.16 96.0467 103.327 96.0333 102 95.96L102 95.79C102.7 95.25 103.477 94.9667 104.33 94.94C105.477 94.9 106.09 94.8733 106.17 94.86C108.117 94.5667 110.06 94.2667 112 93.96Z" fill="#fbe8a4" fill-rule="nonzero" opacity="1" stroke="none" vectornator:layerName="path"/>
<path d="M119.32 95.43C121.993 100.023 122.743 104.837 121.57 109.87C120.11 105.19 119.36 100.377 119.32 95.43Z" fill="#fccf73" fill-rule="nonzero" opacity="1" stroke="none" vectornator:layerName="path"/>
<path d="M102 95.96C103.327 96.0333 104.16 96.0467 104.5 96C105.273 95.8867 105.787 96.0833 106.04 96.59C106.213 96.9357 106.429 97.1877 106.64 97.29C108.12 98.0167 109.907 98.5867 112 99C113.98 99.3867 114.883 100.637 114.71 102.75L109.55 102.29C109.269 102.265 108.961 102.415 108.73 102.69C108.083 103.47 107.193 104.76 106.06 106.56C105.067 108.14 105.013 109.423 105.9 110.41C106.4 110.97 107.233 111.25 108.4 111.25C109.333 111.25 110.27 111.25 111.21 111.25L111.25 111.96C108.03 112.707 104.947 113.817 102 115.29C101.007 114.63 100.153 113.553 99.44 112.06C98.92 110.967 98.0233 110.433 96.75 110.46C96.4439 110.467 96.1432 110.34 95.92 110.11C95.0267 109.17 94.0567 109.13 93.01 109.99C92.6833 110.257 92.5133 110.183 92.5 109.77C92.3733 106.337 93.1167 102.917 94.73 99.51C94.8913 99.1688 95.1547 98.9054 95.47 98.77L102 95.96Z" fill="#faf4af" fill-rule="nonzero" opacity="1" stroke="none" vectornator:layerName="path"/>
<path d="M81.79 97.75C84.5167 99.43 86.0867 101.43 86.5 103.75C86.7733 105.27 86.5933 107.77 85.96 111.25C85.3867 113.803 84.47 116.22 83.21 118.5C82.4833 119.067 81.8467 119.097 81.3 118.59C81.2067 118.497 80.9733 118.017 80.6 117.15C80.38 116.637 80.01 116.15 79.49 115.69C79.13 114.43 78.45 113.34 77.45 112.42C76.65 111.693 75.5233 111.253 74.07 111.1C71.8033 110.86 69.53 110.673 67.25 110.54C70.4833 110.493 73.5867 110.103 76.56 109.37C76.9996 109.265 77.302 108.861 77.28 108.41C77.1933 106.597 76.7133 105.117 75.84 103.97C75.4067 103.397 74.5033 102.853 73.13 102.34C72.1433 101.973 71.17 101.48 70.21 100.86C74.4167 100.887 78.2767 99.85 81.79 97.75Z" fill="#f5dc97" fill-rule="nonzero" opacity="1" stroke="none" vectornator:layerName="path"/>
<path d="M41.29 100.99C39.1233 100.93 38.77 101.12 40.23 101.56C42.9633 102.38 45.7067 103.157 48.46 103.89C49.32 104.123 50.0733 104.113 50.72 103.86C50.9177 103.781 51.1407 103.798 51.3245 103.905C51.5082 104.013 51.632 104.199 51.66 104.41C52.2867 108.637 50.7967 111.647 47.19 113.44C43.6767 115.18 40.5333 116.147 37.76 116.34C33.6067 116.167 29.6133 115.267 25.78 113.64C25.4409 113.499 25.2097 113.237 25.18 112.96C25.1467 112.7 25.1967 112.47 25.33 112.27C25.5175 111.995 25.5813 111.695 25.5 111.47C24.4733 108.79 24.7867 106.447 26.44 104.44C30.1467 99.9267 35.0967 98.7767 41.29 100.99Z" fill="#fefde4" fill-rule="nonzero" opacity="1" stroke="none" vectornator:layerName="path"/>
<path d="M61.24 100.4L70.21 100.86C71.17 101.48 72.1433 101.973 73.13 102.34C74.5033 102.853 75.4067 103.397 75.84 103.97C76.7133 105.117 77.1933 106.597 77.28 108.41C77.302 108.861 76.9996 109.265 76.56 109.37C73.5867 110.103 70.4833 110.493 67.25 110.54L62.76 110.27C62.4755 110.251 62.2293 110.053 62.14 109.77C61.8933 108.983 61.3467 108.657 60.5 108.79C58.5667 105.683 58.8133 102.887 61.24 100.4Z" fill="#fefde4" fill-rule="nonzero" opacity="1" stroke="none" vectornator:layerName="path"/>
<path d="M41.29 100.99C45.0767 102.297 48.7933 102.627 52.44 101.98C52.6533 103 53.4033 105.11 54.69 108.31C56.4233 112.643 56.2633 117.303 54.21 122.29L37.76 116.34C40.5333 116.147 43.6767 115.18 47.19 113.44C50.7967 111.647 52.2867 108.637 51.66 104.41C51.632 104.199 51.5082 104.013 51.3245 103.905C51.1407 103.798 50.9177 103.781 50.72 103.86C50.0733 104.113 49.32 104.123 48.46 103.89C45.7067 103.157 42.9633 102.38 40.23 101.56C38.77 101.12 39.1233 100.93 41.29 100.99Z" fill="#fccf73" fill-rule="nonzero" opacity="1" stroke="none" vectornator:layerName="path"/>
<path d="M115.21 101.57C116.877 104.483 117.223 107.53 116.25 110.71C114.723 111.663 113.057 112.08 111.25 111.96L111.21 111.25C114.777 110.043 116.027 107.543 114.96 103.75C115.007 103.17 115.05 102.59 115.09 102.01C115.157 100.97 115.197 100.823 115.21 101.57Z" fill="#fccf73" fill-rule="nonzero" opacity="1" stroke="none" vectornator:layerName="path"/>
<path d="M114.71 102.75C114.65 103.13 114.733 103.463 114.96 103.75C116.027 107.543 114.777 110.043 111.21 111.25C110.27 111.25 109.333 111.25 108.4 111.25C107.233 111.25 106.4 110.97 105.9 110.41C105.013 109.423 105.067 108.14 106.06 106.56C107.193 104.76 108.083 103.47 108.73 102.69C108.961 102.415 109.269 102.265 109.55 102.29L114.71 102.75Z" fill="#ffffff" fill-rule="nonzero" opacity="1" stroke="none" vectornator:layerName="path"/>
<path d="M60.5 108.79C61.3467 108.657 61.8933 108.983 62.14 109.77C62.2293 110.053 62.4755 110.251 62.76 110.27L67.25 110.54C69.53 110.673 71.8033 110.86 74.07 111.1C75.5233 111.253 76.65 111.693 77.45 112.42C78.45 113.34 79.13 114.43 79.49 115.69C79.47 118.243 80.14 120.61 81.5 122.79L83.75 127.96C82.9233 128.287 82.9333 128.957 83.78 129.97C84.2522 130.541 84.2221 131.375 83.71 131.91C75.93 140.003 68.1433 140.073 60.35 132.12C61.23 131.053 61.78 129.847 62 128.5C63.0533 121.96 62.5533 115.39 60.5 108.79Z" fill="#efc787" fill-rule="nonzero" opacity="1" stroke="none" vectornator:layerName="path"/>
<path d="M126.46 129.5C127.587 134.307 126.37 138.743 122.81 142.81C121.09 144.783 119.82 146.11 119 146.79L117.5 146.71C118.467 145.983 119.31 145.15 120.03 144.21C120.703 143.33 121.097 142.26 121.21 141C121.457 138.193 121.297 135.45 120.73 132.77C120.651 132.391 120.306 132.127 119.92 132.15C116.593 132.317 113.53 132.65 110.73 133.15C107.403 133.75 103.827 133.367 100 132C97.92 131.26 96.6667 129.99 96.24 128.19C94.8533 122.357 96.7733 118.057 102 115.29C104.947 113.817 108.03 112.707 111.25 111.96C113.057 112.08 114.723 111.663 116.25 110.71C117.343 109.477 118.113 109.637 118.56 111.19C119.547 114.57 120.42 116.963 121.18 118.37C121.347 118.677 121.437 118.99 121.45 119.31C121.543 121.597 122.143 124.003 123.25 126.53C123.343 126.743 123.557 126.993 123.89 127.28L126.46 129.5Z" fill="#eda037" fill-rule="nonzero" opacity="1" stroke="none" vectornator:layerName="path"/>
<path d="M85.96 111.25C85.8733 112.643 86.9133 113.3 89.08 113.22C89.3733 113.21 89.6314 113.418 89.69 113.71C89.8967 114.763 89.8567 115.567 89.57 116.12C89.3967 116.453 89.49 116.567 89.85 116.46C90.97 116.14 91.54 116.81 91.56 118.47C94.0067 125.03 95.14 131.873 94.96 139C93.6533 139.173 93.1733 139.87 93.52 141.09C93.6267 141.45 93.65 141.77 93.59 142.05C93.17 144.017 92.62 145.95 91.94 147.85C91.7733 148.31 91.2967 149.12 90.51 150.28C89.9633 151.087 89.6133 151.993 89.46 153L87.96 151.75C87.1067 151.143 86.6 149.997 86.44 148.31C86.2867 146.723 86.3067 145.133 86.5 143.54C87.6467 140.493 88.1267 137.377 87.94 134.19C87.8667 132.857 87.41 131.69 86.57 130.69C85.73 129.69 84.79 128.78 83.75 127.96L81.5 122.79C82.66 121.61 83.23 120.18 83.21 118.5C84.47 116.22 85.3867 113.803 85.96 111.25Z" fill="#510703" fill-rule="nonzero" opacity="1" stroke="none" vectornator:layerName="path"/>
<path d="M79.49 115.69C80.01 116.15 80.38 116.637 80.6 117.15C80.9733 118.017 81.2067 118.497 81.3 118.59C81.8467 119.097 82.4833 119.067 83.21 118.5C83.23 120.18 82.66 121.61 81.5 122.79C80.14 120.61 79.47 118.243 79.49 115.69Z" fill="#d27b27" fill-rule="nonzero" opacity="1" stroke="none" vectornator:layerName="path"/>
<path d="M53.5 124.04C52.52 127.533 52.0333 131.103 52.04 134.75C51.9467 136.843 51.9067 137.01 51.92 135.25C51.9333 133.303 51.72 131.38 51.28 129.48C51.2333 129.027 51.3067 127.7 51.5 125.5C51.6267 124.067 52.2933 123.58 53.5 124.04Z" fill="#b55c15" fill-rule="nonzero" opacity="1" stroke="none" vectornator:layerName="path"/>
<path d="M83.75 127.96C84.79 128.78 85.73 129.69 86.57 130.69C87.41 131.69 87.8667 132.857 87.94 134.19C88.1267 137.377 87.6467 140.493 86.5 143.54C86.5267 144.36 86.2967 144.823 85.81 144.93C85.7047 144.958 85.5898 144.92 85.4929 144.827C85.3961 144.734 85.3262 144.594 85.3 144.44C85.2 143.773 84.6833 143.543 83.75 143.75C77.0633 145.23 69.9833 145.783 62.51 145.41C60.4767 143.75 59.14 142.113 58.5 140.5C57.54 138.093 57.9567 135.607 59.75 133.04L60.35 132.12C68.1433 140.073 75.93 140.003 83.71 131.91C84.2221 131.375 84.2522 130.541 83.78 129.97C82.9333 128.957 82.9233 128.287 83.75 127.96Z" fill="#faedd2" fill-rule="nonzero" opacity="1" stroke="none" vectornator:layerName="path"/>
<path d="M51.28 129.48C51.72 131.38 51.9333 133.303 51.92 135.25C51.9067 137.01 51.9467 136.843 52.04 134.75L53.25 143.96L50.5 144.21C50.7133 143.497 50.66 142.963 50.34 142.61C50.1067 142.35 49.68 142.263 49.06 142.35C43.5267 143.117 38.09 142.68 32.75 141.04C33.5767 140.487 34.9933 140.223 37 140.25C44.2133 140.343 48.9733 136.753 51.28 129.48Z" fill="#d27b27" fill-rule="nonzero" opacity="1" stroke="none" vectornator:layerName="path"/>
<path d="M32.75 141.04C38.09 142.68 43.5267 143.117 49.06 142.35C49.68 142.263 50.1067 142.35 50.34 142.61C50.66 142.963 50.7133 143.497 50.5 144.21C46.6867 144.917 42.8533 145.083 39 144.71L30.3 142.43C29.4867 142.217 29.4533 141.883 30.2 141.43C30.9733 140.963 31.8233 140.833 32.75 141.04Z" fill="#b55c15" fill-rule="nonzero" opacity="1" stroke="none" vectornator:layerName="path"/>
<path d="M116.5 146.96C117.107 146.987 117.44 147.347 117.5 148.04C110.627 150.36 104.107 149.7 97.94 146.06C97.1667 145.607 96.59 144.837 96.21 143.75C96.1833 143.63 96.1933 143.533 96.24 143.46C96.2717 143.408 96.3332 143.38 96.4072 143.386C96.4812 143.392 96.5595 143.43 96.62 143.49C99.6467 146.477 103.607 147.98 108.5 148C111.887 148.013 114.553 147.667 116.5 146.96Z" fill="#d27b27" fill-rule="nonzero" opacity="1" stroke="none" vectornator:layerName="path"/>
<path d="M86.5 143.54C86.3067 145.133 86.2867 146.723 86.44 148.31C86.6 149.997 87.1067 151.143 87.96 151.75C83.6 153.497 79.26 154.267 74.94 154.06C70.62 153.853 66.1533 152.917 61.54 151.25L62.51 145.41C69.9833 145.783 77.0633 145.23 83.75 143.75C84.6833 143.543 85.2 143.773 85.3 144.44C85.3262 144.594 85.3961 144.734 85.4929 144.827C85.5898 144.92 85.7047 144.958 85.81 144.93C86.2967 144.823 86.5267 144.36 86.5 143.54Z" fill="#d9c0a0" fill-rule="nonzero" opacity="1" stroke="none" vectornator:layerName="path"/>
<path d="M95.29 143.75L96.21 143.75C96.59 144.837 97.1667 145.607 97.94 146.06C104.107 149.7 110.627 150.36 117.5 148.04L118.5 147.96C121.04 150.02 122.72 152.617 123.54 155.75C122.7 157.55 121.45 158.987 119.79 160.06C117.677 161.42 115.497 162.663 113.25 163.79C107.523 164.877 102.357 163.767 97.75 160.46C97.2167 157.8 96.6133 155.583 95.94 153.81C94.64 150.423 94.4233 147.07 95.29 143.75Z" fill="#fbebbb" fill-rule="nonzero" opacity="1" stroke="none" vectornator:layerName="path"/>
<path d="M53.25 143.96L54.75 145.35C55.5567 147.27 55.89 149.403 55.75 151.75C55.7033 152.537 55.01 154.933 53.67 158.94C48.7433 162.673 43.6033 164.693 38.25 165C32.5167 165.327 27.03 163.577 21.79 159.75L19.47 155.18C18.7233 153.72 19.11 152.567 20.63 151.72C23.0567 150.367 23.5033 148.413 21.97 145.86C27.5567 144.7 33.2333 144.317 39 144.71C42.8533 145.083 46.6867 144.917 50.5 144.21L53.25 143.96Z" fill="#fbe8a4" fill-rule="nonzero" opacity="1" stroke="none" vectornator:layerName="path"/>
<path d="M117.5 146.71L119 146.79C118.64 147.097 118.473 147.487 118.5 147.96L117.5 148.04C117.44 147.347 117.107 146.987 116.5 146.96C116.747 146.74 117.08 146.657 117.5 146.71Z" fill="#74401a" fill-rule="nonzero" opacity="1" stroke="none" vectornator:layerName="path"/>
<path d="M61.54 151.25C66.1533 152.917 70.62 153.853 74.94 154.06C79.26 154.267 83.6 153.497 87.96 151.75L89.46 153C91.8533 156.327 91.77 159.66 89.21 163L87.46 165.25C86.4467 166.07 85.2933 166.47 84 166.45C77.1933 166.343 70.4633 165.73 63.81 164.61C59.9567 160.897 59.2 156.443 61.54 151.25Z" fill="#faedd2" fill-rule="nonzero" opacity="1" stroke="none" vectornator:layerName="path"/>
<path d="M123.54 155.75C124.007 157.75 123.98 159.75 123.46 161.75C121.513 161.637 119.657 162.367 117.89 163.94C117.017 164.713 116.01 165.237 114.87 165.51C113.55 165.83 113.01 165.257 113.25 163.79C115.497 162.663 117.677 161.42 119.79 160.06C121.45 158.987 122.7 157.55 123.54 155.75Z" fill="#74401a" fill-rule="nonzero" opacity="1" stroke="none" vectornator:layerName="path"/>
<path d="M131.46 158.25C132.507 160.517 134.353 161.53 137 161.29C136.947 161.67 137.043 161.99 137.29 162.25C135.897 169.083 132.907 175.137 128.32 180.41C127.527 182.423 126.24 183.037 124.46 182.25C124.447 181.797 124.69 181.277 125.19 180.69C129.403 175.69 131.327 169.71 130.96 162.75L131.46 158.25Z" fill="#e9d8d0" fill-rule="nonzero" opacity="1" stroke="none" vectornator:layerName="path"/>
<path d="M53.67 158.94C53.51 160.18 53.87 161.373 54.75 162.52C59.07 168.167 59.69 173.82 56.61 179.48C55.45 181.6 53.7167 183.273 51.41 184.5C45.13 187.827 38.3933 188.323 31.2 185.99C32.52 186.063 33.4533 185.713 34 184.94C34.182 184.679 34.4748 184.542 34.75 184.59C40.6633 185.537 45.6933 184.07 49.84 180.19L52.57 171.73C52.6919 171.353 52.7064 171.009 52.61 170.78L50.74 166.43C50.6838 166.3 50.5773 166.199 50.444 166.148C50.3107 166.098 50.1616 166.102 50.03 166.16L43 169.21C34.92 170.21 27.8567 168.023 21.81 162.65C22.29 162.083 22.2833 161.117 21.79 159.75C27.03 163.577 32.5167 165.327 38.25 165C43.6033 164.693 48.7433 162.673 53.67 158.94Z" fill="#d27b27" fill-rule="nonzero" opacity="1" stroke="none" vectornator:layerName="path"/>
<path d="M125.25 192.29C127.263 192.337 127.76 192.267 126.74 192.08C126.287 191.993 126.12 191.827 126.24 191.58C126.333 191.38 126.609 191.25 126.94 191.25C130.087 191.25 133.237 191.25 136.39 191.25C136.557 191.25 136.797 191.277 137.11 191.33C137.923 191.463 138.023 191.147 137.41 190.38C137.217 190.144 137.209 189.809 137.39 189.57C138.517 188.103 139.113 186.6 139.18 185.06C139.192 184.771 139.07 184.462 138.84 184.2C138.273 183.54 138.33 183.267 139.01 183.38C139.353 183.436 139.675 183.354 139.87 183.16C140.683 182.34 140.31 182.107 138.75 182.46C143.763 180.46 147.123 176.907 148.83 171.8C149.797 170.467 150.173 168.95 149.96 167.25L150.19 162.44C150.243 161.167 150.743 160.317 151.69 159.89C153.637 159.017 155.427 159.45 157.06 161.19C158.507 162.723 159.247 164.243 159.28 165.75C159.42 172.343 157.64 178.073 153.94 182.94C151.347 186.347 147.803 188.803 143.31 190.31C136.737 192.523 130.717 193.183 125.25 192.29Z" fill="#340201" fill-rule="nonzero" opacity="1" stroke="none" vectornator:layerName="path"/>
<path d="M97.75 160.46C102.357 163.767 107.523 164.877 113.25 163.79C113.01 165.257 113.55 165.83 114.87 165.51C116.01 165.237 117.017 164.713 117.89 163.94C119.657 162.367 121.513 161.637 123.46 161.75C121.907 168.283 119.337 174.38 115.75 180.04L114.75 179.96C115.59 176.913 115.78 173.86 115.32 170.8C115.087 169.207 114.517 168.04 113.61 167.3C112.537 166.427 111.187 165.973 109.56 165.94C105.18 165.847 101.1 164.493 97.32 161.88C97.3133 161.46 97.4567 160.987 97.75 160.46Z" fill="#ba8259" fill-rule="nonzero" opacity="1" stroke="none" vectornator:layerName="path"/>
<path d="M137 161.29C139.153 161.017 140.957 161.627 142.41 163.12C142.63 163.353 142.771 163.662 142.81 164C143.537 170.167 141.723 175.47 137.37 179.91C140.07 175.93 141.677 171.69 142.19 167.19C142.59 163.69 140.957 162.043 137.29 162.25C137.043 161.99 136.947 161.67 137 161.29Z" fill="#ba8259" fill-rule="nonzero" opacity="1" stroke="none" vectornator:layerName="path"/>
<path d="M97.32 161.88C101.1 164.493 105.18 165.847 109.56 165.94C111.187 165.973 112.537 166.427 113.61 167.3C114.517 168.04 115.087 169.207 115.32 170.8C115.78 173.86 115.59 176.913 114.75 179.96L110.43 183.39C109.729 183.943 108.648 183.864 107.83 183.2C106.37 182.007 104.737 181.237 102.93 180.89C102.717 180.85 102.42 180.72 102.04 180.5L97.74 177.97C96.6867 176.577 96.19 174.503 96.25 171.75C96.3433 167.39 96.7 164.1 97.32 161.88Z" fill="#f0ce82" fill-rule="nonzero" opacity="1" stroke="none" vectornator:layerName="path"/>
<path d="M137.29 162.25C140.957 162.043 142.59 163.69 142.19 167.19C141.677 171.69 140.07 175.93 137.37 179.91L134.9 183.06C134.72 183.293 134.77 183.377 135.05 183.31L138.75 182.46C140.31 182.107 140.683 182.34 139.87 183.16C139.675 183.354 139.353 183.436 139.01 183.38C138.33 183.267 138.273 183.54 138.84 184.2C139.07 184.462 139.192 184.771 139.18 185.06C139.113 186.6 138.517 188.103 137.39 189.57C137.209 189.809 137.217 190.144 137.41 190.38C138.023 191.147 137.923 191.463 137.11 191.33C136.797 191.277 136.557 191.25 136.39 191.25C133.237 191.25 130.087 191.25 126.94 191.25C126.609 191.25 126.333 191.38 126.24 191.58C126.12 191.827 126.287 191.993 126.74 192.08C127.76 192.267 127.263 192.337 125.25 192.29C122.41 192.07 119.96 191.173 117.9 189.6C118.12 188.393 118.553 187.327 119.2 186.4C119.387 186.133 119.503 185.837 119.55 185.51C119.83 183.343 121.147 182.243 123.5 182.21C126.4 184.503 128.007 183.903 128.32 180.41C132.907 175.137 135.897 169.083 137.29 162.25Z" fill="#510703" fill-rule="nonzero" opacity="1" stroke="none" vectornator:layerName="path"/>
<path d="M130.96 162.75C131.327 169.71 129.403 175.69 125.19 180.69C124.69 181.277 124.447 181.797 124.46 182.25C124.233 181.783 124.15 181.283 124.21 180.75C127.55 175.177 129.8 169.177 130.96 162.75Z" fill="#ba8259" fill-rule="nonzero" opacity="1" stroke="none" vectornator:layerName="path"/>
<path d="M21.81 162.65C27.8567 168.023 34.92 170.21 43 169.21C44.28 169.323 45.5267 169.203 46.74 168.85C47.7267 168.563 48.4167 168.457 48.81 168.53C49.8567 168.717 50.2533 169.457 50 170.75C49.3333 174.15 49.28 177.297 49.84 180.19C45.6933 184.07 40.6633 185.537 34.75 184.59C34.4748 184.542 34.182 184.679 34 184.94C33.4533 185.713 32.52 186.063 31.2 185.99L27.25 183.96C25.9967 182.24 24.4967 180.767 22.75 179.54C19.6367 174.507 19.3233 168.877 21.81 162.65Z" fill="#f3b44e" fill-rule="nonzero" opacity="1" stroke="none" vectornator:layerName="path"/>
<path d="M89.21 163C89.2567 164.413 88.6733 165.557 87.46 166.43L87.46 165.25L89.21 163Z" fill="#74401a" fill-rule="nonzero" opacity="1" stroke="none" vectornator:layerName="path"/>
<path d="M87.46 165.25L87.46 166.43L87.46 170.5C86.6133 170.52 86.0233 171 85.69 171.94C85.3167 172.98 84.5033 173.487 83.25 173.46C83.29 173.027 83.16 172.707 82.86 172.5C82.6733 172.367 82.3767 172.32 81.97 172.36C78.79 172.627 75.2167 172.423 71.25 171.75C70.17 171.563 69.6567 172.063 69.71 173.25L65.68 169.18L63.81 164.61C70.4633 165.73 77.1933 166.343 84 166.45C85.2933 166.47 86.4467 166.07 87.46 165.25Z" fill="#cea887" fill-rule="nonzero" opacity="1" stroke="none" vectornator:layerName="path"/>
<path d="M49.84 180.19C49.28 177.297 49.3333 174.15 50 170.75C50.2533 169.457 49.8567 168.717 48.81 168.53C48.4167 168.457 47.7267 168.563 46.74 168.85C45.5267 169.203 44.28 169.323 43 169.21L50.03 166.16C50.1616 166.102 50.3107 166.098 50.444 166.148C50.5773 166.199 50.6838 166.3 50.74 166.43L52.61 170.78C52.7064 171.009 52.6919 171.353 52.57 171.73L49.84 180.19Z" fill="#eda037" fill-rule="nonzero" opacity="1" stroke="none" vectornator:layerName="path"/>
<path d="M149.96 167.25C150.173 168.95 149.797 170.467 148.83 171.8L149.96 167.25Z" fill="#ba8259" fill-rule="nonzero" opacity="1" stroke="none" vectornator:layerName="path"/>
<path d="M65.68 169.18L69.71 173.25C70.8567 174.103 72.1167 174.547 73.49 174.58C75.0433 174.62 75.8867 174.643 76.02 174.65C78.5 174.857 80.91 174.46 83.25 173.46C84.5033 173.487 85.3167 172.98 85.69 171.94C86.0233 171 86.6133 170.52 87.46 170.5L89.26 178.03C89.6667 179.743 89.2167 181.16 87.91 182.28C85.4367 184.407 82.88 186.2 80.24 187.66C77.9333 188.927 75.6567 189.503 73.41 189.39C69.2967 189.183 65.62 187.663 62.38 184.83C62.1531 184.641 62.0764 184.322 62.19 184.04C64.0967 179.32 65.26 174.367 65.68 169.18Z" fill="#e2c5a9" fill-rule="nonzero" opacity="1" stroke="none" vectornator:layerName="path"/>
<path d="M83.25 173.46C80.91 174.46 78.5 174.857 76.02 174.65C75.8867 174.643 75.0433 174.62 73.49 174.58C72.1167 174.547 70.8567 174.103 69.71 173.25C69.6567 172.063 70.17 171.563 71.25 171.75C75.2167 172.423 78.79 172.627 81.97 172.36C82.3767 172.32 82.6733 172.367 82.86 172.5C83.16 172.707 83.29 173.027 83.25 173.46Z" fill="#ba8259" fill-rule="nonzero" opacity="1" stroke="none" vectornator:layerName="path"/>
<path d="M97.74 177.97L102.04 180.5C102.42 180.72 102.717 180.85 102.93 180.89C104.737 181.237 106.37 182.007 107.83 183.2C108.648 183.864 109.729 183.943 110.43 183.39L114.75 179.96L115.75 180.04C114.117 182.367 112.033 184.2 109.5 185.54C105.507 185.927 101.507 186.247 97.5 186.5C95.6133 186.62 94.4333 186.037 93.96 184.75C94.7067 182.17 95.9667 179.91 97.74 177.97Z" fill="#d27b27" fill-rule="nonzero" opacity="1" stroke="none" vectornator:layerName="path"/>
<path d="M22.75 179.54C24.4967 180.767 25.9967 182.24 27.25 183.96C25.0767 183.193 23.5767 181.72 22.75 179.54Z" fill="#74401a" fill-rule="nonzero" opacity="1" stroke="none" vectornator:layerName="path"/>
<path d="M128.32 180.41C128.007 183.903 126.4 184.503 123.5 182.21C123.527 181.637 123.763 181.15 124.21 180.75C124.15 181.283 124.233 181.783 124.46 182.25C126.24 183.037 127.527 182.423 128.32 180.41Z" fill="#74401a" fill-rule="nonzero" opacity="1" stroke="none" vectornator:layerName="path"/>
<path d="M93.96 184.75C94.4333 186.037 95.6133 186.62 97.5 186.5C101.507 186.247 105.507 185.927 109.5 185.54C105.86 187.467 101.983 188.323 97.87 188.11C97.31 188.083 96.4 188.107 95.14 188.18C92.7467 188.32 92.3533 187.177 93.96 184.75Z" fill="#b55c15" fill-rule="nonzero" opacity="1" stroke="none" vectornator:layerName="path"/>
<path d="M22.77 190.72C29.9767 195.047 37.7333 196.417 46.04 194.83C37.42 197.543 29.6633 196.173 22.77 190.72Z" fill="#ba8259" fill-rule="nonzero" opacity="1" stroke="none" vectornator:layerName="path"/>
<path d="M88 192.54C93.2933 194.173 98.71 194.923 104.25 194.79C98.4833 196.183 93.0667 195.433 88 192.54Z" fill="#ba8259" fill-rule="nonzero" opacity="1" stroke="none" vectornator:layerName="path"/>
<path d="M65.5 196.04L69.25 197.21C68.4567 197.317 67.6933 197.23 66.96 196.95C66.7133 196.857 66.3933 196.813 66 196.82C65.5 196.833 65.3333 196.573 65.5 196.04Z" fill="#ba8259" fill-rule="nonzero" opacity="1" stroke="none" vectornator:layerName="path"/>
<path d="M78.36 196.78C77.5867 197.58 76.55 197.807 75.25 197.46L78.36 196.78Z" fill="#ba8259" fill-rule="nonzero" opacity="1" stroke="none" vectornator:layerName="path"/>
</g>
</svg>
